M48
; DRILL file {KiCad (5.1.0)-1} date 3/31/2019 11:35:46 AM
; FORMAT={-:-/ absolute / metric / decimal}
; #@! TF.CreationDate,2019-03-31T11:35:46-04:00
; #@! TF.GenerationSoftware,Kicad,Pcbnew,(5.1.0)-1
; #@! TF.FileFunction,Plated,1,2,PTH
FMAT,2
METRIC
T1C0.400
T2C1.000
T3C1.100
%
G90
G05
T1
X89.5Y-118.0
X89.662Y-81.534
X89.662Y-98.552
X96.266Y-81.534
X96.5Y-118.25
X97.5Y-84.75
X98.906Y-125.63
X99.695Y-112.522
X100.25Y-118.25
X100.75Y-88.5
X101.75Y-86.0
X103.5Y-129.75
X104.0Y-134.5
X107.188Y-74.041
X107.25Y-99.5
X107.5Y-134.5
X107.95Y-125.476
X108.204Y-83.82
X109.25Y-133.25
X110.109Y-127.889
X111.252Y-84.836
X112.268Y-67.056
X112.268Y-122.174
X113.157Y-73.787
X113.792Y-120.142
X114.007Y-97.282
X114.25Y-134.5
X115.951Y-106.045
X117.348Y-79.375
X117.75Y-134.5
X118.618Y-125.476
X119.761Y-128.397
X120.5Y-131.25
X121.158Y-117.094
X122.428Y-108.204
X123.0Y-134.0
X124.0Y-93.25
X124.25Y-137.75
X126.746Y-120.904
X127.75Y-134.25
T2
X136.906Y-58.674
X136.906Y-61.214
X136.906Y-63.754
X136.906Y-66.294
X136.906Y-68.834
X136.906Y-71.374
X136.906Y-73.914
X136.906Y-76.454
X136.906Y-78.994
X136.906Y-81.534
X136.906Y-84.074
X136.906Y-86.614
X136.906Y-89.154
X136.906Y-91.694
X136.906Y-94.234
X136.906Y-96.774
X136.906Y-99.314
X136.906Y-101.854
X136.906Y-104.394
X136.906Y-106.934
X136.906Y-109.474
X136.906Y-112.014
X136.906Y-114.554
X136.906Y-117.094
X136.906Y-119.634
X136.906Y-122.174
X136.906Y-124.714
X136.906Y-127.254
X136.906Y-129.794
X136.906Y-132.334
X136.906Y-134.874
X136.906Y-137.414
X136.906Y-139.954
X125.222Y-63.5
X125.222Y-66.04
X125.222Y-68.58
X125.222Y-71.12
X97.028Y-122.555
X99.568Y-122.555
X102.108Y-122.555
X104.648Y-122.555
X86.614Y-58.674
X86.614Y-61.214
X86.614Y-63.754
X86.614Y-66.294
X86.614Y-68.834
X86.614Y-71.374
X86.614Y-73.914
X86.614Y-76.454
X86.614Y-78.994
X86.614Y-81.534
X86.614Y-84.074
X86.614Y-86.614
X86.614Y-89.154
X86.614Y-91.694
X86.614Y-94.234
X86.614Y-96.774
X86.614Y-99.314
X86.614Y-101.854
X86.614Y-104.394
X86.614Y-106.934
X86.614Y-109.474
X86.614Y-112.014
X86.614Y-114.554
X86.614Y-117.094
X86.614Y-119.634
X86.614Y-122.174
X86.614Y-124.714
X86.614Y-127.254
X86.614Y-129.794
X86.614Y-132.334
X86.614Y-134.874
X86.614Y-137.414
X86.614Y-139.954
X102.75Y-136.46
X102.75Y-139.0
X105.29Y-136.46
X105.29Y-139.0
X107.83Y-136.46
X107.83Y-139.0
X110.37Y-136.46
X110.37Y-139.0
X112.91Y-136.46
X112.91Y-139.0
X115.45Y-136.46
X115.45Y-139.0
X117.99Y-136.46
X117.99Y-139.0
X120.53Y-136.46
X120.53Y-139.0
T3
X104.648Y-112.268
X104.648Y-116.768
X111.148Y-112.268
X111.148Y-116.768
X103.378Y-76.708
X103.378Y-81.208
X109.878Y-76.708
X109.878Y-81.208
T0
M30
