G04 #@! TF.GenerationSoftware,KiCad,Pcbnew,(5.1.0)-1*
G04 #@! TF.CreationDate,2019-03-31T01:00:59-04:00*
G04 #@! TF.ProjectId,MiniProjectBoardProject,4d696e69-5072-46f6-9a65-6374426f6172,rev?*
G04 #@! TF.SameCoordinates,Original*
G04 #@! TF.FileFunction,Legend,Top*
G04 #@! TF.FilePolarity,Positive*
%FSLAX46Y46*%
G04 Gerber Fmt 4.6, Leading zero omitted, Abs format (unit mm)*
G04 Created by KiCad (PCBNEW (5.1.0)-1) date 2019-03-31 01:00:59*
%MOMM*%
%LPD*%
G04 APERTURE LIST*
%ADD10C,0.125000*%
%ADD11C,0.150000*%
%ADD12C,0.300000*%
%ADD13C,0.120000*%
G04 APERTURE END LIST*
D10*
X122166142Y-63535714D02*
X122547095Y-63535714D01*
X122356619Y-63726190D02*
X122356619Y-63345238D01*
X122737571Y-63226190D02*
X123047095Y-63226190D01*
X122880428Y-63416666D01*
X122951857Y-63416666D01*
X122999476Y-63440476D01*
X123023285Y-63464285D01*
X123047095Y-63511904D01*
X123047095Y-63630952D01*
X123023285Y-63678571D01*
X122999476Y-63702380D01*
X122951857Y-63726190D01*
X122809000Y-63726190D01*
X122761380Y-63702380D01*
X122737571Y-63678571D01*
X123189952Y-63226190D02*
X123356619Y-63726190D01*
X123523285Y-63226190D01*
X122189952Y-66393190D02*
X122189952Y-65893190D01*
X122380428Y-65893190D01*
X122428047Y-65917000D01*
X122451857Y-65940809D01*
X122475666Y-65988428D01*
X122475666Y-66059857D01*
X122451857Y-66107476D01*
X122428047Y-66131285D01*
X122380428Y-66155095D01*
X122189952Y-66155095D01*
X122856619Y-66131285D02*
X122928047Y-66155095D01*
X122951857Y-66178904D01*
X122975666Y-66226523D01*
X122975666Y-66297952D01*
X122951857Y-66345571D01*
X122928047Y-66369380D01*
X122880428Y-66393190D01*
X122689952Y-66393190D01*
X122689952Y-65893190D01*
X122856619Y-65893190D01*
X122904238Y-65917000D01*
X122928047Y-65940809D01*
X122951857Y-65988428D01*
X122951857Y-66036047D01*
X122928047Y-66083666D01*
X122904238Y-66107476D01*
X122856619Y-66131285D01*
X122689952Y-66131285D01*
X123404238Y-65893190D02*
X123309000Y-65893190D01*
X123261380Y-65917000D01*
X123237571Y-65940809D01*
X123189952Y-66012238D01*
X123166142Y-66107476D01*
X123166142Y-66297952D01*
X123189952Y-66345571D01*
X123213761Y-66369380D01*
X123261380Y-66393190D01*
X123356619Y-66393190D01*
X123404238Y-66369380D01*
X123428047Y-66345571D01*
X123451857Y-66297952D01*
X123451857Y-66178904D01*
X123428047Y-66131285D01*
X123404238Y-66107476D01*
X123356619Y-66083666D01*
X123261380Y-66083666D01*
X123213761Y-66107476D01*
X123189952Y-66131285D01*
X123166142Y-66178904D01*
X122189952Y-69187190D02*
X122189952Y-68687190D01*
X122380428Y-68687190D01*
X122428047Y-68711000D01*
X122451857Y-68734809D01*
X122475666Y-68782428D01*
X122475666Y-68853857D01*
X122451857Y-68901476D01*
X122428047Y-68925285D01*
X122380428Y-68949095D01*
X122189952Y-68949095D01*
X122856619Y-68925285D02*
X122928047Y-68949095D01*
X122951857Y-68972904D01*
X122975666Y-69020523D01*
X122975666Y-69091952D01*
X122951857Y-69139571D01*
X122928047Y-69163380D01*
X122880428Y-69187190D01*
X122689952Y-69187190D01*
X122689952Y-68687190D01*
X122856619Y-68687190D01*
X122904238Y-68711000D01*
X122928047Y-68734809D01*
X122951857Y-68782428D01*
X122951857Y-68830047D01*
X122928047Y-68877666D01*
X122904238Y-68901476D01*
X122856619Y-68925285D01*
X122689952Y-68925285D01*
X123142333Y-68687190D02*
X123475666Y-68687190D01*
X123261380Y-69187190D01*
X122428047Y-70997000D02*
X122380428Y-70973190D01*
X122309000Y-70973190D01*
X122237571Y-70997000D01*
X122189952Y-71044619D01*
X122166142Y-71092238D01*
X122142333Y-71187476D01*
X122142333Y-71258904D01*
X122166142Y-71354142D01*
X122189952Y-71401761D01*
X122237571Y-71449380D01*
X122309000Y-71473190D01*
X122356619Y-71473190D01*
X122428047Y-71449380D01*
X122451857Y-71425571D01*
X122451857Y-71258904D01*
X122356619Y-71258904D01*
X122666142Y-71473190D02*
X122666142Y-70973190D01*
X122951857Y-71473190D01*
X122951857Y-70973190D01*
X123189952Y-71473190D02*
X123189952Y-70973190D01*
X123309000Y-70973190D01*
X123380428Y-70997000D01*
X123428047Y-71044619D01*
X123451857Y-71092238D01*
X123475666Y-71187476D01*
X123475666Y-71258904D01*
X123451857Y-71354142D01*
X123428047Y-71401761D01*
X123380428Y-71449380D01*
X123309000Y-71473190D01*
X123189952Y-71473190D01*
D11*
X106489714Y-118324380D02*
X106489714Y-119133904D01*
X106537333Y-119229142D01*
X106584952Y-119276761D01*
X106680190Y-119324380D01*
X106870666Y-119324380D01*
X106965904Y-119276761D01*
X107013523Y-119229142D01*
X107061142Y-119133904D01*
X107061142Y-118324380D01*
X107489714Y-119276761D02*
X107632571Y-119324380D01*
X107870666Y-119324380D01*
X107965904Y-119276761D01*
X108013523Y-119229142D01*
X108061142Y-119133904D01*
X108061142Y-119038666D01*
X108013523Y-118943428D01*
X107965904Y-118895809D01*
X107870666Y-118848190D01*
X107680190Y-118800571D01*
X107584952Y-118752952D01*
X107537333Y-118705333D01*
X107489714Y-118610095D01*
X107489714Y-118514857D01*
X107537333Y-118419619D01*
X107584952Y-118372000D01*
X107680190Y-118324380D01*
X107918285Y-118324380D01*
X108061142Y-118372000D01*
X108489714Y-118800571D02*
X108823047Y-118800571D01*
X108965904Y-119324380D02*
X108489714Y-119324380D01*
X108489714Y-118324380D01*
X108965904Y-118324380D01*
X109965904Y-119324380D02*
X109632571Y-118848190D01*
X109394476Y-119324380D02*
X109394476Y-118324380D01*
X109775428Y-118324380D01*
X109870666Y-118372000D01*
X109918285Y-118419619D01*
X109965904Y-118514857D01*
X109965904Y-118657714D01*
X109918285Y-118752952D01*
X109870666Y-118800571D01*
X109775428Y-118848190D01*
X109394476Y-118848190D01*
X103068619Y-84145380D02*
X102735285Y-83669190D01*
X102497190Y-84145380D02*
X102497190Y-83145380D01*
X102878142Y-83145380D01*
X102973380Y-83193000D01*
X103021000Y-83240619D01*
X103068619Y-83335857D01*
X103068619Y-83478714D01*
X103021000Y-83573952D01*
X102973380Y-83621571D01*
X102878142Y-83669190D01*
X102497190Y-83669190D01*
X103497190Y-83621571D02*
X103830523Y-83621571D01*
X103973380Y-84145380D02*
X103497190Y-84145380D01*
X103497190Y-83145380D01*
X103973380Y-83145380D01*
X104354333Y-84097761D02*
X104497190Y-84145380D01*
X104735285Y-84145380D01*
X104830523Y-84097761D01*
X104878142Y-84050142D01*
X104925761Y-83954904D01*
X104925761Y-83859666D01*
X104878142Y-83764428D01*
X104830523Y-83716809D01*
X104735285Y-83669190D01*
X104544809Y-83621571D01*
X104449571Y-83573952D01*
X104401952Y-83526333D01*
X104354333Y-83431095D01*
X104354333Y-83335857D01*
X104401952Y-83240619D01*
X104449571Y-83193000D01*
X104544809Y-83145380D01*
X104782904Y-83145380D01*
X104925761Y-83193000D01*
X105354333Y-83621571D02*
X105687666Y-83621571D01*
X105830523Y-84145380D02*
X105354333Y-84145380D01*
X105354333Y-83145380D01*
X105830523Y-83145380D01*
X106116238Y-83145380D02*
X106687666Y-83145380D01*
X106401952Y-84145380D02*
X106401952Y-83145380D01*
X102047333Y-135018428D02*
X102047333Y-134418428D01*
X102294952Y-134418428D01*
X102356857Y-134447000D01*
X102387809Y-134475571D01*
X102418761Y-134532714D01*
X102418761Y-134618428D01*
X102387809Y-134675571D01*
X102356857Y-134704142D01*
X102294952Y-134732714D01*
X102047333Y-134732714D01*
X103068761Y-134961285D02*
X103037809Y-134989857D01*
X102944952Y-135018428D01*
X102883047Y-135018428D01*
X102790190Y-134989857D01*
X102728285Y-134932714D01*
X102697333Y-134875571D01*
X102666380Y-134761285D01*
X102666380Y-134675571D01*
X102697333Y-134561285D01*
X102728285Y-134504142D01*
X102790190Y-134447000D01*
X102883047Y-134418428D01*
X102944952Y-134418428D01*
X103037809Y-134447000D01*
X103068761Y-134475571D01*
X103687809Y-135018428D02*
X103316380Y-135018428D01*
X103502095Y-135018428D02*
X103502095Y-134418428D01*
X103440190Y-134504142D01*
X103378285Y-134561285D01*
X103316380Y-134589857D01*
X104802095Y-134447000D02*
X104740190Y-134418428D01*
X104647333Y-134418428D01*
X104554476Y-134447000D01*
X104492571Y-134504142D01*
X104461619Y-134561285D01*
X104430666Y-134675571D01*
X104430666Y-134761285D01*
X104461619Y-134875571D01*
X104492571Y-134932714D01*
X104554476Y-134989857D01*
X104647333Y-135018428D01*
X104709238Y-135018428D01*
X104802095Y-134989857D01*
X104833047Y-134961285D01*
X104833047Y-134761285D01*
X104709238Y-134761285D01*
X105111619Y-135018428D02*
X105111619Y-134418428D01*
X105483047Y-135018428D01*
X105483047Y-134418428D01*
X105792571Y-135018428D02*
X105792571Y-134418428D01*
X105947333Y-134418428D01*
X106040190Y-134447000D01*
X106102095Y-134504142D01*
X106133047Y-134561285D01*
X106164000Y-134675571D01*
X106164000Y-134761285D01*
X106133047Y-134875571D01*
X106102095Y-134932714D01*
X106040190Y-134989857D01*
X105947333Y-135018428D01*
X105792571Y-135018428D01*
X106937809Y-135018428D02*
X106937809Y-134418428D01*
X107185428Y-134418428D01*
X107247333Y-134447000D01*
X107278285Y-134475571D01*
X107309238Y-134532714D01*
X107309238Y-134618428D01*
X107278285Y-134675571D01*
X107247333Y-134704142D01*
X107185428Y-134732714D01*
X106937809Y-134732714D01*
X107959238Y-134961285D02*
X107928285Y-134989857D01*
X107835428Y-135018428D01*
X107773523Y-135018428D01*
X107680666Y-134989857D01*
X107618761Y-134932714D01*
X107587809Y-134875571D01*
X107556857Y-134761285D01*
X107556857Y-134675571D01*
X107587809Y-134561285D01*
X107618761Y-134504142D01*
X107680666Y-134447000D01*
X107773523Y-134418428D01*
X107835428Y-134418428D01*
X107928285Y-134447000D01*
X107959238Y-134475571D01*
X108516380Y-134618428D02*
X108516380Y-135018428D01*
X108361619Y-134389857D02*
X108206857Y-134818428D01*
X108609238Y-134818428D01*
X109692571Y-134447000D02*
X109630666Y-134418428D01*
X109537809Y-134418428D01*
X109444952Y-134447000D01*
X109383047Y-134504142D01*
X109352095Y-134561285D01*
X109321142Y-134675571D01*
X109321142Y-134761285D01*
X109352095Y-134875571D01*
X109383047Y-134932714D01*
X109444952Y-134989857D01*
X109537809Y-135018428D01*
X109599714Y-135018428D01*
X109692571Y-134989857D01*
X109723523Y-134961285D01*
X109723523Y-134761285D01*
X109599714Y-134761285D01*
X110002095Y-135018428D02*
X110002095Y-134418428D01*
X110373523Y-135018428D01*
X110373523Y-134418428D01*
X110683047Y-135018428D02*
X110683047Y-134418428D01*
X110837809Y-134418428D01*
X110930666Y-134447000D01*
X110992571Y-134504142D01*
X111023523Y-134561285D01*
X111054476Y-134675571D01*
X111054476Y-134761285D01*
X111023523Y-134875571D01*
X110992571Y-134932714D01*
X110930666Y-134989857D01*
X110837809Y-135018428D01*
X110683047Y-135018428D01*
X111828285Y-135018428D02*
X111828285Y-134418428D01*
X112075904Y-134418428D01*
X112137809Y-134447000D01*
X112168761Y-134475571D01*
X112199714Y-134532714D01*
X112199714Y-134618428D01*
X112168761Y-134675571D01*
X112137809Y-134704142D01*
X112075904Y-134732714D01*
X111828285Y-134732714D01*
X112849714Y-134961285D02*
X112818761Y-134989857D01*
X112725904Y-135018428D01*
X112664000Y-135018428D01*
X112571142Y-134989857D01*
X112509238Y-134932714D01*
X112478285Y-134875571D01*
X112447333Y-134761285D01*
X112447333Y-134675571D01*
X112478285Y-134561285D01*
X112509238Y-134504142D01*
X112571142Y-134447000D01*
X112664000Y-134418428D01*
X112725904Y-134418428D01*
X112818761Y-134447000D01*
X112849714Y-134475571D01*
X113066380Y-134418428D02*
X113499714Y-134418428D01*
X113221142Y-135018428D01*
X114242571Y-135018428D02*
X114242571Y-134418428D01*
X114490190Y-134418428D01*
X114552095Y-134447000D01*
X114583047Y-134475571D01*
X114614000Y-134532714D01*
X114614000Y-134618428D01*
X114583047Y-134675571D01*
X114552095Y-134704142D01*
X114490190Y-134732714D01*
X114242571Y-134732714D01*
X115264000Y-134961285D02*
X115233047Y-134989857D01*
X115140190Y-135018428D01*
X115078285Y-135018428D01*
X114985428Y-134989857D01*
X114923523Y-134932714D01*
X114892571Y-134875571D01*
X114861619Y-134761285D01*
X114861619Y-134675571D01*
X114892571Y-134561285D01*
X114923523Y-134504142D01*
X114985428Y-134447000D01*
X115078285Y-134418428D01*
X115140190Y-134418428D01*
X115233047Y-134447000D01*
X115264000Y-134475571D01*
X115883047Y-135018428D02*
X115511619Y-135018428D01*
X115697333Y-135018428D02*
X115697333Y-134418428D01*
X115635428Y-134504142D01*
X115573523Y-134561285D01*
X115511619Y-134589857D01*
X116502095Y-135018428D02*
X116130666Y-135018428D01*
X116316380Y-135018428D02*
X116316380Y-134418428D01*
X116254476Y-134504142D01*
X116192571Y-134561285D01*
X116130666Y-134589857D01*
X117275904Y-135018428D02*
X117275904Y-134418428D01*
X117523523Y-134418428D01*
X117585428Y-134447000D01*
X117616380Y-134475571D01*
X117647333Y-134532714D01*
X117647333Y-134618428D01*
X117616380Y-134675571D01*
X117585428Y-134704142D01*
X117523523Y-134732714D01*
X117275904Y-134732714D01*
X118297333Y-134961285D02*
X118266380Y-134989857D01*
X118173523Y-135018428D01*
X118111619Y-135018428D01*
X118018761Y-134989857D01*
X117956857Y-134932714D01*
X117925904Y-134875571D01*
X117894952Y-134761285D01*
X117894952Y-134675571D01*
X117925904Y-134561285D01*
X117956857Y-134504142D01*
X118018761Y-134447000D01*
X118111619Y-134418428D01*
X118173523Y-134418428D01*
X118266380Y-134447000D01*
X118297333Y-134475571D01*
X118916380Y-135018428D02*
X118544952Y-135018428D01*
X118730666Y-135018428D02*
X118730666Y-134418428D01*
X118668761Y-134504142D01*
X118606857Y-134561285D01*
X118544952Y-134589857D01*
X119473523Y-134618428D02*
X119473523Y-135018428D01*
X119318761Y-134389857D02*
X119164000Y-134818428D01*
X119566380Y-134818428D01*
X120649714Y-134447000D02*
X120587809Y-134418428D01*
X120494952Y-134418428D01*
X120402095Y-134447000D01*
X120340190Y-134504142D01*
X120309238Y-134561285D01*
X120278285Y-134675571D01*
X120278285Y-134761285D01*
X120309238Y-134875571D01*
X120340190Y-134932714D01*
X120402095Y-134989857D01*
X120494952Y-135018428D01*
X120556857Y-135018428D01*
X120649714Y-134989857D01*
X120680666Y-134961285D01*
X120680666Y-134761285D01*
X120556857Y-134761285D01*
X120959238Y-135018428D02*
X120959238Y-134418428D01*
X121330666Y-135018428D01*
X121330666Y-134418428D01*
X121640190Y-135018428D02*
X121640190Y-134418428D01*
X121794952Y-134418428D01*
X121887809Y-134447000D01*
X121949714Y-134504142D01*
X121980666Y-134561285D01*
X122011619Y-134675571D01*
X122011619Y-134761285D01*
X121980666Y-134875571D01*
X121949714Y-134932714D01*
X121887809Y-134989857D01*
X121794952Y-135018428D01*
X121640190Y-135018428D01*
X102614000Y-141368428D02*
X102614000Y-140768428D01*
X102842571Y-140768428D01*
X102899714Y-140797000D01*
X102928285Y-140825571D01*
X102956857Y-140882714D01*
X102956857Y-140968428D01*
X102928285Y-141025571D01*
X102899714Y-141054142D01*
X102842571Y-141082714D01*
X102614000Y-141082714D01*
X103556857Y-141311285D02*
X103528285Y-141339857D01*
X103442571Y-141368428D01*
X103385428Y-141368428D01*
X103299714Y-141339857D01*
X103242571Y-141282714D01*
X103214000Y-141225571D01*
X103185428Y-141111285D01*
X103185428Y-141025571D01*
X103214000Y-140911285D01*
X103242571Y-140854142D01*
X103299714Y-140797000D01*
X103385428Y-140768428D01*
X103442571Y-140768428D01*
X103528285Y-140797000D01*
X103556857Y-140825571D01*
X103928285Y-140768428D02*
X103985428Y-140768428D01*
X104042571Y-140797000D01*
X104071142Y-140825571D01*
X104099714Y-140882714D01*
X104128285Y-140997000D01*
X104128285Y-141139857D01*
X104099714Y-141254142D01*
X104071142Y-141311285D01*
X104042571Y-141339857D01*
X103985428Y-141368428D01*
X103928285Y-141368428D01*
X103871142Y-141339857D01*
X103842571Y-141311285D01*
X103814000Y-141254142D01*
X103785428Y-141139857D01*
X103785428Y-140997000D01*
X103814000Y-140882714D01*
X103842571Y-140825571D01*
X103871142Y-140797000D01*
X103928285Y-140768428D01*
X104842571Y-141368428D02*
X104842571Y-140768428D01*
X105071142Y-140768428D01*
X105128285Y-140797000D01*
X105156857Y-140825571D01*
X105185428Y-140882714D01*
X105185428Y-140968428D01*
X105156857Y-141025571D01*
X105128285Y-141054142D01*
X105071142Y-141082714D01*
X104842571Y-141082714D01*
X105785428Y-141311285D02*
X105756857Y-141339857D01*
X105671142Y-141368428D01*
X105614000Y-141368428D01*
X105528285Y-141339857D01*
X105471142Y-141282714D01*
X105442571Y-141225571D01*
X105414000Y-141111285D01*
X105414000Y-141025571D01*
X105442571Y-140911285D01*
X105471142Y-140854142D01*
X105528285Y-140797000D01*
X105614000Y-140768428D01*
X105671142Y-140768428D01*
X105756857Y-140797000D01*
X105785428Y-140825571D01*
X106014000Y-140825571D02*
X106042571Y-140797000D01*
X106099714Y-140768428D01*
X106242571Y-140768428D01*
X106299714Y-140797000D01*
X106328285Y-140825571D01*
X106356857Y-140882714D01*
X106356857Y-140939857D01*
X106328285Y-141025571D01*
X105985428Y-141368428D01*
X106356857Y-141368428D01*
X107071142Y-141368428D02*
X107071142Y-140768428D01*
X107299714Y-140768428D01*
X107356857Y-140797000D01*
X107385428Y-140825571D01*
X107414000Y-140882714D01*
X107414000Y-140968428D01*
X107385428Y-141025571D01*
X107356857Y-141054142D01*
X107299714Y-141082714D01*
X107071142Y-141082714D01*
X108014000Y-141311285D02*
X107985428Y-141339857D01*
X107899714Y-141368428D01*
X107842571Y-141368428D01*
X107756857Y-141339857D01*
X107699714Y-141282714D01*
X107671142Y-141225571D01*
X107642571Y-141111285D01*
X107642571Y-141025571D01*
X107671142Y-140911285D01*
X107699714Y-140854142D01*
X107756857Y-140797000D01*
X107842571Y-140768428D01*
X107899714Y-140768428D01*
X107985428Y-140797000D01*
X108014000Y-140825571D01*
X108214000Y-140768428D02*
X108585428Y-140768428D01*
X108385428Y-140997000D01*
X108471142Y-140997000D01*
X108528285Y-141025571D01*
X108556857Y-141054142D01*
X108585428Y-141111285D01*
X108585428Y-141254142D01*
X108556857Y-141311285D01*
X108528285Y-141339857D01*
X108471142Y-141368428D01*
X108299714Y-141368428D01*
X108242571Y-141339857D01*
X108214000Y-141311285D01*
X109299714Y-141368428D02*
X109299714Y-140768428D01*
X109528285Y-140768428D01*
X109585428Y-140797000D01*
X109614000Y-140825571D01*
X109642571Y-140882714D01*
X109642571Y-140968428D01*
X109614000Y-141025571D01*
X109585428Y-141054142D01*
X109528285Y-141082714D01*
X109299714Y-141082714D01*
X110242571Y-141311285D02*
X110214000Y-141339857D01*
X110128285Y-141368428D01*
X110071142Y-141368428D01*
X109985428Y-141339857D01*
X109928285Y-141282714D01*
X109899714Y-141225571D01*
X109871142Y-141111285D01*
X109871142Y-141025571D01*
X109899714Y-140911285D01*
X109928285Y-140854142D01*
X109985428Y-140797000D01*
X110071142Y-140768428D01*
X110128285Y-140768428D01*
X110214000Y-140797000D01*
X110242571Y-140825571D01*
X110785428Y-140768428D02*
X110499714Y-140768428D01*
X110471142Y-141054142D01*
X110499714Y-141025571D01*
X110556857Y-140997000D01*
X110699714Y-140997000D01*
X110756857Y-141025571D01*
X110785428Y-141054142D01*
X110814000Y-141111285D01*
X110814000Y-141254142D01*
X110785428Y-141311285D01*
X110756857Y-141339857D01*
X110699714Y-141368428D01*
X110556857Y-141368428D01*
X110499714Y-141339857D01*
X110471142Y-141311285D01*
X111528285Y-141368428D02*
X111528285Y-140768428D01*
X111756857Y-140768428D01*
X111814000Y-140797000D01*
X111842571Y-140825571D01*
X111871142Y-140882714D01*
X111871142Y-140968428D01*
X111842571Y-141025571D01*
X111814000Y-141054142D01*
X111756857Y-141082714D01*
X111528285Y-141082714D01*
X112471142Y-141311285D02*
X112442571Y-141339857D01*
X112356857Y-141368428D01*
X112299714Y-141368428D01*
X112214000Y-141339857D01*
X112156857Y-141282714D01*
X112128285Y-141225571D01*
X112099714Y-141111285D01*
X112099714Y-141025571D01*
X112128285Y-140911285D01*
X112156857Y-140854142D01*
X112214000Y-140797000D01*
X112299714Y-140768428D01*
X112356857Y-140768428D01*
X112442571Y-140797000D01*
X112471142Y-140825571D01*
X112985428Y-140768428D02*
X112871142Y-140768428D01*
X112814000Y-140797000D01*
X112785428Y-140825571D01*
X112728285Y-140911285D01*
X112699714Y-141025571D01*
X112699714Y-141254142D01*
X112728285Y-141311285D01*
X112756857Y-141339857D01*
X112814000Y-141368428D01*
X112928285Y-141368428D01*
X112985428Y-141339857D01*
X113014000Y-141311285D01*
X113042571Y-141254142D01*
X113042571Y-141111285D01*
X113014000Y-141054142D01*
X112985428Y-141025571D01*
X112928285Y-140997000D01*
X112814000Y-140997000D01*
X112756857Y-141025571D01*
X112728285Y-141054142D01*
X112699714Y-141111285D01*
X113756857Y-141368428D02*
X113756857Y-140768428D01*
X113985428Y-140768428D01*
X114042571Y-140797000D01*
X114071142Y-140825571D01*
X114099714Y-140882714D01*
X114099714Y-140968428D01*
X114071142Y-141025571D01*
X114042571Y-141054142D01*
X113985428Y-141082714D01*
X113756857Y-141082714D01*
X114699714Y-141311285D02*
X114671142Y-141339857D01*
X114585428Y-141368428D01*
X114528285Y-141368428D01*
X114442571Y-141339857D01*
X114385428Y-141282714D01*
X114356857Y-141225571D01*
X114328285Y-141111285D01*
X114328285Y-141025571D01*
X114356857Y-140911285D01*
X114385428Y-140854142D01*
X114442571Y-140797000D01*
X114528285Y-140768428D01*
X114585428Y-140768428D01*
X114671142Y-140797000D01*
X114699714Y-140825571D01*
X115271142Y-141368428D02*
X114928285Y-141368428D01*
X115099714Y-141368428D02*
X115099714Y-140768428D01*
X115042571Y-140854142D01*
X114985428Y-140911285D01*
X114928285Y-140939857D01*
X115642571Y-140768428D02*
X115699714Y-140768428D01*
X115756857Y-140797000D01*
X115785428Y-140825571D01*
X115814000Y-140882714D01*
X115842571Y-140997000D01*
X115842571Y-141139857D01*
X115814000Y-141254142D01*
X115785428Y-141311285D01*
X115756857Y-141339857D01*
X115699714Y-141368428D01*
X115642571Y-141368428D01*
X115585428Y-141339857D01*
X115556857Y-141311285D01*
X115528285Y-141254142D01*
X115499714Y-141139857D01*
X115499714Y-140997000D01*
X115528285Y-140882714D01*
X115556857Y-140825571D01*
X115585428Y-140797000D01*
X115642571Y-140768428D01*
X116556857Y-141368428D02*
X116556857Y-140768428D01*
X116785428Y-140768428D01*
X116842571Y-140797000D01*
X116871142Y-140825571D01*
X116899714Y-140882714D01*
X116899714Y-140968428D01*
X116871142Y-141025571D01*
X116842571Y-141054142D01*
X116785428Y-141082714D01*
X116556857Y-141082714D01*
X117499714Y-141311285D02*
X117471142Y-141339857D01*
X117385428Y-141368428D01*
X117328285Y-141368428D01*
X117242571Y-141339857D01*
X117185428Y-141282714D01*
X117156857Y-141225571D01*
X117128285Y-141111285D01*
X117128285Y-141025571D01*
X117156857Y-140911285D01*
X117185428Y-140854142D01*
X117242571Y-140797000D01*
X117328285Y-140768428D01*
X117385428Y-140768428D01*
X117471142Y-140797000D01*
X117499714Y-140825571D01*
X118071142Y-141368428D02*
X117728285Y-141368428D01*
X117899714Y-141368428D02*
X117899714Y-140768428D01*
X117842571Y-140854142D01*
X117785428Y-140911285D01*
X117728285Y-140939857D01*
X118271142Y-140768428D02*
X118642571Y-140768428D01*
X118442571Y-140997000D01*
X118528285Y-140997000D01*
X118585428Y-141025571D01*
X118613999Y-141054142D01*
X118642571Y-141111285D01*
X118642571Y-141254142D01*
X118613999Y-141311285D01*
X118585428Y-141339857D01*
X118528285Y-141368428D01*
X118356857Y-141368428D01*
X118299714Y-141339857D01*
X118271142Y-141311285D01*
X119356857Y-141368428D02*
X119356857Y-140768428D01*
X119585428Y-140768428D01*
X119642571Y-140797000D01*
X119671142Y-140825571D01*
X119699714Y-140882714D01*
X119699714Y-140968428D01*
X119671142Y-141025571D01*
X119642571Y-141054142D01*
X119585428Y-141082714D01*
X119356857Y-141082714D01*
X120299714Y-141311285D02*
X120271142Y-141339857D01*
X120185428Y-141368428D01*
X120128285Y-141368428D01*
X120042571Y-141339857D01*
X119985428Y-141282714D01*
X119956857Y-141225571D01*
X119928285Y-141111285D01*
X119928285Y-141025571D01*
X119956857Y-140911285D01*
X119985428Y-140854142D01*
X120042571Y-140797000D01*
X120128285Y-140768428D01*
X120185428Y-140768428D01*
X120271142Y-140797000D01*
X120299714Y-140825571D01*
X120871142Y-141368428D02*
X120528285Y-141368428D01*
X120699714Y-141368428D02*
X120699714Y-140768428D01*
X120642571Y-140854142D01*
X120585428Y-140911285D01*
X120528285Y-140939857D01*
X121099714Y-140825571D02*
X121128285Y-140797000D01*
X121185428Y-140768428D01*
X121328285Y-140768428D01*
X121385428Y-140797000D01*
X121413999Y-140825571D01*
X121442571Y-140882714D01*
X121442571Y-140939857D01*
X121413999Y-141025571D01*
X121071142Y-141368428D01*
X121442571Y-141368428D01*
X84272428Y-59959714D02*
X84272428Y-59197809D01*
X84653380Y-59578761D02*
X83891476Y-59578761D01*
X83653380Y-58816857D02*
X83653380Y-58197809D01*
X84034333Y-58531142D01*
X84034333Y-58388285D01*
X84081952Y-58293047D01*
X84129571Y-58245428D01*
X84224809Y-58197809D01*
X84462904Y-58197809D01*
X84558142Y-58245428D01*
X84605761Y-58293047D01*
X84653380Y-58388285D01*
X84653380Y-58674000D01*
X84605761Y-58769238D01*
X84558142Y-58816857D01*
X83653380Y-57912095D02*
X84653380Y-57578761D01*
X83653380Y-57245428D01*
X88773095Y-61222000D02*
X88677857Y-61174380D01*
X88535000Y-61174380D01*
X88392142Y-61222000D01*
X88296904Y-61317238D01*
X88249285Y-61412476D01*
X88201666Y-61602952D01*
X88201666Y-61745809D01*
X88249285Y-61936285D01*
X88296904Y-62031523D01*
X88392142Y-62126761D01*
X88535000Y-62174380D01*
X88630238Y-62174380D01*
X88773095Y-62126761D01*
X88820714Y-62079142D01*
X88820714Y-61745809D01*
X88630238Y-61745809D01*
X89249285Y-62174380D02*
X89249285Y-61174380D01*
X89820714Y-62174380D01*
X89820714Y-61174380D01*
X90296904Y-62174380D02*
X90296904Y-61174380D01*
X90535000Y-61174380D01*
X90677857Y-61222000D01*
X90773095Y-61317238D01*
X90820714Y-61412476D01*
X90868333Y-61602952D01*
X90868333Y-61745809D01*
X90820714Y-61936285D01*
X90773095Y-62031523D01*
X90677857Y-62126761D01*
X90535000Y-62174380D01*
X90296904Y-62174380D01*
X88376285Y-63825428D02*
X89138190Y-63825428D01*
X88757238Y-64206380D02*
X88757238Y-63444476D01*
X89519142Y-63206380D02*
X90138190Y-63206380D01*
X89804857Y-63587333D01*
X89947714Y-63587333D01*
X90042952Y-63634952D01*
X90090571Y-63682571D01*
X90138190Y-63777809D01*
X90138190Y-64015904D01*
X90090571Y-64111142D01*
X90042952Y-64158761D01*
X89947714Y-64206380D01*
X89662000Y-64206380D01*
X89566761Y-64158761D01*
X89519142Y-64111142D01*
X90423904Y-63206380D02*
X90757238Y-64206380D01*
X91090571Y-63206380D01*
X88582714Y-66873380D02*
X88582714Y-65873380D01*
X88963666Y-65873380D01*
X89058904Y-65921000D01*
X89106523Y-65968619D01*
X89154142Y-66063857D01*
X89154142Y-66206714D01*
X89106523Y-66301952D01*
X89058904Y-66349571D01*
X88963666Y-66397190D01*
X88582714Y-66397190D01*
X90154142Y-66778142D02*
X90106523Y-66825761D01*
X89963666Y-66873380D01*
X89868428Y-66873380D01*
X89725571Y-66825761D01*
X89630333Y-66730523D01*
X89582714Y-66635285D01*
X89535095Y-66444809D01*
X89535095Y-66301952D01*
X89582714Y-66111476D01*
X89630333Y-66016238D01*
X89725571Y-65921000D01*
X89868428Y-65873380D01*
X89963666Y-65873380D01*
X90106523Y-65921000D01*
X90154142Y-65968619D01*
X91106523Y-66873380D02*
X90535095Y-66873380D01*
X90820809Y-66873380D02*
X90820809Y-65873380D01*
X90725571Y-66016238D01*
X90630333Y-66111476D01*
X90535095Y-66159095D01*
X91439857Y-65873380D02*
X92058904Y-65873380D01*
X91725571Y-66254333D01*
X91868428Y-66254333D01*
X91963666Y-66301952D01*
X92011285Y-66349571D01*
X92058904Y-66444809D01*
X92058904Y-66682904D01*
X92011285Y-66778142D01*
X91963666Y-66825761D01*
X91868428Y-66873380D01*
X91582714Y-66873380D01*
X91487476Y-66825761D01*
X91439857Y-66778142D01*
X88455714Y-69413380D02*
X88455714Y-68413380D01*
X88836666Y-68413380D01*
X88931904Y-68461000D01*
X88979523Y-68508619D01*
X89027142Y-68603857D01*
X89027142Y-68746714D01*
X88979523Y-68841952D01*
X88931904Y-68889571D01*
X88836666Y-68937190D01*
X88455714Y-68937190D01*
X90027142Y-69318142D02*
X89979523Y-69365761D01*
X89836666Y-69413380D01*
X89741428Y-69413380D01*
X89598571Y-69365761D01*
X89503333Y-69270523D01*
X89455714Y-69175285D01*
X89408095Y-68984809D01*
X89408095Y-68841952D01*
X89455714Y-68651476D01*
X89503333Y-68556238D01*
X89598571Y-68461000D01*
X89741428Y-68413380D01*
X89836666Y-68413380D01*
X89979523Y-68461000D01*
X90027142Y-68508619D01*
X90979523Y-69413380D02*
X90408095Y-69413380D01*
X90693809Y-69413380D02*
X90693809Y-68413380D01*
X90598571Y-68556238D01*
X90503333Y-68651476D01*
X90408095Y-68699095D01*
X91836666Y-68746714D02*
X91836666Y-69413380D01*
X91598571Y-68365761D02*
X91360476Y-69080047D01*
X91979523Y-69080047D01*
X88455714Y-71953380D02*
X88455714Y-70953380D01*
X88836666Y-70953380D01*
X88931904Y-71001000D01*
X88979523Y-71048619D01*
X89027142Y-71143857D01*
X89027142Y-71286714D01*
X88979523Y-71381952D01*
X88931904Y-71429571D01*
X88836666Y-71477190D01*
X88455714Y-71477190D01*
X90027142Y-71858142D02*
X89979523Y-71905761D01*
X89836666Y-71953380D01*
X89741428Y-71953380D01*
X89598571Y-71905761D01*
X89503333Y-71810523D01*
X89455714Y-71715285D01*
X89408095Y-71524809D01*
X89408095Y-71381952D01*
X89455714Y-71191476D01*
X89503333Y-71096238D01*
X89598571Y-71001000D01*
X89741428Y-70953380D01*
X89836666Y-70953380D01*
X89979523Y-71001000D01*
X90027142Y-71048619D01*
X90979523Y-71953380D02*
X90408095Y-71953380D01*
X90693809Y-71953380D02*
X90693809Y-70953380D01*
X90598571Y-71096238D01*
X90503333Y-71191476D01*
X90408095Y-71239095D01*
X91884285Y-70953380D02*
X91408095Y-70953380D01*
X91360476Y-71429571D01*
X91408095Y-71381952D01*
X91503333Y-71334333D01*
X91741428Y-71334333D01*
X91836666Y-71381952D01*
X91884285Y-71429571D01*
X91931904Y-71524809D01*
X91931904Y-71762904D01*
X91884285Y-71858142D01*
X91836666Y-71905761D01*
X91741428Y-71953380D01*
X91503333Y-71953380D01*
X91408095Y-71905761D01*
X91360476Y-71858142D01*
X88495333Y-74620380D02*
X88495333Y-73620380D01*
X88876285Y-73620380D01*
X88971523Y-73668000D01*
X89019142Y-73715619D01*
X89066761Y-73810857D01*
X89066761Y-73953714D01*
X89019142Y-74048952D01*
X88971523Y-74096571D01*
X88876285Y-74144190D01*
X88495333Y-74144190D01*
X89828666Y-74096571D02*
X89495333Y-74096571D01*
X89495333Y-74620380D02*
X89495333Y-73620380D01*
X89971523Y-73620380D01*
X90876285Y-74620380D02*
X90304857Y-74620380D01*
X90590571Y-74620380D02*
X90590571Y-73620380D01*
X90495333Y-73763238D01*
X90400095Y-73858476D01*
X90304857Y-73906095D01*
X88495333Y-77160380D02*
X88495333Y-76160380D01*
X88876285Y-76160380D01*
X88971523Y-76208000D01*
X89019142Y-76255619D01*
X89066761Y-76350857D01*
X89066761Y-76493714D01*
X89019142Y-76588952D01*
X88971523Y-76636571D01*
X88876285Y-76684190D01*
X88495333Y-76684190D01*
X89828666Y-76636571D02*
X89495333Y-76636571D01*
X89495333Y-77160380D02*
X89495333Y-76160380D01*
X89971523Y-76160380D01*
X90542952Y-76160380D02*
X90638190Y-76160380D01*
X90733428Y-76208000D01*
X90781047Y-76255619D01*
X90828666Y-76350857D01*
X90876285Y-76541333D01*
X90876285Y-76779428D01*
X90828666Y-76969904D01*
X90781047Y-77065142D01*
X90733428Y-77112761D01*
X90638190Y-77160380D01*
X90542952Y-77160380D01*
X90447714Y-77112761D01*
X90400095Y-77065142D01*
X90352476Y-76969904D01*
X90304857Y-76779428D01*
X90304857Y-76541333D01*
X90352476Y-76350857D01*
X90400095Y-76255619D01*
X90447714Y-76208000D01*
X90542952Y-76160380D01*
X89027095Y-78621000D02*
X88931857Y-78573380D01*
X88789000Y-78573380D01*
X88646142Y-78621000D01*
X88550904Y-78716238D01*
X88503285Y-78811476D01*
X88455666Y-79001952D01*
X88455666Y-79144809D01*
X88503285Y-79335285D01*
X88550904Y-79430523D01*
X88646142Y-79525761D01*
X88789000Y-79573380D01*
X88884238Y-79573380D01*
X89027095Y-79525761D01*
X89074714Y-79478142D01*
X89074714Y-79144809D01*
X88884238Y-79144809D01*
X89503285Y-79573380D02*
X89503285Y-78573380D01*
X90074714Y-79573380D01*
X90074714Y-78573380D01*
X90550904Y-79573380D02*
X90550904Y-78573380D01*
X90789000Y-78573380D01*
X90931857Y-78621000D01*
X91027095Y-78716238D01*
X91074714Y-78811476D01*
X91122333Y-79001952D01*
X91122333Y-79144809D01*
X91074714Y-79335285D01*
X91027095Y-79430523D01*
X90931857Y-79525761D01*
X90789000Y-79573380D01*
X90550904Y-79573380D01*
X88527142Y-83129380D02*
X88527142Y-82129380D01*
X89098571Y-83129380D01*
X89098571Y-82129380D01*
X90146190Y-83129380D02*
X89812857Y-82653190D01*
X89574761Y-83129380D02*
X89574761Y-82129380D01*
X89955714Y-82129380D01*
X90050952Y-82177000D01*
X90098571Y-82224619D01*
X90146190Y-82319857D01*
X90146190Y-82462714D01*
X90098571Y-82557952D01*
X90050952Y-82605571D01*
X89955714Y-82653190D01*
X89574761Y-82653190D01*
X90527142Y-83081761D02*
X90670000Y-83129380D01*
X90908095Y-83129380D01*
X91003333Y-83081761D01*
X91050952Y-83034142D01*
X91098571Y-82938904D01*
X91098571Y-82843666D01*
X91050952Y-82748428D01*
X91003333Y-82700809D01*
X90908095Y-82653190D01*
X90717619Y-82605571D01*
X90622380Y-82557952D01*
X90574761Y-82510333D01*
X90527142Y-82415095D01*
X90527142Y-82319857D01*
X90574761Y-82224619D01*
X90622380Y-82177000D01*
X90717619Y-82129380D01*
X90955714Y-82129380D01*
X91098571Y-82177000D01*
X91384285Y-82129380D02*
X91955714Y-82129380D01*
X91670000Y-83129380D02*
X91670000Y-82129380D01*
X88423904Y-84780380D02*
X88423904Y-83780380D01*
X88804857Y-83780380D01*
X88900095Y-83828000D01*
X88947714Y-83875619D01*
X88995333Y-83970857D01*
X88995333Y-84113714D01*
X88947714Y-84208952D01*
X88900095Y-84256571D01*
X88804857Y-84304190D01*
X88423904Y-84304190D01*
X89995333Y-84685142D02*
X89947714Y-84732761D01*
X89804857Y-84780380D01*
X89709619Y-84780380D01*
X89566761Y-84732761D01*
X89471523Y-84637523D01*
X89423904Y-84542285D01*
X89376285Y-84351809D01*
X89376285Y-84208952D01*
X89423904Y-84018476D01*
X89471523Y-83923238D01*
X89566761Y-83828000D01*
X89709619Y-83780380D01*
X89804857Y-83780380D01*
X89947714Y-83828000D01*
X89995333Y-83875619D01*
X90614380Y-83780380D02*
X90709619Y-83780380D01*
X90804857Y-83828000D01*
X90852476Y-83875619D01*
X90900095Y-83970857D01*
X90947714Y-84161333D01*
X90947714Y-84399428D01*
X90900095Y-84589904D01*
X90852476Y-84685142D01*
X90804857Y-84732761D01*
X90709619Y-84780380D01*
X90614380Y-84780380D01*
X90519142Y-84732761D01*
X90471523Y-84685142D01*
X90423904Y-84589904D01*
X90376285Y-84399428D01*
X90376285Y-84161333D01*
X90423904Y-83970857D01*
X90471523Y-83875619D01*
X90519142Y-83828000D01*
X90614380Y-83780380D01*
X88423904Y-87193380D02*
X88423904Y-86193380D01*
X88804857Y-86193380D01*
X88900095Y-86241000D01*
X88947714Y-86288619D01*
X88995333Y-86383857D01*
X88995333Y-86526714D01*
X88947714Y-86621952D01*
X88900095Y-86669571D01*
X88804857Y-86717190D01*
X88423904Y-86717190D01*
X89995333Y-87098142D02*
X89947714Y-87145761D01*
X89804857Y-87193380D01*
X89709619Y-87193380D01*
X89566761Y-87145761D01*
X89471523Y-87050523D01*
X89423904Y-86955285D01*
X89376285Y-86764809D01*
X89376285Y-86621952D01*
X89423904Y-86431476D01*
X89471523Y-86336238D01*
X89566761Y-86241000D01*
X89709619Y-86193380D01*
X89804857Y-86193380D01*
X89947714Y-86241000D01*
X89995333Y-86288619D01*
X90947714Y-87193380D02*
X90376285Y-87193380D01*
X90662000Y-87193380D02*
X90662000Y-86193380D01*
X90566761Y-86336238D01*
X90471523Y-86431476D01*
X90376285Y-86479095D01*
X88423904Y-89733380D02*
X88423904Y-88733380D01*
X88804857Y-88733380D01*
X88900095Y-88781000D01*
X88947714Y-88828619D01*
X88995333Y-88923857D01*
X88995333Y-89066714D01*
X88947714Y-89161952D01*
X88900095Y-89209571D01*
X88804857Y-89257190D01*
X88423904Y-89257190D01*
X89995333Y-89638142D02*
X89947714Y-89685761D01*
X89804857Y-89733380D01*
X89709619Y-89733380D01*
X89566761Y-89685761D01*
X89471523Y-89590523D01*
X89423904Y-89495285D01*
X89376285Y-89304809D01*
X89376285Y-89161952D01*
X89423904Y-88971476D01*
X89471523Y-88876238D01*
X89566761Y-88781000D01*
X89709619Y-88733380D01*
X89804857Y-88733380D01*
X89947714Y-88781000D01*
X89995333Y-88828619D01*
X90376285Y-88828619D02*
X90423904Y-88781000D01*
X90519142Y-88733380D01*
X90757238Y-88733380D01*
X90852476Y-88781000D01*
X90900095Y-88828619D01*
X90947714Y-88923857D01*
X90947714Y-89019095D01*
X90900095Y-89161952D01*
X90328666Y-89733380D01*
X90947714Y-89733380D01*
X88550904Y-92273380D02*
X88550904Y-91273380D01*
X88931857Y-91273380D01*
X89027095Y-91321000D01*
X89074714Y-91368619D01*
X89122333Y-91463857D01*
X89122333Y-91606714D01*
X89074714Y-91701952D01*
X89027095Y-91749571D01*
X88931857Y-91797190D01*
X88550904Y-91797190D01*
X90122333Y-92178142D02*
X90074714Y-92225761D01*
X89931857Y-92273380D01*
X89836619Y-92273380D01*
X89693761Y-92225761D01*
X89598523Y-92130523D01*
X89550904Y-92035285D01*
X89503285Y-91844809D01*
X89503285Y-91701952D01*
X89550904Y-91511476D01*
X89598523Y-91416238D01*
X89693761Y-91321000D01*
X89836619Y-91273380D01*
X89931857Y-91273380D01*
X90074714Y-91321000D01*
X90122333Y-91368619D01*
X90455666Y-91273380D02*
X91074714Y-91273380D01*
X90741380Y-91654333D01*
X90884238Y-91654333D01*
X90979476Y-91701952D01*
X91027095Y-91749571D01*
X91074714Y-91844809D01*
X91074714Y-92082904D01*
X91027095Y-92178142D01*
X90979476Y-92225761D01*
X90884238Y-92273380D01*
X90598523Y-92273380D01*
X90503285Y-92225761D01*
X90455666Y-92178142D01*
X88495333Y-94940380D02*
X88495333Y-93940380D01*
X88876285Y-93940380D01*
X88971523Y-93988000D01*
X89019142Y-94035619D01*
X89066761Y-94130857D01*
X89066761Y-94273714D01*
X89019142Y-94368952D01*
X88971523Y-94416571D01*
X88876285Y-94464190D01*
X88495333Y-94464190D01*
X89447714Y-94654666D02*
X89923904Y-94654666D01*
X89352476Y-94940380D02*
X89685809Y-93940380D01*
X90019142Y-94940380D01*
X90542952Y-93940380D02*
X90638190Y-93940380D01*
X90733428Y-93988000D01*
X90781047Y-94035619D01*
X90828666Y-94130857D01*
X90876285Y-94321333D01*
X90876285Y-94559428D01*
X90828666Y-94749904D01*
X90781047Y-94845142D01*
X90733428Y-94892761D01*
X90638190Y-94940380D01*
X90542952Y-94940380D01*
X90447714Y-94892761D01*
X90400095Y-94845142D01*
X90352476Y-94749904D01*
X90304857Y-94559428D01*
X90304857Y-94321333D01*
X90352476Y-94130857D01*
X90400095Y-94035619D01*
X90447714Y-93988000D01*
X90542952Y-93940380D01*
X88495333Y-97353380D02*
X88495333Y-96353380D01*
X88876285Y-96353380D01*
X88971523Y-96401000D01*
X89019142Y-96448619D01*
X89066761Y-96543857D01*
X89066761Y-96686714D01*
X89019142Y-96781952D01*
X88971523Y-96829571D01*
X88876285Y-96877190D01*
X88495333Y-96877190D01*
X89447714Y-97067666D02*
X89923904Y-97067666D01*
X89352476Y-97353380D02*
X89685809Y-96353380D01*
X90019142Y-97353380D01*
X90876285Y-97353380D02*
X90304857Y-97353380D01*
X90590571Y-97353380D02*
X90590571Y-96353380D01*
X90495333Y-96496238D01*
X90400095Y-96591476D01*
X90304857Y-96639095D01*
X88495333Y-100020380D02*
X88495333Y-99020380D01*
X88876285Y-99020380D01*
X88971523Y-99068000D01*
X89019142Y-99115619D01*
X89066761Y-99210857D01*
X89066761Y-99353714D01*
X89019142Y-99448952D01*
X88971523Y-99496571D01*
X88876285Y-99544190D01*
X88495333Y-99544190D01*
X89447714Y-99734666D02*
X89923904Y-99734666D01*
X89352476Y-100020380D02*
X89685809Y-99020380D01*
X90019142Y-100020380D01*
X90304857Y-99115619D02*
X90352476Y-99068000D01*
X90447714Y-99020380D01*
X90685809Y-99020380D01*
X90781047Y-99068000D01*
X90828666Y-99115619D01*
X90876285Y-99210857D01*
X90876285Y-99306095D01*
X90828666Y-99448952D01*
X90257238Y-100020380D01*
X90876285Y-100020380D01*
X88495333Y-102433380D02*
X88495333Y-101433380D01*
X88876285Y-101433380D01*
X88971523Y-101481000D01*
X89019142Y-101528619D01*
X89066761Y-101623857D01*
X89066761Y-101766714D01*
X89019142Y-101861952D01*
X88971523Y-101909571D01*
X88876285Y-101957190D01*
X88495333Y-101957190D01*
X89447714Y-102147666D02*
X89923904Y-102147666D01*
X89352476Y-102433380D02*
X89685809Y-101433380D01*
X90019142Y-102433380D01*
X90257238Y-101433380D02*
X90876285Y-101433380D01*
X90542952Y-101814333D01*
X90685809Y-101814333D01*
X90781047Y-101861952D01*
X90828666Y-101909571D01*
X90876285Y-102004809D01*
X90876285Y-102242904D01*
X90828666Y-102338142D01*
X90781047Y-102385761D01*
X90685809Y-102433380D01*
X90400095Y-102433380D01*
X90304857Y-102385761D01*
X90257238Y-102338142D01*
X88495333Y-104846380D02*
X88495333Y-103846380D01*
X88876285Y-103846380D01*
X88971523Y-103894000D01*
X89019142Y-103941619D01*
X89066761Y-104036857D01*
X89066761Y-104179714D01*
X89019142Y-104274952D01*
X88971523Y-104322571D01*
X88876285Y-104370190D01*
X88495333Y-104370190D01*
X89828666Y-104322571D02*
X89495333Y-104322571D01*
X89495333Y-104846380D02*
X89495333Y-103846380D01*
X89971523Y-103846380D01*
X90781047Y-104179714D02*
X90781047Y-104846380D01*
X90542952Y-103798761D02*
X90304857Y-104513047D01*
X90923904Y-104513047D01*
X88495333Y-107513380D02*
X88495333Y-106513380D01*
X88876285Y-106513380D01*
X88971523Y-106561000D01*
X89019142Y-106608619D01*
X89066761Y-106703857D01*
X89066761Y-106846714D01*
X89019142Y-106941952D01*
X88971523Y-106989571D01*
X88876285Y-107037190D01*
X88495333Y-107037190D01*
X89828666Y-106989571D02*
X89495333Y-106989571D01*
X89495333Y-107513380D02*
X89495333Y-106513380D01*
X89971523Y-106513380D01*
X90828666Y-106513380D02*
X90352476Y-106513380D01*
X90304857Y-106989571D01*
X90352476Y-106941952D01*
X90447714Y-106894333D01*
X90685809Y-106894333D01*
X90781047Y-106941952D01*
X90828666Y-106989571D01*
X90876285Y-107084809D01*
X90876285Y-107322904D01*
X90828666Y-107418142D01*
X90781047Y-107465761D01*
X90685809Y-107513380D01*
X90447714Y-107513380D01*
X90352476Y-107465761D01*
X90304857Y-107418142D01*
X88495333Y-110053380D02*
X88495333Y-109053380D01*
X88876285Y-109053380D01*
X88971523Y-109101000D01*
X89019142Y-109148619D01*
X89066761Y-109243857D01*
X89066761Y-109386714D01*
X89019142Y-109481952D01*
X88971523Y-109529571D01*
X88876285Y-109577190D01*
X88495333Y-109577190D01*
X89447714Y-109767666D02*
X89923904Y-109767666D01*
X89352476Y-110053380D02*
X89685809Y-109053380D01*
X90019142Y-110053380D01*
X90781047Y-109386714D02*
X90781047Y-110053380D01*
X90542952Y-109005761D02*
X90304857Y-109720047D01*
X90923904Y-109720047D01*
X88495333Y-112466380D02*
X88495333Y-111466380D01*
X88876285Y-111466380D01*
X88971523Y-111514000D01*
X89019142Y-111561619D01*
X89066761Y-111656857D01*
X89066761Y-111799714D01*
X89019142Y-111894952D01*
X88971523Y-111942571D01*
X88876285Y-111990190D01*
X88495333Y-111990190D01*
X89447714Y-112180666D02*
X89923904Y-112180666D01*
X89352476Y-112466380D02*
X89685809Y-111466380D01*
X90019142Y-112466380D01*
X90828666Y-111466380D02*
X90352476Y-111466380D01*
X90304857Y-111942571D01*
X90352476Y-111894952D01*
X90447714Y-111847333D01*
X90685809Y-111847333D01*
X90781047Y-111894952D01*
X90828666Y-111942571D01*
X90876285Y-112037809D01*
X90876285Y-112275904D01*
X90828666Y-112371142D01*
X90781047Y-112418761D01*
X90685809Y-112466380D01*
X90447714Y-112466380D01*
X90352476Y-112418761D01*
X90304857Y-112371142D01*
X88495333Y-115133380D02*
X88495333Y-114133380D01*
X88876285Y-114133380D01*
X88971523Y-114181000D01*
X89019142Y-114228619D01*
X89066761Y-114323857D01*
X89066761Y-114466714D01*
X89019142Y-114561952D01*
X88971523Y-114609571D01*
X88876285Y-114657190D01*
X88495333Y-114657190D01*
X89447714Y-114847666D02*
X89923904Y-114847666D01*
X89352476Y-115133380D02*
X89685809Y-114133380D01*
X90019142Y-115133380D01*
X90781047Y-114133380D02*
X90590571Y-114133380D01*
X90495333Y-114181000D01*
X90447714Y-114228619D01*
X90352476Y-114371476D01*
X90304857Y-114561952D01*
X90304857Y-114942904D01*
X90352476Y-115038142D01*
X90400095Y-115085761D01*
X90495333Y-115133380D01*
X90685809Y-115133380D01*
X90781047Y-115085761D01*
X90828666Y-115038142D01*
X90876285Y-114942904D01*
X90876285Y-114704809D01*
X90828666Y-114609571D01*
X90781047Y-114561952D01*
X90685809Y-114514333D01*
X90495333Y-114514333D01*
X90400095Y-114561952D01*
X90352476Y-114609571D01*
X90304857Y-114704809D01*
X88495333Y-117673380D02*
X88495333Y-116673380D01*
X88876285Y-116673380D01*
X88971523Y-116721000D01*
X89019142Y-116768619D01*
X89066761Y-116863857D01*
X89066761Y-117006714D01*
X89019142Y-117101952D01*
X88971523Y-117149571D01*
X88876285Y-117197190D01*
X88495333Y-117197190D01*
X89447714Y-117387666D02*
X89923904Y-117387666D01*
X89352476Y-117673380D02*
X89685809Y-116673380D01*
X90019142Y-117673380D01*
X90257238Y-116673380D02*
X90923904Y-116673380D01*
X90495333Y-117673380D01*
X88423904Y-120213380D02*
X88423904Y-119213380D01*
X88804857Y-119213380D01*
X88900095Y-119261000D01*
X88947714Y-119308619D01*
X88995333Y-119403857D01*
X88995333Y-119546714D01*
X88947714Y-119641952D01*
X88900095Y-119689571D01*
X88804857Y-119737190D01*
X88423904Y-119737190D01*
X89995333Y-120118142D02*
X89947714Y-120165761D01*
X89804857Y-120213380D01*
X89709619Y-120213380D01*
X89566761Y-120165761D01*
X89471523Y-120070523D01*
X89423904Y-119975285D01*
X89376285Y-119784809D01*
X89376285Y-119641952D01*
X89423904Y-119451476D01*
X89471523Y-119356238D01*
X89566761Y-119261000D01*
X89709619Y-119213380D01*
X89804857Y-119213380D01*
X89947714Y-119261000D01*
X89995333Y-119308619D01*
X90852476Y-119546714D02*
X90852476Y-120213380D01*
X90614380Y-119165761D02*
X90376285Y-119880047D01*
X90995333Y-119880047D01*
X88423904Y-122880380D02*
X88423904Y-121880380D01*
X88804857Y-121880380D01*
X88900095Y-121928000D01*
X88947714Y-121975619D01*
X88995333Y-122070857D01*
X88995333Y-122213714D01*
X88947714Y-122308952D01*
X88900095Y-122356571D01*
X88804857Y-122404190D01*
X88423904Y-122404190D01*
X89995333Y-122785142D02*
X89947714Y-122832761D01*
X89804857Y-122880380D01*
X89709619Y-122880380D01*
X89566761Y-122832761D01*
X89471523Y-122737523D01*
X89423904Y-122642285D01*
X89376285Y-122451809D01*
X89376285Y-122308952D01*
X89423904Y-122118476D01*
X89471523Y-122023238D01*
X89566761Y-121928000D01*
X89709619Y-121880380D01*
X89804857Y-121880380D01*
X89947714Y-121928000D01*
X89995333Y-121975619D01*
X90900095Y-121880380D02*
X90423904Y-121880380D01*
X90376285Y-122356571D01*
X90423904Y-122308952D01*
X90519142Y-122261333D01*
X90757238Y-122261333D01*
X90852476Y-122308952D01*
X90900095Y-122356571D01*
X90947714Y-122451809D01*
X90947714Y-122689904D01*
X90900095Y-122785142D01*
X90852476Y-122832761D01*
X90757238Y-122880380D01*
X90519142Y-122880380D01*
X90423904Y-122832761D01*
X90376285Y-122785142D01*
X88423904Y-125420380D02*
X88423904Y-124420380D01*
X88804857Y-124420380D01*
X88900095Y-124468000D01*
X88947714Y-124515619D01*
X88995333Y-124610857D01*
X88995333Y-124753714D01*
X88947714Y-124848952D01*
X88900095Y-124896571D01*
X88804857Y-124944190D01*
X88423904Y-124944190D01*
X89757238Y-124896571D02*
X89900095Y-124944190D01*
X89947714Y-124991809D01*
X89995333Y-125087047D01*
X89995333Y-125229904D01*
X89947714Y-125325142D01*
X89900095Y-125372761D01*
X89804857Y-125420380D01*
X89423904Y-125420380D01*
X89423904Y-124420380D01*
X89757238Y-124420380D01*
X89852476Y-124468000D01*
X89900095Y-124515619D01*
X89947714Y-124610857D01*
X89947714Y-124706095D01*
X89900095Y-124801333D01*
X89852476Y-124848952D01*
X89757238Y-124896571D01*
X89423904Y-124896571D01*
X90614380Y-124420380D02*
X90709619Y-124420380D01*
X90804857Y-124468000D01*
X90852476Y-124515619D01*
X90900095Y-124610857D01*
X90947714Y-124801333D01*
X90947714Y-125039428D01*
X90900095Y-125229904D01*
X90852476Y-125325142D01*
X90804857Y-125372761D01*
X90709619Y-125420380D01*
X90614380Y-125420380D01*
X90519142Y-125372761D01*
X90471523Y-125325142D01*
X90423904Y-125229904D01*
X90376285Y-125039428D01*
X90376285Y-124801333D01*
X90423904Y-124610857D01*
X90471523Y-124515619D01*
X90519142Y-124468000D01*
X90614380Y-124420380D01*
X88550904Y-127833380D02*
X88550904Y-126833380D01*
X88931857Y-126833380D01*
X89027095Y-126881000D01*
X89074714Y-126928619D01*
X89122333Y-127023857D01*
X89122333Y-127166714D01*
X89074714Y-127261952D01*
X89027095Y-127309571D01*
X88931857Y-127357190D01*
X88550904Y-127357190D01*
X89884238Y-127309571D02*
X90027095Y-127357190D01*
X90074714Y-127404809D01*
X90122333Y-127500047D01*
X90122333Y-127642904D01*
X90074714Y-127738142D01*
X90027095Y-127785761D01*
X89931857Y-127833380D01*
X89550904Y-127833380D01*
X89550904Y-126833380D01*
X89884238Y-126833380D01*
X89979476Y-126881000D01*
X90027095Y-126928619D01*
X90074714Y-127023857D01*
X90074714Y-127119095D01*
X90027095Y-127214333D01*
X89979476Y-127261952D01*
X89884238Y-127309571D01*
X89550904Y-127309571D01*
X91074714Y-127833380D02*
X90503285Y-127833380D01*
X90789000Y-127833380D02*
X90789000Y-126833380D01*
X90693761Y-126976238D01*
X90598523Y-127071476D01*
X90503285Y-127119095D01*
X88423904Y-130373380D02*
X88423904Y-129373380D01*
X88804857Y-129373380D01*
X88900095Y-129421000D01*
X88947714Y-129468619D01*
X88995333Y-129563857D01*
X88995333Y-129706714D01*
X88947714Y-129801952D01*
X88900095Y-129849571D01*
X88804857Y-129897190D01*
X88423904Y-129897190D01*
X89757238Y-129849571D02*
X89900095Y-129897190D01*
X89947714Y-129944809D01*
X89995333Y-130040047D01*
X89995333Y-130182904D01*
X89947714Y-130278142D01*
X89900095Y-130325761D01*
X89804857Y-130373380D01*
X89423904Y-130373380D01*
X89423904Y-129373380D01*
X89757238Y-129373380D01*
X89852476Y-129421000D01*
X89900095Y-129468619D01*
X89947714Y-129563857D01*
X89947714Y-129659095D01*
X89900095Y-129754333D01*
X89852476Y-129801952D01*
X89757238Y-129849571D01*
X89423904Y-129849571D01*
X90376285Y-129468619D02*
X90423904Y-129421000D01*
X90519142Y-129373380D01*
X90757238Y-129373380D01*
X90852476Y-129421000D01*
X90900095Y-129468619D01*
X90947714Y-129563857D01*
X90947714Y-129659095D01*
X90900095Y-129801952D01*
X90328666Y-130373380D01*
X90947714Y-130373380D01*
X88328714Y-132786380D02*
X88328714Y-131786380D01*
X88709666Y-131786380D01*
X88804904Y-131834000D01*
X88852523Y-131881619D01*
X88900142Y-131976857D01*
X88900142Y-132119714D01*
X88852523Y-132214952D01*
X88804904Y-132262571D01*
X88709666Y-132310190D01*
X88328714Y-132310190D01*
X89662047Y-132262571D02*
X89804904Y-132310190D01*
X89852523Y-132357809D01*
X89900142Y-132453047D01*
X89900142Y-132595904D01*
X89852523Y-132691142D01*
X89804904Y-132738761D01*
X89709666Y-132786380D01*
X89328714Y-132786380D01*
X89328714Y-131786380D01*
X89662047Y-131786380D01*
X89757285Y-131834000D01*
X89804904Y-131881619D01*
X89852523Y-131976857D01*
X89852523Y-132072095D01*
X89804904Y-132167333D01*
X89757285Y-132214952D01*
X89662047Y-132262571D01*
X89328714Y-132262571D01*
X90852523Y-132786380D02*
X90281095Y-132786380D01*
X90566809Y-132786380D02*
X90566809Y-131786380D01*
X90471571Y-131929238D01*
X90376333Y-132024476D01*
X90281095Y-132072095D01*
X91471571Y-131786380D02*
X91566809Y-131786380D01*
X91662047Y-131834000D01*
X91709666Y-131881619D01*
X91757285Y-131976857D01*
X91804904Y-132167333D01*
X91804904Y-132405428D01*
X91757285Y-132595904D01*
X91709666Y-132691142D01*
X91662047Y-132738761D01*
X91566809Y-132786380D01*
X91471571Y-132786380D01*
X91376333Y-132738761D01*
X91328714Y-132691142D01*
X91281095Y-132595904D01*
X91233476Y-132405428D01*
X91233476Y-132167333D01*
X91281095Y-131976857D01*
X91328714Y-131881619D01*
X91376333Y-131834000D01*
X91471571Y-131786380D01*
X88328714Y-135453380D02*
X88328714Y-134453380D01*
X88709666Y-134453380D01*
X88804904Y-134501000D01*
X88852523Y-134548619D01*
X88900142Y-134643857D01*
X88900142Y-134786714D01*
X88852523Y-134881952D01*
X88804904Y-134929571D01*
X88709666Y-134977190D01*
X88328714Y-134977190D01*
X89662047Y-134929571D02*
X89804904Y-134977190D01*
X89852523Y-135024809D01*
X89900142Y-135120047D01*
X89900142Y-135262904D01*
X89852523Y-135358142D01*
X89804904Y-135405761D01*
X89709666Y-135453380D01*
X89328714Y-135453380D01*
X89328714Y-134453380D01*
X89662047Y-134453380D01*
X89757285Y-134501000D01*
X89804904Y-134548619D01*
X89852523Y-134643857D01*
X89852523Y-134739095D01*
X89804904Y-134834333D01*
X89757285Y-134881952D01*
X89662047Y-134929571D01*
X89328714Y-134929571D01*
X90852523Y-135453380D02*
X90281095Y-135453380D01*
X90566809Y-135453380D02*
X90566809Y-134453380D01*
X90471571Y-134596238D01*
X90376333Y-134691476D01*
X90281095Y-134739095D01*
X91804904Y-135453380D02*
X91233476Y-135453380D01*
X91519190Y-135453380D02*
X91519190Y-134453380D01*
X91423952Y-134596238D01*
X91328714Y-134691476D01*
X91233476Y-134739095D01*
X88201714Y-137993380D02*
X88201714Y-136993380D01*
X88582666Y-136993380D01*
X88677904Y-137041000D01*
X88725523Y-137088619D01*
X88773142Y-137183857D01*
X88773142Y-137326714D01*
X88725523Y-137421952D01*
X88677904Y-137469571D01*
X88582666Y-137517190D01*
X88201714Y-137517190D01*
X89535047Y-137469571D02*
X89677904Y-137517190D01*
X89725523Y-137564809D01*
X89773142Y-137660047D01*
X89773142Y-137802904D01*
X89725523Y-137898142D01*
X89677904Y-137945761D01*
X89582666Y-137993380D01*
X89201714Y-137993380D01*
X89201714Y-136993380D01*
X89535047Y-136993380D01*
X89630285Y-137041000D01*
X89677904Y-137088619D01*
X89725523Y-137183857D01*
X89725523Y-137279095D01*
X89677904Y-137374333D01*
X89630285Y-137421952D01*
X89535047Y-137469571D01*
X89201714Y-137469571D01*
X90725523Y-137993380D02*
X90154095Y-137993380D01*
X90439809Y-137993380D02*
X90439809Y-136993380D01*
X90344571Y-137136238D01*
X90249333Y-137231476D01*
X90154095Y-137279095D01*
X91106476Y-137088619D02*
X91154095Y-137041000D01*
X91249333Y-136993380D01*
X91487428Y-136993380D01*
X91582666Y-137041000D01*
X91630285Y-137088619D01*
X91677904Y-137183857D01*
X91677904Y-137279095D01*
X91630285Y-137421952D01*
X91058857Y-137993380D01*
X91677904Y-137993380D01*
X88900095Y-139454000D02*
X88804857Y-139406380D01*
X88662000Y-139406380D01*
X88519142Y-139454000D01*
X88423904Y-139549238D01*
X88376285Y-139644476D01*
X88328666Y-139834952D01*
X88328666Y-139977809D01*
X88376285Y-140168285D01*
X88423904Y-140263523D01*
X88519142Y-140358761D01*
X88662000Y-140406380D01*
X88757238Y-140406380D01*
X88900095Y-140358761D01*
X88947714Y-140311142D01*
X88947714Y-139977809D01*
X88757238Y-139977809D01*
X89376285Y-140406380D02*
X89376285Y-139406380D01*
X89947714Y-140406380D01*
X89947714Y-139406380D01*
X90423904Y-140406380D02*
X90423904Y-139406380D01*
X90662000Y-139406380D01*
X90804857Y-139454000D01*
X90900095Y-139549238D01*
X90947714Y-139644476D01*
X90995333Y-139834952D01*
X90995333Y-139977809D01*
X90947714Y-140168285D01*
X90900095Y-140263523D01*
X90804857Y-140358761D01*
X90662000Y-140406380D01*
X90423904Y-140406380D01*
X132699285Y-58745428D02*
X133461190Y-58745428D01*
X133080238Y-59126380D02*
X133080238Y-58364476D01*
X134413571Y-58126380D02*
X133937380Y-58126380D01*
X133889761Y-58602571D01*
X133937380Y-58554952D01*
X134032619Y-58507333D01*
X134270714Y-58507333D01*
X134365952Y-58554952D01*
X134413571Y-58602571D01*
X134461190Y-58697809D01*
X134461190Y-58935904D01*
X134413571Y-59031142D01*
X134365952Y-59078761D01*
X134270714Y-59126380D01*
X134032619Y-59126380D01*
X133937380Y-59078761D01*
X133889761Y-59031142D01*
X134746904Y-58126380D02*
X135080238Y-59126380D01*
X135413571Y-58126380D01*
X133223095Y-60714000D02*
X133127857Y-60666380D01*
X132985000Y-60666380D01*
X132842142Y-60714000D01*
X132746904Y-60809238D01*
X132699285Y-60904476D01*
X132651666Y-61094952D01*
X132651666Y-61237809D01*
X132699285Y-61428285D01*
X132746904Y-61523523D01*
X132842142Y-61618761D01*
X132985000Y-61666380D01*
X133080238Y-61666380D01*
X133223095Y-61618761D01*
X133270714Y-61571142D01*
X133270714Y-61237809D01*
X133080238Y-61237809D01*
X133699285Y-61666380D02*
X133699285Y-60666380D01*
X134270714Y-61666380D01*
X134270714Y-60666380D01*
X134746904Y-61666380D02*
X134746904Y-60666380D01*
X134985000Y-60666380D01*
X135127857Y-60714000D01*
X135223095Y-60809238D01*
X135270714Y-60904476D01*
X135318333Y-61094952D01*
X135318333Y-61237809D01*
X135270714Y-61428285D01*
X135223095Y-61523523D01*
X135127857Y-61618761D01*
X134985000Y-61666380D01*
X134746904Y-61666380D01*
X132746904Y-64206380D02*
X132746904Y-63206380D01*
X133127857Y-63206380D01*
X133223095Y-63254000D01*
X133270714Y-63301619D01*
X133318333Y-63396857D01*
X133318333Y-63539714D01*
X133270714Y-63634952D01*
X133223095Y-63682571D01*
X133127857Y-63730190D01*
X132746904Y-63730190D01*
X134080238Y-63682571D02*
X134223095Y-63730190D01*
X134270714Y-63777809D01*
X134318333Y-63873047D01*
X134318333Y-64015904D01*
X134270714Y-64111142D01*
X134223095Y-64158761D01*
X134127857Y-64206380D01*
X133746904Y-64206380D01*
X133746904Y-63206380D01*
X134080238Y-63206380D01*
X134175476Y-63254000D01*
X134223095Y-63301619D01*
X134270714Y-63396857D01*
X134270714Y-63492095D01*
X134223095Y-63587333D01*
X134175476Y-63634952D01*
X134080238Y-63682571D01*
X133746904Y-63682571D01*
X134794523Y-64206380D02*
X134985000Y-64206380D01*
X135080238Y-64158761D01*
X135127857Y-64111142D01*
X135223095Y-63968285D01*
X135270714Y-63777809D01*
X135270714Y-63396857D01*
X135223095Y-63301619D01*
X135175476Y-63254000D01*
X135080238Y-63206380D01*
X134889761Y-63206380D01*
X134794523Y-63254000D01*
X134746904Y-63301619D01*
X134699285Y-63396857D01*
X134699285Y-63634952D01*
X134746904Y-63730190D01*
X134794523Y-63777809D01*
X134889761Y-63825428D01*
X135080238Y-63825428D01*
X135175476Y-63777809D01*
X135223095Y-63730190D01*
X135270714Y-63634952D01*
X132873904Y-66873380D02*
X132873904Y-65873380D01*
X133254857Y-65873380D01*
X133350095Y-65921000D01*
X133397714Y-65968619D01*
X133445333Y-66063857D01*
X133445333Y-66206714D01*
X133397714Y-66301952D01*
X133350095Y-66349571D01*
X133254857Y-66397190D01*
X132873904Y-66397190D01*
X134207238Y-66349571D02*
X134350095Y-66397190D01*
X134397714Y-66444809D01*
X134445333Y-66540047D01*
X134445333Y-66682904D01*
X134397714Y-66778142D01*
X134350095Y-66825761D01*
X134254857Y-66873380D01*
X133873904Y-66873380D01*
X133873904Y-65873380D01*
X134207238Y-65873380D01*
X134302476Y-65921000D01*
X134350095Y-65968619D01*
X134397714Y-66063857D01*
X134397714Y-66159095D01*
X134350095Y-66254333D01*
X134302476Y-66301952D01*
X134207238Y-66349571D01*
X133873904Y-66349571D01*
X135016761Y-66301952D02*
X134921523Y-66254333D01*
X134873904Y-66206714D01*
X134826285Y-66111476D01*
X134826285Y-66063857D01*
X134873904Y-65968619D01*
X134921523Y-65921000D01*
X135016761Y-65873380D01*
X135207238Y-65873380D01*
X135302476Y-65921000D01*
X135350095Y-65968619D01*
X135397714Y-66063857D01*
X135397714Y-66111476D01*
X135350095Y-66206714D01*
X135302476Y-66254333D01*
X135207238Y-66301952D01*
X135016761Y-66301952D01*
X134921523Y-66349571D01*
X134873904Y-66397190D01*
X134826285Y-66492428D01*
X134826285Y-66682904D01*
X134873904Y-66778142D01*
X134921523Y-66825761D01*
X135016761Y-66873380D01*
X135207238Y-66873380D01*
X135302476Y-66825761D01*
X135350095Y-66778142D01*
X135397714Y-66682904D01*
X135397714Y-66492428D01*
X135350095Y-66397190D01*
X135302476Y-66349571D01*
X135207238Y-66301952D01*
X132572285Y-68905428D02*
X133334190Y-68905428D01*
X132953238Y-69286380D02*
X132953238Y-68524476D01*
X133715142Y-68286380D02*
X134334190Y-68286380D01*
X134000857Y-68667333D01*
X134143714Y-68667333D01*
X134238952Y-68714952D01*
X134286571Y-68762571D01*
X134334190Y-68857809D01*
X134334190Y-69095904D01*
X134286571Y-69191142D01*
X134238952Y-69238761D01*
X134143714Y-69286380D01*
X133858000Y-69286380D01*
X133762761Y-69238761D01*
X133715142Y-69191142D01*
X134619904Y-68286380D02*
X134953238Y-69286380D01*
X135286571Y-68286380D01*
X131262666Y-71429571D02*
X131405523Y-71477190D01*
X131453142Y-71524809D01*
X131500761Y-71620047D01*
X131500761Y-71762904D01*
X131453142Y-71858142D01*
X131405523Y-71905761D01*
X131310285Y-71953380D01*
X130929333Y-71953380D01*
X130929333Y-70953380D01*
X131262666Y-70953380D01*
X131357904Y-71001000D01*
X131405523Y-71048619D01*
X131453142Y-71143857D01*
X131453142Y-71239095D01*
X131405523Y-71334333D01*
X131357904Y-71381952D01*
X131262666Y-71429571D01*
X130929333Y-71429571D01*
X132119809Y-70953380D02*
X132310285Y-70953380D01*
X132405523Y-71001000D01*
X132500761Y-71096238D01*
X132548380Y-71286714D01*
X132548380Y-71620047D01*
X132500761Y-71810523D01*
X132405523Y-71905761D01*
X132310285Y-71953380D01*
X132119809Y-71953380D01*
X132024571Y-71905761D01*
X131929333Y-71810523D01*
X131881714Y-71620047D01*
X131881714Y-71286714D01*
X131929333Y-71096238D01*
X132024571Y-71001000D01*
X132119809Y-70953380D01*
X133167428Y-70953380D02*
X133357904Y-70953380D01*
X133453142Y-71001000D01*
X133548380Y-71096238D01*
X133596000Y-71286714D01*
X133596000Y-71620047D01*
X133548380Y-71810523D01*
X133453142Y-71905761D01*
X133357904Y-71953380D01*
X133167428Y-71953380D01*
X133072190Y-71905761D01*
X132976952Y-71810523D01*
X132929333Y-71620047D01*
X132929333Y-71286714D01*
X132976952Y-71096238D01*
X133072190Y-71001000D01*
X133167428Y-70953380D01*
X133881714Y-70953380D02*
X134453142Y-70953380D01*
X134167428Y-71953380D02*
X134167428Y-70953380D01*
X134976952Y-70953380D02*
X135072190Y-70953380D01*
X135167428Y-71001000D01*
X135215047Y-71048619D01*
X135262666Y-71143857D01*
X135310285Y-71334333D01*
X135310285Y-71572428D01*
X135262666Y-71762904D01*
X135215047Y-71858142D01*
X135167428Y-71905761D01*
X135072190Y-71953380D01*
X134976952Y-71953380D01*
X134881714Y-71905761D01*
X134834095Y-71858142D01*
X134786476Y-71762904D01*
X134738857Y-71572428D01*
X134738857Y-71334333D01*
X134786476Y-71143857D01*
X134834095Y-71048619D01*
X134881714Y-71001000D01*
X134976952Y-70953380D01*
X132873904Y-74493380D02*
X132873904Y-73493380D01*
X133254857Y-73493380D01*
X133350095Y-73541000D01*
X133397714Y-73588619D01*
X133445333Y-73683857D01*
X133445333Y-73826714D01*
X133397714Y-73921952D01*
X133350095Y-73969571D01*
X133254857Y-74017190D01*
X132873904Y-74017190D01*
X134207238Y-73969571D02*
X134350095Y-74017190D01*
X134397714Y-74064809D01*
X134445333Y-74160047D01*
X134445333Y-74302904D01*
X134397714Y-74398142D01*
X134350095Y-74445761D01*
X134254857Y-74493380D01*
X133873904Y-74493380D01*
X133873904Y-73493380D01*
X134207238Y-73493380D01*
X134302476Y-73541000D01*
X134350095Y-73588619D01*
X134397714Y-73683857D01*
X134397714Y-73779095D01*
X134350095Y-73874333D01*
X134302476Y-73921952D01*
X134207238Y-73969571D01*
X133873904Y-73969571D01*
X134778666Y-73493380D02*
X135445333Y-73493380D01*
X135016761Y-74493380D01*
X133000904Y-77033380D02*
X133000904Y-76033380D01*
X133381857Y-76033380D01*
X133477095Y-76081000D01*
X133524714Y-76128619D01*
X133572333Y-76223857D01*
X133572333Y-76366714D01*
X133524714Y-76461952D01*
X133477095Y-76509571D01*
X133381857Y-76557190D01*
X133000904Y-76557190D01*
X134334238Y-76509571D02*
X134477095Y-76557190D01*
X134524714Y-76604809D01*
X134572333Y-76700047D01*
X134572333Y-76842904D01*
X134524714Y-76938142D01*
X134477095Y-76985761D01*
X134381857Y-77033380D01*
X134000904Y-77033380D01*
X134000904Y-76033380D01*
X134334238Y-76033380D01*
X134429476Y-76081000D01*
X134477095Y-76128619D01*
X134524714Y-76223857D01*
X134524714Y-76319095D01*
X134477095Y-76414333D01*
X134429476Y-76461952D01*
X134334238Y-76509571D01*
X134000904Y-76509571D01*
X135429476Y-76033380D02*
X135239000Y-76033380D01*
X135143761Y-76081000D01*
X135096142Y-76128619D01*
X135000904Y-76271476D01*
X134953285Y-76461952D01*
X134953285Y-76842904D01*
X135000904Y-76938142D01*
X135048523Y-76985761D01*
X135143761Y-77033380D01*
X135334238Y-77033380D01*
X135429476Y-76985761D01*
X135477095Y-76938142D01*
X135524714Y-76842904D01*
X135524714Y-76604809D01*
X135477095Y-76509571D01*
X135429476Y-76461952D01*
X135334238Y-76414333D01*
X135143761Y-76414333D01*
X135048523Y-76461952D01*
X135000904Y-76509571D01*
X134953285Y-76604809D01*
X132873904Y-79573380D02*
X132873904Y-78573380D01*
X133254857Y-78573380D01*
X133350095Y-78621000D01*
X133397714Y-78668619D01*
X133445333Y-78763857D01*
X133445333Y-78906714D01*
X133397714Y-79001952D01*
X133350095Y-79049571D01*
X133254857Y-79097190D01*
X132873904Y-79097190D01*
X134207238Y-79049571D02*
X134350095Y-79097190D01*
X134397714Y-79144809D01*
X134445333Y-79240047D01*
X134445333Y-79382904D01*
X134397714Y-79478142D01*
X134350095Y-79525761D01*
X134254857Y-79573380D01*
X133873904Y-79573380D01*
X133873904Y-78573380D01*
X134207238Y-78573380D01*
X134302476Y-78621000D01*
X134350095Y-78668619D01*
X134397714Y-78763857D01*
X134397714Y-78859095D01*
X134350095Y-78954333D01*
X134302476Y-79001952D01*
X134207238Y-79049571D01*
X133873904Y-79049571D01*
X135350095Y-78573380D02*
X134873904Y-78573380D01*
X134826285Y-79049571D01*
X134873904Y-79001952D01*
X134969142Y-78954333D01*
X135207238Y-78954333D01*
X135302476Y-79001952D01*
X135350095Y-79049571D01*
X135397714Y-79144809D01*
X135397714Y-79382904D01*
X135350095Y-79478142D01*
X135302476Y-79525761D01*
X135207238Y-79573380D01*
X134969142Y-79573380D01*
X134873904Y-79525761D01*
X134826285Y-79478142D01*
X132873904Y-82113380D02*
X132873904Y-81113380D01*
X133254857Y-81113380D01*
X133350095Y-81161000D01*
X133397714Y-81208619D01*
X133445333Y-81303857D01*
X133445333Y-81446714D01*
X133397714Y-81541952D01*
X133350095Y-81589571D01*
X133254857Y-81637190D01*
X132873904Y-81637190D01*
X134207238Y-81589571D02*
X134350095Y-81637190D01*
X134397714Y-81684809D01*
X134445333Y-81780047D01*
X134445333Y-81922904D01*
X134397714Y-82018142D01*
X134350095Y-82065761D01*
X134254857Y-82113380D01*
X133873904Y-82113380D01*
X133873904Y-81113380D01*
X134207238Y-81113380D01*
X134302476Y-81161000D01*
X134350095Y-81208619D01*
X134397714Y-81303857D01*
X134397714Y-81399095D01*
X134350095Y-81494333D01*
X134302476Y-81541952D01*
X134207238Y-81589571D01*
X133873904Y-81589571D01*
X135302476Y-81446714D02*
X135302476Y-82113380D01*
X135064380Y-81065761D02*
X134826285Y-81780047D01*
X135445333Y-81780047D01*
X132873904Y-84653380D02*
X132873904Y-83653380D01*
X133254857Y-83653380D01*
X133350095Y-83701000D01*
X133397714Y-83748619D01*
X133445333Y-83843857D01*
X133445333Y-83986714D01*
X133397714Y-84081952D01*
X133350095Y-84129571D01*
X133254857Y-84177190D01*
X132873904Y-84177190D01*
X134207238Y-84129571D02*
X134350095Y-84177190D01*
X134397714Y-84224809D01*
X134445333Y-84320047D01*
X134445333Y-84462904D01*
X134397714Y-84558142D01*
X134350095Y-84605761D01*
X134254857Y-84653380D01*
X133873904Y-84653380D01*
X133873904Y-83653380D01*
X134207238Y-83653380D01*
X134302476Y-83701000D01*
X134350095Y-83748619D01*
X134397714Y-83843857D01*
X134397714Y-83939095D01*
X134350095Y-84034333D01*
X134302476Y-84081952D01*
X134207238Y-84129571D01*
X133873904Y-84129571D01*
X134778666Y-83653380D02*
X135397714Y-83653380D01*
X135064380Y-84034333D01*
X135207238Y-84034333D01*
X135302476Y-84081952D01*
X135350095Y-84129571D01*
X135397714Y-84224809D01*
X135397714Y-84462904D01*
X135350095Y-84558142D01*
X135302476Y-84605761D01*
X135207238Y-84653380D01*
X134921523Y-84653380D01*
X134826285Y-84605761D01*
X134778666Y-84558142D01*
X132873904Y-87066380D02*
X132873904Y-86066380D01*
X133254857Y-86066380D01*
X133350095Y-86114000D01*
X133397714Y-86161619D01*
X133445333Y-86256857D01*
X133445333Y-86399714D01*
X133397714Y-86494952D01*
X133350095Y-86542571D01*
X133254857Y-86590190D01*
X132873904Y-86590190D01*
X133873904Y-87066380D02*
X133873904Y-86066380D01*
X134112000Y-86066380D01*
X134254857Y-86114000D01*
X134350095Y-86209238D01*
X134397714Y-86304476D01*
X134445333Y-86494952D01*
X134445333Y-86637809D01*
X134397714Y-86828285D01*
X134350095Y-86923523D01*
X134254857Y-87018761D01*
X134112000Y-87066380D01*
X133873904Y-87066380D01*
X134826285Y-86161619D02*
X134873904Y-86114000D01*
X134969142Y-86066380D01*
X135207238Y-86066380D01*
X135302476Y-86114000D01*
X135350095Y-86161619D01*
X135397714Y-86256857D01*
X135397714Y-86352095D01*
X135350095Y-86494952D01*
X134778666Y-87066380D01*
X135397714Y-87066380D01*
X131889714Y-89733380D02*
X131889714Y-88733380D01*
X132270666Y-88733380D01*
X132365904Y-88781000D01*
X132413523Y-88828619D01*
X132461142Y-88923857D01*
X132461142Y-89066714D01*
X132413523Y-89161952D01*
X132365904Y-89209571D01*
X132270666Y-89257190D01*
X131889714Y-89257190D01*
X133461142Y-89638142D02*
X133413523Y-89685761D01*
X133270666Y-89733380D01*
X133175428Y-89733380D01*
X133032571Y-89685761D01*
X132937333Y-89590523D01*
X132889714Y-89495285D01*
X132842095Y-89304809D01*
X132842095Y-89161952D01*
X132889714Y-88971476D01*
X132937333Y-88876238D01*
X133032571Y-88781000D01*
X133175428Y-88733380D01*
X133270666Y-88733380D01*
X133413523Y-88781000D01*
X133461142Y-88828619D01*
X134413523Y-89733380D02*
X133842095Y-89733380D01*
X134127809Y-89733380D02*
X134127809Y-88733380D01*
X134032571Y-88876238D01*
X133937333Y-88971476D01*
X133842095Y-89019095D01*
X134794476Y-88828619D02*
X134842095Y-88781000D01*
X134937333Y-88733380D01*
X135175428Y-88733380D01*
X135270666Y-88781000D01*
X135318285Y-88828619D01*
X135365904Y-88923857D01*
X135365904Y-89019095D01*
X135318285Y-89161952D01*
X134746857Y-89733380D01*
X135365904Y-89733380D01*
X132016714Y-92146380D02*
X132016714Y-91146380D01*
X132397666Y-91146380D01*
X132492904Y-91194000D01*
X132540523Y-91241619D01*
X132588142Y-91336857D01*
X132588142Y-91479714D01*
X132540523Y-91574952D01*
X132492904Y-91622571D01*
X132397666Y-91670190D01*
X132016714Y-91670190D01*
X133588142Y-92051142D02*
X133540523Y-92098761D01*
X133397666Y-92146380D01*
X133302428Y-92146380D01*
X133159571Y-92098761D01*
X133064333Y-92003523D01*
X133016714Y-91908285D01*
X132969095Y-91717809D01*
X132969095Y-91574952D01*
X133016714Y-91384476D01*
X133064333Y-91289238D01*
X133159571Y-91194000D01*
X133302428Y-91146380D01*
X133397666Y-91146380D01*
X133540523Y-91194000D01*
X133588142Y-91241619D01*
X134540523Y-92146380D02*
X133969095Y-92146380D01*
X134254809Y-92146380D02*
X134254809Y-91146380D01*
X134159571Y-91289238D01*
X134064333Y-91384476D01*
X133969095Y-91432095D01*
X135492904Y-92146380D02*
X134921476Y-92146380D01*
X135207190Y-92146380D02*
X135207190Y-91146380D01*
X135111952Y-91289238D01*
X135016714Y-91384476D01*
X134921476Y-91432095D01*
X131889714Y-94813380D02*
X131889714Y-93813380D01*
X132270666Y-93813380D01*
X132365904Y-93861000D01*
X132413523Y-93908619D01*
X132461142Y-94003857D01*
X132461142Y-94146714D01*
X132413523Y-94241952D01*
X132365904Y-94289571D01*
X132270666Y-94337190D01*
X131889714Y-94337190D01*
X133461142Y-94718142D02*
X133413523Y-94765761D01*
X133270666Y-94813380D01*
X133175428Y-94813380D01*
X133032571Y-94765761D01*
X132937333Y-94670523D01*
X132889714Y-94575285D01*
X132842095Y-94384809D01*
X132842095Y-94241952D01*
X132889714Y-94051476D01*
X132937333Y-93956238D01*
X133032571Y-93861000D01*
X133175428Y-93813380D01*
X133270666Y-93813380D01*
X133413523Y-93861000D01*
X133461142Y-93908619D01*
X134413523Y-94813380D02*
X133842095Y-94813380D01*
X134127809Y-94813380D02*
X134127809Y-93813380D01*
X134032571Y-93956238D01*
X133937333Y-94051476D01*
X133842095Y-94099095D01*
X135032571Y-93813380D02*
X135127809Y-93813380D01*
X135223047Y-93861000D01*
X135270666Y-93908619D01*
X135318285Y-94003857D01*
X135365904Y-94194333D01*
X135365904Y-94432428D01*
X135318285Y-94622904D01*
X135270666Y-94718142D01*
X135223047Y-94765761D01*
X135127809Y-94813380D01*
X135032571Y-94813380D01*
X134937333Y-94765761D01*
X134889714Y-94718142D01*
X134842095Y-94622904D01*
X134794476Y-94432428D01*
X134794476Y-94194333D01*
X134842095Y-94003857D01*
X134889714Y-93908619D01*
X134937333Y-93861000D01*
X135032571Y-93813380D01*
X131961142Y-97353380D02*
X131961142Y-96353380D01*
X132342095Y-96353380D01*
X132437333Y-96401000D01*
X132484952Y-96448619D01*
X132532571Y-96543857D01*
X132532571Y-96686714D01*
X132484952Y-96781952D01*
X132437333Y-96829571D01*
X132342095Y-96877190D01*
X131961142Y-96877190D01*
X132913523Y-97067666D02*
X133389714Y-97067666D01*
X132818285Y-97353380D02*
X133151619Y-96353380D01*
X133484952Y-97353380D01*
X134342095Y-97353380D02*
X133770666Y-97353380D01*
X134056380Y-97353380D02*
X134056380Y-96353380D01*
X133961142Y-96496238D01*
X133865904Y-96591476D01*
X133770666Y-96639095D01*
X135246857Y-96353380D02*
X134770666Y-96353380D01*
X134723047Y-96829571D01*
X134770666Y-96781952D01*
X134865904Y-96734333D01*
X135104000Y-96734333D01*
X135199238Y-96781952D01*
X135246857Y-96829571D01*
X135294476Y-96924809D01*
X135294476Y-97162904D01*
X135246857Y-97258142D01*
X135199238Y-97305761D01*
X135104000Y-97353380D01*
X134865904Y-97353380D01*
X134770666Y-97305761D01*
X134723047Y-97258142D01*
X132088142Y-99893380D02*
X132088142Y-98893380D01*
X132469095Y-98893380D01*
X132564333Y-98941000D01*
X132611952Y-98988619D01*
X132659571Y-99083857D01*
X132659571Y-99226714D01*
X132611952Y-99321952D01*
X132564333Y-99369571D01*
X132469095Y-99417190D01*
X132088142Y-99417190D01*
X133040523Y-99607666D02*
X133516714Y-99607666D01*
X132945285Y-99893380D02*
X133278619Y-98893380D01*
X133611952Y-99893380D01*
X134469095Y-99893380D02*
X133897666Y-99893380D01*
X134183380Y-99893380D02*
X134183380Y-98893380D01*
X134088142Y-99036238D01*
X133992904Y-99131476D01*
X133897666Y-99179095D01*
X135326238Y-99226714D02*
X135326238Y-99893380D01*
X135088142Y-98845761D02*
X134850047Y-99560047D01*
X135469095Y-99560047D01*
X132818333Y-102433380D02*
X132818333Y-101433380D01*
X133199285Y-101433380D01*
X133294523Y-101481000D01*
X133342142Y-101528619D01*
X133389761Y-101623857D01*
X133389761Y-101766714D01*
X133342142Y-101861952D01*
X133294523Y-101909571D01*
X133199285Y-101957190D01*
X132818333Y-101957190D01*
X134151666Y-101909571D02*
X133818333Y-101909571D01*
X133818333Y-102433380D02*
X133818333Y-101433380D01*
X134294523Y-101433380D01*
X134580238Y-101433380D02*
X135246904Y-101433380D01*
X134818333Y-102433380D01*
X132945333Y-104973380D02*
X132945333Y-103973380D01*
X133326285Y-103973380D01*
X133421523Y-104021000D01*
X133469142Y-104068619D01*
X133516761Y-104163857D01*
X133516761Y-104306714D01*
X133469142Y-104401952D01*
X133421523Y-104449571D01*
X133326285Y-104497190D01*
X132945333Y-104497190D01*
X134278666Y-104449571D02*
X133945333Y-104449571D01*
X133945333Y-104973380D02*
X133945333Y-103973380D01*
X134421523Y-103973380D01*
X135231047Y-103973380D02*
X135040571Y-103973380D01*
X134945333Y-104021000D01*
X134897714Y-104068619D01*
X134802476Y-104211476D01*
X134754857Y-104401952D01*
X134754857Y-104782904D01*
X134802476Y-104878142D01*
X134850095Y-104925761D01*
X134945333Y-104973380D01*
X135135809Y-104973380D01*
X135231047Y-104925761D01*
X135278666Y-104878142D01*
X135326285Y-104782904D01*
X135326285Y-104544809D01*
X135278666Y-104449571D01*
X135231047Y-104401952D01*
X135135809Y-104354333D01*
X134945333Y-104354333D01*
X134850095Y-104401952D01*
X134802476Y-104449571D01*
X134754857Y-104544809D01*
X132215142Y-107513380D02*
X132215142Y-106513380D01*
X132596095Y-106513380D01*
X132691333Y-106561000D01*
X132738952Y-106608619D01*
X132786571Y-106703857D01*
X132786571Y-106846714D01*
X132738952Y-106941952D01*
X132691333Y-106989571D01*
X132596095Y-107037190D01*
X132215142Y-107037190D01*
X133167523Y-107227666D02*
X133643714Y-107227666D01*
X133072285Y-107513380D02*
X133405619Y-106513380D01*
X133738952Y-107513380D01*
X134596095Y-107513380D02*
X134024666Y-107513380D01*
X134310380Y-107513380D02*
X134310380Y-106513380D01*
X134215142Y-106656238D01*
X134119904Y-106751476D01*
X134024666Y-106799095D01*
X134929428Y-106513380D02*
X135548476Y-106513380D01*
X135215142Y-106894333D01*
X135358000Y-106894333D01*
X135453238Y-106941952D01*
X135500857Y-106989571D01*
X135548476Y-107084809D01*
X135548476Y-107322904D01*
X135500857Y-107418142D01*
X135453238Y-107465761D01*
X135358000Y-107513380D01*
X135072285Y-107513380D01*
X134977047Y-107465761D01*
X134929428Y-107418142D01*
X132088142Y-109926380D02*
X132088142Y-108926380D01*
X132469095Y-108926380D01*
X132564333Y-108974000D01*
X132611952Y-109021619D01*
X132659571Y-109116857D01*
X132659571Y-109259714D01*
X132611952Y-109354952D01*
X132564333Y-109402571D01*
X132469095Y-109450190D01*
X132088142Y-109450190D01*
X133040523Y-109640666D02*
X133516714Y-109640666D01*
X132945285Y-109926380D02*
X133278619Y-108926380D01*
X133611952Y-109926380D01*
X134469095Y-109926380D02*
X133897666Y-109926380D01*
X134183380Y-109926380D02*
X134183380Y-108926380D01*
X134088142Y-109069238D01*
X133992904Y-109164476D01*
X133897666Y-109212095D01*
X134850047Y-109021619D02*
X134897666Y-108974000D01*
X134992904Y-108926380D01*
X135231000Y-108926380D01*
X135326238Y-108974000D01*
X135373857Y-109021619D01*
X135421476Y-109116857D01*
X135421476Y-109212095D01*
X135373857Y-109354952D01*
X134802428Y-109926380D01*
X135421476Y-109926380D01*
X132088142Y-112466380D02*
X132088142Y-111466380D01*
X132469095Y-111466380D01*
X132564333Y-111514000D01*
X132611952Y-111561619D01*
X132659571Y-111656857D01*
X132659571Y-111799714D01*
X132611952Y-111894952D01*
X132564333Y-111942571D01*
X132469095Y-111990190D01*
X132088142Y-111990190D01*
X133040523Y-112180666D02*
X133516714Y-112180666D01*
X132945285Y-112466380D02*
X133278619Y-111466380D01*
X133611952Y-112466380D01*
X134469095Y-112466380D02*
X133897666Y-112466380D01*
X134183380Y-112466380D02*
X134183380Y-111466380D01*
X134088142Y-111609238D01*
X133992904Y-111704476D01*
X133897666Y-111752095D01*
X135421476Y-112466380D02*
X134850047Y-112466380D01*
X135135761Y-112466380D02*
X135135761Y-111466380D01*
X135040523Y-111609238D01*
X134945285Y-111704476D01*
X134850047Y-111752095D01*
X132088142Y-115260380D02*
X132088142Y-114260380D01*
X132469095Y-114260380D01*
X132564333Y-114308000D01*
X132611952Y-114355619D01*
X132659571Y-114450857D01*
X132659571Y-114593714D01*
X132611952Y-114688952D01*
X132564333Y-114736571D01*
X132469095Y-114784190D01*
X132088142Y-114784190D01*
X133040523Y-114974666D02*
X133516714Y-114974666D01*
X132945285Y-115260380D02*
X133278619Y-114260380D01*
X133611952Y-115260380D01*
X134469095Y-115260380D02*
X133897666Y-115260380D01*
X134183380Y-115260380D02*
X134183380Y-114260380D01*
X134088142Y-114403238D01*
X133992904Y-114498476D01*
X133897666Y-114546095D01*
X135088142Y-114260380D02*
X135183380Y-114260380D01*
X135278619Y-114308000D01*
X135326238Y-114355619D01*
X135373857Y-114450857D01*
X135421476Y-114641333D01*
X135421476Y-114879428D01*
X135373857Y-115069904D01*
X135326238Y-115165142D01*
X135278619Y-115212761D01*
X135183380Y-115260380D01*
X135088142Y-115260380D01*
X134992904Y-115212761D01*
X134945285Y-115165142D01*
X134897666Y-115069904D01*
X134850047Y-114879428D01*
X134850047Y-114641333D01*
X134897666Y-114450857D01*
X134945285Y-114355619D01*
X134992904Y-114308000D01*
X135088142Y-114260380D01*
X132945333Y-117546380D02*
X132945333Y-116546380D01*
X133326285Y-116546380D01*
X133421523Y-116594000D01*
X133469142Y-116641619D01*
X133516761Y-116736857D01*
X133516761Y-116879714D01*
X133469142Y-116974952D01*
X133421523Y-117022571D01*
X133326285Y-117070190D01*
X132945333Y-117070190D01*
X133897714Y-117260666D02*
X134373904Y-117260666D01*
X133802476Y-117546380D02*
X134135809Y-116546380D01*
X134469142Y-117546380D01*
X134850095Y-117546380D02*
X135040571Y-117546380D01*
X135135809Y-117498761D01*
X135183428Y-117451142D01*
X135278666Y-117308285D01*
X135326285Y-117117809D01*
X135326285Y-116736857D01*
X135278666Y-116641619D01*
X135231047Y-116594000D01*
X135135809Y-116546380D01*
X134945333Y-116546380D01*
X134850095Y-116594000D01*
X134802476Y-116641619D01*
X134754857Y-116736857D01*
X134754857Y-116974952D01*
X134802476Y-117070190D01*
X134850095Y-117117809D01*
X134945333Y-117165428D01*
X135135809Y-117165428D01*
X135231047Y-117117809D01*
X135278666Y-117070190D01*
X135326285Y-116974952D01*
X132945333Y-120213380D02*
X132945333Y-119213380D01*
X133326285Y-119213380D01*
X133421523Y-119261000D01*
X133469142Y-119308619D01*
X133516761Y-119403857D01*
X133516761Y-119546714D01*
X133469142Y-119641952D01*
X133421523Y-119689571D01*
X133326285Y-119737190D01*
X132945333Y-119737190D01*
X133897714Y-119927666D02*
X134373904Y-119927666D01*
X133802476Y-120213380D02*
X134135809Y-119213380D01*
X134469142Y-120213380D01*
X134945333Y-119641952D02*
X134850095Y-119594333D01*
X134802476Y-119546714D01*
X134754857Y-119451476D01*
X134754857Y-119403857D01*
X134802476Y-119308619D01*
X134850095Y-119261000D01*
X134945333Y-119213380D01*
X135135809Y-119213380D01*
X135231047Y-119261000D01*
X135278666Y-119308619D01*
X135326285Y-119403857D01*
X135326285Y-119451476D01*
X135278666Y-119546714D01*
X135231047Y-119594333D01*
X135135809Y-119641952D01*
X134945333Y-119641952D01*
X134850095Y-119689571D01*
X134802476Y-119737190D01*
X134754857Y-119832428D01*
X134754857Y-120022904D01*
X134802476Y-120118142D01*
X134850095Y-120165761D01*
X134945333Y-120213380D01*
X135135809Y-120213380D01*
X135231047Y-120165761D01*
X135278666Y-120118142D01*
X135326285Y-120022904D01*
X135326285Y-119832428D01*
X135278666Y-119737190D01*
X135231047Y-119689571D01*
X135135809Y-119641952D01*
X132873904Y-122753380D02*
X132873904Y-121753380D01*
X133254857Y-121753380D01*
X133350095Y-121801000D01*
X133397714Y-121848619D01*
X133445333Y-121943857D01*
X133445333Y-122086714D01*
X133397714Y-122181952D01*
X133350095Y-122229571D01*
X133254857Y-122277190D01*
X132873904Y-122277190D01*
X134445333Y-122658142D02*
X134397714Y-122705761D01*
X134254857Y-122753380D01*
X134159619Y-122753380D01*
X134016761Y-122705761D01*
X133921523Y-122610523D01*
X133873904Y-122515285D01*
X133826285Y-122324809D01*
X133826285Y-122181952D01*
X133873904Y-121991476D01*
X133921523Y-121896238D01*
X134016761Y-121801000D01*
X134159619Y-121753380D01*
X134254857Y-121753380D01*
X134397714Y-121801000D01*
X134445333Y-121848619D01*
X134921523Y-122753380D02*
X135112000Y-122753380D01*
X135207238Y-122705761D01*
X135254857Y-122658142D01*
X135350095Y-122515285D01*
X135397714Y-122324809D01*
X135397714Y-121943857D01*
X135350095Y-121848619D01*
X135302476Y-121801000D01*
X135207238Y-121753380D01*
X135016761Y-121753380D01*
X134921523Y-121801000D01*
X134873904Y-121848619D01*
X134826285Y-121943857D01*
X134826285Y-122181952D01*
X134873904Y-122277190D01*
X134921523Y-122324809D01*
X135016761Y-122372428D01*
X135207238Y-122372428D01*
X135302476Y-122324809D01*
X135350095Y-122277190D01*
X135397714Y-122181952D01*
X132873904Y-125293380D02*
X132873904Y-124293380D01*
X133254857Y-124293380D01*
X133350095Y-124341000D01*
X133397714Y-124388619D01*
X133445333Y-124483857D01*
X133445333Y-124626714D01*
X133397714Y-124721952D01*
X133350095Y-124769571D01*
X133254857Y-124817190D01*
X132873904Y-124817190D01*
X134445333Y-125198142D02*
X134397714Y-125245761D01*
X134254857Y-125293380D01*
X134159619Y-125293380D01*
X134016761Y-125245761D01*
X133921523Y-125150523D01*
X133873904Y-125055285D01*
X133826285Y-124864809D01*
X133826285Y-124721952D01*
X133873904Y-124531476D01*
X133921523Y-124436238D01*
X134016761Y-124341000D01*
X134159619Y-124293380D01*
X134254857Y-124293380D01*
X134397714Y-124341000D01*
X134445333Y-124388619D01*
X135016761Y-124721952D02*
X134921523Y-124674333D01*
X134873904Y-124626714D01*
X134826285Y-124531476D01*
X134826285Y-124483857D01*
X134873904Y-124388619D01*
X134921523Y-124341000D01*
X135016761Y-124293380D01*
X135207238Y-124293380D01*
X135302476Y-124341000D01*
X135350095Y-124388619D01*
X135397714Y-124483857D01*
X135397714Y-124531476D01*
X135350095Y-124626714D01*
X135302476Y-124674333D01*
X135207238Y-124721952D01*
X135016761Y-124721952D01*
X134921523Y-124769571D01*
X134873904Y-124817190D01*
X134826285Y-124912428D01*
X134826285Y-125102904D01*
X134873904Y-125198142D01*
X134921523Y-125245761D01*
X135016761Y-125293380D01*
X135207238Y-125293380D01*
X135302476Y-125245761D01*
X135350095Y-125198142D01*
X135397714Y-125102904D01*
X135397714Y-124912428D01*
X135350095Y-124817190D01*
X135302476Y-124769571D01*
X135207238Y-124721952D01*
X132873904Y-127706380D02*
X132873904Y-126706380D01*
X133254857Y-126706380D01*
X133350095Y-126754000D01*
X133397714Y-126801619D01*
X133445333Y-126896857D01*
X133445333Y-127039714D01*
X133397714Y-127134952D01*
X133350095Y-127182571D01*
X133254857Y-127230190D01*
X132873904Y-127230190D01*
X134445333Y-127611142D02*
X134397714Y-127658761D01*
X134254857Y-127706380D01*
X134159619Y-127706380D01*
X134016761Y-127658761D01*
X133921523Y-127563523D01*
X133873904Y-127468285D01*
X133826285Y-127277809D01*
X133826285Y-127134952D01*
X133873904Y-126944476D01*
X133921523Y-126849238D01*
X134016761Y-126754000D01*
X134159619Y-126706380D01*
X134254857Y-126706380D01*
X134397714Y-126754000D01*
X134445333Y-126801619D01*
X134778666Y-126706380D02*
X135445333Y-126706380D01*
X135016761Y-127706380D01*
X133000904Y-130500380D02*
X133000904Y-129500380D01*
X133381857Y-129500380D01*
X133477095Y-129548000D01*
X133524714Y-129595619D01*
X133572333Y-129690857D01*
X133572333Y-129833714D01*
X133524714Y-129928952D01*
X133477095Y-129976571D01*
X133381857Y-130024190D01*
X133000904Y-130024190D01*
X134572333Y-130405142D02*
X134524714Y-130452761D01*
X134381857Y-130500380D01*
X134286619Y-130500380D01*
X134143761Y-130452761D01*
X134048523Y-130357523D01*
X134000904Y-130262285D01*
X133953285Y-130071809D01*
X133953285Y-129928952D01*
X134000904Y-129738476D01*
X134048523Y-129643238D01*
X134143761Y-129548000D01*
X134286619Y-129500380D01*
X134381857Y-129500380D01*
X134524714Y-129548000D01*
X134572333Y-129595619D01*
X135429476Y-129500380D02*
X135239000Y-129500380D01*
X135143761Y-129548000D01*
X135096142Y-129595619D01*
X135000904Y-129738476D01*
X134953285Y-129928952D01*
X134953285Y-130309904D01*
X135000904Y-130405142D01*
X135048523Y-130452761D01*
X135143761Y-130500380D01*
X135334238Y-130500380D01*
X135429476Y-130452761D01*
X135477095Y-130405142D01*
X135524714Y-130309904D01*
X135524714Y-130071809D01*
X135477095Y-129976571D01*
X135429476Y-129928952D01*
X135334238Y-129881333D01*
X135143761Y-129881333D01*
X135048523Y-129928952D01*
X135000904Y-129976571D01*
X134953285Y-130071809D01*
X131762714Y-132913380D02*
X131762714Y-131913380D01*
X132143666Y-131913380D01*
X132238904Y-131961000D01*
X132286523Y-132008619D01*
X132334142Y-132103857D01*
X132334142Y-132246714D01*
X132286523Y-132341952D01*
X132238904Y-132389571D01*
X132143666Y-132437190D01*
X131762714Y-132437190D01*
X133096047Y-132389571D02*
X133238904Y-132437190D01*
X133286523Y-132484809D01*
X133334142Y-132580047D01*
X133334142Y-132722904D01*
X133286523Y-132818142D01*
X133238904Y-132865761D01*
X133143666Y-132913380D01*
X132762714Y-132913380D01*
X132762714Y-131913380D01*
X133096047Y-131913380D01*
X133191285Y-131961000D01*
X133238904Y-132008619D01*
X133286523Y-132103857D01*
X133286523Y-132199095D01*
X133238904Y-132294333D01*
X133191285Y-132341952D01*
X133096047Y-132389571D01*
X132762714Y-132389571D01*
X134286523Y-132913380D02*
X133715095Y-132913380D01*
X134000809Y-132913380D02*
X134000809Y-131913380D01*
X133905571Y-132056238D01*
X133810333Y-132151476D01*
X133715095Y-132199095D01*
X135191285Y-131913380D02*
X134715095Y-131913380D01*
X134667476Y-132389571D01*
X134715095Y-132341952D01*
X134810333Y-132294333D01*
X135048428Y-132294333D01*
X135143666Y-132341952D01*
X135191285Y-132389571D01*
X135238904Y-132484809D01*
X135238904Y-132722904D01*
X135191285Y-132818142D01*
X135143666Y-132865761D01*
X135048428Y-132913380D01*
X134810333Y-132913380D01*
X134715095Y-132865761D01*
X134667476Y-132818142D01*
X131889714Y-135326380D02*
X131889714Y-134326380D01*
X132270666Y-134326380D01*
X132365904Y-134374000D01*
X132413523Y-134421619D01*
X132461142Y-134516857D01*
X132461142Y-134659714D01*
X132413523Y-134754952D01*
X132365904Y-134802571D01*
X132270666Y-134850190D01*
X131889714Y-134850190D01*
X133223047Y-134802571D02*
X133365904Y-134850190D01*
X133413523Y-134897809D01*
X133461142Y-134993047D01*
X133461142Y-135135904D01*
X133413523Y-135231142D01*
X133365904Y-135278761D01*
X133270666Y-135326380D01*
X132889714Y-135326380D01*
X132889714Y-134326380D01*
X133223047Y-134326380D01*
X133318285Y-134374000D01*
X133365904Y-134421619D01*
X133413523Y-134516857D01*
X133413523Y-134612095D01*
X133365904Y-134707333D01*
X133318285Y-134754952D01*
X133223047Y-134802571D01*
X132889714Y-134802571D01*
X134413523Y-135326380D02*
X133842095Y-135326380D01*
X134127809Y-135326380D02*
X134127809Y-134326380D01*
X134032571Y-134469238D01*
X133937333Y-134564476D01*
X133842095Y-134612095D01*
X135270666Y-134659714D02*
X135270666Y-135326380D01*
X135032571Y-134278761D02*
X134794476Y-134993047D01*
X135413523Y-134993047D01*
X131889714Y-137993380D02*
X131889714Y-136993380D01*
X132270666Y-136993380D01*
X132365904Y-137041000D01*
X132413523Y-137088619D01*
X132461142Y-137183857D01*
X132461142Y-137326714D01*
X132413523Y-137421952D01*
X132365904Y-137469571D01*
X132270666Y-137517190D01*
X131889714Y-137517190D01*
X133223047Y-137469571D02*
X133365904Y-137517190D01*
X133413523Y-137564809D01*
X133461142Y-137660047D01*
X133461142Y-137802904D01*
X133413523Y-137898142D01*
X133365904Y-137945761D01*
X133270666Y-137993380D01*
X132889714Y-137993380D01*
X132889714Y-136993380D01*
X133223047Y-136993380D01*
X133318285Y-137041000D01*
X133365904Y-137088619D01*
X133413523Y-137183857D01*
X133413523Y-137279095D01*
X133365904Y-137374333D01*
X133318285Y-137421952D01*
X133223047Y-137469571D01*
X132889714Y-137469571D01*
X134413523Y-137993380D02*
X133842095Y-137993380D01*
X134127809Y-137993380D02*
X134127809Y-136993380D01*
X134032571Y-137136238D01*
X133937333Y-137231476D01*
X133842095Y-137279095D01*
X134746857Y-136993380D02*
X135365904Y-136993380D01*
X135032571Y-137374333D01*
X135175428Y-137374333D01*
X135270666Y-137421952D01*
X135318285Y-137469571D01*
X135365904Y-137564809D01*
X135365904Y-137802904D01*
X135318285Y-137898142D01*
X135270666Y-137945761D01*
X135175428Y-137993380D01*
X134889714Y-137993380D01*
X134794476Y-137945761D01*
X134746857Y-137898142D01*
X133223095Y-139581000D02*
X133127857Y-139533380D01*
X132985000Y-139533380D01*
X132842142Y-139581000D01*
X132746904Y-139676238D01*
X132699285Y-139771476D01*
X132651666Y-139961952D01*
X132651666Y-140104809D01*
X132699285Y-140295285D01*
X132746904Y-140390523D01*
X132842142Y-140485761D01*
X132985000Y-140533380D01*
X133080238Y-140533380D01*
X133223095Y-140485761D01*
X133270714Y-140438142D01*
X133270714Y-140104809D01*
X133080238Y-140104809D01*
X133699285Y-140533380D02*
X133699285Y-139533380D01*
X134270714Y-140533380D01*
X134270714Y-139533380D01*
X134746904Y-140533380D02*
X134746904Y-139533380D01*
X134985000Y-139533380D01*
X135127857Y-139581000D01*
X135223095Y-139676238D01*
X135270714Y-139771476D01*
X135318333Y-139961952D01*
X135318333Y-140104809D01*
X135270714Y-140295285D01*
X135223095Y-140390523D01*
X135127857Y-140485761D01*
X134985000Y-140533380D01*
X134746904Y-140533380D01*
D10*
X97726904Y-120146000D02*
X97679285Y-120122190D01*
X97607857Y-120122190D01*
X97536428Y-120146000D01*
X97488809Y-120193619D01*
X97465000Y-120241238D01*
X97441190Y-120336476D01*
X97441190Y-120407904D01*
X97465000Y-120503142D01*
X97488809Y-120550761D01*
X97536428Y-120598380D01*
X97607857Y-120622190D01*
X97655476Y-120622190D01*
X97726904Y-120598380D01*
X97750714Y-120574571D01*
X97750714Y-120407904D01*
X97655476Y-120407904D01*
X97965000Y-120622190D02*
X97965000Y-120122190D01*
X98250714Y-120622190D01*
X98250714Y-120122190D01*
X98488809Y-120622190D02*
X98488809Y-120122190D01*
X98607857Y-120122190D01*
X98679285Y-120146000D01*
X98726904Y-120193619D01*
X98750714Y-120241238D01*
X98774523Y-120336476D01*
X98774523Y-120407904D01*
X98750714Y-120503142D01*
X98726904Y-120550761D01*
X98679285Y-120598380D01*
X98607857Y-120622190D01*
X98488809Y-120622190D01*
X99631666Y-120146000D02*
X99584047Y-120122190D01*
X99512619Y-120122190D01*
X99441190Y-120146000D01*
X99393571Y-120193619D01*
X99369761Y-120241238D01*
X99345952Y-120336476D01*
X99345952Y-120407904D01*
X99369761Y-120503142D01*
X99393571Y-120550761D01*
X99441190Y-120598380D01*
X99512619Y-120622190D01*
X99560238Y-120622190D01*
X99631666Y-120598380D01*
X99655476Y-120574571D01*
X99655476Y-120407904D01*
X99560238Y-120407904D01*
X99869761Y-120622190D02*
X99869761Y-120122190D01*
X100155476Y-120622190D01*
X100155476Y-120122190D01*
X100393571Y-120622190D02*
X100393571Y-120122190D01*
X100512619Y-120122190D01*
X100584047Y-120146000D01*
X100631666Y-120193619D01*
X100655476Y-120241238D01*
X100679285Y-120336476D01*
X100679285Y-120407904D01*
X100655476Y-120503142D01*
X100631666Y-120550761D01*
X100584047Y-120598380D01*
X100512619Y-120622190D01*
X100393571Y-120622190D01*
X101274523Y-120431714D02*
X101655476Y-120431714D01*
X101465000Y-120622190D02*
X101465000Y-120241238D01*
X102131666Y-120122190D02*
X101893571Y-120122190D01*
X101869761Y-120360285D01*
X101893571Y-120336476D01*
X101941190Y-120312666D01*
X102060238Y-120312666D01*
X102107857Y-120336476D01*
X102131666Y-120360285D01*
X102155476Y-120407904D01*
X102155476Y-120526952D01*
X102131666Y-120574571D01*
X102107857Y-120598380D01*
X102060238Y-120622190D01*
X101941190Y-120622190D01*
X101893571Y-120598380D01*
X101869761Y-120574571D01*
X102298333Y-120122190D02*
X102465000Y-120622190D01*
X102631666Y-120122190D01*
X103179285Y-120431714D02*
X103560238Y-120431714D01*
X103369761Y-120622190D02*
X103369761Y-120241238D01*
X104036428Y-120122190D02*
X103798333Y-120122190D01*
X103774523Y-120360285D01*
X103798333Y-120336476D01*
X103845952Y-120312666D01*
X103965000Y-120312666D01*
X104012619Y-120336476D01*
X104036428Y-120360285D01*
X104060238Y-120407904D01*
X104060238Y-120526952D01*
X104036428Y-120574571D01*
X104012619Y-120598380D01*
X103965000Y-120622190D01*
X103845952Y-120622190D01*
X103798333Y-120598380D01*
X103774523Y-120574571D01*
X104203095Y-120122190D02*
X104369761Y-120622190D01*
X104536428Y-120122190D01*
D12*
X88997428Y-56910857D02*
X89497428Y-56910857D01*
X89711714Y-57696571D02*
X88997428Y-57696571D01*
X88997428Y-56196571D01*
X89711714Y-56196571D01*
X91211714Y-57553714D02*
X91140285Y-57625142D01*
X90926000Y-57696571D01*
X90783142Y-57696571D01*
X90568857Y-57625142D01*
X90426000Y-57482285D01*
X90354571Y-57339428D01*
X90283142Y-57053714D01*
X90283142Y-56839428D01*
X90354571Y-56553714D01*
X90426000Y-56410857D01*
X90568857Y-56268000D01*
X90783142Y-56196571D01*
X90926000Y-56196571D01*
X91140285Y-56268000D01*
X91211714Y-56339428D01*
X91854571Y-56910857D02*
X92354571Y-56910857D01*
X92568857Y-57696571D02*
X91854571Y-57696571D01*
X91854571Y-56196571D01*
X92568857Y-56196571D01*
X93068857Y-56196571D02*
X93997428Y-56196571D01*
X93497428Y-56768000D01*
X93711714Y-56768000D01*
X93854571Y-56839428D01*
X93926000Y-56910857D01*
X93997428Y-57053714D01*
X93997428Y-57410857D01*
X93926000Y-57553714D01*
X93854571Y-57625142D01*
X93711714Y-57696571D01*
X93283142Y-57696571D01*
X93140285Y-57625142D01*
X93068857Y-57553714D01*
X95283142Y-56196571D02*
X94997428Y-56196571D01*
X94854571Y-56268000D01*
X94783142Y-56339428D01*
X94640285Y-56553714D01*
X94568857Y-56839428D01*
X94568857Y-57410857D01*
X94640285Y-57553714D01*
X94711714Y-57625142D01*
X94854571Y-57696571D01*
X95140285Y-57696571D01*
X95283142Y-57625142D01*
X95354571Y-57553714D01*
X95426000Y-57410857D01*
X95426000Y-57053714D01*
X95354571Y-56910857D01*
X95283142Y-56839428D01*
X95140285Y-56768000D01*
X94854571Y-56768000D01*
X94711714Y-56839428D01*
X94640285Y-56910857D01*
X94568857Y-57053714D01*
X95997428Y-56339428D02*
X96068857Y-56268000D01*
X96211714Y-56196571D01*
X96568857Y-56196571D01*
X96711714Y-56268000D01*
X96783142Y-56339428D01*
X96854571Y-56482285D01*
X96854571Y-56625142D01*
X96783142Y-56839428D01*
X95926000Y-57696571D01*
X96854571Y-57696571D01*
X99140285Y-56910857D02*
X98640285Y-56910857D01*
X98640285Y-57696571D02*
X98640285Y-56196571D01*
X99354571Y-56196571D01*
X99926000Y-57696571D02*
X99926000Y-56696571D01*
X99926000Y-56196571D02*
X99854571Y-56268000D01*
X99926000Y-56339428D01*
X99997428Y-56268000D01*
X99926000Y-56196571D01*
X99926000Y-56339428D01*
X100640285Y-56696571D02*
X100640285Y-57696571D01*
X100640285Y-56839428D02*
X100711714Y-56768000D01*
X100854571Y-56696571D01*
X101068857Y-56696571D01*
X101211714Y-56768000D01*
X101283142Y-56910857D01*
X101283142Y-57696571D01*
X102640285Y-57696571D02*
X102640285Y-56910857D01*
X102568857Y-56768000D01*
X102426000Y-56696571D01*
X102140285Y-56696571D01*
X101997428Y-56768000D01*
X102640285Y-57625142D02*
X102497428Y-57696571D01*
X102140285Y-57696571D01*
X101997428Y-57625142D01*
X101926000Y-57482285D01*
X101926000Y-57339428D01*
X101997428Y-57196571D01*
X102140285Y-57125142D01*
X102497428Y-57125142D01*
X102640285Y-57053714D01*
X103568857Y-57696571D02*
X103426000Y-57625142D01*
X103354571Y-57482285D01*
X103354571Y-56196571D01*
X105283142Y-57696571D02*
X105283142Y-56196571D01*
X105854571Y-56196571D01*
X105997428Y-56268000D01*
X106068857Y-56339428D01*
X106140285Y-56482285D01*
X106140285Y-56696571D01*
X106068857Y-56839428D01*
X105997428Y-56910857D01*
X105854571Y-56982285D01*
X105283142Y-56982285D01*
X106783142Y-57696571D02*
X106783142Y-56696571D01*
X106783142Y-56982285D02*
X106854571Y-56839428D01*
X106926000Y-56768000D01*
X107068857Y-56696571D01*
X107211714Y-56696571D01*
X107926000Y-57696571D02*
X107783142Y-57625142D01*
X107711714Y-57553714D01*
X107640285Y-57410857D01*
X107640285Y-56982285D01*
X107711714Y-56839428D01*
X107783142Y-56768000D01*
X107926000Y-56696571D01*
X108140285Y-56696571D01*
X108283142Y-56768000D01*
X108354571Y-56839428D01*
X108426000Y-56982285D01*
X108426000Y-57410857D01*
X108354571Y-57553714D01*
X108283142Y-57625142D01*
X108140285Y-57696571D01*
X107926000Y-57696571D01*
X109068857Y-56696571D02*
X109068857Y-57982285D01*
X108997428Y-58125142D01*
X108854571Y-58196571D01*
X108783142Y-58196571D01*
X109068857Y-56196571D02*
X108997428Y-56268000D01*
X109068857Y-56339428D01*
X109140285Y-56268000D01*
X109068857Y-56196571D01*
X109068857Y-56339428D01*
X110354571Y-57625142D02*
X110211714Y-57696571D01*
X109926000Y-57696571D01*
X109783142Y-57625142D01*
X109711714Y-57482285D01*
X109711714Y-56910857D01*
X109783142Y-56768000D01*
X109926000Y-56696571D01*
X110211714Y-56696571D01*
X110354571Y-56768000D01*
X110426000Y-56910857D01*
X110426000Y-57053714D01*
X109711714Y-57196571D01*
X111711714Y-57625142D02*
X111568857Y-57696571D01*
X111283142Y-57696571D01*
X111140285Y-57625142D01*
X111068857Y-57553714D01*
X110997428Y-57410857D01*
X110997428Y-56982285D01*
X111068857Y-56839428D01*
X111140285Y-56768000D01*
X111283142Y-56696571D01*
X111568857Y-56696571D01*
X111711714Y-56768000D01*
X112140285Y-56696571D02*
X112711714Y-56696571D01*
X112354571Y-56196571D02*
X112354571Y-57482285D01*
X112426000Y-57625142D01*
X112568857Y-57696571D01*
X112711714Y-57696571D01*
X114354571Y-57125142D02*
X115497428Y-57125142D01*
X118211714Y-57696571D02*
X117711714Y-56982285D01*
X117354571Y-57696571D02*
X117354571Y-56196571D01*
X117926000Y-56196571D01*
X118068857Y-56268000D01*
X118140285Y-56339428D01*
X118211714Y-56482285D01*
X118211714Y-56696571D01*
X118140285Y-56839428D01*
X118068857Y-56910857D01*
X117926000Y-56982285D01*
X117354571Y-56982285D01*
X119426000Y-57625142D02*
X119283142Y-57696571D01*
X118997428Y-57696571D01*
X118854571Y-57625142D01*
X118783142Y-57482285D01*
X118783142Y-56910857D01*
X118854571Y-56768000D01*
X118997428Y-56696571D01*
X119283142Y-56696571D01*
X119426000Y-56768000D01*
X119497428Y-56910857D01*
X119497428Y-57053714D01*
X118783142Y-57196571D01*
X119997428Y-56696571D02*
X120354571Y-57696571D01*
X120711714Y-56696571D01*
X121283142Y-57553714D02*
X121354571Y-57625142D01*
X121283142Y-57696571D01*
X121211714Y-57625142D01*
X121283142Y-57553714D01*
X121283142Y-57696571D01*
X121283142Y-56768000D02*
X121354571Y-56839428D01*
X121283142Y-56910857D01*
X121211714Y-56839428D01*
X121283142Y-56768000D01*
X121283142Y-56910857D01*
X123926000Y-57696571D02*
X123068857Y-57696571D01*
X123497428Y-57696571D02*
X123497428Y-56196571D01*
X123354571Y-56410857D01*
X123211714Y-56553714D01*
X123068857Y-56625142D01*
X90640285Y-60246571D02*
X90640285Y-58746571D01*
X90997428Y-58746571D01*
X91211714Y-58818000D01*
X91354571Y-58960857D01*
X91426000Y-59103714D01*
X91497428Y-59389428D01*
X91497428Y-59603714D01*
X91426000Y-59889428D01*
X91354571Y-60032285D01*
X91211714Y-60175142D01*
X90997428Y-60246571D01*
X90640285Y-60246571D01*
X92711714Y-60175142D02*
X92568857Y-60246571D01*
X92283142Y-60246571D01*
X92140285Y-60175142D01*
X92068857Y-60032285D01*
X92068857Y-59460857D01*
X92140285Y-59318000D01*
X92283142Y-59246571D01*
X92568857Y-59246571D01*
X92711714Y-59318000D01*
X92783142Y-59460857D01*
X92783142Y-59603714D01*
X92068857Y-59746571D01*
X93354571Y-60175142D02*
X93497428Y-60246571D01*
X93783142Y-60246571D01*
X93926000Y-60175142D01*
X93997428Y-60032285D01*
X93997428Y-59960857D01*
X93926000Y-59818000D01*
X93783142Y-59746571D01*
X93568857Y-59746571D01*
X93426000Y-59675142D01*
X93354571Y-59532285D01*
X93354571Y-59460857D01*
X93426000Y-59318000D01*
X93568857Y-59246571D01*
X93783142Y-59246571D01*
X93926000Y-59318000D01*
X94640285Y-60246571D02*
X94640285Y-59246571D01*
X94640285Y-58746571D02*
X94568857Y-58818000D01*
X94640285Y-58889428D01*
X94711714Y-58818000D01*
X94640285Y-58746571D01*
X94640285Y-58889428D01*
X95997428Y-59246571D02*
X95997428Y-60460857D01*
X95926000Y-60603714D01*
X95854571Y-60675142D01*
X95711714Y-60746571D01*
X95497428Y-60746571D01*
X95354571Y-60675142D01*
X95997428Y-60175142D02*
X95854571Y-60246571D01*
X95568857Y-60246571D01*
X95426000Y-60175142D01*
X95354571Y-60103714D01*
X95283142Y-59960857D01*
X95283142Y-59532285D01*
X95354571Y-59389428D01*
X95426000Y-59318000D01*
X95568857Y-59246571D01*
X95854571Y-59246571D01*
X95997428Y-59318000D01*
X96711714Y-59246571D02*
X96711714Y-60246571D01*
X96711714Y-59389428D02*
X96783142Y-59318000D01*
X96926000Y-59246571D01*
X97140285Y-59246571D01*
X97283142Y-59318000D01*
X97354571Y-59460857D01*
X97354571Y-60246571D01*
X98640285Y-60175142D02*
X98497428Y-60246571D01*
X98211714Y-60246571D01*
X98068857Y-60175142D01*
X97997428Y-60032285D01*
X97997428Y-59460857D01*
X98068857Y-59318000D01*
X98211714Y-59246571D01*
X98497428Y-59246571D01*
X98640285Y-59318000D01*
X98711714Y-59460857D01*
X98711714Y-59603714D01*
X97997428Y-59746571D01*
X99997428Y-60246571D02*
X99997428Y-58746571D01*
X99997428Y-60175142D02*
X99854571Y-60246571D01*
X99568857Y-60246571D01*
X99426000Y-60175142D01*
X99354571Y-60103714D01*
X99283142Y-59960857D01*
X99283142Y-59532285D01*
X99354571Y-59389428D01*
X99426000Y-59318000D01*
X99568857Y-59246571D01*
X99854571Y-59246571D01*
X99997428Y-59318000D01*
X101854571Y-60246571D02*
X101854571Y-58746571D01*
X101854571Y-59318000D02*
X101997428Y-59246571D01*
X102283142Y-59246571D01*
X102426000Y-59318000D01*
X102497428Y-59389428D01*
X102568857Y-59532285D01*
X102568857Y-59960857D01*
X102497428Y-60103714D01*
X102426000Y-60175142D01*
X102283142Y-60246571D01*
X101997428Y-60246571D01*
X101854571Y-60175142D01*
X103068857Y-59246571D02*
X103426000Y-60246571D01*
X103783142Y-59246571D02*
X103426000Y-60246571D01*
X103283142Y-60603714D01*
X103211714Y-60675142D01*
X103068857Y-60746571D01*
X104354571Y-60103714D02*
X104426000Y-60175142D01*
X104354571Y-60246571D01*
X104283142Y-60175142D01*
X104354571Y-60103714D01*
X104354571Y-60246571D01*
X104354571Y-59318000D02*
X104426000Y-59389428D01*
X104354571Y-59460857D01*
X104283142Y-59389428D01*
X104354571Y-59318000D01*
X104354571Y-59460857D01*
X106140285Y-59818000D02*
X106854571Y-59818000D01*
X105997428Y-60246571D02*
X106497428Y-58746571D01*
X106997428Y-60246571D01*
X107711714Y-60246571D02*
X107568857Y-60175142D01*
X107497428Y-60032285D01*
X107497428Y-58746571D01*
X108926000Y-60246571D02*
X108926000Y-59460857D01*
X108854571Y-59318000D01*
X108711714Y-59246571D01*
X108426000Y-59246571D01*
X108283142Y-59318000D01*
X108926000Y-60175142D02*
X108783142Y-60246571D01*
X108426000Y-60246571D01*
X108283142Y-60175142D01*
X108211714Y-60032285D01*
X108211714Y-59889428D01*
X108283142Y-59746571D01*
X108426000Y-59675142D01*
X108783142Y-59675142D01*
X108926000Y-59603714D01*
X109640285Y-59246571D02*
X109640285Y-60246571D01*
X109640285Y-59389428D02*
X109711714Y-59318000D01*
X109854571Y-59246571D01*
X110068857Y-59246571D01*
X110211714Y-59318000D01*
X110283142Y-59460857D01*
X110283142Y-60246571D01*
X112926000Y-58818000D02*
X112783142Y-58746571D01*
X112568857Y-58746571D01*
X112354571Y-58818000D01*
X112211714Y-58960857D01*
X112140285Y-59103714D01*
X112068857Y-59389428D01*
X112068857Y-59603714D01*
X112140285Y-59889428D01*
X112211714Y-60032285D01*
X112354571Y-60175142D01*
X112568857Y-60246571D01*
X112711714Y-60246571D01*
X112926000Y-60175142D01*
X112997428Y-60103714D01*
X112997428Y-59603714D01*
X112711714Y-59603714D01*
X113640285Y-60246571D02*
X113640285Y-59246571D01*
X113640285Y-59532285D02*
X113711714Y-59389428D01*
X113783142Y-59318000D01*
X113926000Y-59246571D01*
X114068857Y-59246571D01*
X115140285Y-60175142D02*
X114997428Y-60246571D01*
X114711714Y-60246571D01*
X114568857Y-60175142D01*
X114497428Y-60032285D01*
X114497428Y-59460857D01*
X114568857Y-59318000D01*
X114711714Y-59246571D01*
X114997428Y-59246571D01*
X115140285Y-59318000D01*
X115211714Y-59460857D01*
X115211714Y-59603714D01*
X114497428Y-59746571D01*
X116497428Y-59246571D02*
X116497428Y-60460857D01*
X116426000Y-60603714D01*
X116354571Y-60675142D01*
X116211714Y-60746571D01*
X115997428Y-60746571D01*
X115854571Y-60675142D01*
X116497428Y-60175142D02*
X116354571Y-60246571D01*
X116068857Y-60246571D01*
X115926000Y-60175142D01*
X115854571Y-60103714D01*
X115783142Y-59960857D01*
X115783142Y-59532285D01*
X115854571Y-59389428D01*
X115926000Y-59318000D01*
X116068857Y-59246571D01*
X116354571Y-59246571D01*
X116497428Y-59318000D01*
X117426000Y-60246571D02*
X117283142Y-60175142D01*
X117211714Y-60103714D01*
X117140285Y-59960857D01*
X117140285Y-59532285D01*
X117211714Y-59389428D01*
X117283142Y-59318000D01*
X117426000Y-59246571D01*
X117640285Y-59246571D01*
X117783142Y-59318000D01*
X117854571Y-59389428D01*
X117926000Y-59532285D01*
X117926000Y-59960857D01*
X117854571Y-60103714D01*
X117783142Y-60175142D01*
X117640285Y-60246571D01*
X117426000Y-60246571D01*
X118568857Y-60246571D02*
X118568857Y-59246571D01*
X118568857Y-59532285D02*
X118640285Y-59389428D01*
X118711714Y-59318000D01*
X118854571Y-59246571D01*
X118997428Y-59246571D01*
X119497428Y-60246571D02*
X119497428Y-59246571D01*
X119497428Y-58746571D02*
X119426000Y-58818000D01*
X119497428Y-58889428D01*
X119568857Y-58818000D01*
X119497428Y-58746571D01*
X119497428Y-58889428D01*
X120854571Y-60246571D02*
X120854571Y-59460857D01*
X120783142Y-59318000D01*
X120640285Y-59246571D01*
X120354571Y-59246571D01*
X120211714Y-59318000D01*
X120854571Y-60175142D02*
X120711714Y-60246571D01*
X120354571Y-60246571D01*
X120211714Y-60175142D01*
X120140285Y-60032285D01*
X120140285Y-59889428D01*
X120211714Y-59746571D01*
X120354571Y-59675142D01*
X120711714Y-59675142D01*
X120854571Y-59603714D01*
X121568857Y-59246571D02*
X121568857Y-60246571D01*
X121568857Y-59389428D02*
X121640285Y-59318000D01*
X121783142Y-59246571D01*
X121997428Y-59246571D01*
X122140285Y-59318000D01*
X122211714Y-59460857D01*
X122211714Y-60246571D01*
D13*
X136906000Y-57344000D02*
X138236000Y-57344000D01*
X138236000Y-57344000D02*
X138236000Y-58674000D01*
X138236000Y-59944000D02*
X138236000Y-141284000D01*
X135576000Y-141284000D02*
X138236000Y-141284000D01*
X135576000Y-59944000D02*
X135576000Y-141284000D01*
X135576000Y-59944000D02*
X138236000Y-59944000D01*
X86614000Y-57344000D02*
X87944000Y-57344000D01*
X87944000Y-57344000D02*
X87944000Y-58674000D01*
X87944000Y-59944000D02*
X87944000Y-141284000D01*
X85284000Y-141284000D02*
X87944000Y-141284000D01*
X85284000Y-59944000D02*
X85284000Y-141284000D01*
X85284000Y-59944000D02*
X87944000Y-59944000D01*
X125222000Y-62170000D02*
X126552000Y-62170000D01*
X126552000Y-62170000D02*
X126552000Y-63500000D01*
X126552000Y-64770000D02*
X126552000Y-72450000D01*
X123892000Y-72450000D02*
X126552000Y-72450000D01*
X123892000Y-64770000D02*
X123892000Y-72450000D01*
X123892000Y-64770000D02*
X126552000Y-64770000D01*
X105978000Y-122555000D02*
X105978000Y-123885000D01*
X105978000Y-123885000D02*
X104648000Y-123885000D01*
X103378000Y-123885000D02*
X95698000Y-123885000D01*
X95698000Y-121225000D02*
X95698000Y-123885000D01*
X103378000Y-121225000D02*
X95698000Y-121225000D01*
X103378000Y-121225000D02*
X103378000Y-123885000D01*
X110238000Y-87030779D02*
X110238000Y-86705221D01*
X109218000Y-87030779D02*
X109218000Y-86705221D01*
X96077721Y-78488000D02*
X96403279Y-78488000D01*
X96077721Y-77468000D02*
X96403279Y-77468000D01*
X111398000Y-115268000D02*
X111398000Y-113768000D01*
X110148000Y-111268000D02*
X105648000Y-111268000D01*
X104398000Y-113768000D02*
X104398000Y-115268000D01*
X105648000Y-117768000D02*
X110148000Y-117768000D01*
X110128000Y-79708000D02*
X110128000Y-78208000D01*
X108878000Y-75708000D02*
X104378000Y-75708000D01*
X103128000Y-78208000D02*
X103128000Y-79708000D01*
X104378000Y-82208000D02*
X108878000Y-82208000D01*
X112608000Y-125868000D02*
X112608000Y-123418000D01*
X109388000Y-124068000D02*
X109388000Y-125868000D01*
X105888000Y-92868000D02*
X104548000Y-92868000D01*
X105888000Y-91918000D02*
X105888000Y-92868000D01*
X106838000Y-91918000D02*
X105888000Y-91918000D01*
X116108000Y-91918000D02*
X116108000Y-92868000D01*
X115158000Y-91918000D02*
X116108000Y-91918000D01*
X105888000Y-102138000D02*
X105888000Y-101188000D01*
X106838000Y-102138000D02*
X105888000Y-102138000D01*
X116108000Y-102138000D02*
X116108000Y-101188000D01*
X115158000Y-102138000D02*
X116108000Y-102138000D01*
X118780779Y-115568000D02*
X118455221Y-115568000D01*
X118780779Y-116588000D02*
X118455221Y-116588000D01*
X115915221Y-112778000D02*
X116240779Y-112778000D01*
X115915221Y-111758000D02*
X116240779Y-111758000D01*
X118455221Y-105158000D02*
X118780779Y-105158000D01*
X118455221Y-104138000D02*
X118780779Y-104138000D01*
X116838000Y-76545221D02*
X116838000Y-76870779D01*
X117858000Y-76545221D02*
X117858000Y-76870779D01*
X124458000Y-123154221D02*
X124458000Y-123479779D01*
X125478000Y-123154221D02*
X125478000Y-123479779D01*
X101348000Y-114970779D02*
X101348000Y-114645221D01*
X100328000Y-114970779D02*
X100328000Y-114645221D01*
X106053000Y-68073000D02*
X106053000Y-71958000D01*
X108323000Y-68073000D02*
X106053000Y-68073000D01*
X108323000Y-71958000D02*
X108323000Y-68073000D01*
X116213000Y-68073000D02*
X116213000Y-71958000D01*
X118483000Y-68073000D02*
X116213000Y-68073000D01*
X118483000Y-71958000D02*
X118483000Y-68073000D01*
X111133000Y-68073000D02*
X111133000Y-71958000D01*
X113403000Y-68073000D02*
X111133000Y-68073000D01*
X113403000Y-71958000D02*
X113403000Y-68073000D01*
X113283000Y-128913000D02*
X109398000Y-128913000D01*
X113283000Y-131183000D02*
X113283000Y-128913000D01*
X109398000Y-131183000D02*
X113283000Y-131183000D01*
D11*
X99432380Y-138063333D02*
X100146666Y-138063333D01*
X100289523Y-138110952D01*
X100384761Y-138206190D01*
X100432380Y-138349047D01*
X100432380Y-138444285D01*
X99432380Y-137682380D02*
X99432380Y-137015714D01*
X100432380Y-137444285D01*
X136572666Y-55356380D02*
X136572666Y-56070666D01*
X136525047Y-56213523D01*
X136429809Y-56308761D01*
X136286952Y-56356380D01*
X136191714Y-56356380D01*
X137001238Y-55451619D02*
X137048857Y-55404000D01*
X137144095Y-55356380D01*
X137382190Y-55356380D01*
X137477428Y-55404000D01*
X137525047Y-55451619D01*
X137572666Y-55546857D01*
X137572666Y-55642095D01*
X137525047Y-55784952D01*
X136953619Y-56356380D01*
X137572666Y-56356380D01*
X86280666Y-55356380D02*
X86280666Y-56070666D01*
X86233047Y-56213523D01*
X86137809Y-56308761D01*
X85994952Y-56356380D01*
X85899714Y-56356380D01*
X87280666Y-56356380D02*
X86709238Y-56356380D01*
X86994952Y-56356380D02*
X86994952Y-55356380D01*
X86899714Y-55499238D01*
X86804476Y-55594476D01*
X86709238Y-55642095D01*
X124888666Y-60182380D02*
X124888666Y-60896666D01*
X124841047Y-61039523D01*
X124745809Y-61134761D01*
X124602952Y-61182380D01*
X124507714Y-61182380D01*
X125841047Y-60182380D02*
X125364857Y-60182380D01*
X125317238Y-60658571D01*
X125364857Y-60610952D01*
X125460095Y-60563333D01*
X125698190Y-60563333D01*
X125793428Y-60610952D01*
X125841047Y-60658571D01*
X125888666Y-60753809D01*
X125888666Y-60991904D01*
X125841047Y-61087142D01*
X125793428Y-61134761D01*
X125698190Y-61182380D01*
X125460095Y-61182380D01*
X125364857Y-61134761D01*
X125317238Y-61087142D01*
X106870380Y-122888333D02*
X107584666Y-122888333D01*
X107727523Y-122935952D01*
X107822761Y-123031190D01*
X107870380Y-123174047D01*
X107870380Y-123269285D01*
X107203714Y-121983571D02*
X107870380Y-121983571D01*
X106822761Y-122221666D02*
X107537047Y-122459761D01*
X107537047Y-121840714D01*
X108750380Y-87034666D02*
X108274190Y-87368000D01*
X108750380Y-87606095D02*
X107750380Y-87606095D01*
X107750380Y-87225142D01*
X107798000Y-87129904D01*
X107845619Y-87082285D01*
X107940857Y-87034666D01*
X108083714Y-87034666D01*
X108178952Y-87082285D01*
X108226571Y-87129904D01*
X108274190Y-87225142D01*
X108274190Y-87606095D01*
X108178952Y-86463238D02*
X108131333Y-86558476D01*
X108083714Y-86606095D01*
X107988476Y-86653714D01*
X107940857Y-86653714D01*
X107845619Y-86606095D01*
X107798000Y-86558476D01*
X107750380Y-86463238D01*
X107750380Y-86272761D01*
X107798000Y-86177523D01*
X107845619Y-86129904D01*
X107940857Y-86082285D01*
X107988476Y-86082285D01*
X108083714Y-86129904D01*
X108131333Y-86177523D01*
X108178952Y-86272761D01*
X108178952Y-86463238D01*
X108226571Y-86558476D01*
X108274190Y-86606095D01*
X108369428Y-86653714D01*
X108559904Y-86653714D01*
X108655142Y-86606095D01*
X108702761Y-86558476D01*
X108750380Y-86463238D01*
X108750380Y-86272761D01*
X108702761Y-86177523D01*
X108655142Y-86129904D01*
X108559904Y-86082285D01*
X108369428Y-86082285D01*
X108274190Y-86129904D01*
X108226571Y-86177523D01*
X108178952Y-86272761D01*
X96073833Y-77000380D02*
X95740500Y-76524190D01*
X95502404Y-77000380D02*
X95502404Y-76000380D01*
X95883357Y-76000380D01*
X95978595Y-76048000D01*
X96026214Y-76095619D01*
X96073833Y-76190857D01*
X96073833Y-76333714D01*
X96026214Y-76428952D01*
X95978595Y-76476571D01*
X95883357Y-76524190D01*
X95502404Y-76524190D01*
X96407166Y-76000380D02*
X97073833Y-76000380D01*
X96645261Y-77000380D01*
X106564666Y-110672761D02*
X106707523Y-110720380D01*
X106945619Y-110720380D01*
X107040857Y-110672761D01*
X107088476Y-110625142D01*
X107136095Y-110529904D01*
X107136095Y-110434666D01*
X107088476Y-110339428D01*
X107040857Y-110291809D01*
X106945619Y-110244190D01*
X106755142Y-110196571D01*
X106659904Y-110148952D01*
X106612285Y-110101333D01*
X106564666Y-110006095D01*
X106564666Y-109910857D01*
X106612285Y-109815619D01*
X106659904Y-109768000D01*
X106755142Y-109720380D01*
X106993238Y-109720380D01*
X107136095Y-109768000D01*
X107469428Y-109720380D02*
X107707523Y-110720380D01*
X107898000Y-110006095D01*
X108088476Y-110720380D01*
X108326571Y-109720380D01*
X108659904Y-109815619D02*
X108707523Y-109768000D01*
X108802761Y-109720380D01*
X109040857Y-109720380D01*
X109136095Y-109768000D01*
X109183714Y-109815619D01*
X109231333Y-109910857D01*
X109231333Y-110006095D01*
X109183714Y-110148952D01*
X108612285Y-110720380D01*
X109231333Y-110720380D01*
X105294666Y-75112761D02*
X105437523Y-75160380D01*
X105675619Y-75160380D01*
X105770857Y-75112761D01*
X105818476Y-75065142D01*
X105866095Y-74969904D01*
X105866095Y-74874666D01*
X105818476Y-74779428D01*
X105770857Y-74731809D01*
X105675619Y-74684190D01*
X105485142Y-74636571D01*
X105389904Y-74588952D01*
X105342285Y-74541333D01*
X105294666Y-74446095D01*
X105294666Y-74350857D01*
X105342285Y-74255619D01*
X105389904Y-74208000D01*
X105485142Y-74160380D01*
X105723238Y-74160380D01*
X105866095Y-74208000D01*
X106199428Y-74160380D02*
X106437523Y-75160380D01*
X106628000Y-74446095D01*
X106818476Y-75160380D01*
X107056571Y-74160380D01*
X107961333Y-75160380D02*
X107389904Y-75160380D01*
X107675619Y-75160380D02*
X107675619Y-74160380D01*
X107580380Y-74303238D01*
X107485142Y-74398476D01*
X107389904Y-74446095D01*
X113350380Y-125729904D02*
X114159904Y-125729904D01*
X114255142Y-125682285D01*
X114302761Y-125634666D01*
X114350380Y-125539428D01*
X114350380Y-125348952D01*
X114302761Y-125253714D01*
X114255142Y-125206095D01*
X114159904Y-125158476D01*
X113350380Y-125158476D01*
X113445619Y-124729904D02*
X113398000Y-124682285D01*
X113350380Y-124587047D01*
X113350380Y-124348952D01*
X113398000Y-124253714D01*
X113445619Y-124206095D01*
X113540857Y-124158476D01*
X113636095Y-124158476D01*
X113778952Y-124206095D01*
X114350380Y-124777523D01*
X114350380Y-124158476D01*
X110236095Y-89080380D02*
X110236095Y-89889904D01*
X110283714Y-89985142D01*
X110331333Y-90032761D01*
X110426571Y-90080380D01*
X110617047Y-90080380D01*
X110712285Y-90032761D01*
X110759904Y-89985142D01*
X110807523Y-89889904D01*
X110807523Y-89080380D01*
X111807523Y-90080380D02*
X111236095Y-90080380D01*
X111521809Y-90080380D02*
X111521809Y-89080380D01*
X111426571Y-89223238D01*
X111331333Y-89318476D01*
X111236095Y-89366095D01*
X118451333Y-117960380D02*
X118118000Y-117484190D01*
X117879904Y-117960380D02*
X117879904Y-116960380D01*
X118260857Y-116960380D01*
X118356095Y-117008000D01*
X118403714Y-117055619D01*
X118451333Y-117150857D01*
X118451333Y-117293714D01*
X118403714Y-117388952D01*
X118356095Y-117436571D01*
X118260857Y-117484190D01*
X117879904Y-117484190D01*
X119308476Y-116960380D02*
X119118000Y-116960380D01*
X119022761Y-117008000D01*
X118975142Y-117055619D01*
X118879904Y-117198476D01*
X118832285Y-117388952D01*
X118832285Y-117769904D01*
X118879904Y-117865142D01*
X118927523Y-117912761D01*
X119022761Y-117960380D01*
X119213238Y-117960380D01*
X119308476Y-117912761D01*
X119356095Y-117865142D01*
X119403714Y-117769904D01*
X119403714Y-117531809D01*
X119356095Y-117436571D01*
X119308476Y-117388952D01*
X119213238Y-117341333D01*
X119022761Y-117341333D01*
X118927523Y-117388952D01*
X118879904Y-117436571D01*
X118832285Y-117531809D01*
X115911333Y-111290380D02*
X115578000Y-110814190D01*
X115339904Y-111290380D02*
X115339904Y-110290380D01*
X115720857Y-110290380D01*
X115816095Y-110338000D01*
X115863714Y-110385619D01*
X115911333Y-110480857D01*
X115911333Y-110623714D01*
X115863714Y-110718952D01*
X115816095Y-110766571D01*
X115720857Y-110814190D01*
X115339904Y-110814190D01*
X116816095Y-110290380D02*
X116339904Y-110290380D01*
X116292285Y-110766571D01*
X116339904Y-110718952D01*
X116435142Y-110671333D01*
X116673238Y-110671333D01*
X116768476Y-110718952D01*
X116816095Y-110766571D01*
X116863714Y-110861809D01*
X116863714Y-111099904D01*
X116816095Y-111195142D01*
X116768476Y-111242761D01*
X116673238Y-111290380D01*
X116435142Y-111290380D01*
X116339904Y-111242761D01*
X116292285Y-111195142D01*
X118451333Y-103670380D02*
X118118000Y-103194190D01*
X117879904Y-103670380D02*
X117879904Y-102670380D01*
X118260857Y-102670380D01*
X118356095Y-102718000D01*
X118403714Y-102765619D01*
X118451333Y-102860857D01*
X118451333Y-103003714D01*
X118403714Y-103098952D01*
X118356095Y-103146571D01*
X118260857Y-103194190D01*
X117879904Y-103194190D01*
X119308476Y-103003714D02*
X119308476Y-103670380D01*
X119070380Y-102622761D02*
X118832285Y-103337047D01*
X119451333Y-103337047D01*
X119230380Y-76874666D02*
X118754190Y-77208000D01*
X119230380Y-77446095D02*
X118230380Y-77446095D01*
X118230380Y-77065142D01*
X118278000Y-76969904D01*
X118325619Y-76922285D01*
X118420857Y-76874666D01*
X118563714Y-76874666D01*
X118658952Y-76922285D01*
X118706571Y-76969904D01*
X118754190Y-77065142D01*
X118754190Y-77446095D01*
X118230380Y-76541333D02*
X118230380Y-75922285D01*
X118611333Y-76255619D01*
X118611333Y-76112761D01*
X118658952Y-76017523D01*
X118706571Y-75969904D01*
X118801809Y-75922285D01*
X119039904Y-75922285D01*
X119135142Y-75969904D01*
X119182761Y-76017523D01*
X119230380Y-76112761D01*
X119230380Y-76398476D01*
X119182761Y-76493714D01*
X119135142Y-76541333D01*
X126850380Y-123483666D02*
X126374190Y-123817000D01*
X126850380Y-124055095D02*
X125850380Y-124055095D01*
X125850380Y-123674142D01*
X125898000Y-123578904D01*
X125945619Y-123531285D01*
X126040857Y-123483666D01*
X126183714Y-123483666D01*
X126278952Y-123531285D01*
X126326571Y-123578904D01*
X126374190Y-123674142D01*
X126374190Y-124055095D01*
X125945619Y-123102714D02*
X125898000Y-123055095D01*
X125850380Y-122959857D01*
X125850380Y-122721761D01*
X125898000Y-122626523D01*
X125945619Y-122578904D01*
X126040857Y-122531285D01*
X126136095Y-122531285D01*
X126278952Y-122578904D01*
X126850380Y-123150333D01*
X126850380Y-122531285D01*
X99860380Y-114974666D02*
X99384190Y-115308000D01*
X99860380Y-115546095D02*
X98860380Y-115546095D01*
X98860380Y-115165142D01*
X98908000Y-115069904D01*
X98955619Y-115022285D01*
X99050857Y-114974666D01*
X99193714Y-114974666D01*
X99288952Y-115022285D01*
X99336571Y-115069904D01*
X99384190Y-115165142D01*
X99384190Y-115546095D01*
X99860380Y-114022285D02*
X99860380Y-114593714D01*
X99860380Y-114308000D02*
X98860380Y-114308000D01*
X99003238Y-114403238D01*
X99098476Y-114498476D01*
X99146095Y-114593714D01*
X109460380Y-71096095D02*
X108460380Y-71096095D01*
X108460380Y-70858000D01*
X108508000Y-70715142D01*
X108603238Y-70619904D01*
X108698476Y-70572285D01*
X108888952Y-70524666D01*
X109031809Y-70524666D01*
X109222285Y-70572285D01*
X109317523Y-70619904D01*
X109412761Y-70715142D01*
X109460380Y-70858000D01*
X109460380Y-71096095D01*
X108793714Y-69667523D02*
X109460380Y-69667523D01*
X108412761Y-69905619D02*
X109127047Y-70143714D01*
X109127047Y-69524666D01*
X119620380Y-71096095D02*
X118620380Y-71096095D01*
X118620380Y-70858000D01*
X118668000Y-70715142D01*
X118763238Y-70619904D01*
X118858476Y-70572285D01*
X119048952Y-70524666D01*
X119191809Y-70524666D01*
X119382285Y-70572285D01*
X119477523Y-70619904D01*
X119572761Y-70715142D01*
X119620380Y-70858000D01*
X119620380Y-71096095D01*
X118620380Y-70191333D02*
X118620380Y-69572285D01*
X119001333Y-69905619D01*
X119001333Y-69762761D01*
X119048952Y-69667523D01*
X119096571Y-69619904D01*
X119191809Y-69572285D01*
X119429904Y-69572285D01*
X119525142Y-69619904D01*
X119572761Y-69667523D01*
X119620380Y-69762761D01*
X119620380Y-70048476D01*
X119572761Y-70143714D01*
X119525142Y-70191333D01*
X114540380Y-71096095D02*
X113540380Y-71096095D01*
X113540380Y-70858000D01*
X113588000Y-70715142D01*
X113683238Y-70619904D01*
X113778476Y-70572285D01*
X113968952Y-70524666D01*
X114111809Y-70524666D01*
X114302285Y-70572285D01*
X114397523Y-70619904D01*
X114492761Y-70715142D01*
X114540380Y-70858000D01*
X114540380Y-71096095D01*
X113635619Y-70143714D02*
X113588000Y-70096095D01*
X113540380Y-70000857D01*
X113540380Y-69762761D01*
X113588000Y-69667523D01*
X113635619Y-69619904D01*
X113730857Y-69572285D01*
X113826095Y-69572285D01*
X113968952Y-69619904D01*
X114540380Y-70191333D01*
X114540380Y-69572285D01*
X110259904Y-132320380D02*
X110259904Y-131320380D01*
X110498000Y-131320380D01*
X110640857Y-131368000D01*
X110736095Y-131463238D01*
X110783714Y-131558476D01*
X110831333Y-131748952D01*
X110831333Y-131891809D01*
X110783714Y-132082285D01*
X110736095Y-132177523D01*
X110640857Y-132272761D01*
X110498000Y-132320380D01*
X110259904Y-132320380D01*
X111783714Y-132320380D02*
X111212285Y-132320380D01*
X111498000Y-132320380D02*
X111498000Y-131320380D01*
X111402761Y-131463238D01*
X111307523Y-131558476D01*
X111212285Y-131606095D01*
X120835142Y-111575142D02*
X120787523Y-111622761D01*
X120644666Y-111670380D01*
X120549428Y-111670380D01*
X120406571Y-111622761D01*
X120311333Y-111527523D01*
X120263714Y-111432285D01*
X120216095Y-111241809D01*
X120216095Y-111098952D01*
X120263714Y-110908476D01*
X120311333Y-110813238D01*
X120406571Y-110718000D01*
X120549428Y-110670380D01*
X120644666Y-110670380D01*
X120787523Y-110718000D01*
X120835142Y-110765619D01*
X121787523Y-111670380D02*
X121216095Y-111670380D01*
X121501809Y-111670380D02*
X121501809Y-110670380D01*
X121406571Y-110813238D01*
X121311333Y-110908476D01*
X121216095Y-110956095D01*
X122692285Y-110670380D02*
X122216095Y-110670380D01*
X122168476Y-111146571D01*
X122216095Y-111098952D01*
X122311333Y-111051333D01*
X122549428Y-111051333D01*
X122644666Y-111098952D01*
X122692285Y-111146571D01*
X122739904Y-111241809D01*
X122739904Y-111479904D01*
X122692285Y-111575142D01*
X122644666Y-111622761D01*
X122549428Y-111670380D01*
X122311333Y-111670380D01*
X122216095Y-111622761D01*
X122168476Y-111575142D01*
X102245142Y-79570857D02*
X102292761Y-79618476D01*
X102340380Y-79761333D01*
X102340380Y-79856571D01*
X102292761Y-79999428D01*
X102197523Y-80094666D01*
X102102285Y-80142285D01*
X101911809Y-80189904D01*
X101768952Y-80189904D01*
X101578476Y-80142285D01*
X101483238Y-80094666D01*
X101388000Y-79999428D01*
X101340380Y-79856571D01*
X101340380Y-79761333D01*
X101388000Y-79618476D01*
X101435619Y-79570857D01*
X102340380Y-78618476D02*
X102340380Y-79189904D01*
X102340380Y-78904190D02*
X101340380Y-78904190D01*
X101483238Y-78999428D01*
X101578476Y-79094666D01*
X101626095Y-79189904D01*
X101673714Y-77761333D02*
X102340380Y-77761333D01*
X101292761Y-77999428D02*
X102007047Y-78237523D01*
X102007047Y-77618476D01*
X120025142Y-124340857D02*
X120072761Y-124388476D01*
X120120380Y-124531333D01*
X120120380Y-124626571D01*
X120072761Y-124769428D01*
X119977523Y-124864666D01*
X119882285Y-124912285D01*
X119691809Y-124959904D01*
X119548952Y-124959904D01*
X119358476Y-124912285D01*
X119263238Y-124864666D01*
X119168000Y-124769428D01*
X119120380Y-124626571D01*
X119120380Y-124531333D01*
X119168000Y-124388476D01*
X119215619Y-124340857D01*
X120120380Y-123388476D02*
X120120380Y-123959904D01*
X120120380Y-123674190D02*
X119120380Y-123674190D01*
X119263238Y-123769428D01*
X119358476Y-123864666D01*
X119406095Y-123959904D01*
X119120380Y-123055142D02*
X119120380Y-122436095D01*
X119501333Y-122769428D01*
X119501333Y-122626571D01*
X119548952Y-122531333D01*
X119596571Y-122483714D01*
X119691809Y-122436095D01*
X119929904Y-122436095D01*
X120025142Y-122483714D01*
X120072761Y-122531333D01*
X120120380Y-122626571D01*
X120120380Y-122912285D01*
X120072761Y-123007523D01*
X120025142Y-123055142D01*
X122565142Y-124340857D02*
X122612761Y-124388476D01*
X122660380Y-124531333D01*
X122660380Y-124626571D01*
X122612761Y-124769428D01*
X122517523Y-124864666D01*
X122422285Y-124912285D01*
X122231809Y-124959904D01*
X122088952Y-124959904D01*
X121898476Y-124912285D01*
X121803238Y-124864666D01*
X121708000Y-124769428D01*
X121660380Y-124626571D01*
X121660380Y-124531333D01*
X121708000Y-124388476D01*
X121755619Y-124340857D01*
X122660380Y-123388476D02*
X122660380Y-123959904D01*
X122660380Y-123674190D02*
X121660380Y-123674190D01*
X121803238Y-123769428D01*
X121898476Y-123864666D01*
X121946095Y-123959904D01*
X121755619Y-123007523D02*
X121708000Y-122959904D01*
X121660380Y-122864666D01*
X121660380Y-122626571D01*
X121708000Y-122531333D01*
X121755619Y-122483714D01*
X121850857Y-122436095D01*
X121946095Y-122436095D01*
X122088952Y-122483714D01*
X122660380Y-123055142D01*
X122660380Y-122436095D01*
X117485142Y-124340857D02*
X117532761Y-124388476D01*
X117580380Y-124531333D01*
X117580380Y-124626571D01*
X117532761Y-124769428D01*
X117437523Y-124864666D01*
X117342285Y-124912285D01*
X117151809Y-124959904D01*
X117008952Y-124959904D01*
X116818476Y-124912285D01*
X116723238Y-124864666D01*
X116628000Y-124769428D01*
X116580380Y-124626571D01*
X116580380Y-124531333D01*
X116628000Y-124388476D01*
X116675619Y-124340857D01*
X117580380Y-123388476D02*
X117580380Y-123959904D01*
X117580380Y-123674190D02*
X116580380Y-123674190D01*
X116723238Y-123769428D01*
X116818476Y-123864666D01*
X116866095Y-123959904D01*
X117580380Y-122436095D02*
X117580380Y-123007523D01*
X117580380Y-122721809D02*
X116580380Y-122721809D01*
X116723238Y-122817047D01*
X116818476Y-122912285D01*
X116866095Y-123007523D01*
X124343142Y-115958857D02*
X124390761Y-116006476D01*
X124438380Y-116149333D01*
X124438380Y-116244571D01*
X124390761Y-116387428D01*
X124295523Y-116482666D01*
X124200285Y-116530285D01*
X124009809Y-116577904D01*
X123866952Y-116577904D01*
X123676476Y-116530285D01*
X123581238Y-116482666D01*
X123486000Y-116387428D01*
X123438380Y-116244571D01*
X123438380Y-116149333D01*
X123486000Y-116006476D01*
X123533619Y-115958857D01*
X124438380Y-115006476D02*
X124438380Y-115577904D01*
X124438380Y-115292190D02*
X123438380Y-115292190D01*
X123581238Y-115387428D01*
X123676476Y-115482666D01*
X123724095Y-115577904D01*
X123438380Y-114387428D02*
X123438380Y-114292190D01*
X123486000Y-114196952D01*
X123533619Y-114149333D01*
X123628857Y-114101714D01*
X123819333Y-114054095D01*
X124057428Y-114054095D01*
X124247904Y-114101714D01*
X124343142Y-114149333D01*
X124390761Y-114196952D01*
X124438380Y-114292190D01*
X124438380Y-114387428D01*
X124390761Y-114482666D01*
X124343142Y-114530285D01*
X124247904Y-114577904D01*
X124057428Y-114625523D01*
X123819333Y-114625523D01*
X123628857Y-114577904D01*
X123533619Y-114530285D01*
X123486000Y-114482666D01*
X123438380Y-114387428D01*
X103955142Y-127674666D02*
X104002761Y-127722285D01*
X104050380Y-127865142D01*
X104050380Y-127960380D01*
X104002761Y-128103238D01*
X103907523Y-128198476D01*
X103812285Y-128246095D01*
X103621809Y-128293714D01*
X103478952Y-128293714D01*
X103288476Y-128246095D01*
X103193238Y-128198476D01*
X103098000Y-128103238D01*
X103050380Y-127960380D01*
X103050380Y-127865142D01*
X103098000Y-127722285D01*
X103145619Y-127674666D01*
X104050380Y-127198476D02*
X104050380Y-127008000D01*
X104002761Y-126912761D01*
X103955142Y-126865142D01*
X103812285Y-126769904D01*
X103621809Y-126722285D01*
X103240857Y-126722285D01*
X103145619Y-126769904D01*
X103098000Y-126817523D01*
X103050380Y-126912761D01*
X103050380Y-127103238D01*
X103098000Y-127198476D01*
X103145619Y-127246095D01*
X103240857Y-127293714D01*
X103478952Y-127293714D01*
X103574190Y-127246095D01*
X103621809Y-127198476D01*
X103669428Y-127103238D01*
X103669428Y-126912761D01*
X103621809Y-126817523D01*
X103574190Y-126769904D01*
X103478952Y-126722285D01*
X101542142Y-127674666D02*
X101589761Y-127722285D01*
X101637380Y-127865142D01*
X101637380Y-127960380D01*
X101589761Y-128103238D01*
X101494523Y-128198476D01*
X101399285Y-128246095D01*
X101208809Y-128293714D01*
X101065952Y-128293714D01*
X100875476Y-128246095D01*
X100780238Y-128198476D01*
X100685000Y-128103238D01*
X100637380Y-127960380D01*
X100637380Y-127865142D01*
X100685000Y-127722285D01*
X100732619Y-127674666D01*
X101065952Y-127103238D02*
X101018333Y-127198476D01*
X100970714Y-127246095D01*
X100875476Y-127293714D01*
X100827857Y-127293714D01*
X100732619Y-127246095D01*
X100685000Y-127198476D01*
X100637380Y-127103238D01*
X100637380Y-126912761D01*
X100685000Y-126817523D01*
X100732619Y-126769904D01*
X100827857Y-126722285D01*
X100875476Y-126722285D01*
X100970714Y-126769904D01*
X101018333Y-126817523D01*
X101065952Y-126912761D01*
X101065952Y-127103238D01*
X101113571Y-127198476D01*
X101161190Y-127246095D01*
X101256428Y-127293714D01*
X101446904Y-127293714D01*
X101542142Y-127246095D01*
X101589761Y-127198476D01*
X101637380Y-127103238D01*
X101637380Y-126912761D01*
X101589761Y-126817523D01*
X101542142Y-126769904D01*
X101446904Y-126722285D01*
X101256428Y-126722285D01*
X101161190Y-126769904D01*
X101113571Y-126817523D01*
X101065952Y-126912761D01*
X99002142Y-127801666D02*
X99049761Y-127849285D01*
X99097380Y-127992142D01*
X99097380Y-128087380D01*
X99049761Y-128230238D01*
X98954523Y-128325476D01*
X98859285Y-128373095D01*
X98668809Y-128420714D01*
X98525952Y-128420714D01*
X98335476Y-128373095D01*
X98240238Y-128325476D01*
X98145000Y-128230238D01*
X98097380Y-128087380D01*
X98097380Y-127992142D01*
X98145000Y-127849285D01*
X98192619Y-127801666D01*
X98097380Y-127468333D02*
X98097380Y-126801666D01*
X99097380Y-127230238D01*
X96589142Y-127801666D02*
X96636761Y-127849285D01*
X96684380Y-127992142D01*
X96684380Y-128087380D01*
X96636761Y-128230238D01*
X96541523Y-128325476D01*
X96446285Y-128373095D01*
X96255809Y-128420714D01*
X96112952Y-128420714D01*
X95922476Y-128373095D01*
X95827238Y-128325476D01*
X95732000Y-128230238D01*
X95684380Y-128087380D01*
X95684380Y-127992142D01*
X95732000Y-127849285D01*
X95779619Y-127801666D01*
X95684380Y-126944523D02*
X95684380Y-127135000D01*
X95732000Y-127230238D01*
X95779619Y-127277857D01*
X95922476Y-127373095D01*
X96112952Y-127420714D01*
X96493904Y-127420714D01*
X96589142Y-127373095D01*
X96636761Y-127325476D01*
X96684380Y-127230238D01*
X96684380Y-127039761D01*
X96636761Y-126944523D01*
X96589142Y-126896904D01*
X96493904Y-126849285D01*
X96255809Y-126849285D01*
X96160571Y-126896904D01*
X96112952Y-126944523D01*
X96065333Y-127039761D01*
X96065333Y-127230238D01*
X96112952Y-127325476D01*
X96160571Y-127373095D01*
X96255809Y-127420714D01*
X117485142Y-130214666D02*
X117532761Y-130262285D01*
X117580380Y-130405142D01*
X117580380Y-130500380D01*
X117532761Y-130643238D01*
X117437523Y-130738476D01*
X117342285Y-130786095D01*
X117151809Y-130833714D01*
X117008952Y-130833714D01*
X116818476Y-130786095D01*
X116723238Y-130738476D01*
X116628000Y-130643238D01*
X116580380Y-130500380D01*
X116580380Y-130405142D01*
X116628000Y-130262285D01*
X116675619Y-130214666D01*
X116580380Y-129309904D02*
X116580380Y-129786095D01*
X117056571Y-129833714D01*
X117008952Y-129786095D01*
X116961333Y-129690857D01*
X116961333Y-129452761D01*
X117008952Y-129357523D01*
X117056571Y-129309904D01*
X117151809Y-129262285D01*
X117389904Y-129262285D01*
X117485142Y-129309904D01*
X117532761Y-129357523D01*
X117580380Y-129452761D01*
X117580380Y-129690857D01*
X117532761Y-129786095D01*
X117485142Y-129833714D01*
X120025142Y-130214666D02*
X120072761Y-130262285D01*
X120120380Y-130405142D01*
X120120380Y-130500380D01*
X120072761Y-130643238D01*
X119977523Y-130738476D01*
X119882285Y-130786095D01*
X119691809Y-130833714D01*
X119548952Y-130833714D01*
X119358476Y-130786095D01*
X119263238Y-130738476D01*
X119168000Y-130643238D01*
X119120380Y-130500380D01*
X119120380Y-130405142D01*
X119168000Y-130262285D01*
X119215619Y-130214666D01*
X119453714Y-129357523D02*
X120120380Y-129357523D01*
X119072761Y-129595619D02*
X119787047Y-129833714D01*
X119787047Y-129214666D01*
X122565142Y-130280666D02*
X122612761Y-130328285D01*
X122660380Y-130471142D01*
X122660380Y-130566380D01*
X122612761Y-130709238D01*
X122517523Y-130804476D01*
X122422285Y-130852095D01*
X122231809Y-130899714D01*
X122088952Y-130899714D01*
X121898476Y-130852095D01*
X121803238Y-130804476D01*
X121708000Y-130709238D01*
X121660380Y-130566380D01*
X121660380Y-130471142D01*
X121708000Y-130328285D01*
X121755619Y-130280666D01*
X121660380Y-129947333D02*
X121660380Y-129328285D01*
X122041333Y-129661619D01*
X122041333Y-129518761D01*
X122088952Y-129423523D01*
X122136571Y-129375904D01*
X122231809Y-129328285D01*
X122469904Y-129328285D01*
X122565142Y-129375904D01*
X122612761Y-129423523D01*
X122660380Y-129518761D01*
X122660380Y-129804476D01*
X122612761Y-129899714D01*
X122565142Y-129947333D01*
X107452142Y-127674666D02*
X107499761Y-127722285D01*
X107547380Y-127865142D01*
X107547380Y-127960380D01*
X107499761Y-128103238D01*
X107404523Y-128198476D01*
X107309285Y-128246095D01*
X107118809Y-128293714D01*
X106975952Y-128293714D01*
X106785476Y-128246095D01*
X106690238Y-128198476D01*
X106595000Y-128103238D01*
X106547380Y-127960380D01*
X106547380Y-127865142D01*
X106595000Y-127722285D01*
X106642619Y-127674666D01*
X106642619Y-127293714D02*
X106595000Y-127246095D01*
X106547380Y-127150857D01*
X106547380Y-126912761D01*
X106595000Y-126817523D01*
X106642619Y-126769904D01*
X106737857Y-126722285D01*
X106833095Y-126722285D01*
X106975952Y-126769904D01*
X107547380Y-127341333D01*
X107547380Y-126722285D01*
X110450333Y-121481142D02*
X110402714Y-121528761D01*
X110259857Y-121576380D01*
X110164619Y-121576380D01*
X110021761Y-121528761D01*
X109926523Y-121433523D01*
X109878904Y-121338285D01*
X109831285Y-121147809D01*
X109831285Y-121004952D01*
X109878904Y-120814476D01*
X109926523Y-120719238D01*
X110021761Y-120624000D01*
X110164619Y-120576380D01*
X110259857Y-120576380D01*
X110402714Y-120624000D01*
X110450333Y-120671619D01*
X111402714Y-121576380D02*
X110831285Y-121576380D01*
X111117000Y-121576380D02*
X111117000Y-120576380D01*
X111021761Y-120719238D01*
X110926523Y-120814476D01*
X110831285Y-120862095D01*
M02*
