G04 #@! TF.GenerationSoftware,KiCad,Pcbnew,(5.1.0)-1*
G04 #@! TF.CreationDate,2019-03-31T01:00:59-04:00*
G04 #@! TF.ProjectId,MiniProjectBoardProject,4d696e69-5072-46f6-9a65-6374426f6172,rev?*
G04 #@! TF.SameCoordinates,Original*
G04 #@! TF.FileFunction,Legend,Bot*
G04 #@! TF.FilePolarity,Positive*
%FSLAX46Y46*%
G04 Gerber Fmt 4.6, Leading zero omitted, Abs format (unit mm)*
G04 Created by KiCad (PCBNEW (5.1.0)-1) date 2019-03-31 01:00:59*
%MOMM*%
%LPD*%
G04 APERTURE LIST*
%ADD10C,0.300000*%
%ADD11C,0.120000*%
%ADD12C,0.010000*%
G04 APERTURE END LIST*
D10*
X123854571Y-56910857D02*
X123354571Y-56910857D01*
X123140285Y-57696571D02*
X123854571Y-57696571D01*
X123854571Y-56196571D01*
X123140285Y-56196571D01*
X121640285Y-57553714D02*
X121711714Y-57625142D01*
X121926000Y-57696571D01*
X122068857Y-57696571D01*
X122283142Y-57625142D01*
X122426000Y-57482285D01*
X122497428Y-57339428D01*
X122568857Y-57053714D01*
X122568857Y-56839428D01*
X122497428Y-56553714D01*
X122426000Y-56410857D01*
X122283142Y-56268000D01*
X122068857Y-56196571D01*
X121926000Y-56196571D01*
X121711714Y-56268000D01*
X121640285Y-56339428D01*
X120997428Y-56910857D02*
X120497428Y-56910857D01*
X120283142Y-57696571D02*
X120997428Y-57696571D01*
X120997428Y-56196571D01*
X120283142Y-56196571D01*
X119783142Y-56196571D02*
X118854571Y-56196571D01*
X119354571Y-56768000D01*
X119140285Y-56768000D01*
X118997428Y-56839428D01*
X118926000Y-56910857D01*
X118854571Y-57053714D01*
X118854571Y-57410857D01*
X118926000Y-57553714D01*
X118997428Y-57625142D01*
X119140285Y-57696571D01*
X119568857Y-57696571D01*
X119711714Y-57625142D01*
X119783142Y-57553714D01*
X117568857Y-56196571D02*
X117854571Y-56196571D01*
X117997428Y-56268000D01*
X118068857Y-56339428D01*
X118211714Y-56553714D01*
X118283142Y-56839428D01*
X118283142Y-57410857D01*
X118211714Y-57553714D01*
X118140285Y-57625142D01*
X117997428Y-57696571D01*
X117711714Y-57696571D01*
X117568857Y-57625142D01*
X117497428Y-57553714D01*
X117426000Y-57410857D01*
X117426000Y-57053714D01*
X117497428Y-56910857D01*
X117568857Y-56839428D01*
X117711714Y-56768000D01*
X117997428Y-56768000D01*
X118140285Y-56839428D01*
X118211714Y-56910857D01*
X118283142Y-57053714D01*
X116854571Y-56339428D02*
X116783142Y-56268000D01*
X116640285Y-56196571D01*
X116283142Y-56196571D01*
X116140285Y-56268000D01*
X116068857Y-56339428D01*
X115997428Y-56482285D01*
X115997428Y-56625142D01*
X116068857Y-56839428D01*
X116926000Y-57696571D01*
X115997428Y-57696571D01*
X113711714Y-56910857D02*
X114211714Y-56910857D01*
X114211714Y-57696571D02*
X114211714Y-56196571D01*
X113497428Y-56196571D01*
X112926000Y-57696571D02*
X112926000Y-56696571D01*
X112926000Y-56196571D02*
X112997428Y-56268000D01*
X112926000Y-56339428D01*
X112854571Y-56268000D01*
X112926000Y-56196571D01*
X112926000Y-56339428D01*
X112211714Y-56696571D02*
X112211714Y-57696571D01*
X112211714Y-56839428D02*
X112140285Y-56768000D01*
X111997428Y-56696571D01*
X111783142Y-56696571D01*
X111640285Y-56768000D01*
X111568857Y-56910857D01*
X111568857Y-57696571D01*
X110211714Y-57696571D02*
X110211714Y-56910857D01*
X110283142Y-56768000D01*
X110426000Y-56696571D01*
X110711714Y-56696571D01*
X110854571Y-56768000D01*
X110211714Y-57625142D02*
X110354571Y-57696571D01*
X110711714Y-57696571D01*
X110854571Y-57625142D01*
X110926000Y-57482285D01*
X110926000Y-57339428D01*
X110854571Y-57196571D01*
X110711714Y-57125142D01*
X110354571Y-57125142D01*
X110211714Y-57053714D01*
X109283142Y-57696571D02*
X109426000Y-57625142D01*
X109497428Y-57482285D01*
X109497428Y-56196571D01*
X107568857Y-57696571D02*
X107568857Y-56196571D01*
X106997428Y-56196571D01*
X106854571Y-56268000D01*
X106783142Y-56339428D01*
X106711714Y-56482285D01*
X106711714Y-56696571D01*
X106783142Y-56839428D01*
X106854571Y-56910857D01*
X106997428Y-56982285D01*
X107568857Y-56982285D01*
X106068857Y-57696571D02*
X106068857Y-56696571D01*
X106068857Y-56982285D02*
X105997428Y-56839428D01*
X105926000Y-56768000D01*
X105783142Y-56696571D01*
X105640285Y-56696571D01*
X104926000Y-57696571D02*
X105068857Y-57625142D01*
X105140285Y-57553714D01*
X105211714Y-57410857D01*
X105211714Y-56982285D01*
X105140285Y-56839428D01*
X105068857Y-56768000D01*
X104926000Y-56696571D01*
X104711714Y-56696571D01*
X104568857Y-56768000D01*
X104497428Y-56839428D01*
X104426000Y-56982285D01*
X104426000Y-57410857D01*
X104497428Y-57553714D01*
X104568857Y-57625142D01*
X104711714Y-57696571D01*
X104926000Y-57696571D01*
X103783142Y-56696571D02*
X103783142Y-57982285D01*
X103854571Y-58125142D01*
X103997428Y-58196571D01*
X104068857Y-58196571D01*
X103783142Y-56196571D02*
X103854571Y-56268000D01*
X103783142Y-56339428D01*
X103711714Y-56268000D01*
X103783142Y-56196571D01*
X103783142Y-56339428D01*
X102497428Y-57625142D02*
X102640285Y-57696571D01*
X102926000Y-57696571D01*
X103068857Y-57625142D01*
X103140285Y-57482285D01*
X103140285Y-56910857D01*
X103068857Y-56768000D01*
X102926000Y-56696571D01*
X102640285Y-56696571D01*
X102497428Y-56768000D01*
X102426000Y-56910857D01*
X102426000Y-57053714D01*
X103140285Y-57196571D01*
X101140285Y-57625142D02*
X101283142Y-57696571D01*
X101568857Y-57696571D01*
X101711714Y-57625142D01*
X101783142Y-57553714D01*
X101854571Y-57410857D01*
X101854571Y-56982285D01*
X101783142Y-56839428D01*
X101711714Y-56768000D01*
X101568857Y-56696571D01*
X101283142Y-56696571D01*
X101140285Y-56768000D01*
X100711714Y-56696571D02*
X100140285Y-56696571D01*
X100497428Y-56196571D02*
X100497428Y-57482285D01*
X100426000Y-57625142D01*
X100283142Y-57696571D01*
X100140285Y-57696571D01*
X98497428Y-57125142D02*
X97354571Y-57125142D01*
X94640285Y-57696571D02*
X95140285Y-56982285D01*
X95497428Y-57696571D02*
X95497428Y-56196571D01*
X94926000Y-56196571D01*
X94783142Y-56268000D01*
X94711714Y-56339428D01*
X94640285Y-56482285D01*
X94640285Y-56696571D01*
X94711714Y-56839428D01*
X94783142Y-56910857D01*
X94926000Y-56982285D01*
X95497428Y-56982285D01*
X93426000Y-57625142D02*
X93568857Y-57696571D01*
X93854571Y-57696571D01*
X93997428Y-57625142D01*
X94068857Y-57482285D01*
X94068857Y-56910857D01*
X93997428Y-56768000D01*
X93854571Y-56696571D01*
X93568857Y-56696571D01*
X93426000Y-56768000D01*
X93354571Y-56910857D01*
X93354571Y-57053714D01*
X94068857Y-57196571D01*
X92854571Y-56696571D02*
X92497428Y-57696571D01*
X92140285Y-56696571D01*
X91568857Y-57553714D02*
X91497428Y-57625142D01*
X91568857Y-57696571D01*
X91640285Y-57625142D01*
X91568857Y-57553714D01*
X91568857Y-57696571D01*
X91568857Y-56768000D02*
X91497428Y-56839428D01*
X91568857Y-56910857D01*
X91640285Y-56839428D01*
X91568857Y-56768000D01*
X91568857Y-56910857D01*
X88926000Y-57696571D02*
X89783142Y-57696571D01*
X89354571Y-57696571D02*
X89354571Y-56196571D01*
X89497428Y-56410857D01*
X89640285Y-56553714D01*
X89783142Y-56625142D01*
X122211714Y-60246571D02*
X122211714Y-58746571D01*
X121854571Y-58746571D01*
X121640285Y-58818000D01*
X121497428Y-58960857D01*
X121426000Y-59103714D01*
X121354571Y-59389428D01*
X121354571Y-59603714D01*
X121426000Y-59889428D01*
X121497428Y-60032285D01*
X121640285Y-60175142D01*
X121854571Y-60246571D01*
X122211714Y-60246571D01*
X120140285Y-60175142D02*
X120283142Y-60246571D01*
X120568857Y-60246571D01*
X120711714Y-60175142D01*
X120783142Y-60032285D01*
X120783142Y-59460857D01*
X120711714Y-59318000D01*
X120568857Y-59246571D01*
X120283142Y-59246571D01*
X120140285Y-59318000D01*
X120068857Y-59460857D01*
X120068857Y-59603714D01*
X120783142Y-59746571D01*
X119497428Y-60175142D02*
X119354571Y-60246571D01*
X119068857Y-60246571D01*
X118926000Y-60175142D01*
X118854571Y-60032285D01*
X118854571Y-59960857D01*
X118926000Y-59818000D01*
X119068857Y-59746571D01*
X119283142Y-59746571D01*
X119426000Y-59675142D01*
X119497428Y-59532285D01*
X119497428Y-59460857D01*
X119426000Y-59318000D01*
X119283142Y-59246571D01*
X119068857Y-59246571D01*
X118926000Y-59318000D01*
X118211714Y-60246571D02*
X118211714Y-59246571D01*
X118211714Y-58746571D02*
X118283142Y-58818000D01*
X118211714Y-58889428D01*
X118140285Y-58818000D01*
X118211714Y-58746571D01*
X118211714Y-58889428D01*
X116854571Y-59246571D02*
X116854571Y-60460857D01*
X116926000Y-60603714D01*
X116997428Y-60675142D01*
X117140285Y-60746571D01*
X117354571Y-60746571D01*
X117497428Y-60675142D01*
X116854571Y-60175142D02*
X116997428Y-60246571D01*
X117283142Y-60246571D01*
X117426000Y-60175142D01*
X117497428Y-60103714D01*
X117568857Y-59960857D01*
X117568857Y-59532285D01*
X117497428Y-59389428D01*
X117426000Y-59318000D01*
X117283142Y-59246571D01*
X116997428Y-59246571D01*
X116854571Y-59318000D01*
X116140285Y-59246571D02*
X116140285Y-60246571D01*
X116140285Y-59389428D02*
X116068857Y-59318000D01*
X115926000Y-59246571D01*
X115711714Y-59246571D01*
X115568857Y-59318000D01*
X115497428Y-59460857D01*
X115497428Y-60246571D01*
X114211714Y-60175142D02*
X114354571Y-60246571D01*
X114640285Y-60246571D01*
X114783142Y-60175142D01*
X114854571Y-60032285D01*
X114854571Y-59460857D01*
X114783142Y-59318000D01*
X114640285Y-59246571D01*
X114354571Y-59246571D01*
X114211714Y-59318000D01*
X114140285Y-59460857D01*
X114140285Y-59603714D01*
X114854571Y-59746571D01*
X112854571Y-60246571D02*
X112854571Y-58746571D01*
X112854571Y-60175142D02*
X112997428Y-60246571D01*
X113283142Y-60246571D01*
X113426000Y-60175142D01*
X113497428Y-60103714D01*
X113568857Y-59960857D01*
X113568857Y-59532285D01*
X113497428Y-59389428D01*
X113426000Y-59318000D01*
X113283142Y-59246571D01*
X112997428Y-59246571D01*
X112854571Y-59318000D01*
X110997428Y-60246571D02*
X110997428Y-58746571D01*
X110997428Y-59318000D02*
X110854571Y-59246571D01*
X110568857Y-59246571D01*
X110426000Y-59318000D01*
X110354571Y-59389428D01*
X110283142Y-59532285D01*
X110283142Y-59960857D01*
X110354571Y-60103714D01*
X110426000Y-60175142D01*
X110568857Y-60246571D01*
X110854571Y-60246571D01*
X110997428Y-60175142D01*
X109783142Y-59246571D02*
X109426000Y-60246571D01*
X109068857Y-59246571D02*
X109426000Y-60246571D01*
X109568857Y-60603714D01*
X109640285Y-60675142D01*
X109783142Y-60746571D01*
X108497428Y-60103714D02*
X108426000Y-60175142D01*
X108497428Y-60246571D01*
X108568857Y-60175142D01*
X108497428Y-60103714D01*
X108497428Y-60246571D01*
X108497428Y-59318000D02*
X108426000Y-59389428D01*
X108497428Y-59460857D01*
X108568857Y-59389428D01*
X108497428Y-59318000D01*
X108497428Y-59460857D01*
X106711714Y-59818000D02*
X105997428Y-59818000D01*
X106854571Y-60246571D02*
X106354571Y-58746571D01*
X105854571Y-60246571D01*
X105140285Y-60246571D02*
X105283142Y-60175142D01*
X105354571Y-60032285D01*
X105354571Y-58746571D01*
X103926000Y-60246571D02*
X103926000Y-59460857D01*
X103997428Y-59318000D01*
X104140285Y-59246571D01*
X104426000Y-59246571D01*
X104568857Y-59318000D01*
X103926000Y-60175142D02*
X104068857Y-60246571D01*
X104426000Y-60246571D01*
X104568857Y-60175142D01*
X104640285Y-60032285D01*
X104640285Y-59889428D01*
X104568857Y-59746571D01*
X104426000Y-59675142D01*
X104068857Y-59675142D01*
X103926000Y-59603714D01*
X103211714Y-59246571D02*
X103211714Y-60246571D01*
X103211714Y-59389428D02*
X103140285Y-59318000D01*
X102997428Y-59246571D01*
X102783142Y-59246571D01*
X102640285Y-59318000D01*
X102568857Y-59460857D01*
X102568857Y-60246571D01*
X99926000Y-58818000D02*
X100068857Y-58746571D01*
X100283142Y-58746571D01*
X100497428Y-58818000D01*
X100640285Y-58960857D01*
X100711714Y-59103714D01*
X100783142Y-59389428D01*
X100783142Y-59603714D01*
X100711714Y-59889428D01*
X100640285Y-60032285D01*
X100497428Y-60175142D01*
X100283142Y-60246571D01*
X100140285Y-60246571D01*
X99926000Y-60175142D01*
X99854571Y-60103714D01*
X99854571Y-59603714D01*
X100140285Y-59603714D01*
X99211714Y-60246571D02*
X99211714Y-59246571D01*
X99211714Y-59532285D02*
X99140285Y-59389428D01*
X99068857Y-59318000D01*
X98926000Y-59246571D01*
X98783142Y-59246571D01*
X97711714Y-60175142D02*
X97854571Y-60246571D01*
X98140285Y-60246571D01*
X98283142Y-60175142D01*
X98354571Y-60032285D01*
X98354571Y-59460857D01*
X98283142Y-59318000D01*
X98140285Y-59246571D01*
X97854571Y-59246571D01*
X97711714Y-59318000D01*
X97640285Y-59460857D01*
X97640285Y-59603714D01*
X98354571Y-59746571D01*
X96354571Y-59246571D02*
X96354571Y-60460857D01*
X96426000Y-60603714D01*
X96497428Y-60675142D01*
X96640285Y-60746571D01*
X96854571Y-60746571D01*
X96997428Y-60675142D01*
X96354571Y-60175142D02*
X96497428Y-60246571D01*
X96783142Y-60246571D01*
X96926000Y-60175142D01*
X96997428Y-60103714D01*
X97068857Y-59960857D01*
X97068857Y-59532285D01*
X96997428Y-59389428D01*
X96926000Y-59318000D01*
X96783142Y-59246571D01*
X96497428Y-59246571D01*
X96354571Y-59318000D01*
X95426000Y-60246571D02*
X95568857Y-60175142D01*
X95640285Y-60103714D01*
X95711714Y-59960857D01*
X95711714Y-59532285D01*
X95640285Y-59389428D01*
X95568857Y-59318000D01*
X95426000Y-59246571D01*
X95211714Y-59246571D01*
X95068857Y-59318000D01*
X94997428Y-59389428D01*
X94926000Y-59532285D01*
X94926000Y-59960857D01*
X94997428Y-60103714D01*
X95068857Y-60175142D01*
X95211714Y-60246571D01*
X95426000Y-60246571D01*
X94283142Y-60246571D02*
X94283142Y-59246571D01*
X94283142Y-59532285D02*
X94211714Y-59389428D01*
X94140285Y-59318000D01*
X93997428Y-59246571D01*
X93854571Y-59246571D01*
X93354571Y-60246571D02*
X93354571Y-59246571D01*
X93354571Y-58746571D02*
X93426000Y-58818000D01*
X93354571Y-58889428D01*
X93283142Y-58818000D01*
X93354571Y-58746571D01*
X93354571Y-58889428D01*
X91997428Y-60246571D02*
X91997428Y-59460857D01*
X92068857Y-59318000D01*
X92211714Y-59246571D01*
X92497428Y-59246571D01*
X92640285Y-59318000D01*
X91997428Y-60175142D02*
X92140285Y-60246571D01*
X92497428Y-60246571D01*
X92640285Y-60175142D01*
X92711714Y-60032285D01*
X92711714Y-59889428D01*
X92640285Y-59746571D01*
X92497428Y-59675142D01*
X92140285Y-59675142D01*
X91997428Y-59603714D01*
X91283142Y-59246571D02*
X91283142Y-60246571D01*
X91283142Y-59389428D02*
X91211714Y-59318000D01*
X91068857Y-59246571D01*
X90854571Y-59246571D01*
X90711714Y-59318000D01*
X90640285Y-59460857D01*
X90640285Y-60246571D01*
D11*
X101420000Y-139000000D02*
X101420000Y-140330000D01*
X101420000Y-140330000D02*
X102750000Y-140330000D01*
X101420000Y-137730000D02*
X104020000Y-137730000D01*
X104020000Y-137730000D02*
X104020000Y-140330000D01*
X104020000Y-140330000D02*
X121860000Y-140330000D01*
X121860000Y-135130000D02*
X121860000Y-140330000D01*
X101420000Y-135130000D02*
X121860000Y-135130000D01*
X101420000Y-135130000D02*
X101420000Y-137730000D01*
D12*
G36*
X110688472Y-95875006D02*
G01*
X110777274Y-95976591D01*
X110819762Y-96115777D01*
X110772883Y-96171146D01*
X110598423Y-96181315D01*
X110574666Y-96181333D01*
X110388746Y-96154723D01*
X110323287Y-96055711D01*
X110320666Y-96012000D01*
X110385250Y-95886173D01*
X110531567Y-95838670D01*
X110688472Y-95875006D01*
X110688472Y-95875006D01*
G37*
X110688472Y-95875006D02*
X110777274Y-95976591D01*
X110819762Y-96115777D01*
X110772883Y-96171146D01*
X110598423Y-96181315D01*
X110574666Y-96181333D01*
X110388746Y-96154723D01*
X110323287Y-96055711D01*
X110320666Y-96012000D01*
X110385250Y-95886173D01*
X110531567Y-95838670D01*
X110688472Y-95875006D01*
G36*
X102776810Y-95712961D02*
G01*
X102924880Y-95814085D01*
X102939346Y-95944779D01*
X102820741Y-96045275D01*
X102683433Y-96089522D01*
X102602128Y-96051766D01*
X102528355Y-95966078D01*
X102473669Y-95817068D01*
X102551159Y-95715720D01*
X102723970Y-95699581D01*
X102776810Y-95712961D01*
X102776810Y-95712961D01*
G37*
X102776810Y-95712961D02*
X102924880Y-95814085D01*
X102939346Y-95944779D01*
X102820741Y-96045275D01*
X102683433Y-96089522D01*
X102602128Y-96051766D01*
X102528355Y-95966078D01*
X102473669Y-95817068D01*
X102551159Y-95715720D01*
X102723970Y-95699581D01*
X102776810Y-95712961D01*
G36*
X106745203Y-87528841D02*
G01*
X106764666Y-87698484D01*
X106807547Y-87938879D01*
X106884825Y-88100629D01*
X106986511Y-88205163D01*
X107111537Y-88215350D01*
X107281408Y-88160617D01*
X107476477Y-88101732D01*
X107592971Y-88093918D01*
X107599569Y-88098014D01*
X107583692Y-88174511D01*
X107462140Y-88271014D01*
X107289838Y-88353847D01*
X107124500Y-88389307D01*
X106968972Y-88439893D01*
X106953280Y-88576859D01*
X107052935Y-88753304D01*
X107212639Y-88858115D01*
X107315795Y-88845646D01*
X107424989Y-88832553D01*
X107424121Y-88907675D01*
X107318333Y-88995489D01*
X107158568Y-89023662D01*
X106993369Y-89042888D01*
X106934000Y-89087162D01*
X106862939Y-89141509D01*
X106764666Y-89154000D01*
X106627086Y-89118544D01*
X106595333Y-89069333D01*
X106659762Y-88987127D01*
X106680000Y-88984667D01*
X106735962Y-88910238D01*
X106763935Y-88727223D01*
X106764666Y-88688333D01*
X106750507Y-88489238D01*
X106678687Y-88407578D01*
X106510666Y-88392000D01*
X106332324Y-88367476D01*
X106256686Y-88308387D01*
X106256666Y-88307333D01*
X106329122Y-88243687D01*
X106468333Y-88222667D01*
X106627448Y-88193684D01*
X106680000Y-88138000D01*
X106611423Y-88062885D01*
X106553000Y-88053333D01*
X106457441Y-87985972D01*
X106427443Y-87829583D01*
X106466550Y-87652704D01*
X106527600Y-87562266D01*
X106667582Y-87467451D01*
X106745203Y-87528841D01*
X106745203Y-87528841D01*
G37*
X106745203Y-87528841D02*
X106764666Y-87698484D01*
X106807547Y-87938879D01*
X106884825Y-88100629D01*
X106986511Y-88205163D01*
X107111537Y-88215350D01*
X107281408Y-88160617D01*
X107476477Y-88101732D01*
X107592971Y-88093918D01*
X107599569Y-88098014D01*
X107583692Y-88174511D01*
X107462140Y-88271014D01*
X107289838Y-88353847D01*
X107124500Y-88389307D01*
X106968972Y-88439893D01*
X106953280Y-88576859D01*
X107052935Y-88753304D01*
X107212639Y-88858115D01*
X107315795Y-88845646D01*
X107424989Y-88832553D01*
X107424121Y-88907675D01*
X107318333Y-88995489D01*
X107158568Y-89023662D01*
X106993369Y-89042888D01*
X106934000Y-89087162D01*
X106862939Y-89141509D01*
X106764666Y-89154000D01*
X106627086Y-89118544D01*
X106595333Y-89069333D01*
X106659762Y-88987127D01*
X106680000Y-88984667D01*
X106735962Y-88910238D01*
X106763935Y-88727223D01*
X106764666Y-88688333D01*
X106750507Y-88489238D01*
X106678687Y-88407578D01*
X106510666Y-88392000D01*
X106332324Y-88367476D01*
X106256686Y-88308387D01*
X106256666Y-88307333D01*
X106329122Y-88243687D01*
X106468333Y-88222667D01*
X106627448Y-88193684D01*
X106680000Y-88138000D01*
X106611423Y-88062885D01*
X106553000Y-88053333D01*
X106457441Y-87985972D01*
X106427443Y-87829583D01*
X106466550Y-87652704D01*
X106527600Y-87562266D01*
X106667582Y-87467451D01*
X106745203Y-87528841D01*
G36*
X110907759Y-95326490D02*
G01*
X111116869Y-95472738D01*
X111345479Y-95718454D01*
X111423646Y-95990899D01*
X111360465Y-96327561D01*
X111338762Y-96387488D01*
X111267642Y-96520528D01*
X111151815Y-96583640D01*
X110936917Y-96600590D01*
X110851928Y-96600304D01*
X110526054Y-96567976D01*
X110207952Y-96492682D01*
X110130166Y-96464248D01*
X109937865Y-96372931D01*
X109844763Y-96269252D01*
X109815016Y-96092742D01*
X109812793Y-95937468D01*
X109982000Y-95937468D01*
X110016133Y-96130777D01*
X110149663Y-96256595D01*
X110257166Y-96309106D01*
X110541919Y-96394186D01*
X110843205Y-96431985D01*
X110845996Y-96432019D01*
X111056235Y-96419725D01*
X111157860Y-96345377D01*
X111210934Y-96161793D01*
X111214599Y-96142482D01*
X111231759Y-95925349D01*
X111159281Y-95767278D01*
X111027936Y-95637157D01*
X110742855Y-95464032D01*
X110459474Y-95419370D01*
X110214056Y-95492759D01*
X110042860Y-95673788D01*
X109982000Y-95937468D01*
X109812793Y-95937468D01*
X109812666Y-95928645D01*
X109841099Y-95618661D01*
X109947668Y-95426717D01*
X110164277Y-95319388D01*
X110439585Y-95271833D01*
X110705036Y-95262493D01*
X110907759Y-95326490D01*
X110907759Y-95326490D01*
G37*
X110907759Y-95326490D02*
X111116869Y-95472738D01*
X111345479Y-95718454D01*
X111423646Y-95990899D01*
X111360465Y-96327561D01*
X111338762Y-96387488D01*
X111267642Y-96520528D01*
X111151815Y-96583640D01*
X110936917Y-96600590D01*
X110851928Y-96600304D01*
X110526054Y-96567976D01*
X110207952Y-96492682D01*
X110130166Y-96464248D01*
X109937865Y-96372931D01*
X109844763Y-96269252D01*
X109815016Y-96092742D01*
X109812793Y-95937468D01*
X109982000Y-95937468D01*
X110016133Y-96130777D01*
X110149663Y-96256595D01*
X110257166Y-96309106D01*
X110541919Y-96394186D01*
X110843205Y-96431985D01*
X110845996Y-96432019D01*
X111056235Y-96419725D01*
X111157860Y-96345377D01*
X111210934Y-96161793D01*
X111214599Y-96142482D01*
X111231759Y-95925349D01*
X111159281Y-95767278D01*
X111027936Y-95637157D01*
X110742855Y-95464032D01*
X110459474Y-95419370D01*
X110214056Y-95492759D01*
X110042860Y-95673788D01*
X109982000Y-95937468D01*
X109812793Y-95937468D01*
X109812666Y-95928645D01*
X109841099Y-95618661D01*
X109947668Y-95426717D01*
X110164277Y-95319388D01*
X110439585Y-95271833D01*
X110705036Y-95262493D01*
X110907759Y-95326490D01*
G36*
X102954915Y-95200030D02*
G01*
X103244079Y-95284110D01*
X103258019Y-95289810D01*
X103424822Y-95366639D01*
X103511209Y-95451804D01*
X103539795Y-95596252D01*
X103533191Y-95850934D01*
X103530467Y-95903643D01*
X103505000Y-96393000D01*
X103081666Y-96412841D01*
X102729432Y-96394988D01*
X102449357Y-96316573D01*
X102425500Y-96304304D01*
X102254908Y-96166532D01*
X102195261Y-95967377D01*
X102192666Y-95886280D01*
X102199079Y-95830864D01*
X102362000Y-95830864D01*
X102429825Y-96056364D01*
X102636852Y-96197612D01*
X102988406Y-96257884D01*
X103060500Y-96260270D01*
X103264125Y-96254997D01*
X103354317Y-96197113D01*
X103377285Y-96038449D01*
X103378000Y-95929285D01*
X103349324Y-95671963D01*
X103244732Y-95511542D01*
X103179434Y-95462465D01*
X103030223Y-95384546D01*
X102886957Y-95384326D01*
X102671434Y-95461649D01*
X102462171Y-95573371D01*
X102374658Y-95705778D01*
X102362000Y-95830864D01*
X102199079Y-95830864D01*
X102236369Y-95508652D01*
X102369745Y-95271643D01*
X102596200Y-95170159D01*
X102674642Y-95165333D01*
X102954915Y-95200030D01*
X102954915Y-95200030D01*
G37*
X102954915Y-95200030D02*
X103244079Y-95284110D01*
X103258019Y-95289810D01*
X103424822Y-95366639D01*
X103511209Y-95451804D01*
X103539795Y-95596252D01*
X103533191Y-95850934D01*
X103530467Y-95903643D01*
X103505000Y-96393000D01*
X103081666Y-96412841D01*
X102729432Y-96394988D01*
X102449357Y-96316573D01*
X102425500Y-96304304D01*
X102254908Y-96166532D01*
X102195261Y-95967377D01*
X102192666Y-95886280D01*
X102199079Y-95830864D01*
X102362000Y-95830864D01*
X102429825Y-96056364D01*
X102636852Y-96197612D01*
X102988406Y-96257884D01*
X103060500Y-96260270D01*
X103264125Y-96254997D01*
X103354317Y-96197113D01*
X103377285Y-96038449D01*
X103378000Y-95929285D01*
X103349324Y-95671963D01*
X103244732Y-95511542D01*
X103179434Y-95462465D01*
X103030223Y-95384546D01*
X102886957Y-95384326D01*
X102671434Y-95461649D01*
X102462171Y-95573371D01*
X102374658Y-95705778D01*
X102362000Y-95830864D01*
X102199079Y-95830864D01*
X102236369Y-95508652D01*
X102369745Y-95271643D01*
X102596200Y-95170159D01*
X102674642Y-95165333D01*
X102954915Y-95200030D01*
G36*
X118615539Y-102087762D02*
G01*
X118618000Y-102108000D01*
X118553570Y-102190206D01*
X118533333Y-102192667D01*
X118451126Y-102128237D01*
X118448666Y-102108000D01*
X118513095Y-102025793D01*
X118533333Y-102023333D01*
X118615539Y-102087762D01*
X118615539Y-102087762D01*
G37*
X118615539Y-102087762D02*
X118618000Y-102108000D01*
X118553570Y-102190206D01*
X118533333Y-102192667D01*
X118451126Y-102128237D01*
X118448666Y-102108000D01*
X118513095Y-102025793D01*
X118533333Y-102023333D01*
X118615539Y-102087762D01*
G36*
X111925808Y-89801967D02*
G01*
X111862717Y-89964948D01*
X111789440Y-90078048D01*
X111649546Y-90277773D01*
X112128106Y-90238088D01*
X112414723Y-90224770D01*
X112564460Y-90248314D01*
X112606666Y-90311201D01*
X112553608Y-90376925D01*
X112378976Y-90412940D01*
X112059588Y-90423999D01*
X112056333Y-90424000D01*
X111736993Y-90410424D01*
X111548486Y-90372143D01*
X111506000Y-90331230D01*
X111546954Y-90192747D01*
X111643971Y-90007267D01*
X111758283Y-89838284D01*
X111851121Y-89749293D01*
X111862921Y-89746667D01*
X111925808Y-89801967D01*
X111925808Y-89801967D01*
G37*
X111925808Y-89801967D02*
X111862717Y-89964948D01*
X111789440Y-90078048D01*
X111649546Y-90277773D01*
X112128106Y-90238088D01*
X112414723Y-90224770D01*
X112564460Y-90248314D01*
X112606666Y-90311201D01*
X112553608Y-90376925D01*
X112378976Y-90412940D01*
X112059588Y-90423999D01*
X112056333Y-90424000D01*
X111736993Y-90410424D01*
X111548486Y-90372143D01*
X111506000Y-90331230D01*
X111546954Y-90192747D01*
X111643971Y-90007267D01*
X111758283Y-89838284D01*
X111851121Y-89749293D01*
X111862921Y-89746667D01*
X111925808Y-89801967D01*
G36*
X103531192Y-90176625D02*
G01*
X103663337Y-90207937D01*
X103710951Y-90285274D01*
X103716666Y-90381667D01*
X103699863Y-90514878D01*
X103618463Y-90575608D01*
X103425980Y-90590869D01*
X103356833Y-90590759D01*
X103087523Y-90567137D01*
X102866517Y-90511668D01*
X102827666Y-90493605D01*
X102657095Y-90390274D01*
X102654731Y-90386422D01*
X103056895Y-90386422D01*
X103158660Y-90400452D01*
X103251000Y-90402648D01*
X103425251Y-90395833D01*
X103470225Y-90376647D01*
X103442487Y-90365827D01*
X103239165Y-90350057D01*
X103103820Y-90364118D01*
X103056895Y-90386422D01*
X102654731Y-90386422D01*
X102617345Y-90325518D01*
X102688541Y-90260679D01*
X102703118Y-90251359D01*
X102855794Y-90205889D01*
X103108010Y-90176799D01*
X103272166Y-90171296D01*
X103531192Y-90176625D01*
X103531192Y-90176625D01*
G37*
X103531192Y-90176625D02*
X103663337Y-90207937D01*
X103710951Y-90285274D01*
X103716666Y-90381667D01*
X103699863Y-90514878D01*
X103618463Y-90575608D01*
X103425980Y-90590869D01*
X103356833Y-90590759D01*
X103087523Y-90567137D01*
X102866517Y-90511668D01*
X102827666Y-90493605D01*
X102657095Y-90390274D01*
X102654731Y-90386422D01*
X103056895Y-90386422D01*
X103158660Y-90400452D01*
X103251000Y-90402648D01*
X103425251Y-90395833D01*
X103470225Y-90376647D01*
X103442487Y-90365827D01*
X103239165Y-90350057D01*
X103103820Y-90364118D01*
X103056895Y-90386422D01*
X102654731Y-90386422D01*
X102617345Y-90325518D01*
X102688541Y-90260679D01*
X102703118Y-90251359D01*
X102855794Y-90205889D01*
X103108010Y-90176799D01*
X103272166Y-90171296D01*
X103531192Y-90176625D01*
G36*
X110528888Y-90811345D02*
G01*
X110574666Y-90884343D01*
X110524234Y-90965499D01*
X110352914Y-90972837D01*
X110299500Y-90965940D01*
X110054941Y-90963698D01*
X109885698Y-91023350D01*
X109830507Y-91126783D01*
X109849149Y-91176534D01*
X109956061Y-91218713D01*
X110187249Y-91248324D01*
X110498108Y-91265137D01*
X110844032Y-91268919D01*
X111180415Y-91259441D01*
X111462649Y-91236469D01*
X111646129Y-91199774D01*
X111675333Y-91186000D01*
X111712683Y-91133457D01*
X111605749Y-91107619D01*
X111446483Y-91102630D01*
X111157941Y-91075765D01*
X110898062Y-91008467D01*
X110716056Y-90917544D01*
X110659333Y-90833743D01*
X110721269Y-90770403D01*
X110848741Y-90775525D01*
X110954247Y-90845096D01*
X110955666Y-90847333D01*
X111063152Y-90894430D01*
X111283666Y-90925169D01*
X111468663Y-90932000D01*
X111735786Y-90939390D01*
X111874288Y-90971591D01*
X111924600Y-91043647D01*
X111929333Y-91103429D01*
X111851329Y-91272094D01*
X111712154Y-91357429D01*
X111542077Y-91389643D01*
X111254639Y-91413364D01*
X110898048Y-91427942D01*
X110520510Y-91432725D01*
X110170232Y-91427063D01*
X109895420Y-91410304D01*
X109749166Y-91383927D01*
X109646833Y-91269331D01*
X109647843Y-91096265D01*
X109738907Y-90929021D01*
X109860511Y-90845238D01*
X110124776Y-90776330D01*
X110363884Y-90765926D01*
X110528888Y-90811345D01*
X110528888Y-90811345D01*
G37*
X110528888Y-90811345D02*
X110574666Y-90884343D01*
X110524234Y-90965499D01*
X110352914Y-90972837D01*
X110299500Y-90965940D01*
X110054941Y-90963698D01*
X109885698Y-91023350D01*
X109830507Y-91126783D01*
X109849149Y-91176534D01*
X109956061Y-91218713D01*
X110187249Y-91248324D01*
X110498108Y-91265137D01*
X110844032Y-91268919D01*
X111180415Y-91259441D01*
X111462649Y-91236469D01*
X111646129Y-91199774D01*
X111675333Y-91186000D01*
X111712683Y-91133457D01*
X111605749Y-91107619D01*
X111446483Y-91102630D01*
X111157941Y-91075765D01*
X110898062Y-91008467D01*
X110716056Y-90917544D01*
X110659333Y-90833743D01*
X110721269Y-90770403D01*
X110848741Y-90775525D01*
X110954247Y-90845096D01*
X110955666Y-90847333D01*
X111063152Y-90894430D01*
X111283666Y-90925169D01*
X111468663Y-90932000D01*
X111735786Y-90939390D01*
X111874288Y-90971591D01*
X111924600Y-91043647D01*
X111929333Y-91103429D01*
X111851329Y-91272094D01*
X111712154Y-91357429D01*
X111542077Y-91389643D01*
X111254639Y-91413364D01*
X110898048Y-91427942D01*
X110520510Y-91432725D01*
X110170232Y-91427063D01*
X109895420Y-91410304D01*
X109749166Y-91383927D01*
X109646833Y-91269331D01*
X109647843Y-91096265D01*
X109738907Y-90929021D01*
X109860511Y-90845238D01*
X110124776Y-90776330D01*
X110363884Y-90765926D01*
X110528888Y-90811345D01*
G36*
X104775000Y-91482333D02*
G01*
X103949500Y-91506566D01*
X103552059Y-91512996D01*
X103298536Y-91502489D01*
X103164123Y-91472413D01*
X103124010Y-91420135D01*
X103124000Y-91418987D01*
X103199420Y-91270667D01*
X103505000Y-91270667D01*
X103552574Y-91317785D01*
X103754043Y-91346720D01*
X104050336Y-91355333D01*
X104356266Y-91344231D01*
X104567883Y-91314438D01*
X104647988Y-91271223D01*
X104648000Y-91270667D01*
X104570312Y-91226324D01*
X104364829Y-91196000D01*
X104102663Y-91186000D01*
X103813643Y-91198230D01*
X103596968Y-91230151D01*
X103505000Y-91270667D01*
X103199420Y-91270667D01*
X103203485Y-91262673D01*
X103423706Y-91136885D01*
X103757314Y-91051643D01*
X104176957Y-91016967D01*
X104222187Y-91016667D01*
X104828580Y-91016667D01*
X104775000Y-91482333D01*
X104775000Y-91482333D01*
G37*
X104775000Y-91482333D02*
X103949500Y-91506566D01*
X103552059Y-91512996D01*
X103298536Y-91502489D01*
X103164123Y-91472413D01*
X103124010Y-91420135D01*
X103124000Y-91418987D01*
X103199420Y-91270667D01*
X103505000Y-91270667D01*
X103552574Y-91317785D01*
X103754043Y-91346720D01*
X104050336Y-91355333D01*
X104356266Y-91344231D01*
X104567883Y-91314438D01*
X104647988Y-91271223D01*
X104648000Y-91270667D01*
X104570312Y-91226324D01*
X104364829Y-91196000D01*
X104102663Y-91186000D01*
X103813643Y-91198230D01*
X103596968Y-91230151D01*
X103505000Y-91270667D01*
X103199420Y-91270667D01*
X103203485Y-91262673D01*
X103423706Y-91136885D01*
X103757314Y-91051643D01*
X104176957Y-91016967D01*
X104222187Y-91016667D01*
X104828580Y-91016667D01*
X104775000Y-91482333D01*
G36*
X102611896Y-89634786D02*
G01*
X102616000Y-89648289D01*
X102540174Y-89729971D01*
X102348057Y-89795795D01*
X102092686Y-89828958D01*
X102041842Y-89830177D01*
X101856060Y-89885846D01*
X101797784Y-90027144D01*
X101874803Y-90219942D01*
X101935946Y-90294105D01*
X102075065Y-90519283D01*
X102053012Y-90709321D01*
X101877158Y-90845413D01*
X101701061Y-90893322D01*
X101415341Y-90947092D01*
X101258477Y-91012358D01*
X101191857Y-91125692D01*
X101176870Y-91323663D01*
X101176666Y-91390012D01*
X101200643Y-91680272D01*
X101278831Y-91816465D01*
X101420616Y-91807816D01*
X101534023Y-91741238D01*
X101796182Y-91639674D01*
X102142707Y-91610121D01*
X102505616Y-91650677D01*
X102816925Y-91759437D01*
X102849377Y-91778069D01*
X103295713Y-91968803D01*
X103739711Y-91991479D01*
X104140000Y-91871662D01*
X104378027Y-91792981D01*
X104678664Y-91734444D01*
X104999240Y-91698653D01*
X105297085Y-91688214D01*
X105529527Y-91705729D01*
X105653897Y-91753802D01*
X105664000Y-91778667D01*
X105586185Y-91822830D01*
X105379801Y-91853094D01*
X105109576Y-91863333D01*
X104602149Y-91904796D01*
X104204673Y-92032667D01*
X103801013Y-92172080D01*
X103419195Y-92172361D01*
X103208666Y-92119824D01*
X102978811Y-92029520D01*
X102743000Y-91915956D01*
X102426686Y-91807717D01*
X102075697Y-91779916D01*
X101753527Y-91830869D01*
X101534838Y-91948000D01*
X101348155Y-92072925D01*
X101192100Y-92117333D01*
X101107399Y-92098205D01*
X101056699Y-92017292D01*
X101029743Y-91839303D01*
X101016278Y-91528944D01*
X101015808Y-91510609D01*
X101017376Y-91152986D01*
X101057501Y-90931639D01*
X101156269Y-90814523D01*
X101333765Y-90769592D01*
X101483799Y-90763963D01*
X101737541Y-90723220D01*
X101863731Y-90618627D01*
X101846063Y-90472055D01*
X101769034Y-90381396D01*
X101633996Y-90185767D01*
X101597889Y-89971032D01*
X101658928Y-89792883D01*
X101790500Y-89710824D01*
X102221266Y-89632838D01*
X102495748Y-89607440D01*
X102611896Y-89634786D01*
X102611896Y-89634786D01*
G37*
X102611896Y-89634786D02*
X102616000Y-89648289D01*
X102540174Y-89729971D01*
X102348057Y-89795795D01*
X102092686Y-89828958D01*
X102041842Y-89830177D01*
X101856060Y-89885846D01*
X101797784Y-90027144D01*
X101874803Y-90219942D01*
X101935946Y-90294105D01*
X102075065Y-90519283D01*
X102053012Y-90709321D01*
X101877158Y-90845413D01*
X101701061Y-90893322D01*
X101415341Y-90947092D01*
X101258477Y-91012358D01*
X101191857Y-91125692D01*
X101176870Y-91323663D01*
X101176666Y-91390012D01*
X101200643Y-91680272D01*
X101278831Y-91816465D01*
X101420616Y-91807816D01*
X101534023Y-91741238D01*
X101796182Y-91639674D01*
X102142707Y-91610121D01*
X102505616Y-91650677D01*
X102816925Y-91759437D01*
X102849377Y-91778069D01*
X103295713Y-91968803D01*
X103739711Y-91991479D01*
X104140000Y-91871662D01*
X104378027Y-91792981D01*
X104678664Y-91734444D01*
X104999240Y-91698653D01*
X105297085Y-91688214D01*
X105529527Y-91705729D01*
X105653897Y-91753802D01*
X105664000Y-91778667D01*
X105586185Y-91822830D01*
X105379801Y-91853094D01*
X105109576Y-91863333D01*
X104602149Y-91904796D01*
X104204673Y-92032667D01*
X103801013Y-92172080D01*
X103419195Y-92172361D01*
X103208666Y-92119824D01*
X102978811Y-92029520D01*
X102743000Y-91915956D01*
X102426686Y-91807717D01*
X102075697Y-91779916D01*
X101753527Y-91830869D01*
X101534838Y-91948000D01*
X101348155Y-92072925D01*
X101192100Y-92117333D01*
X101107399Y-92098205D01*
X101056699Y-92017292D01*
X101029743Y-91839303D01*
X101016278Y-91528944D01*
X101015808Y-91510609D01*
X101017376Y-91152986D01*
X101057501Y-90931639D01*
X101156269Y-90814523D01*
X101333765Y-90769592D01*
X101483799Y-90763963D01*
X101737541Y-90723220D01*
X101863731Y-90618627D01*
X101846063Y-90472055D01*
X101769034Y-90381396D01*
X101633996Y-90185767D01*
X101597889Y-89971032D01*
X101658928Y-89792883D01*
X101790500Y-89710824D01*
X102221266Y-89632838D01*
X102495748Y-89607440D01*
X102611896Y-89634786D01*
G36*
X106654984Y-86035411D02*
G01*
X106842825Y-86097192D01*
X107038405Y-86236002D01*
X107199873Y-86381167D01*
X107440721Y-86631081D01*
X107644598Y-86908069D01*
X107828836Y-87244849D01*
X108010769Y-87674142D01*
X108207729Y-88228668D01*
X108256428Y-88375688D01*
X108443454Y-89036503D01*
X108537250Y-89589154D01*
X108537283Y-90024319D01*
X108443022Y-90332679D01*
X108373333Y-90424000D01*
X108247747Y-90591622D01*
X108204000Y-90720333D01*
X108159691Y-90833026D01*
X108121990Y-90847333D01*
X108074130Y-90908867D01*
X108086176Y-90967717D01*
X108072496Y-91131975D01*
X107962526Y-91377488D01*
X107780891Y-91666960D01*
X107552211Y-91963095D01*
X107301108Y-92228597D01*
X107188896Y-92326890D01*
X106977914Y-92508403D01*
X106813148Y-92662415D01*
X106615286Y-92792140D01*
X106360946Y-92882556D01*
X106346585Y-92885512D01*
X106206733Y-92917443D01*
X106199381Y-92937016D01*
X106337622Y-92948326D01*
X106566320Y-92954263D01*
X107087641Y-92964000D01*
X107476487Y-92531509D01*
X107672409Y-92298859D01*
X107812116Y-92104836D01*
X107865333Y-91991543D01*
X107924624Y-91850337D01*
X107987681Y-91782527D01*
X108072715Y-91646248D01*
X108159417Y-91405619D01*
X108205350Y-91221827D01*
X108270508Y-90970297D01*
X108338510Y-90803519D01*
X108379336Y-90762667D01*
X108447695Y-90836836D01*
X108440705Y-91053223D01*
X108358860Y-91402651D01*
X108341666Y-91460967D01*
X108225333Y-91847513D01*
X109276000Y-91908113D01*
X109750352Y-91931098D01*
X110095007Y-91934954D01*
X110348747Y-91917570D01*
X110550352Y-91876837D01*
X110686331Y-91831357D01*
X111069510Y-91739625D01*
X111605556Y-91697066D01*
X111826330Y-91694000D01*
X112166274Y-91686323D01*
X112431272Y-91665728D01*
X112584001Y-91635869D01*
X112606666Y-91617616D01*
X112677877Y-91539985D01*
X112850405Y-91456339D01*
X112861783Y-91452297D01*
X113101678Y-91312739D01*
X113181834Y-91117367D01*
X113115101Y-90890478D01*
X113048582Y-90606757D01*
X113130808Y-90337352D01*
X113345569Y-90134839D01*
X113348575Y-90133197D01*
X113580333Y-90007446D01*
X113237433Y-90004056D01*
X113000431Y-89985762D01*
X112836499Y-89944485D01*
X112814099Y-89930722D01*
X112688897Y-89864248D01*
X112468047Y-89778990D01*
X112364608Y-89744792D01*
X112118429Y-89681355D01*
X111916373Y-89680054D01*
X111672321Y-89744438D01*
X111577645Y-89777233D01*
X111326047Y-89851198D01*
X111065533Y-89887136D01*
X110740195Y-89889299D01*
X110379166Y-89868362D01*
X109944510Y-89845801D01*
X109621332Y-89855393D01*
X109354159Y-89900980D01*
X109186344Y-89951025D01*
X108943481Y-90021619D01*
X108771443Y-90049669D01*
X108724334Y-90041223D01*
X108735970Y-89966029D01*
X108853426Y-89885801D01*
X109018149Y-89836199D01*
X109066836Y-89832630D01*
X109222629Y-89783309D01*
X109266526Y-89739882D01*
X109381029Y-89696702D01*
X109652610Y-89671840D01*
X110069918Y-89666100D01*
X110266356Y-89669143D01*
X110829337Y-89666522D01*
X111293616Y-89633887D01*
X111615017Y-89576268D01*
X111852478Y-89519458D01*
X112047156Y-89510226D01*
X112267144Y-89553683D01*
X112557465Y-89647007D01*
X112879315Y-89743855D01*
X113176977Y-89810613D01*
X113358614Y-89831333D01*
X113541265Y-89854256D01*
X113622418Y-89909781D01*
X113622666Y-89913343D01*
X113684727Y-89959927D01*
X113749666Y-89946618D01*
X113868948Y-89923479D01*
X113875121Y-89973665D01*
X113788576Y-90066329D01*
X113629704Y-90170626D01*
X113587568Y-90191832D01*
X113362167Y-90349521D01*
X113235729Y-90539354D01*
X113230287Y-90719216D01*
X113275589Y-90788123D01*
X113344519Y-90936536D01*
X113368666Y-91122204D01*
X113317702Y-91333732D01*
X113139406Y-91493299D01*
X113115201Y-91507438D01*
X112943719Y-91632952D01*
X112862252Y-91747508D01*
X112861201Y-91757500D01*
X112810480Y-91808406D01*
X112646037Y-91841457D01*
X112348534Y-91858960D01*
X111973380Y-91863333D01*
X111437182Y-91877172D01*
X111039237Y-91920860D01*
X110750567Y-91997653D01*
X110739673Y-92001943D01*
X110561792Y-92060596D01*
X110359547Y-92095387D01*
X110095604Y-92108402D01*
X109732633Y-92101723D01*
X109310922Y-92081716D01*
X108228589Y-92022880D01*
X107856461Y-92419614D01*
X107569263Y-92724031D01*
X107363526Y-92926661D01*
X107203794Y-93048204D01*
X107054612Y-93109363D01*
X106880522Y-93130839D01*
X106646067Y-93133335D01*
X106634065Y-93133333D01*
X106317003Y-93121451D01*
X106107577Y-93074538D01*
X105945060Y-92975695D01*
X105888029Y-92925709D01*
X105711777Y-92673620D01*
X105680098Y-92483715D01*
X105838686Y-92483715D01*
X105867347Y-92623418D01*
X106022457Y-92693147D01*
X106266570Y-92710000D01*
X106492225Y-92683825D01*
X106640427Y-92619217D01*
X106654626Y-92602744D01*
X106760099Y-92483502D01*
X106939828Y-92318021D01*
X106999674Y-92267713D01*
X107248826Y-92031293D01*
X107499797Y-91741689D01*
X107715006Y-91447625D01*
X107856872Y-91197824D01*
X107885010Y-91119897D01*
X107899186Y-90997750D01*
X107828147Y-90944333D01*
X107631550Y-90932034D01*
X107610462Y-90932000D01*
X107389500Y-90957302D01*
X107255279Y-91020337D01*
X107243834Y-91037833D01*
X107187202Y-91095538D01*
X107118694Y-91026095D01*
X107044587Y-90976858D01*
X106932442Y-91029400D01*
X106752326Y-91195429D01*
X106542483Y-91428052D01*
X106302649Y-91723667D01*
X106150743Y-91927029D01*
X105933982Y-92257199D01*
X105838686Y-92483715D01*
X105680098Y-92483715D01*
X105665524Y-92396357D01*
X105752459Y-92144627D01*
X105833333Y-92055355D01*
X105961314Y-91911692D01*
X106002666Y-91812144D01*
X106058617Y-91702633D01*
X106203076Y-91522499D01*
X106346230Y-91370357D01*
X106540508Y-91165765D01*
X106638823Y-91007257D01*
X106667913Y-90824217D01*
X106655143Y-90554531D01*
X106626554Y-90284959D01*
X106589472Y-90088935D01*
X106563360Y-90025138D01*
X106439560Y-89980604D01*
X106345577Y-89965136D01*
X106773958Y-89965136D01*
X106805106Y-90093669D01*
X106861617Y-90263199D01*
X106974002Y-90544390D01*
X107103572Y-90694596D01*
X107301095Y-90748798D01*
X107561479Y-90745451D01*
X107992333Y-90720333D01*
X108019366Y-90390159D01*
X108046399Y-90059984D01*
X107532533Y-90113694D01*
X107242708Y-90136890D01*
X107084785Y-90126403D01*
X107023800Y-90077335D01*
X107018666Y-90041702D01*
X106950864Y-89930585D01*
X106891666Y-89916000D01*
X106801521Y-89920827D01*
X106773958Y-89965136D01*
X106345577Y-89965136D01*
X106178686Y-89937669D01*
X105812995Y-89898806D01*
X105374743Y-89866485D01*
X104896187Y-89843179D01*
X104409585Y-89831358D01*
X104039653Y-89831780D01*
X103484639Y-89832076D01*
X103086441Y-89813460D01*
X102833456Y-89774595D01*
X102714079Y-89714143D01*
X102700827Y-89677461D01*
X102780295Y-89658144D01*
X102997828Y-89645621D01*
X103322308Y-89639544D01*
X103722616Y-89639568D01*
X104167635Y-89645347D01*
X104626245Y-89656533D01*
X105067330Y-89672782D01*
X105459771Y-89693747D01*
X105684454Y-89710652D01*
X106255243Y-89761052D01*
X106001954Y-89165834D01*
X105892947Y-88896919D01*
X105820580Y-88668588D01*
X105777430Y-88433365D01*
X105756077Y-88143775D01*
X105749097Y-87752344D01*
X105748666Y-87545769D01*
X105756526Y-86998399D01*
X105786484Y-86597861D01*
X105822195Y-86438070D01*
X105918000Y-86438070D01*
X105919423Y-87478535D01*
X105922677Y-87925985D01*
X105936170Y-88251071D01*
X105967649Y-88500746D01*
X106024862Y-88721959D01*
X106115556Y-88961664D01*
X106194589Y-89146095D01*
X106468333Y-89773190D01*
X107209166Y-89754693D01*
X107590067Y-89752187D01*
X107824519Y-89769461D01*
X107934533Y-89809141D01*
X107950000Y-89843031D01*
X107979967Y-89903636D01*
X108041872Y-89857994D01*
X108076509Y-89752099D01*
X108066693Y-89533832D01*
X108010719Y-89183435D01*
X107962800Y-88942432D01*
X107859847Y-88502135D01*
X108043428Y-88502135D01*
X108059623Y-88596506D01*
X108112472Y-88801359D01*
X108161666Y-88984667D01*
X108237742Y-89329299D01*
X108290383Y-89681017D01*
X108302453Y-89831333D01*
X108318250Y-90212333D01*
X108352931Y-89831333D01*
X108352498Y-89514928D01*
X108311468Y-89153165D01*
X108281337Y-89001888D01*
X108210165Y-88744708D01*
X108140797Y-88562878D01*
X108104864Y-88510057D01*
X108059852Y-88484550D01*
X108043428Y-88502135D01*
X107859847Y-88502135D01*
X107856570Y-88488122D01*
X107742750Y-88144833D01*
X107599254Y-87854875D01*
X107468760Y-87651927D01*
X107201459Y-87261578D01*
X107021503Y-86986571D01*
X106916617Y-86805316D01*
X106874528Y-86696225D01*
X106882961Y-86637711D01*
X106888466Y-86631311D01*
X106975203Y-86641777D01*
X107046755Y-86717090D01*
X107372148Y-87183667D01*
X107614704Y-87506888D01*
X107773661Y-87685809D01*
X107848256Y-87719488D01*
X107851973Y-87712414D01*
X107827823Y-87583783D01*
X107725364Y-87398483D01*
X107705810Y-87371162D01*
X107585945Y-87189464D01*
X107527722Y-87062775D01*
X107526666Y-87053125D01*
X107474071Y-86947247D01*
X107343539Y-86779053D01*
X107301772Y-86732196D01*
X107053491Y-86492974D01*
X106812911Y-86314122D01*
X106608964Y-86210735D01*
X106470580Y-86197904D01*
X106426000Y-86275333D01*
X106498456Y-86338979D01*
X106637666Y-86360000D01*
X106808626Y-86410316D01*
X106840843Y-86537500D01*
X106747733Y-86681733D01*
X106545388Y-86776212D01*
X106300156Y-86738303D01*
X106103298Y-86610702D01*
X105918000Y-86438070D01*
X105822195Y-86438070D01*
X105848109Y-86322118D01*
X105950969Y-86149135D01*
X106104631Y-86056874D01*
X106318663Y-86023298D01*
X106410558Y-86021333D01*
X106654984Y-86035411D01*
X106654984Y-86035411D01*
G37*
X106654984Y-86035411D02*
X106842825Y-86097192D01*
X107038405Y-86236002D01*
X107199873Y-86381167D01*
X107440721Y-86631081D01*
X107644598Y-86908069D01*
X107828836Y-87244849D01*
X108010769Y-87674142D01*
X108207729Y-88228668D01*
X108256428Y-88375688D01*
X108443454Y-89036503D01*
X108537250Y-89589154D01*
X108537283Y-90024319D01*
X108443022Y-90332679D01*
X108373333Y-90424000D01*
X108247747Y-90591622D01*
X108204000Y-90720333D01*
X108159691Y-90833026D01*
X108121990Y-90847333D01*
X108074130Y-90908867D01*
X108086176Y-90967717D01*
X108072496Y-91131975D01*
X107962526Y-91377488D01*
X107780891Y-91666960D01*
X107552211Y-91963095D01*
X107301108Y-92228597D01*
X107188896Y-92326890D01*
X106977914Y-92508403D01*
X106813148Y-92662415D01*
X106615286Y-92792140D01*
X106360946Y-92882556D01*
X106346585Y-92885512D01*
X106206733Y-92917443D01*
X106199381Y-92937016D01*
X106337622Y-92948326D01*
X106566320Y-92954263D01*
X107087641Y-92964000D01*
X107476487Y-92531509D01*
X107672409Y-92298859D01*
X107812116Y-92104836D01*
X107865333Y-91991543D01*
X107924624Y-91850337D01*
X107987681Y-91782527D01*
X108072715Y-91646248D01*
X108159417Y-91405619D01*
X108205350Y-91221827D01*
X108270508Y-90970297D01*
X108338510Y-90803519D01*
X108379336Y-90762667D01*
X108447695Y-90836836D01*
X108440705Y-91053223D01*
X108358860Y-91402651D01*
X108341666Y-91460967D01*
X108225333Y-91847513D01*
X109276000Y-91908113D01*
X109750352Y-91931098D01*
X110095007Y-91934954D01*
X110348747Y-91917570D01*
X110550352Y-91876837D01*
X110686331Y-91831357D01*
X111069510Y-91739625D01*
X111605556Y-91697066D01*
X111826330Y-91694000D01*
X112166274Y-91686323D01*
X112431272Y-91665728D01*
X112584001Y-91635869D01*
X112606666Y-91617616D01*
X112677877Y-91539985D01*
X112850405Y-91456339D01*
X112861783Y-91452297D01*
X113101678Y-91312739D01*
X113181834Y-91117367D01*
X113115101Y-90890478D01*
X113048582Y-90606757D01*
X113130808Y-90337352D01*
X113345569Y-90134839D01*
X113348575Y-90133197D01*
X113580333Y-90007446D01*
X113237433Y-90004056D01*
X113000431Y-89985762D01*
X112836499Y-89944485D01*
X112814099Y-89930722D01*
X112688897Y-89864248D01*
X112468047Y-89778990D01*
X112364608Y-89744792D01*
X112118429Y-89681355D01*
X111916373Y-89680054D01*
X111672321Y-89744438D01*
X111577645Y-89777233D01*
X111326047Y-89851198D01*
X111065533Y-89887136D01*
X110740195Y-89889299D01*
X110379166Y-89868362D01*
X109944510Y-89845801D01*
X109621332Y-89855393D01*
X109354159Y-89900980D01*
X109186344Y-89951025D01*
X108943481Y-90021619D01*
X108771443Y-90049669D01*
X108724334Y-90041223D01*
X108735970Y-89966029D01*
X108853426Y-89885801D01*
X109018149Y-89836199D01*
X109066836Y-89832630D01*
X109222629Y-89783309D01*
X109266526Y-89739882D01*
X109381029Y-89696702D01*
X109652610Y-89671840D01*
X110069918Y-89666100D01*
X110266356Y-89669143D01*
X110829337Y-89666522D01*
X111293616Y-89633887D01*
X111615017Y-89576268D01*
X111852478Y-89519458D01*
X112047156Y-89510226D01*
X112267144Y-89553683D01*
X112557465Y-89647007D01*
X112879315Y-89743855D01*
X113176977Y-89810613D01*
X113358614Y-89831333D01*
X113541265Y-89854256D01*
X113622418Y-89909781D01*
X113622666Y-89913343D01*
X113684727Y-89959927D01*
X113749666Y-89946618D01*
X113868948Y-89923479D01*
X113875121Y-89973665D01*
X113788576Y-90066329D01*
X113629704Y-90170626D01*
X113587568Y-90191832D01*
X113362167Y-90349521D01*
X113235729Y-90539354D01*
X113230287Y-90719216D01*
X113275589Y-90788123D01*
X113344519Y-90936536D01*
X113368666Y-91122204D01*
X113317702Y-91333732D01*
X113139406Y-91493299D01*
X113115201Y-91507438D01*
X112943719Y-91632952D01*
X112862252Y-91747508D01*
X112861201Y-91757500D01*
X112810480Y-91808406D01*
X112646037Y-91841457D01*
X112348534Y-91858960D01*
X111973380Y-91863333D01*
X111437182Y-91877172D01*
X111039237Y-91920860D01*
X110750567Y-91997653D01*
X110739673Y-92001943D01*
X110561792Y-92060596D01*
X110359547Y-92095387D01*
X110095604Y-92108402D01*
X109732633Y-92101723D01*
X109310922Y-92081716D01*
X108228589Y-92022880D01*
X107856461Y-92419614D01*
X107569263Y-92724031D01*
X107363526Y-92926661D01*
X107203794Y-93048204D01*
X107054612Y-93109363D01*
X106880522Y-93130839D01*
X106646067Y-93133335D01*
X106634065Y-93133333D01*
X106317003Y-93121451D01*
X106107577Y-93074538D01*
X105945060Y-92975695D01*
X105888029Y-92925709D01*
X105711777Y-92673620D01*
X105680098Y-92483715D01*
X105838686Y-92483715D01*
X105867347Y-92623418D01*
X106022457Y-92693147D01*
X106266570Y-92710000D01*
X106492225Y-92683825D01*
X106640427Y-92619217D01*
X106654626Y-92602744D01*
X106760099Y-92483502D01*
X106939828Y-92318021D01*
X106999674Y-92267713D01*
X107248826Y-92031293D01*
X107499797Y-91741689D01*
X107715006Y-91447625D01*
X107856872Y-91197824D01*
X107885010Y-91119897D01*
X107899186Y-90997750D01*
X107828147Y-90944333D01*
X107631550Y-90932034D01*
X107610462Y-90932000D01*
X107389500Y-90957302D01*
X107255279Y-91020337D01*
X107243834Y-91037833D01*
X107187202Y-91095538D01*
X107118694Y-91026095D01*
X107044587Y-90976858D01*
X106932442Y-91029400D01*
X106752326Y-91195429D01*
X106542483Y-91428052D01*
X106302649Y-91723667D01*
X106150743Y-91927029D01*
X105933982Y-92257199D01*
X105838686Y-92483715D01*
X105680098Y-92483715D01*
X105665524Y-92396357D01*
X105752459Y-92144627D01*
X105833333Y-92055355D01*
X105961314Y-91911692D01*
X106002666Y-91812144D01*
X106058617Y-91702633D01*
X106203076Y-91522499D01*
X106346230Y-91370357D01*
X106540508Y-91165765D01*
X106638823Y-91007257D01*
X106667913Y-90824217D01*
X106655143Y-90554531D01*
X106626554Y-90284959D01*
X106589472Y-90088935D01*
X106563360Y-90025138D01*
X106439560Y-89980604D01*
X106345577Y-89965136D01*
X106773958Y-89965136D01*
X106805106Y-90093669D01*
X106861617Y-90263199D01*
X106974002Y-90544390D01*
X107103572Y-90694596D01*
X107301095Y-90748798D01*
X107561479Y-90745451D01*
X107992333Y-90720333D01*
X108019366Y-90390159D01*
X108046399Y-90059984D01*
X107532533Y-90113694D01*
X107242708Y-90136890D01*
X107084785Y-90126403D01*
X107023800Y-90077335D01*
X107018666Y-90041702D01*
X106950864Y-89930585D01*
X106891666Y-89916000D01*
X106801521Y-89920827D01*
X106773958Y-89965136D01*
X106345577Y-89965136D01*
X106178686Y-89937669D01*
X105812995Y-89898806D01*
X105374743Y-89866485D01*
X104896187Y-89843179D01*
X104409585Y-89831358D01*
X104039653Y-89831780D01*
X103484639Y-89832076D01*
X103086441Y-89813460D01*
X102833456Y-89774595D01*
X102714079Y-89714143D01*
X102700827Y-89677461D01*
X102780295Y-89658144D01*
X102997828Y-89645621D01*
X103322308Y-89639544D01*
X103722616Y-89639568D01*
X104167635Y-89645347D01*
X104626245Y-89656533D01*
X105067330Y-89672782D01*
X105459771Y-89693747D01*
X105684454Y-89710652D01*
X106255243Y-89761052D01*
X106001954Y-89165834D01*
X105892947Y-88896919D01*
X105820580Y-88668588D01*
X105777430Y-88433365D01*
X105756077Y-88143775D01*
X105749097Y-87752344D01*
X105748666Y-87545769D01*
X105756526Y-86998399D01*
X105786484Y-86597861D01*
X105822195Y-86438070D01*
X105918000Y-86438070D01*
X105919423Y-87478535D01*
X105922677Y-87925985D01*
X105936170Y-88251071D01*
X105967649Y-88500746D01*
X106024862Y-88721959D01*
X106115556Y-88961664D01*
X106194589Y-89146095D01*
X106468333Y-89773190D01*
X107209166Y-89754693D01*
X107590067Y-89752187D01*
X107824519Y-89769461D01*
X107934533Y-89809141D01*
X107950000Y-89843031D01*
X107979967Y-89903636D01*
X108041872Y-89857994D01*
X108076509Y-89752099D01*
X108066693Y-89533832D01*
X108010719Y-89183435D01*
X107962800Y-88942432D01*
X107859847Y-88502135D01*
X108043428Y-88502135D01*
X108059623Y-88596506D01*
X108112472Y-88801359D01*
X108161666Y-88984667D01*
X108237742Y-89329299D01*
X108290383Y-89681017D01*
X108302453Y-89831333D01*
X108318250Y-90212333D01*
X108352931Y-89831333D01*
X108352498Y-89514928D01*
X108311468Y-89153165D01*
X108281337Y-89001888D01*
X108210165Y-88744708D01*
X108140797Y-88562878D01*
X108104864Y-88510057D01*
X108059852Y-88484550D01*
X108043428Y-88502135D01*
X107859847Y-88502135D01*
X107856570Y-88488122D01*
X107742750Y-88144833D01*
X107599254Y-87854875D01*
X107468760Y-87651927D01*
X107201459Y-87261578D01*
X107021503Y-86986571D01*
X106916617Y-86805316D01*
X106874528Y-86696225D01*
X106882961Y-86637711D01*
X106888466Y-86631311D01*
X106975203Y-86641777D01*
X107046755Y-86717090D01*
X107372148Y-87183667D01*
X107614704Y-87506888D01*
X107773661Y-87685809D01*
X107848256Y-87719488D01*
X107851973Y-87712414D01*
X107827823Y-87583783D01*
X107725364Y-87398483D01*
X107705810Y-87371162D01*
X107585945Y-87189464D01*
X107527722Y-87062775D01*
X107526666Y-87053125D01*
X107474071Y-86947247D01*
X107343539Y-86779053D01*
X107301772Y-86732196D01*
X107053491Y-86492974D01*
X106812911Y-86314122D01*
X106608964Y-86210735D01*
X106470580Y-86197904D01*
X106426000Y-86275333D01*
X106498456Y-86338979D01*
X106637666Y-86360000D01*
X106808626Y-86410316D01*
X106840843Y-86537500D01*
X106747733Y-86681733D01*
X106545388Y-86776212D01*
X106300156Y-86738303D01*
X106103298Y-86610702D01*
X105918000Y-86438070D01*
X105822195Y-86438070D01*
X105848109Y-86322118D01*
X105950969Y-86149135D01*
X106104631Y-86056874D01*
X106318663Y-86023298D01*
X106410558Y-86021333D01*
X106654984Y-86035411D01*
G36*
X110876286Y-92810261D02*
G01*
X111047209Y-92843712D01*
X111082666Y-92879333D01*
X111004699Y-92923245D01*
X110797299Y-92954090D01*
X110511166Y-92965828D01*
X110172124Y-92979894D01*
X109762685Y-93015999D01*
X109329970Y-93067769D01*
X108921098Y-93128829D01*
X108583189Y-93192806D01*
X108363363Y-93253326D01*
X108352166Y-93257879D01*
X108230393Y-93274434D01*
X108204000Y-93237330D01*
X108274161Y-93150146D01*
X108436833Y-93062222D01*
X108683726Y-92990373D01*
X109020386Y-92926611D01*
X109413272Y-92873256D01*
X109828844Y-92832625D01*
X110233564Y-92807036D01*
X110593891Y-92798809D01*
X110876286Y-92810261D01*
X110876286Y-92810261D01*
G37*
X110876286Y-92810261D02*
X111047209Y-92843712D01*
X111082666Y-92879333D01*
X111004699Y-92923245D01*
X110797299Y-92954090D01*
X110511166Y-92965828D01*
X110172124Y-92979894D01*
X109762685Y-93015999D01*
X109329970Y-93067769D01*
X108921098Y-93128829D01*
X108583189Y-93192806D01*
X108363363Y-93253326D01*
X108352166Y-93257879D01*
X108230393Y-93274434D01*
X108204000Y-93237330D01*
X108274161Y-93150146D01*
X108436833Y-93062222D01*
X108683726Y-92990373D01*
X109020386Y-92926611D01*
X109413272Y-92873256D01*
X109828844Y-92832625D01*
X110233564Y-92807036D01*
X110593891Y-92798809D01*
X110876286Y-92810261D01*
G36*
X114547948Y-92339215D02*
G01*
X114535890Y-92404810D01*
X114466881Y-92459307D01*
X114436609Y-92510157D01*
X114558021Y-92535236D01*
X114702166Y-92539370D01*
X115062000Y-92540667D01*
X115062000Y-92960016D01*
X115042020Y-93256581D01*
X114991603Y-93516595D01*
X114963743Y-93595016D01*
X114871607Y-93735402D01*
X114726827Y-93797731D01*
X114504124Y-93810667D01*
X114216573Y-93776731D01*
X114020066Y-93687243D01*
X114009714Y-93677619D01*
X113896566Y-93457141D01*
X113892496Y-93398414D01*
X114052292Y-93398414D01*
X114087640Y-93563988D01*
X114102444Y-93584889D01*
X114245524Y-93639529D01*
X114461913Y-93644309D01*
X114678691Y-93606876D01*
X114822939Y-93534878D01*
X114841274Y-93507408D01*
X114875004Y-93337544D01*
X114892131Y-93090921D01*
X114892666Y-93041742D01*
X114892666Y-92710000D01*
X114521541Y-92710000D01*
X114280797Y-92723945D01*
X114156797Y-92781239D01*
X114099364Y-92900500D01*
X114056096Y-93154226D01*
X114052292Y-93398414D01*
X113892496Y-93398414D01*
X113876015Y-93160646D01*
X113936418Y-92845563D01*
X114066130Y-92569323D01*
X114253510Y-92389353D01*
X114272822Y-92379833D01*
X114448489Y-92326070D01*
X114547948Y-92339215D01*
X114547948Y-92339215D01*
G37*
X114547948Y-92339215D02*
X114535890Y-92404810D01*
X114466881Y-92459307D01*
X114436609Y-92510157D01*
X114558021Y-92535236D01*
X114702166Y-92539370D01*
X115062000Y-92540667D01*
X115062000Y-92960016D01*
X115042020Y-93256581D01*
X114991603Y-93516595D01*
X114963743Y-93595016D01*
X114871607Y-93735402D01*
X114726827Y-93797731D01*
X114504124Y-93810667D01*
X114216573Y-93776731D01*
X114020066Y-93687243D01*
X114009714Y-93677619D01*
X113896566Y-93457141D01*
X113892496Y-93398414D01*
X114052292Y-93398414D01*
X114087640Y-93563988D01*
X114102444Y-93584889D01*
X114245524Y-93639529D01*
X114461913Y-93644309D01*
X114678691Y-93606876D01*
X114822939Y-93534878D01*
X114841274Y-93507408D01*
X114875004Y-93337544D01*
X114892131Y-93090921D01*
X114892666Y-93041742D01*
X114892666Y-92710000D01*
X114521541Y-92710000D01*
X114280797Y-92723945D01*
X114156797Y-92781239D01*
X114099364Y-92900500D01*
X114056096Y-93154226D01*
X114052292Y-93398414D01*
X113892496Y-93398414D01*
X113876015Y-93160646D01*
X113936418Y-92845563D01*
X114066130Y-92569323D01*
X114253510Y-92389353D01*
X114272822Y-92379833D01*
X114448489Y-92326070D01*
X114547948Y-92339215D01*
G36*
X120366312Y-92163787D02*
G01*
X120396000Y-92196550D01*
X120323305Y-92275087D01*
X120163166Y-92333427D01*
X119985332Y-92377322D01*
X119829840Y-92436969D01*
X119670253Y-92531719D01*
X119480133Y-92680923D01*
X119233041Y-92903931D01*
X118902540Y-93220094D01*
X118752170Y-93366167D01*
X118351787Y-93749331D01*
X118055818Y-94016374D01*
X117853644Y-94175435D01*
X117734645Y-94234655D01*
X117688202Y-94202176D01*
X117686666Y-94183004D01*
X117744469Y-94110307D01*
X117900858Y-93946976D01*
X118130306Y-93717568D01*
X118407283Y-93446643D01*
X118706263Y-93158759D01*
X119001716Y-92878473D01*
X119268114Y-92630344D01*
X119479930Y-92438931D01*
X119611634Y-92328790D01*
X119621284Y-92321898D01*
X119794520Y-92239999D01*
X120014333Y-92180216D01*
X120223879Y-92151747D01*
X120366312Y-92163787D01*
X120366312Y-92163787D01*
G37*
X120366312Y-92163787D02*
X120396000Y-92196550D01*
X120323305Y-92275087D01*
X120163166Y-92333427D01*
X119985332Y-92377322D01*
X119829840Y-92436969D01*
X119670253Y-92531719D01*
X119480133Y-92680923D01*
X119233041Y-92903931D01*
X118902540Y-93220094D01*
X118752170Y-93366167D01*
X118351787Y-93749331D01*
X118055818Y-94016374D01*
X117853644Y-94175435D01*
X117734645Y-94234655D01*
X117688202Y-94202176D01*
X117686666Y-94183004D01*
X117744469Y-94110307D01*
X117900858Y-93946976D01*
X118130306Y-93717568D01*
X118407283Y-93446643D01*
X118706263Y-93158759D01*
X119001716Y-92878473D01*
X119268114Y-92630344D01*
X119479930Y-92438931D01*
X119611634Y-92328790D01*
X119621284Y-92321898D01*
X119794520Y-92239999D01*
X120014333Y-92180216D01*
X120223879Y-92151747D01*
X120366312Y-92163787D01*
G36*
X111835762Y-93874059D02*
G01*
X111788050Y-93985182D01*
X111775522Y-93998344D01*
X111705536Y-94148271D01*
X111675360Y-94371417D01*
X111675333Y-94377933D01*
X111652875Y-94566966D01*
X111598065Y-94656268D01*
X111590666Y-94657333D01*
X111536970Y-94582376D01*
X111507770Y-94395785D01*
X111506000Y-94329033D01*
X111539857Y-94071867D01*
X111626697Y-93901139D01*
X111635046Y-93893635D01*
X111768929Y-93831743D01*
X111835762Y-93874059D01*
X111835762Y-93874059D01*
G37*
X111835762Y-93874059D02*
X111788050Y-93985182D01*
X111775522Y-93998344D01*
X111705536Y-94148271D01*
X111675360Y-94371417D01*
X111675333Y-94377933D01*
X111652875Y-94566966D01*
X111598065Y-94656268D01*
X111590666Y-94657333D01*
X111536970Y-94582376D01*
X111507770Y-94395785D01*
X111506000Y-94329033D01*
X111539857Y-94071867D01*
X111626697Y-93901139D01*
X111635046Y-93893635D01*
X111768929Y-93831743D01*
X111835762Y-93874059D01*
G36*
X114264591Y-90118608D02*
G01*
X114469082Y-90164382D01*
X114554358Y-90170000D01*
X114699169Y-90247979D01*
X114805148Y-90460475D01*
X114863331Y-90775326D01*
X114864752Y-91160372D01*
X114856331Y-91253416D01*
X114804279Y-91736333D01*
X115184259Y-91964115D01*
X115457490Y-92167649D01*
X115603747Y-92395956D01*
X115636846Y-92689429D01*
X115570608Y-93088460D01*
X115569909Y-93091376D01*
X115515615Y-93421282D01*
X115513103Y-93703001D01*
X115526837Y-93781027D01*
X115566740Y-94024248D01*
X115584348Y-94322695D01*
X115584066Y-94390050D01*
X115604233Y-94663793D01*
X115700734Y-94859942D01*
X115816140Y-94982716D01*
X116027850Y-95280711D01*
X116103745Y-95525167D01*
X116116834Y-95757594D01*
X116066379Y-95843861D01*
X115965111Y-95786222D01*
X115921534Y-95665904D01*
X115908666Y-95520222D01*
X115843989Y-95313169D01*
X115677766Y-95090558D01*
X115657878Y-95070999D01*
X115557661Y-94971993D01*
X115486914Y-94877996D01*
X115440260Y-94758842D01*
X115412323Y-94584362D01*
X115397726Y-94324390D01*
X115391093Y-93948758D01*
X115387993Y-93556667D01*
X115397508Y-93221837D01*
X115425450Y-92898934D01*
X115444393Y-92772334D01*
X115463192Y-92518203D01*
X115390478Y-92327199D01*
X115200612Y-92160097D01*
X114952652Y-92020076D01*
X114620311Y-91850527D01*
X114676619Y-91324727D01*
X114693793Y-90869101D01*
X114629556Y-90552422D01*
X114480203Y-90363189D01*
X114348507Y-90306115D01*
X114186969Y-90235094D01*
X114130666Y-90159328D01*
X114192846Y-90105507D01*
X114264591Y-90118608D01*
X114264591Y-90118608D01*
G37*
X114264591Y-90118608D02*
X114469082Y-90164382D01*
X114554358Y-90170000D01*
X114699169Y-90247979D01*
X114805148Y-90460475D01*
X114863331Y-90775326D01*
X114864752Y-91160372D01*
X114856331Y-91253416D01*
X114804279Y-91736333D01*
X115184259Y-91964115D01*
X115457490Y-92167649D01*
X115603747Y-92395956D01*
X115636846Y-92689429D01*
X115570608Y-93088460D01*
X115569909Y-93091376D01*
X115515615Y-93421282D01*
X115513103Y-93703001D01*
X115526837Y-93781027D01*
X115566740Y-94024248D01*
X115584348Y-94322695D01*
X115584066Y-94390050D01*
X115604233Y-94663793D01*
X115700734Y-94859942D01*
X115816140Y-94982716D01*
X116027850Y-95280711D01*
X116103745Y-95525167D01*
X116116834Y-95757594D01*
X116066379Y-95843861D01*
X115965111Y-95786222D01*
X115921534Y-95665904D01*
X115908666Y-95520222D01*
X115843989Y-95313169D01*
X115677766Y-95090558D01*
X115657878Y-95070999D01*
X115557661Y-94971993D01*
X115486914Y-94877996D01*
X115440260Y-94758842D01*
X115412323Y-94584362D01*
X115397726Y-94324390D01*
X115391093Y-93948758D01*
X115387993Y-93556667D01*
X115397508Y-93221837D01*
X115425450Y-92898934D01*
X115444393Y-92772334D01*
X115463192Y-92518203D01*
X115390478Y-92327199D01*
X115200612Y-92160097D01*
X114952652Y-92020076D01*
X114620311Y-91850527D01*
X114676619Y-91324727D01*
X114693793Y-90869101D01*
X114629556Y-90552422D01*
X114480203Y-90363189D01*
X114348507Y-90306115D01*
X114186969Y-90235094D01*
X114130666Y-90159328D01*
X114192846Y-90105507D01*
X114264591Y-90118608D01*
G36*
X115399122Y-95376046D02*
G01*
X115451513Y-95486338D01*
X115482096Y-95701433D01*
X115485333Y-95805330D01*
X115485333Y-96181333D01*
X115104333Y-96181333D01*
X114869979Y-96173773D01*
X114758974Y-96131246D01*
X114725416Y-96023980D01*
X114723333Y-95934239D01*
X114739449Y-95855913D01*
X114908753Y-95855913D01*
X114929084Y-95966808D01*
X115096157Y-96011946D01*
X115104333Y-96012000D01*
X115265455Y-95977030D01*
X115315106Y-95839340D01*
X115316000Y-95800333D01*
X115291351Y-95631669D01*
X115201870Y-95607283D01*
X115040833Y-95706526D01*
X114908753Y-95855913D01*
X114739449Y-95855913D01*
X114764082Y-95736204D01*
X114912474Y-95575886D01*
X115018122Y-95504954D01*
X115222427Y-95402460D01*
X115372920Y-95368796D01*
X115399122Y-95376046D01*
X115399122Y-95376046D01*
G37*
X115399122Y-95376046D02*
X115451513Y-95486338D01*
X115482096Y-95701433D01*
X115485333Y-95805330D01*
X115485333Y-96181333D01*
X115104333Y-96181333D01*
X114869979Y-96173773D01*
X114758974Y-96131246D01*
X114725416Y-96023980D01*
X114723333Y-95934239D01*
X114739449Y-95855913D01*
X114908753Y-95855913D01*
X114929084Y-95966808D01*
X115096157Y-96011946D01*
X115104333Y-96012000D01*
X115265455Y-95977030D01*
X115315106Y-95839340D01*
X115316000Y-95800333D01*
X115291351Y-95631669D01*
X115201870Y-95607283D01*
X115040833Y-95706526D01*
X114908753Y-95855913D01*
X114739449Y-95855913D01*
X114764082Y-95736204D01*
X114912474Y-95575886D01*
X115018122Y-95504954D01*
X115222427Y-95402460D01*
X115372920Y-95368796D01*
X115399122Y-95376046D01*
G36*
X121860574Y-95264021D02*
G01*
X121920000Y-95334667D01*
X121851099Y-95409007D01*
X121788227Y-95419333D01*
X121626441Y-95489644D01*
X121429109Y-95673449D01*
X121230685Y-95930057D01*
X121065626Y-96218776D01*
X121019147Y-96327585D01*
X120912871Y-96553427D01*
X120819120Y-96671953D01*
X120759647Y-96671732D01*
X120756209Y-96541332D01*
X120773815Y-96456500D01*
X120864478Y-96221751D01*
X121018433Y-95938353D01*
X121201493Y-95659122D01*
X121379471Y-95436878D01*
X121501631Y-95332009D01*
X121702310Y-95260755D01*
X121860574Y-95264021D01*
X121860574Y-95264021D01*
G37*
X121860574Y-95264021D02*
X121920000Y-95334667D01*
X121851099Y-95409007D01*
X121788227Y-95419333D01*
X121626441Y-95489644D01*
X121429109Y-95673449D01*
X121230685Y-95930057D01*
X121065626Y-96218776D01*
X121019147Y-96327585D01*
X120912871Y-96553427D01*
X120819120Y-96671953D01*
X120759647Y-96671732D01*
X120756209Y-96541332D01*
X120773815Y-96456500D01*
X120864478Y-96221751D01*
X121018433Y-95938353D01*
X121201493Y-95659122D01*
X121379471Y-95436878D01*
X121501631Y-95332009D01*
X121702310Y-95260755D01*
X121860574Y-95264021D01*
G36*
X121896509Y-95667508D02*
G01*
X121901781Y-95892642D01*
X121901063Y-95969667D01*
X121860684Y-96396272D01*
X121738959Y-96748596D01*
X121691979Y-96837500D01*
X121531478Y-97083536D01*
X121411423Y-97187215D01*
X121341431Y-97143447D01*
X121327333Y-97030414D01*
X121361076Y-96867200D01*
X121448708Y-96612455D01*
X121548069Y-96374247D01*
X121677553Y-96078157D01*
X121786005Y-95814222D01*
X121838250Y-95673333D01*
X121876091Y-95597985D01*
X121896509Y-95667508D01*
X121896509Y-95667508D01*
G37*
X121896509Y-95667508D02*
X121901781Y-95892642D01*
X121901063Y-95969667D01*
X121860684Y-96396272D01*
X121738959Y-96748596D01*
X121691979Y-96837500D01*
X121531478Y-97083536D01*
X121411423Y-97187215D01*
X121341431Y-97143447D01*
X121327333Y-97030414D01*
X121361076Y-96867200D01*
X121448708Y-96612455D01*
X121548069Y-96374247D01*
X121677553Y-96078157D01*
X121786005Y-95814222D01*
X121838250Y-95673333D01*
X121876091Y-95597985D01*
X121896509Y-95667508D01*
G36*
X110367355Y-93548485D02*
G01*
X110398106Y-93745497D01*
X110405333Y-93930224D01*
X110405333Y-94388449D01*
X110765166Y-94448469D01*
X111122302Y-94543067D01*
X111488948Y-94696743D01*
X111809432Y-94881363D01*
X112028079Y-95068796D01*
X112050439Y-95097945D01*
X112137718Y-95326191D01*
X112179860Y-95656095D01*
X112177051Y-96026160D01*
X112129476Y-96374889D01*
X112045835Y-96624967D01*
X111924776Y-96838666D01*
X111797892Y-96990825D01*
X111634950Y-97091910D01*
X111405714Y-97152389D01*
X111079951Y-97182731D01*
X110627427Y-97193402D01*
X110400790Y-97194516D01*
X109927988Y-97193332D01*
X109586570Y-97183701D01*
X109338621Y-97160564D01*
X109146223Y-97118863D01*
X108971462Y-97053539D01*
X108825938Y-96984396D01*
X108464928Y-96755778D01*
X108241981Y-96481654D01*
X108138742Y-96127572D01*
X108135695Y-95792707D01*
X108302322Y-95792707D01*
X108319314Y-96175252D01*
X108403159Y-96419175D01*
X108540223Y-96566712D01*
X108771673Y-96729508D01*
X108929326Y-96814664D01*
X109127601Y-96900639D01*
X109323628Y-96958313D01*
X109558384Y-96993351D01*
X109872848Y-97011415D01*
X110307998Y-97018167D01*
X110405333Y-97018629D01*
X110958207Y-97011401D01*
X111343734Y-96984872D01*
X111562801Y-96938968D01*
X111598822Y-96919474D01*
X111832690Y-96637481D01*
X111967703Y-96234462D01*
X111996784Y-95733398D01*
X111971666Y-95207667D01*
X111421333Y-94911333D01*
X111180379Y-94784856D01*
X110986893Y-94700994D01*
X110795945Y-94651338D01*
X110562606Y-94627477D01*
X110241943Y-94621001D01*
X109879799Y-94622785D01*
X109376871Y-94634938D01*
X109027339Y-94663311D01*
X108815892Y-94709550D01*
X108751777Y-94744121D01*
X108530704Y-95018758D01*
X108376835Y-95387748D01*
X108302322Y-95792707D01*
X108135695Y-95792707D01*
X108134733Y-95687055D01*
X108194991Y-95271572D01*
X108325761Y-94961299D01*
X108556591Y-94715093D01*
X108917027Y-94491807D01*
X109035743Y-94432368D01*
X109019409Y-94357365D01*
X108944027Y-94189437D01*
X108923666Y-94149333D01*
X108854165Y-93969604D01*
X108839655Y-93838348D01*
X108873863Y-93792615D01*
X108950517Y-93869456D01*
X108966553Y-93896038D01*
X109131211Y-94146957D01*
X109300326Y-94287208D01*
X109535830Y-94354511D01*
X109756572Y-94377207D01*
X110236000Y-94412385D01*
X110236000Y-93942192D01*
X110249791Y-93685770D01*
X110285399Y-93514991D01*
X110320666Y-93472000D01*
X110367355Y-93548485D01*
X110367355Y-93548485D01*
G37*
X110367355Y-93548485D02*
X110398106Y-93745497D01*
X110405333Y-93930224D01*
X110405333Y-94388449D01*
X110765166Y-94448469D01*
X111122302Y-94543067D01*
X111488948Y-94696743D01*
X111809432Y-94881363D01*
X112028079Y-95068796D01*
X112050439Y-95097945D01*
X112137718Y-95326191D01*
X112179860Y-95656095D01*
X112177051Y-96026160D01*
X112129476Y-96374889D01*
X112045835Y-96624967D01*
X111924776Y-96838666D01*
X111797892Y-96990825D01*
X111634950Y-97091910D01*
X111405714Y-97152389D01*
X111079951Y-97182731D01*
X110627427Y-97193402D01*
X110400790Y-97194516D01*
X109927988Y-97193332D01*
X109586570Y-97183701D01*
X109338621Y-97160564D01*
X109146223Y-97118863D01*
X108971462Y-97053539D01*
X108825938Y-96984396D01*
X108464928Y-96755778D01*
X108241981Y-96481654D01*
X108138742Y-96127572D01*
X108135695Y-95792707D01*
X108302322Y-95792707D01*
X108319314Y-96175252D01*
X108403159Y-96419175D01*
X108540223Y-96566712D01*
X108771673Y-96729508D01*
X108929326Y-96814664D01*
X109127601Y-96900639D01*
X109323628Y-96958313D01*
X109558384Y-96993351D01*
X109872848Y-97011415D01*
X110307998Y-97018167D01*
X110405333Y-97018629D01*
X110958207Y-97011401D01*
X111343734Y-96984872D01*
X111562801Y-96938968D01*
X111598822Y-96919474D01*
X111832690Y-96637481D01*
X111967703Y-96234462D01*
X111996784Y-95733398D01*
X111971666Y-95207667D01*
X111421333Y-94911333D01*
X111180379Y-94784856D01*
X110986893Y-94700994D01*
X110795945Y-94651338D01*
X110562606Y-94627477D01*
X110241943Y-94621001D01*
X109879799Y-94622785D01*
X109376871Y-94634938D01*
X109027339Y-94663311D01*
X108815892Y-94709550D01*
X108751777Y-94744121D01*
X108530704Y-95018758D01*
X108376835Y-95387748D01*
X108302322Y-95792707D01*
X108135695Y-95792707D01*
X108134733Y-95687055D01*
X108194991Y-95271572D01*
X108325761Y-94961299D01*
X108556591Y-94715093D01*
X108917027Y-94491807D01*
X109035743Y-94432368D01*
X109019409Y-94357365D01*
X108944027Y-94189437D01*
X108923666Y-94149333D01*
X108854165Y-93969604D01*
X108839655Y-93838348D01*
X108873863Y-93792615D01*
X108950517Y-93869456D01*
X108966553Y-93896038D01*
X109131211Y-94146957D01*
X109300326Y-94287208D01*
X109535830Y-94354511D01*
X109756572Y-94377207D01*
X110236000Y-94412385D01*
X110236000Y-93942192D01*
X110249791Y-93685770D01*
X110285399Y-93514991D01*
X110320666Y-93472000D01*
X110367355Y-93548485D01*
G36*
X117878863Y-94630866D02*
G01*
X117995620Y-94693521D01*
X118238767Y-94817731D01*
X118433347Y-94896599D01*
X118501664Y-94911333D01*
X118605247Y-94979104D01*
X118618000Y-95035423D01*
X118574920Y-95200111D01*
X118459675Y-95468002D01*
X118293256Y-95800890D01*
X118096653Y-96160572D01*
X117890858Y-96508843D01*
X117696862Y-96807500D01*
X117535654Y-97018337D01*
X117517928Y-97037590D01*
X117344965Y-97210497D01*
X117200770Y-97308912D01*
X117027688Y-97353804D01*
X116768068Y-97366145D01*
X116613220Y-97366667D01*
X116311041Y-97359120D01*
X116079285Y-97339296D01*
X115966438Y-97311418D01*
X115965111Y-97310222D01*
X115932296Y-97199059D01*
X115911939Y-96979251D01*
X115908666Y-96836184D01*
X115990696Y-96295790D01*
X116236335Y-95798400D01*
X116291600Y-95721847D01*
X116407800Y-95597405D01*
X116456213Y-95607124D01*
X116436752Y-95729950D01*
X116349328Y-95944831D01*
X116293009Y-96056175D01*
X116126094Y-96483334D01*
X116078000Y-96828943D01*
X116078000Y-97197333D01*
X116579503Y-97197333D01*
X116901386Y-97182277D01*
X117121801Y-97124925D01*
X117306903Y-97006998D01*
X117326182Y-96991032D01*
X117447491Y-96849495D01*
X117614796Y-96603979D01*
X117805807Y-96293716D01*
X117998234Y-95957938D01*
X118169787Y-95635874D01*
X118298174Y-95366758D01*
X118361106Y-95189820D01*
X118364000Y-95164460D01*
X118295556Y-95091558D01*
X118124351Y-94976732D01*
X117901572Y-94848579D01*
X117678407Y-94735696D01*
X117506043Y-94666683D01*
X117456647Y-94657534D01*
X117385840Y-94726796D01*
X117267758Y-94906922D01*
X117147120Y-95123201D01*
X117008825Y-95366721D01*
X116892020Y-95535201D01*
X116829620Y-95588667D01*
X116774772Y-95570124D01*
X116773359Y-95494934D01*
X116833476Y-95333753D01*
X116963215Y-95057237D01*
X116993094Y-94996000D01*
X117173366Y-94686650D01*
X117357118Y-94529909D01*
X117580301Y-94514930D01*
X117878863Y-94630866D01*
X117878863Y-94630866D01*
G37*
X117878863Y-94630866D02*
X117995620Y-94693521D01*
X118238767Y-94817731D01*
X118433347Y-94896599D01*
X118501664Y-94911333D01*
X118605247Y-94979104D01*
X118618000Y-95035423D01*
X118574920Y-95200111D01*
X118459675Y-95468002D01*
X118293256Y-95800890D01*
X118096653Y-96160572D01*
X117890858Y-96508843D01*
X117696862Y-96807500D01*
X117535654Y-97018337D01*
X117517928Y-97037590D01*
X117344965Y-97210497D01*
X117200770Y-97308912D01*
X117027688Y-97353804D01*
X116768068Y-97366145D01*
X116613220Y-97366667D01*
X116311041Y-97359120D01*
X116079285Y-97339296D01*
X115966438Y-97311418D01*
X115965111Y-97310222D01*
X115932296Y-97199059D01*
X115911939Y-96979251D01*
X115908666Y-96836184D01*
X115990696Y-96295790D01*
X116236335Y-95798400D01*
X116291600Y-95721847D01*
X116407800Y-95597405D01*
X116456213Y-95607124D01*
X116436752Y-95729950D01*
X116349328Y-95944831D01*
X116293009Y-96056175D01*
X116126094Y-96483334D01*
X116078000Y-96828943D01*
X116078000Y-97197333D01*
X116579503Y-97197333D01*
X116901386Y-97182277D01*
X117121801Y-97124925D01*
X117306903Y-97006998D01*
X117326182Y-96991032D01*
X117447491Y-96849495D01*
X117614796Y-96603979D01*
X117805807Y-96293716D01*
X117998234Y-95957938D01*
X118169787Y-95635874D01*
X118298174Y-95366758D01*
X118361106Y-95189820D01*
X118364000Y-95164460D01*
X118295556Y-95091558D01*
X118124351Y-94976732D01*
X117901572Y-94848579D01*
X117678407Y-94735696D01*
X117506043Y-94666683D01*
X117456647Y-94657534D01*
X117385840Y-94726796D01*
X117267758Y-94906922D01*
X117147120Y-95123201D01*
X117008825Y-95366721D01*
X116892020Y-95535201D01*
X116829620Y-95588667D01*
X116774772Y-95570124D01*
X116773359Y-95494934D01*
X116833476Y-95333753D01*
X116963215Y-95057237D01*
X116993094Y-94996000D01*
X117173366Y-94686650D01*
X117357118Y-94529909D01*
X117580301Y-94514930D01*
X117878863Y-94630866D01*
G36*
X120859774Y-92086568D02*
G01*
X120980185Y-92186915D01*
X120985687Y-92196434D01*
X121037400Y-92365796D01*
X121065738Y-92600253D01*
X121070071Y-92843572D01*
X121049769Y-93039522D01*
X121004202Y-93131869D01*
X120996186Y-93133333D01*
X120948671Y-93210051D01*
X120904936Y-93408736D01*
X120880492Y-93620167D01*
X120840236Y-93954700D01*
X120766616Y-94407278D01*
X120668543Y-94931973D01*
X120554930Y-95482859D01*
X120434687Y-96014009D01*
X120349588Y-96356221D01*
X120254614Y-96768468D01*
X120225264Y-97044989D01*
X120263635Y-97207021D01*
X120371824Y-97275803D01*
X120440990Y-97282000D01*
X120621306Y-97237158D01*
X120704048Y-97155000D01*
X120786632Y-97047928D01*
X120874656Y-97037378D01*
X120904000Y-97106619D01*
X120828457Y-97264267D01*
X120638301Y-97390057D01*
X120388241Y-97450093D01*
X120347619Y-97451333D01*
X120157651Y-97439507D01*
X120076739Y-97370501D01*
X120059221Y-97194024D01*
X120059353Y-97133833D01*
X120083736Y-96830267D01*
X120140614Y-96510261D01*
X120148677Y-96477667D01*
X120256800Y-96026787D01*
X120371951Y-95494047D01*
X120484949Y-94927533D01*
X120586613Y-94375336D01*
X120667760Y-93885541D01*
X120719210Y-93506237D01*
X120723064Y-93469306D01*
X120762230Y-93146600D01*
X120806982Y-92884093D01*
X120848433Y-92732701D01*
X120853223Y-92723661D01*
X120894374Y-92539330D01*
X120841449Y-92348172D01*
X120721979Y-92220306D01*
X120648386Y-92202000D01*
X120511684Y-92166238D01*
X120480666Y-92117333D01*
X120544596Y-92041531D01*
X120692771Y-92034692D01*
X120859774Y-92086568D01*
X120859774Y-92086568D01*
G37*
X120859774Y-92086568D02*
X120980185Y-92186915D01*
X120985687Y-92196434D01*
X121037400Y-92365796D01*
X121065738Y-92600253D01*
X121070071Y-92843572D01*
X121049769Y-93039522D01*
X121004202Y-93131869D01*
X120996186Y-93133333D01*
X120948671Y-93210051D01*
X120904936Y-93408736D01*
X120880492Y-93620167D01*
X120840236Y-93954700D01*
X120766616Y-94407278D01*
X120668543Y-94931973D01*
X120554930Y-95482859D01*
X120434687Y-96014009D01*
X120349588Y-96356221D01*
X120254614Y-96768468D01*
X120225264Y-97044989D01*
X120263635Y-97207021D01*
X120371824Y-97275803D01*
X120440990Y-97282000D01*
X120621306Y-97237158D01*
X120704048Y-97155000D01*
X120786632Y-97047928D01*
X120874656Y-97037378D01*
X120904000Y-97106619D01*
X120828457Y-97264267D01*
X120638301Y-97390057D01*
X120388241Y-97450093D01*
X120347619Y-97451333D01*
X120157651Y-97439507D01*
X120076739Y-97370501D01*
X120059221Y-97194024D01*
X120059353Y-97133833D01*
X120083736Y-96830267D01*
X120140614Y-96510261D01*
X120148677Y-96477667D01*
X120256800Y-96026787D01*
X120371951Y-95494047D01*
X120484949Y-94927533D01*
X120586613Y-94375336D01*
X120667760Y-93885541D01*
X120719210Y-93506237D01*
X120723064Y-93469306D01*
X120762230Y-93146600D01*
X120806982Y-92884093D01*
X120848433Y-92732701D01*
X120853223Y-92723661D01*
X120894374Y-92539330D01*
X120841449Y-92348172D01*
X120721979Y-92220306D01*
X120648386Y-92202000D01*
X120511684Y-92166238D01*
X120480666Y-92117333D01*
X120544596Y-92041531D01*
X120692771Y-92034692D01*
X120859774Y-92086568D01*
G36*
X121920000Y-97302348D02*
G01*
X121857958Y-97445505D01*
X121707564Y-97605989D01*
X121696915Y-97614521D01*
X121492689Y-97736188D01*
X121304271Y-97787660D01*
X121180673Y-97760679D01*
X121158000Y-97705333D01*
X121227623Y-97632836D01*
X121301533Y-97620667D01*
X121453070Y-97565212D01*
X121644120Y-97428311D01*
X121682533Y-97393159D01*
X121838391Y-97259965D01*
X121909116Y-97249139D01*
X121920000Y-97302348D01*
X121920000Y-97302348D01*
G37*
X121920000Y-97302348D02*
X121857958Y-97445505D01*
X121707564Y-97605989D01*
X121696915Y-97614521D01*
X121492689Y-97736188D01*
X121304271Y-97787660D01*
X121180673Y-97760679D01*
X121158000Y-97705333D01*
X121227623Y-97632836D01*
X121301533Y-97620667D01*
X121453070Y-97565212D01*
X121644120Y-97428311D01*
X121682533Y-97393159D01*
X121838391Y-97259965D01*
X121909116Y-97249139D01*
X121920000Y-97302348D01*
G36*
X111833923Y-97385428D02*
G01*
X111844131Y-97430167D01*
X111778209Y-97510737D01*
X111615708Y-97630032D01*
X111568964Y-97659114D01*
X111427556Y-97729147D01*
X111252919Y-97778439D01*
X111011702Y-97811407D01*
X110670550Y-97832471D01*
X110196112Y-97846051D01*
X110151333Y-97846948D01*
X109722035Y-97851894D01*
X109349892Y-97849700D01*
X109069657Y-97841044D01*
X108916081Y-97826604D01*
X108902500Y-97822612D01*
X108803027Y-97760825D01*
X108834809Y-97717764D01*
X109006913Y-97692212D01*
X109328408Y-97682957D01*
X109808363Y-97688783D01*
X109887512Y-97690702D01*
X110355793Y-97699388D01*
X110693720Y-97695110D01*
X110940024Y-97673982D01*
X111133443Y-97632121D01*
X111312708Y-97565640D01*
X111364653Y-97542535D01*
X111628183Y-97426292D01*
X111773357Y-97376559D01*
X111833923Y-97385428D01*
X111833923Y-97385428D01*
G37*
X111833923Y-97385428D02*
X111844131Y-97430167D01*
X111778209Y-97510737D01*
X111615708Y-97630032D01*
X111568964Y-97659114D01*
X111427556Y-97729147D01*
X111252919Y-97778439D01*
X111011702Y-97811407D01*
X110670550Y-97832471D01*
X110196112Y-97846051D01*
X110151333Y-97846948D01*
X109722035Y-97851894D01*
X109349892Y-97849700D01*
X109069657Y-97841044D01*
X108916081Y-97826604D01*
X108902500Y-97822612D01*
X108803027Y-97760825D01*
X108834809Y-97717764D01*
X109006913Y-97692212D01*
X109328408Y-97682957D01*
X109808363Y-97688783D01*
X109887512Y-97690702D01*
X110355793Y-97699388D01*
X110693720Y-97695110D01*
X110940024Y-97673982D01*
X111133443Y-97632121D01*
X111312708Y-97565640D01*
X111364653Y-97542535D01*
X111628183Y-97426292D01*
X111773357Y-97376559D01*
X111833923Y-97385428D01*
G36*
X112942873Y-98193096D02*
G01*
X112945333Y-98213333D01*
X112880904Y-98295540D01*
X112860666Y-98298000D01*
X112778460Y-98233571D01*
X112776000Y-98213333D01*
X112840429Y-98131127D01*
X112860666Y-98128667D01*
X112942873Y-98193096D01*
X112942873Y-98193096D01*
G37*
X112942873Y-98193096D02*
X112945333Y-98213333D01*
X112880904Y-98295540D01*
X112860666Y-98298000D01*
X112778460Y-98233571D01*
X112776000Y-98213333D01*
X112840429Y-98131127D01*
X112860666Y-98128667D01*
X112942873Y-98193096D01*
G36*
X117734974Y-97143964D02*
G01*
X117762011Y-97152041D01*
X117910876Y-97279674D01*
X117986655Y-97519605D01*
X118040096Y-97804987D01*
X118108862Y-97961810D01*
X118235991Y-98028567D01*
X118464524Y-98043748D01*
X118573009Y-98044000D01*
X118828865Y-98056713D01*
X118998969Y-98089524D01*
X119041333Y-98121742D01*
X119069261Y-98263631D01*
X119092725Y-98333408D01*
X119084864Y-98446606D01*
X119008058Y-98467333D01*
X118890099Y-98403429D01*
X118872000Y-98340333D01*
X118821267Y-98255931D01*
X118649377Y-98218013D01*
X118497924Y-98213333D01*
X118169445Y-98199807D01*
X117975466Y-98144265D01*
X117882290Y-98024260D01*
X117856219Y-97817346D01*
X117856000Y-97785742D01*
X117819159Y-97517322D01*
X117693088Y-97347689D01*
X117670608Y-97331082D01*
X117544422Y-97203856D01*
X117570781Y-97131877D01*
X117734974Y-97143964D01*
X117734974Y-97143964D01*
G37*
X117734974Y-97143964D02*
X117762011Y-97152041D01*
X117910876Y-97279674D01*
X117986655Y-97519605D01*
X118040096Y-97804987D01*
X118108862Y-97961810D01*
X118235991Y-98028567D01*
X118464524Y-98043748D01*
X118573009Y-98044000D01*
X118828865Y-98056713D01*
X118998969Y-98089524D01*
X119041333Y-98121742D01*
X119069261Y-98263631D01*
X119092725Y-98333408D01*
X119084864Y-98446606D01*
X119008058Y-98467333D01*
X118890099Y-98403429D01*
X118872000Y-98340333D01*
X118821267Y-98255931D01*
X118649377Y-98218013D01*
X118497924Y-98213333D01*
X118169445Y-98199807D01*
X117975466Y-98144265D01*
X117882290Y-98024260D01*
X117856219Y-97817346D01*
X117856000Y-97785742D01*
X117819159Y-97517322D01*
X117693088Y-97347689D01*
X117670608Y-97331082D01*
X117544422Y-97203856D01*
X117570781Y-97131877D01*
X117734974Y-97143964D01*
G36*
X101305869Y-92279546D02*
G01*
X101336259Y-92484029D01*
X101346000Y-92737575D01*
X101355527Y-93049496D01*
X101394932Y-93248961D01*
X101480448Y-93392299D01*
X101557666Y-93472000D01*
X101695895Y-93577576D01*
X101766842Y-93584296D01*
X101769333Y-93571425D01*
X101831537Y-93477819D01*
X101863058Y-93472000D01*
X101915351Y-93531953D01*
X101891185Y-93620167D01*
X101845111Y-93786252D01*
X101798843Y-94049463D01*
X101776293Y-94227334D01*
X101731800Y-94487596D01*
X101669783Y-94668804D01*
X101625583Y-94719751D01*
X101563202Y-94687670D01*
X101559205Y-94518551D01*
X101570059Y-94430083D01*
X101615950Y-94107000D01*
X101442928Y-94377164D01*
X101342510Y-94608340D01*
X101290382Y-94878676D01*
X101289004Y-95133039D01*
X101340835Y-95316297D01*
X101398660Y-95369247D01*
X101508897Y-95335738D01*
X101694195Y-95209525D01*
X101882965Y-95046627D01*
X102092628Y-94839501D01*
X102198624Y-94694130D01*
X102224864Y-94560922D01*
X102196634Y-94396026D01*
X102131385Y-94153520D01*
X102068577Y-93964268D01*
X102066366Y-93958833D01*
X102052759Y-93835989D01*
X102093461Y-93810667D01*
X102176819Y-93882376D01*
X102270576Y-94059544D01*
X102288736Y-94106653D01*
X102399165Y-94323859D01*
X102559073Y-94441131D01*
X102806805Y-94473911D01*
X103128922Y-94444989D01*
X103547333Y-94387443D01*
X103547333Y-93887388D01*
X103560368Y-93620053D01*
X103594322Y-93439156D01*
X103632000Y-93387333D01*
X103677098Y-93464453D01*
X103707673Y-93665916D01*
X103716666Y-93895333D01*
X103716666Y-94403333D01*
X104140000Y-94403333D01*
X104430575Y-94382753D01*
X104558680Y-94321267D01*
X104565215Y-94297500D01*
X104611015Y-94160544D01*
X104715996Y-94000170D01*
X104837277Y-93869129D01*
X104931976Y-93820173D01*
X104947178Y-93827623D01*
X104945853Y-93929453D01*
X104868302Y-94078030D01*
X104756579Y-94277726D01*
X104765992Y-94428893D01*
X104909970Y-94578420D01*
X105037172Y-94667586D01*
X105341678Y-94869000D01*
X105295893Y-95737292D01*
X105268146Y-96157881D01*
X105228914Y-96463209D01*
X105165713Y-96707344D01*
X105066057Y-96944356D01*
X104977104Y-97117790D01*
X104813431Y-97392608D01*
X104652110Y-97610921D01*
X104534187Y-97720932D01*
X104344204Y-97764081D01*
X104034518Y-97772790D01*
X103650438Y-97750632D01*
X103237273Y-97701185D01*
X102840331Y-97628023D01*
X102611738Y-97569224D01*
X102350153Y-97496527D01*
X102199827Y-97477708D01*
X102110983Y-97514285D01*
X102049313Y-97586379D01*
X101945964Y-97826856D01*
X102009103Y-98036657D01*
X102150333Y-98163214D01*
X102301547Y-98287273D01*
X102362000Y-98384618D01*
X102309008Y-98463081D01*
X102175935Y-98432715D01*
X102001631Y-98305225D01*
X101959833Y-98263437D01*
X101804537Y-98045004D01*
X101784199Y-97823437D01*
X101865624Y-97586632D01*
X101912634Y-97437713D01*
X101870273Y-97318267D01*
X101714857Y-97167482D01*
X101696290Y-97151789D01*
X101555300Y-97021204D01*
X101475665Y-96892787D01*
X101439982Y-96713549D01*
X101430843Y-96430502D01*
X101430666Y-96343140D01*
X101428433Y-96244115D01*
X101586821Y-96244115D01*
X101600769Y-96505082D01*
X101643642Y-96747558D01*
X101714594Y-96925365D01*
X101748166Y-96965854D01*
X101950511Y-97096283D01*
X102263267Y-97241311D01*
X102631394Y-97379499D01*
X102999848Y-97489410D01*
X103208666Y-97534710D01*
X103750004Y-97605619D01*
X104152842Y-97604186D01*
X104432309Y-97529295D01*
X104560400Y-97434976D01*
X104813352Y-97085256D01*
X104987632Y-96650772D01*
X105093281Y-96101560D01*
X105125154Y-95749463D01*
X105176098Y-94953667D01*
X104912049Y-94800713D01*
X104741631Y-94723222D01*
X104652038Y-94723947D01*
X104648000Y-94737213D01*
X104586420Y-94823265D01*
X104563333Y-94826667D01*
X104488921Y-94757795D01*
X104478666Y-94695339D01*
X104455050Y-94633191D01*
X104364040Y-94597419D01*
X104175395Y-94584059D01*
X103858874Y-94589147D01*
X103710413Y-94594626D01*
X103364839Y-94617337D01*
X103086148Y-94652374D01*
X102915793Y-94693757D01*
X102884913Y-94713742D01*
X102769933Y-94786329D01*
X102561041Y-94850535D01*
X102519094Y-94858949D01*
X102192711Y-94997316D01*
X101942591Y-95229327D01*
X101805540Y-95414191D01*
X101750057Y-95541533D01*
X101764330Y-95572888D01*
X101844662Y-95671521D01*
X101854000Y-95731780D01*
X101799445Y-95821530D01*
X101727000Y-95812049D01*
X101649089Y-95851420D01*
X101602645Y-96010835D01*
X101586821Y-96244115D01*
X101428433Y-96244115D01*
X101423506Y-96025689D01*
X101397169Y-95844708D01*
X101344369Y-95767754D01*
X101299262Y-95758000D01*
X101182760Y-95686035D01*
X101082189Y-95512063D01*
X101079313Y-95504000D01*
X100996583Y-95328097D01*
X100917593Y-95250213D01*
X100914384Y-95250000D01*
X100840165Y-95185327D01*
X100838000Y-95165333D01*
X100906576Y-95090219D01*
X100965000Y-95080667D01*
X101064848Y-95006633D01*
X101092000Y-94821100D01*
X101163344Y-94442373D01*
X101386514Y-94080041D01*
X101445336Y-94012523D01*
X101544173Y-93890492D01*
X101551815Y-93793853D01*
X101460494Y-93658655D01*
X101392423Y-93576967D01*
X101270662Y-93405499D01*
X101204993Y-93219533D01*
X101179427Y-92958622D01*
X101176666Y-92761278D01*
X101188456Y-92470177D01*
X101219771Y-92270477D01*
X101261333Y-92202000D01*
X101305869Y-92279546D01*
X101305869Y-92279546D01*
G37*
X101305869Y-92279546D02*
X101336259Y-92484029D01*
X101346000Y-92737575D01*
X101355527Y-93049496D01*
X101394932Y-93248961D01*
X101480448Y-93392299D01*
X101557666Y-93472000D01*
X101695895Y-93577576D01*
X101766842Y-93584296D01*
X101769333Y-93571425D01*
X101831537Y-93477819D01*
X101863058Y-93472000D01*
X101915351Y-93531953D01*
X101891185Y-93620167D01*
X101845111Y-93786252D01*
X101798843Y-94049463D01*
X101776293Y-94227334D01*
X101731800Y-94487596D01*
X101669783Y-94668804D01*
X101625583Y-94719751D01*
X101563202Y-94687670D01*
X101559205Y-94518551D01*
X101570059Y-94430083D01*
X101615950Y-94107000D01*
X101442928Y-94377164D01*
X101342510Y-94608340D01*
X101290382Y-94878676D01*
X101289004Y-95133039D01*
X101340835Y-95316297D01*
X101398660Y-95369247D01*
X101508897Y-95335738D01*
X101694195Y-95209525D01*
X101882965Y-95046627D01*
X102092628Y-94839501D01*
X102198624Y-94694130D01*
X102224864Y-94560922D01*
X102196634Y-94396026D01*
X102131385Y-94153520D01*
X102068577Y-93964268D01*
X102066366Y-93958833D01*
X102052759Y-93835989D01*
X102093461Y-93810667D01*
X102176819Y-93882376D01*
X102270576Y-94059544D01*
X102288736Y-94106653D01*
X102399165Y-94323859D01*
X102559073Y-94441131D01*
X102806805Y-94473911D01*
X103128922Y-94444989D01*
X103547333Y-94387443D01*
X103547333Y-93887388D01*
X103560368Y-93620053D01*
X103594322Y-93439156D01*
X103632000Y-93387333D01*
X103677098Y-93464453D01*
X103707673Y-93665916D01*
X103716666Y-93895333D01*
X103716666Y-94403333D01*
X104140000Y-94403333D01*
X104430575Y-94382753D01*
X104558680Y-94321267D01*
X104565215Y-94297500D01*
X104611015Y-94160544D01*
X104715996Y-94000170D01*
X104837277Y-93869129D01*
X104931976Y-93820173D01*
X104947178Y-93827623D01*
X104945853Y-93929453D01*
X104868302Y-94078030D01*
X104756579Y-94277726D01*
X104765992Y-94428893D01*
X104909970Y-94578420D01*
X105037172Y-94667586D01*
X105341678Y-94869000D01*
X105295893Y-95737292D01*
X105268146Y-96157881D01*
X105228914Y-96463209D01*
X105165713Y-96707344D01*
X105066057Y-96944356D01*
X104977104Y-97117790D01*
X104813431Y-97392608D01*
X104652110Y-97610921D01*
X104534187Y-97720932D01*
X104344204Y-97764081D01*
X104034518Y-97772790D01*
X103650438Y-97750632D01*
X103237273Y-97701185D01*
X102840331Y-97628023D01*
X102611738Y-97569224D01*
X102350153Y-97496527D01*
X102199827Y-97477708D01*
X102110983Y-97514285D01*
X102049313Y-97586379D01*
X101945964Y-97826856D01*
X102009103Y-98036657D01*
X102150333Y-98163214D01*
X102301547Y-98287273D01*
X102362000Y-98384618D01*
X102309008Y-98463081D01*
X102175935Y-98432715D01*
X102001631Y-98305225D01*
X101959833Y-98263437D01*
X101804537Y-98045004D01*
X101784199Y-97823437D01*
X101865624Y-97586632D01*
X101912634Y-97437713D01*
X101870273Y-97318267D01*
X101714857Y-97167482D01*
X101696290Y-97151789D01*
X101555300Y-97021204D01*
X101475665Y-96892787D01*
X101439982Y-96713549D01*
X101430843Y-96430502D01*
X101430666Y-96343140D01*
X101428433Y-96244115D01*
X101586821Y-96244115D01*
X101600769Y-96505082D01*
X101643642Y-96747558D01*
X101714594Y-96925365D01*
X101748166Y-96965854D01*
X101950511Y-97096283D01*
X102263267Y-97241311D01*
X102631394Y-97379499D01*
X102999848Y-97489410D01*
X103208666Y-97534710D01*
X103750004Y-97605619D01*
X104152842Y-97604186D01*
X104432309Y-97529295D01*
X104560400Y-97434976D01*
X104813352Y-97085256D01*
X104987632Y-96650772D01*
X105093281Y-96101560D01*
X105125154Y-95749463D01*
X105176098Y-94953667D01*
X104912049Y-94800713D01*
X104741631Y-94723222D01*
X104652038Y-94723947D01*
X104648000Y-94737213D01*
X104586420Y-94823265D01*
X104563333Y-94826667D01*
X104488921Y-94757795D01*
X104478666Y-94695339D01*
X104455050Y-94633191D01*
X104364040Y-94597419D01*
X104175395Y-94584059D01*
X103858874Y-94589147D01*
X103710413Y-94594626D01*
X103364839Y-94617337D01*
X103086148Y-94652374D01*
X102915793Y-94693757D01*
X102884913Y-94713742D01*
X102769933Y-94786329D01*
X102561041Y-94850535D01*
X102519094Y-94858949D01*
X102192711Y-94997316D01*
X101942591Y-95229327D01*
X101805540Y-95414191D01*
X101750057Y-95541533D01*
X101764330Y-95572888D01*
X101844662Y-95671521D01*
X101854000Y-95731780D01*
X101799445Y-95821530D01*
X101727000Y-95812049D01*
X101649089Y-95851420D01*
X101602645Y-96010835D01*
X101586821Y-96244115D01*
X101428433Y-96244115D01*
X101423506Y-96025689D01*
X101397169Y-95844708D01*
X101344369Y-95767754D01*
X101299262Y-95758000D01*
X101182760Y-95686035D01*
X101082189Y-95512063D01*
X101079313Y-95504000D01*
X100996583Y-95328097D01*
X100917593Y-95250213D01*
X100914384Y-95250000D01*
X100840165Y-95185327D01*
X100838000Y-95165333D01*
X100906576Y-95090219D01*
X100965000Y-95080667D01*
X101064848Y-95006633D01*
X101092000Y-94821100D01*
X101163344Y-94442373D01*
X101386514Y-94080041D01*
X101445336Y-94012523D01*
X101544173Y-93890492D01*
X101551815Y-93793853D01*
X101460494Y-93658655D01*
X101392423Y-93576967D01*
X101270662Y-93405499D01*
X101204993Y-93219533D01*
X101179427Y-92958622D01*
X101176666Y-92761278D01*
X101188456Y-92470177D01*
X101219771Y-92270477D01*
X101261333Y-92202000D01*
X101305869Y-92279546D01*
G36*
X112093033Y-98252185D02*
G01*
X112163461Y-98360171D01*
X112180402Y-98510501D01*
X112141447Y-98621405D01*
X112104372Y-98636667D01*
X112019146Y-98566602D01*
X111969641Y-98460953D01*
X111946330Y-98282176D01*
X112014224Y-98222176D01*
X112093033Y-98252185D01*
X112093033Y-98252185D01*
G37*
X112093033Y-98252185D02*
X112163461Y-98360171D01*
X112180402Y-98510501D01*
X112141447Y-98621405D01*
X112104372Y-98636667D01*
X112019146Y-98566602D01*
X111969641Y-98460953D01*
X111946330Y-98282176D01*
X112014224Y-98222176D01*
X112093033Y-98252185D01*
G36*
X112817141Y-99172959D02*
G01*
X112937475Y-99262026D01*
X113021750Y-99373555D01*
X113030000Y-99409033D01*
X112975482Y-99480879D01*
X112860145Y-99464301D01*
X112756306Y-99375504D01*
X112740732Y-99344215D01*
X112715548Y-99204338D01*
X112729627Y-99162817D01*
X112817141Y-99172959D01*
X112817141Y-99172959D01*
G37*
X112817141Y-99172959D02*
X112937475Y-99262026D01*
X113021750Y-99373555D01*
X113030000Y-99409033D01*
X112975482Y-99480879D01*
X112860145Y-99464301D01*
X112756306Y-99375504D01*
X112740732Y-99344215D01*
X112715548Y-99204338D01*
X112729627Y-99162817D01*
X112817141Y-99172959D01*
G36*
X115973056Y-97988428D02*
G01*
X116168628Y-98033045D01*
X116247293Y-98102665D01*
X116247333Y-98104467D01*
X116291109Y-98256389D01*
X116379773Y-98421421D01*
X116463832Y-98620652D01*
X116534036Y-98909282D01*
X116560788Y-99094191D01*
X116567729Y-99469270D01*
X116492593Y-99704880D01*
X116330342Y-99812348D01*
X116236966Y-99822000D01*
X116161107Y-99806598D01*
X116114001Y-99739064D01*
X116088948Y-99587406D01*
X116079247Y-99319631D01*
X116078319Y-99128497D01*
X116253284Y-99128497D01*
X116261862Y-99430200D01*
X116294049Y-99591259D01*
X116332000Y-99610333D01*
X116386119Y-99498690D01*
X116410695Y-99290828D01*
X116410715Y-99245503D01*
X116390380Y-98949382D01*
X116351564Y-98781516D01*
X116307160Y-98751486D01*
X116270059Y-98868872D01*
X116253284Y-99128497D01*
X116078319Y-99128497D01*
X116078000Y-99062979D01*
X116073719Y-98693706D01*
X116056229Y-98457614D01*
X116018560Y-98318662D01*
X115953741Y-98240812D01*
X115914232Y-98216312D01*
X115614565Y-98135634D01*
X115285930Y-98162263D01*
X115133849Y-98220193D01*
X114965971Y-98272550D01*
X114900988Y-98227330D01*
X114967403Y-98117981D01*
X115014239Y-98079832D01*
X115181167Y-98014518D01*
X115429697Y-97978173D01*
X115710203Y-97969807D01*
X115973056Y-97988428D01*
X115973056Y-97988428D01*
G37*
X115973056Y-97988428D02*
X116168628Y-98033045D01*
X116247293Y-98102665D01*
X116247333Y-98104467D01*
X116291109Y-98256389D01*
X116379773Y-98421421D01*
X116463832Y-98620652D01*
X116534036Y-98909282D01*
X116560788Y-99094191D01*
X116567729Y-99469270D01*
X116492593Y-99704880D01*
X116330342Y-99812348D01*
X116236966Y-99822000D01*
X116161107Y-99806598D01*
X116114001Y-99739064D01*
X116088948Y-99587406D01*
X116079247Y-99319631D01*
X116078319Y-99128497D01*
X116253284Y-99128497D01*
X116261862Y-99430200D01*
X116294049Y-99591259D01*
X116332000Y-99610333D01*
X116386119Y-99498690D01*
X116410695Y-99290828D01*
X116410715Y-99245503D01*
X116390380Y-98949382D01*
X116351564Y-98781516D01*
X116307160Y-98751486D01*
X116270059Y-98868872D01*
X116253284Y-99128497D01*
X116078319Y-99128497D01*
X116078000Y-99062979D01*
X116073719Y-98693706D01*
X116056229Y-98457614D01*
X116018560Y-98318662D01*
X115953741Y-98240812D01*
X115914232Y-98216312D01*
X115614565Y-98135634D01*
X115285930Y-98162263D01*
X115133849Y-98220193D01*
X114965971Y-98272550D01*
X114900988Y-98227330D01*
X114967403Y-98117981D01*
X115014239Y-98079832D01*
X115181167Y-98014518D01*
X115429697Y-97978173D01*
X115710203Y-97969807D01*
X115973056Y-97988428D01*
G36*
X112895056Y-91964710D02*
G01*
X112950685Y-92035118D01*
X113078082Y-92350915D01*
X113067102Y-92713313D01*
X112993397Y-92970929D01*
X112911229Y-93215192D01*
X112892271Y-93367667D01*
X112940754Y-93495297D01*
X113035047Y-93630053D01*
X113139049Y-93795035D01*
X113185319Y-93962716D01*
X113184174Y-94195295D01*
X113163567Y-94404786D01*
X113134762Y-94688381D01*
X113135914Y-94838452D01*
X113175556Y-94889448D01*
X113262222Y-94875819D01*
X113278969Y-94870596D01*
X113421095Y-94862391D01*
X113453333Y-94938086D01*
X113524318Y-95056485D01*
X113622666Y-95105199D01*
X113760366Y-95197844D01*
X113792000Y-95284407D01*
X113774252Y-95394188D01*
X113697608Y-95401085D01*
X113526963Y-95304883D01*
X113492687Y-95282596D01*
X113284000Y-95145858D01*
X113284000Y-95520413D01*
X113311572Y-95791422D01*
X113380449Y-96012940D01*
X113408307Y-96059318D01*
X113488763Y-96263999D01*
X113530913Y-96593782D01*
X113535307Y-96745928D01*
X113541912Y-97036063D01*
X113574225Y-97211374D01*
X113656646Y-97326361D01*
X113813576Y-97435529D01*
X113855500Y-97461125D01*
X114102917Y-97624177D01*
X114235551Y-97766737D01*
X114288976Y-97946205D01*
X114298703Y-98176244D01*
X114325275Y-98429938D01*
X114430409Y-98603193D01*
X114564145Y-98715446D01*
X114801276Y-98862988D01*
X115029539Y-98963913D01*
X115050978Y-98970153D01*
X115206659Y-99045305D01*
X115288189Y-99198221D01*
X115318968Y-99362284D01*
X115375821Y-99658235D01*
X115471857Y-99822507D01*
X115648200Y-99892742D01*
X115913663Y-99906667D01*
X116153507Y-99922067D01*
X116304843Y-99961399D01*
X116332000Y-99991333D01*
X116408551Y-100037700D01*
X116606024Y-100068453D01*
X116797666Y-100076000D01*
X117052681Y-100089918D01*
X117221823Y-100125822D01*
X117263333Y-100160667D01*
X117186295Y-100205869D01*
X116985413Y-100236477D01*
X116760330Y-100245333D01*
X116483019Y-100232105D01*
X116279299Y-100197820D01*
X116205000Y-100160667D01*
X116095042Y-100108644D01*
X115881224Y-100078788D01*
X115786407Y-100076000D01*
X115527577Y-100054709D01*
X115368603Y-99972543D01*
X115283404Y-99867312D01*
X115180665Y-99622654D01*
X115146666Y-99401645D01*
X115113389Y-99207957D01*
X115034182Y-99144667D01*
X114905187Y-99100498D01*
X114692741Y-98986836D01*
X114526182Y-98882688D01*
X114298667Y-98721674D01*
X114180753Y-98590061D01*
X114136714Y-98430336D01*
X114130666Y-98245943D01*
X114118713Y-98019593D01*
X114059064Y-97865913D01*
X113916030Y-97724644D01*
X113749666Y-97602623D01*
X113539294Y-97447339D01*
X113425188Y-97319430D01*
X113377526Y-97158163D01*
X113366485Y-96902800D01*
X113365973Y-96821201D01*
X113340540Y-96461231D01*
X113274041Y-96205505D01*
X113238973Y-96143984D01*
X113160506Y-95949746D01*
X113118312Y-95655488D01*
X113114666Y-95535148D01*
X113098172Y-95273515D01*
X113055920Y-95086271D01*
X113021250Y-95032926D01*
X112969684Y-94904994D01*
X112969050Y-94618005D01*
X112983772Y-94452853D01*
X113007653Y-94144782D01*
X112991335Y-93944242D01*
X112925443Y-93792256D01*
X112865521Y-93709069D01*
X112739461Y-93515523D01*
X112701265Y-93330417D01*
X112748645Y-93095810D01*
X112832347Y-92868998D01*
X112917240Y-92605326D01*
X112918551Y-92401884D01*
X112876153Y-92259034D01*
X112822319Y-92060130D01*
X112831807Y-91952448D01*
X112895056Y-91964710D01*
X112895056Y-91964710D01*
G37*
X112895056Y-91964710D02*
X112950685Y-92035118D01*
X113078082Y-92350915D01*
X113067102Y-92713313D01*
X112993397Y-92970929D01*
X112911229Y-93215192D01*
X112892271Y-93367667D01*
X112940754Y-93495297D01*
X113035047Y-93630053D01*
X113139049Y-93795035D01*
X113185319Y-93962716D01*
X113184174Y-94195295D01*
X113163567Y-94404786D01*
X113134762Y-94688381D01*
X113135914Y-94838452D01*
X113175556Y-94889448D01*
X113262222Y-94875819D01*
X113278969Y-94870596D01*
X113421095Y-94862391D01*
X113453333Y-94938086D01*
X113524318Y-95056485D01*
X113622666Y-95105199D01*
X113760366Y-95197844D01*
X113792000Y-95284407D01*
X113774252Y-95394188D01*
X113697608Y-95401085D01*
X113526963Y-95304883D01*
X113492687Y-95282596D01*
X113284000Y-95145858D01*
X113284000Y-95520413D01*
X113311572Y-95791422D01*
X113380449Y-96012940D01*
X113408307Y-96059318D01*
X113488763Y-96263999D01*
X113530913Y-96593782D01*
X113535307Y-96745928D01*
X113541912Y-97036063D01*
X113574225Y-97211374D01*
X113656646Y-97326361D01*
X113813576Y-97435529D01*
X113855500Y-97461125D01*
X114102917Y-97624177D01*
X114235551Y-97766737D01*
X114288976Y-97946205D01*
X114298703Y-98176244D01*
X114325275Y-98429938D01*
X114430409Y-98603193D01*
X114564145Y-98715446D01*
X114801276Y-98862988D01*
X115029539Y-98963913D01*
X115050978Y-98970153D01*
X115206659Y-99045305D01*
X115288189Y-99198221D01*
X115318968Y-99362284D01*
X115375821Y-99658235D01*
X115471857Y-99822507D01*
X115648200Y-99892742D01*
X115913663Y-99906667D01*
X116153507Y-99922067D01*
X116304843Y-99961399D01*
X116332000Y-99991333D01*
X116408551Y-100037700D01*
X116606024Y-100068453D01*
X116797666Y-100076000D01*
X117052681Y-100089918D01*
X117221823Y-100125822D01*
X117263333Y-100160667D01*
X117186295Y-100205869D01*
X116985413Y-100236477D01*
X116760330Y-100245333D01*
X116483019Y-100232105D01*
X116279299Y-100197820D01*
X116205000Y-100160667D01*
X116095042Y-100108644D01*
X115881224Y-100078788D01*
X115786407Y-100076000D01*
X115527577Y-100054709D01*
X115368603Y-99972543D01*
X115283404Y-99867312D01*
X115180665Y-99622654D01*
X115146666Y-99401645D01*
X115113389Y-99207957D01*
X115034182Y-99144667D01*
X114905187Y-99100498D01*
X114692741Y-98986836D01*
X114526182Y-98882688D01*
X114298667Y-98721674D01*
X114180753Y-98590061D01*
X114136714Y-98430336D01*
X114130666Y-98245943D01*
X114118713Y-98019593D01*
X114059064Y-97865913D01*
X113916030Y-97724644D01*
X113749666Y-97602623D01*
X113539294Y-97447339D01*
X113425188Y-97319430D01*
X113377526Y-97158163D01*
X113366485Y-96902800D01*
X113365973Y-96821201D01*
X113340540Y-96461231D01*
X113274041Y-96205505D01*
X113238973Y-96143984D01*
X113160506Y-95949746D01*
X113118312Y-95655488D01*
X113114666Y-95535148D01*
X113098172Y-95273515D01*
X113055920Y-95086271D01*
X113021250Y-95032926D01*
X112969684Y-94904994D01*
X112969050Y-94618005D01*
X112983772Y-94452853D01*
X113007653Y-94144782D01*
X112991335Y-93944242D01*
X112925443Y-93792256D01*
X112865521Y-93709069D01*
X112739461Y-93515523D01*
X112701265Y-93330417D01*
X112748645Y-93095810D01*
X112832347Y-92868998D01*
X112917240Y-92605326D01*
X112918551Y-92401884D01*
X112876153Y-92259034D01*
X112822319Y-92060130D01*
X112831807Y-91952448D01*
X112895056Y-91964710D01*
G36*
X114737374Y-100450468D02*
G01*
X114845834Y-100578109D01*
X114889261Y-100827945D01*
X114892666Y-100971925D01*
X114881265Y-101160933D01*
X114813568Y-101239953D01*
X114639338Y-101253224D01*
X114575166Y-101251512D01*
X114323004Y-101234791D01*
X114125834Y-101206876D01*
X114109500Y-101202970D01*
X114011244Y-101131652D01*
X113967480Y-100958790D01*
X113961333Y-100789458D01*
X113982909Y-100535790D01*
X114033767Y-100426503D01*
X114093102Y-100468025D01*
X114140108Y-100666786D01*
X114146722Y-100732167D01*
X114178919Y-100942936D01*
X114260691Y-101039090D01*
X114440898Y-101075343D01*
X114454352Y-101076659D01*
X114643886Y-101082631D01*
X114712818Y-101023663D01*
X114708352Y-100864992D01*
X114640777Y-100671324D01*
X114490500Y-100599278D01*
X114328749Y-100544583D01*
X114316919Y-100473162D01*
X114444213Y-100421621D01*
X114544941Y-100414667D01*
X114737374Y-100450468D01*
X114737374Y-100450468D01*
G37*
X114737374Y-100450468D02*
X114845834Y-100578109D01*
X114889261Y-100827945D01*
X114892666Y-100971925D01*
X114881265Y-101160933D01*
X114813568Y-101239953D01*
X114639338Y-101253224D01*
X114575166Y-101251512D01*
X114323004Y-101234791D01*
X114125834Y-101206876D01*
X114109500Y-101202970D01*
X114011244Y-101131652D01*
X113967480Y-100958790D01*
X113961333Y-100789458D01*
X113982909Y-100535790D01*
X114033767Y-100426503D01*
X114093102Y-100468025D01*
X114140108Y-100666786D01*
X114146722Y-100732167D01*
X114178919Y-100942936D01*
X114260691Y-101039090D01*
X114440898Y-101075343D01*
X114454352Y-101076659D01*
X114643886Y-101082631D01*
X114712818Y-101023663D01*
X114708352Y-100864992D01*
X114640777Y-100671324D01*
X114490500Y-100599278D01*
X114328749Y-100544583D01*
X114316919Y-100473162D01*
X114444213Y-100421621D01*
X114544941Y-100414667D01*
X114737374Y-100450468D01*
G36*
X111983663Y-101692705D02*
G01*
X112194636Y-101724686D01*
X112331147Y-101781981D01*
X112335733Y-101786267D01*
X112423256Y-101979084D01*
X112425069Y-102246084D01*
X112352923Y-102522976D01*
X112218569Y-102745470D01*
X112149491Y-102805203D01*
X112007303Y-102841092D01*
X111761191Y-102856706D01*
X111475372Y-102851823D01*
X111214063Y-102826223D01*
X111125000Y-102808734D01*
X110875662Y-102695471D01*
X110760071Y-102493229D01*
X110744000Y-102324058D01*
X110824549Y-102017483D01*
X110955332Y-101854313D01*
X111133354Y-101724393D01*
X111223631Y-101722525D01*
X111202245Y-101827643D01*
X111090137Y-101973048D01*
X110947369Y-102204584D01*
X110940284Y-102420533D01*
X111064105Y-102580536D01*
X111167333Y-102625256D01*
X111390005Y-102665043D01*
X111674943Y-102689876D01*
X111740928Y-102692227D01*
X111977603Y-102683924D01*
X112105522Y-102625253D01*
X112183898Y-102487310D01*
X112189271Y-102473383D01*
X112264867Y-102179971D01*
X112216585Y-101993220D01*
X112034408Y-101894455D01*
X111865833Y-101870298D01*
X111645966Y-101837651D01*
X111518681Y-101786348D01*
X111506000Y-101764465D01*
X111579141Y-101711012D01*
X111758430Y-101687620D01*
X111983663Y-101692705D01*
X111983663Y-101692705D01*
G37*
X111983663Y-101692705D02*
X112194636Y-101724686D01*
X112331147Y-101781981D01*
X112335733Y-101786267D01*
X112423256Y-101979084D01*
X112425069Y-102246084D01*
X112352923Y-102522976D01*
X112218569Y-102745470D01*
X112149491Y-102805203D01*
X112007303Y-102841092D01*
X111761191Y-102856706D01*
X111475372Y-102851823D01*
X111214063Y-102826223D01*
X111125000Y-102808734D01*
X110875662Y-102695471D01*
X110760071Y-102493229D01*
X110744000Y-102324058D01*
X110824549Y-102017483D01*
X110955332Y-101854313D01*
X111133354Y-101724393D01*
X111223631Y-101722525D01*
X111202245Y-101827643D01*
X111090137Y-101973048D01*
X110947369Y-102204584D01*
X110940284Y-102420533D01*
X111064105Y-102580536D01*
X111167333Y-102625256D01*
X111390005Y-102665043D01*
X111674943Y-102689876D01*
X111740928Y-102692227D01*
X111977603Y-102683924D01*
X112105522Y-102625253D01*
X112183898Y-102487310D01*
X112189271Y-102473383D01*
X112264867Y-102179971D01*
X112216585Y-101993220D01*
X112034408Y-101894455D01*
X111865833Y-101870298D01*
X111645966Y-101837651D01*
X111518681Y-101786348D01*
X111506000Y-101764465D01*
X111579141Y-101711012D01*
X111758430Y-101687620D01*
X111983663Y-101692705D01*
G36*
X109649759Y-101480614D02*
G01*
X109593235Y-101604147D01*
X109450747Y-101761799D01*
X109417154Y-101791060D01*
X109209913Y-101970585D01*
X109034362Y-102130958D01*
X108843155Y-102266198D01*
X108542267Y-102428345D01*
X108183696Y-102593973D01*
X107819441Y-102739655D01*
X107501500Y-102841963D01*
X107407822Y-102863777D01*
X107122420Y-102937393D01*
X106783753Y-103048227D01*
X106613365Y-103112789D01*
X106170867Y-103245684D01*
X105755555Y-103287126D01*
X105410995Y-103235547D01*
X105259505Y-103161532D01*
X105116856Y-103015640D01*
X105075827Y-102876996D01*
X105144134Y-102793039D01*
X105198333Y-102785333D01*
X105310685Y-102848454D01*
X105325333Y-102903275D01*
X105398319Y-103038334D01*
X105594227Y-103110643D01*
X105878479Y-103119644D01*
X106216495Y-103064777D01*
X106573699Y-102945485D01*
X106621925Y-102924224D01*
X106956070Y-102795725D01*
X107308609Y-102695109D01*
X107461193Y-102665332D01*
X107705782Y-102616321D01*
X107871785Y-102559116D01*
X107906689Y-102532915D01*
X108007622Y-102465739D01*
X108214593Y-102375953D01*
X108356176Y-102325365D01*
X108620916Y-102217151D01*
X108830707Y-102096058D01*
X108891294Y-102043725D01*
X109042618Y-101889236D01*
X109234766Y-101712634D01*
X109422500Y-101553035D01*
X109560585Y-101449557D01*
X109600266Y-101430667D01*
X109649759Y-101480614D01*
X109649759Y-101480614D01*
G37*
X109649759Y-101480614D02*
X109593235Y-101604147D01*
X109450747Y-101761799D01*
X109417154Y-101791060D01*
X109209913Y-101970585D01*
X109034362Y-102130958D01*
X108843155Y-102266198D01*
X108542267Y-102428345D01*
X108183696Y-102593973D01*
X107819441Y-102739655D01*
X107501500Y-102841963D01*
X107407822Y-102863777D01*
X107122420Y-102937393D01*
X106783753Y-103048227D01*
X106613365Y-103112789D01*
X106170867Y-103245684D01*
X105755555Y-103287126D01*
X105410995Y-103235547D01*
X105259505Y-103161532D01*
X105116856Y-103015640D01*
X105075827Y-102876996D01*
X105144134Y-102793039D01*
X105198333Y-102785333D01*
X105310685Y-102848454D01*
X105325333Y-102903275D01*
X105398319Y-103038334D01*
X105594227Y-103110643D01*
X105878479Y-103119644D01*
X106216495Y-103064777D01*
X106573699Y-102945485D01*
X106621925Y-102924224D01*
X106956070Y-102795725D01*
X107308609Y-102695109D01*
X107461193Y-102665332D01*
X107705782Y-102616321D01*
X107871785Y-102559116D01*
X107906689Y-102532915D01*
X108007622Y-102465739D01*
X108214593Y-102375953D01*
X108356176Y-102325365D01*
X108620916Y-102217151D01*
X108830707Y-102096058D01*
X108891294Y-102043725D01*
X109042618Y-101889236D01*
X109234766Y-101712634D01*
X109422500Y-101553035D01*
X109560585Y-101449557D01*
X109600266Y-101430667D01*
X109649759Y-101480614D01*
G36*
X114991812Y-102351529D02*
G01*
X115106692Y-102526554D01*
X115146659Y-102850554D01*
X115146666Y-102856045D01*
X115126489Y-103116801D01*
X115075437Y-103312175D01*
X115045066Y-103361067D01*
X114896184Y-103429375D01*
X114674654Y-103460878D01*
X114463462Y-103450135D01*
X114356444Y-103406222D01*
X114321075Y-103292899D01*
X114301425Y-103078542D01*
X114300122Y-103005602D01*
X114469333Y-103005602D01*
X114481767Y-103203899D01*
X114545357Y-103279363D01*
X114699533Y-103278092D01*
X114702166Y-103277790D01*
X114851251Y-103241580D01*
X114925105Y-103144876D01*
X114957501Y-102937235D01*
X114961034Y-102891167D01*
X114958951Y-102642684D01*
X114891646Y-102540483D01*
X114738576Y-102567516D01*
X114633100Y-102618979D01*
X114505345Y-102764104D01*
X114469333Y-103005602D01*
X114300122Y-103005602D01*
X114300000Y-102998811D01*
X114324023Y-102743682D01*
X114421694Y-102572797D01*
X114554348Y-102459796D01*
X114806278Y-102328327D01*
X114991812Y-102351529D01*
X114991812Y-102351529D01*
G37*
X114991812Y-102351529D02*
X115106692Y-102526554D01*
X115146659Y-102850554D01*
X115146666Y-102856045D01*
X115126489Y-103116801D01*
X115075437Y-103312175D01*
X115045066Y-103361067D01*
X114896184Y-103429375D01*
X114674654Y-103460878D01*
X114463462Y-103450135D01*
X114356444Y-103406222D01*
X114321075Y-103292899D01*
X114301425Y-103078542D01*
X114300122Y-103005602D01*
X114469333Y-103005602D01*
X114481767Y-103203899D01*
X114545357Y-103279363D01*
X114699533Y-103278092D01*
X114702166Y-103277790D01*
X114851251Y-103241580D01*
X114925105Y-103144876D01*
X114957501Y-102937235D01*
X114961034Y-102891167D01*
X114958951Y-102642684D01*
X114891646Y-102540483D01*
X114738576Y-102567516D01*
X114633100Y-102618979D01*
X114505345Y-102764104D01*
X114469333Y-103005602D01*
X114300122Y-103005602D01*
X114300000Y-102998811D01*
X114324023Y-102743682D01*
X114421694Y-102572797D01*
X114554348Y-102459796D01*
X114806278Y-102328327D01*
X114991812Y-102351529D01*
G36*
X106476245Y-96880690D02*
G01*
X106478107Y-96981682D01*
X106435967Y-97083255D01*
X106345974Y-97261261D01*
X106231969Y-97505086D01*
X106205778Y-97563507D01*
X106086412Y-97790181D01*
X105941238Y-97954108D01*
X105740529Y-98067600D01*
X105454556Y-98142972D01*
X105053592Y-98192536D01*
X104614061Y-98222789D01*
X104003887Y-98267808D01*
X103545464Y-98328109D01*
X103221513Y-98408888D01*
X103014752Y-98515341D01*
X102907901Y-98652664D01*
X102885542Y-98742500D01*
X102894121Y-98910414D01*
X102949042Y-98975333D01*
X103031703Y-99042672D01*
X103039333Y-99087792D01*
X103117712Y-99168418D01*
X103328103Y-99251171D01*
X103633387Y-99329890D01*
X103996448Y-99398412D01*
X104380165Y-99450578D01*
X104747422Y-99480225D01*
X105061099Y-99481193D01*
X105255038Y-99455583D01*
X105442250Y-99368361D01*
X105670790Y-99210033D01*
X105750944Y-99142633D01*
X105986356Y-98934654D01*
X106270913Y-98686231D01*
X106439348Y-98540504D01*
X106671799Y-98314266D01*
X106858470Y-98086264D01*
X106936643Y-97952951D01*
X107028840Y-97781022D01*
X107110882Y-97705490D01*
X107113605Y-97705333D01*
X107171415Y-97715596D01*
X107176289Y-97774476D01*
X107122739Y-97924110D01*
X107067808Y-98056980D01*
X106935446Y-98269538D01*
X106719926Y-98516428D01*
X106541490Y-98681153D01*
X106302672Y-98881978D01*
X106101870Y-99055983D01*
X106004618Y-99144667D01*
X105714539Y-99405119D01*
X105467728Y-99558791D01*
X105202859Y-99632069D01*
X104858606Y-99651342D01*
X104827081Y-99651344D01*
X104428367Y-99630097D01*
X104002174Y-99576902D01*
X103759000Y-99529862D01*
X103411178Y-99465842D01*
X103206439Y-99471254D01*
X103166333Y-99493010D01*
X103123030Y-99618167D01*
X103089071Y-99873948D01*
X103065021Y-100221871D01*
X103051443Y-100623452D01*
X103048905Y-101040210D01*
X103057970Y-101433662D01*
X103079204Y-101765327D01*
X103113172Y-101996722D01*
X103128805Y-102048521D01*
X103243752Y-102325945D01*
X103377787Y-102628177D01*
X103509711Y-102909931D01*
X103618323Y-103125922D01*
X103682248Y-103230693D01*
X103751640Y-103195308D01*
X103882766Y-103065053D01*
X104039586Y-102883313D01*
X104186062Y-102693470D01*
X104286154Y-102538909D01*
X104309333Y-102475821D01*
X104358826Y-102385608D01*
X104486304Y-102210408D01*
X104605666Y-102060137D01*
X104806824Y-101800724D01*
X104888385Y-101658397D01*
X104850923Y-101630943D01*
X104695012Y-101716148D01*
X104694748Y-101716321D01*
X104532388Y-101790110D01*
X104439188Y-101773953D01*
X104480094Y-101692797D01*
X104633360Y-101553529D01*
X104866382Y-101385551D01*
X104879273Y-101377101D01*
X105059477Y-101255821D01*
X105684758Y-101255821D01*
X105696339Y-101261333D01*
X105751217Y-101219000D01*
X106849333Y-101219000D01*
X106891666Y-101261333D01*
X106934000Y-101219000D01*
X106891666Y-101176667D01*
X106849333Y-101219000D01*
X105751217Y-101219000D01*
X105773605Y-101201730D01*
X105791000Y-101176667D01*
X105812574Y-101097512D01*
X105800993Y-101092000D01*
X105723728Y-101151603D01*
X105706333Y-101176667D01*
X105684758Y-101255821D01*
X105059477Y-101255821D01*
X105172857Y-101179515D01*
X105434719Y-100993640D01*
X107217633Y-100993640D01*
X107283953Y-100986070D01*
X107487338Y-100904758D01*
X107669330Y-100821747D01*
X107874002Y-100713807D01*
X107979798Y-100633901D01*
X107978014Y-100607449D01*
X107860320Y-100629938D01*
X107655079Y-100719073D01*
X107518773Y-100792016D01*
X107294023Y-100928584D01*
X107217633Y-100993640D01*
X105434719Y-100993640D01*
X105446036Y-100985607D01*
X105614300Y-100857394D01*
X105657740Y-100827731D01*
X106104606Y-100827731D01*
X106205128Y-100807404D01*
X106439063Y-100730771D01*
X106623821Y-100666381D01*
X106895097Y-100583461D01*
X107105395Y-100541823D01*
X107196095Y-100546670D01*
X107324037Y-100544513D01*
X107396082Y-100502307D01*
X107534708Y-100447535D01*
X107788460Y-100395251D01*
X108103345Y-100356483D01*
X108114775Y-100355509D01*
X108497911Y-100311662D01*
X108715963Y-100263463D01*
X108772761Y-100218481D01*
X108672135Y-100184288D01*
X108417914Y-100168451D01*
X108024955Y-100177959D01*
X107349590Y-100253499D01*
X106790582Y-100409573D01*
X106309766Y-100657463D01*
X106237672Y-100706308D01*
X106120965Y-100793463D01*
X106104606Y-100827731D01*
X105657740Y-100827731D01*
X105810553Y-100723384D01*
X106103267Y-100553378D01*
X106434430Y-100380754D01*
X106487863Y-100354759D01*
X106779268Y-100220572D01*
X107022603Y-100130667D01*
X107269573Y-100073883D01*
X107571881Y-100039055D01*
X107981232Y-100015021D01*
X108082729Y-100010429D01*
X108510328Y-99995029D01*
X108794740Y-99994968D01*
X108961585Y-100012235D01*
X109036482Y-100048817D01*
X109047973Y-100085357D01*
X108964685Y-100297831D01*
X108735878Y-100538717D01*
X108379860Y-100793582D01*
X107914935Y-101047992D01*
X107701855Y-101146713D01*
X107352792Y-101310285D01*
X107030817Y-101477604D01*
X106766811Y-101630644D01*
X106591656Y-101751374D01*
X106536236Y-101821768D01*
X106538788Y-101825677D01*
X106647799Y-101833073D01*
X106870802Y-101788416D01*
X107165760Y-101705447D01*
X107490636Y-101597908D01*
X107803394Y-101479540D01*
X108061996Y-101364085D01*
X108204000Y-101281336D01*
X108480643Y-101057743D01*
X108731702Y-100818108D01*
X108916628Y-100603749D01*
X108988374Y-100482102D01*
X109058610Y-100416911D01*
X109091576Y-100431890D01*
X109125160Y-100555104D01*
X109091669Y-100731354D01*
X109015304Y-100880150D01*
X108943220Y-100925355D01*
X108826407Y-100982987D01*
X108647088Y-101126425D01*
X108546233Y-101222190D01*
X108170693Y-101500392D01*
X107630814Y-101746257D01*
X106928650Y-101958867D01*
X106855087Y-101976938D01*
X106527895Y-102074325D01*
X106138726Y-102216319D01*
X105803037Y-102358342D01*
X105518544Y-102479746D01*
X105295554Y-102556808D01*
X105175581Y-102575575D01*
X105168170Y-102571726D01*
X105182500Y-102491514D01*
X105295064Y-102387383D01*
X105448608Y-102302473D01*
X105558887Y-102277333D01*
X105637772Y-102217430D01*
X105624848Y-102118026D01*
X105635900Y-101960325D01*
X105703810Y-101909017D01*
X105817669Y-101814748D01*
X105833333Y-101762932D01*
X105773647Y-101698686D01*
X105727500Y-101706323D01*
X105455141Y-101802729D01*
X105309793Y-101831260D01*
X105262666Y-101790364D01*
X105283712Y-101682422D01*
X105304682Y-101550825D01*
X105249737Y-101552061D01*
X105185106Y-101661302D01*
X105158582Y-101837940D01*
X105171341Y-102009779D01*
X105224563Y-102104621D01*
X105240666Y-102108000D01*
X105322873Y-102172429D01*
X105325333Y-102192667D01*
X105272032Y-102274019D01*
X105155185Y-102261679D01*
X105039378Y-102172666D01*
X105003155Y-102107781D01*
X104961171Y-102043670D01*
X104894103Y-102058553D01*
X104781729Y-102169825D01*
X104603827Y-102394879D01*
X104486371Y-102552281D01*
X104271161Y-102856798D01*
X104090012Y-103137710D01*
X103972352Y-103348479D01*
X103950872Y-103399167D01*
X103872349Y-103565840D01*
X103802788Y-103632000D01*
X103714933Y-103568470D01*
X103591426Y-103414042D01*
X103581405Y-103399167D01*
X103321367Y-102975538D01*
X103130871Y-102575420D01*
X103000211Y-102159547D01*
X102919679Y-101688653D01*
X102879569Y-101123473D01*
X102870000Y-100521525D01*
X102863869Y-99996020D01*
X102846288Y-99584296D01*
X102818473Y-99304554D01*
X102781639Y-99174998D01*
X102779903Y-99173103D01*
X102729713Y-99038127D01*
X102712674Y-98808834D01*
X102716403Y-98720544D01*
X102743248Y-98496869D01*
X102812241Y-98371818D01*
X102970215Y-98290185D01*
X103124000Y-98240068D01*
X103358923Y-98188767D01*
X103714223Y-98137109D01*
X104141064Y-98091215D01*
X104576057Y-98058067D01*
X105081504Y-98019237D01*
X105465407Y-97971447D01*
X105709377Y-97917369D01*
X105780801Y-97883131D01*
X105917911Y-97720456D01*
X106054606Y-97488263D01*
X106150565Y-97261869D01*
X106172000Y-97152359D01*
X106223206Y-97029462D01*
X106335265Y-96916285D01*
X106445840Y-96868489D01*
X106476245Y-96880690D01*
X106476245Y-96880690D01*
G37*
X106476245Y-96880690D02*
X106478107Y-96981682D01*
X106435967Y-97083255D01*
X106345974Y-97261261D01*
X106231969Y-97505086D01*
X106205778Y-97563507D01*
X106086412Y-97790181D01*
X105941238Y-97954108D01*
X105740529Y-98067600D01*
X105454556Y-98142972D01*
X105053592Y-98192536D01*
X104614061Y-98222789D01*
X104003887Y-98267808D01*
X103545464Y-98328109D01*
X103221513Y-98408888D01*
X103014752Y-98515341D01*
X102907901Y-98652664D01*
X102885542Y-98742500D01*
X102894121Y-98910414D01*
X102949042Y-98975333D01*
X103031703Y-99042672D01*
X103039333Y-99087792D01*
X103117712Y-99168418D01*
X103328103Y-99251171D01*
X103633387Y-99329890D01*
X103996448Y-99398412D01*
X104380165Y-99450578D01*
X104747422Y-99480225D01*
X105061099Y-99481193D01*
X105255038Y-99455583D01*
X105442250Y-99368361D01*
X105670790Y-99210033D01*
X105750944Y-99142633D01*
X105986356Y-98934654D01*
X106270913Y-98686231D01*
X106439348Y-98540504D01*
X106671799Y-98314266D01*
X106858470Y-98086264D01*
X106936643Y-97952951D01*
X107028840Y-97781022D01*
X107110882Y-97705490D01*
X107113605Y-97705333D01*
X107171415Y-97715596D01*
X107176289Y-97774476D01*
X107122739Y-97924110D01*
X107067808Y-98056980D01*
X106935446Y-98269538D01*
X106719926Y-98516428D01*
X106541490Y-98681153D01*
X106302672Y-98881978D01*
X106101870Y-99055983D01*
X106004618Y-99144667D01*
X105714539Y-99405119D01*
X105467728Y-99558791D01*
X105202859Y-99632069D01*
X104858606Y-99651342D01*
X104827081Y-99651344D01*
X104428367Y-99630097D01*
X104002174Y-99576902D01*
X103759000Y-99529862D01*
X103411178Y-99465842D01*
X103206439Y-99471254D01*
X103166333Y-99493010D01*
X103123030Y-99618167D01*
X103089071Y-99873948D01*
X103065021Y-100221871D01*
X103051443Y-100623452D01*
X103048905Y-101040210D01*
X103057970Y-101433662D01*
X103079204Y-101765327D01*
X103113172Y-101996722D01*
X103128805Y-102048521D01*
X103243752Y-102325945D01*
X103377787Y-102628177D01*
X103509711Y-102909931D01*
X103618323Y-103125922D01*
X103682248Y-103230693D01*
X103751640Y-103195308D01*
X103882766Y-103065053D01*
X104039586Y-102883313D01*
X104186062Y-102693470D01*
X104286154Y-102538909D01*
X104309333Y-102475821D01*
X104358826Y-102385608D01*
X104486304Y-102210408D01*
X104605666Y-102060137D01*
X104806824Y-101800724D01*
X104888385Y-101658397D01*
X104850923Y-101630943D01*
X104695012Y-101716148D01*
X104694748Y-101716321D01*
X104532388Y-101790110D01*
X104439188Y-101773953D01*
X104480094Y-101692797D01*
X104633360Y-101553529D01*
X104866382Y-101385551D01*
X104879273Y-101377101D01*
X105059477Y-101255821D01*
X105684758Y-101255821D01*
X105696339Y-101261333D01*
X105751217Y-101219000D01*
X106849333Y-101219000D01*
X106891666Y-101261333D01*
X106934000Y-101219000D01*
X106891666Y-101176667D01*
X106849333Y-101219000D01*
X105751217Y-101219000D01*
X105773605Y-101201730D01*
X105791000Y-101176667D01*
X105812574Y-101097512D01*
X105800993Y-101092000D01*
X105723728Y-101151603D01*
X105706333Y-101176667D01*
X105684758Y-101255821D01*
X105059477Y-101255821D01*
X105172857Y-101179515D01*
X105434719Y-100993640D01*
X107217633Y-100993640D01*
X107283953Y-100986070D01*
X107487338Y-100904758D01*
X107669330Y-100821747D01*
X107874002Y-100713807D01*
X107979798Y-100633901D01*
X107978014Y-100607449D01*
X107860320Y-100629938D01*
X107655079Y-100719073D01*
X107518773Y-100792016D01*
X107294023Y-100928584D01*
X107217633Y-100993640D01*
X105434719Y-100993640D01*
X105446036Y-100985607D01*
X105614300Y-100857394D01*
X105657740Y-100827731D01*
X106104606Y-100827731D01*
X106205128Y-100807404D01*
X106439063Y-100730771D01*
X106623821Y-100666381D01*
X106895097Y-100583461D01*
X107105395Y-100541823D01*
X107196095Y-100546670D01*
X107324037Y-100544513D01*
X107396082Y-100502307D01*
X107534708Y-100447535D01*
X107788460Y-100395251D01*
X108103345Y-100356483D01*
X108114775Y-100355509D01*
X108497911Y-100311662D01*
X108715963Y-100263463D01*
X108772761Y-100218481D01*
X108672135Y-100184288D01*
X108417914Y-100168451D01*
X108024955Y-100177959D01*
X107349590Y-100253499D01*
X106790582Y-100409573D01*
X106309766Y-100657463D01*
X106237672Y-100706308D01*
X106120965Y-100793463D01*
X106104606Y-100827731D01*
X105657740Y-100827731D01*
X105810553Y-100723384D01*
X106103267Y-100553378D01*
X106434430Y-100380754D01*
X106487863Y-100354759D01*
X106779268Y-100220572D01*
X107022603Y-100130667D01*
X107269573Y-100073883D01*
X107571881Y-100039055D01*
X107981232Y-100015021D01*
X108082729Y-100010429D01*
X108510328Y-99995029D01*
X108794740Y-99994968D01*
X108961585Y-100012235D01*
X109036482Y-100048817D01*
X109047973Y-100085357D01*
X108964685Y-100297831D01*
X108735878Y-100538717D01*
X108379860Y-100793582D01*
X107914935Y-101047992D01*
X107701855Y-101146713D01*
X107352792Y-101310285D01*
X107030817Y-101477604D01*
X106766811Y-101630644D01*
X106591656Y-101751374D01*
X106536236Y-101821768D01*
X106538788Y-101825677D01*
X106647799Y-101833073D01*
X106870802Y-101788416D01*
X107165760Y-101705447D01*
X107490636Y-101597908D01*
X107803394Y-101479540D01*
X108061996Y-101364085D01*
X108204000Y-101281336D01*
X108480643Y-101057743D01*
X108731702Y-100818108D01*
X108916628Y-100603749D01*
X108988374Y-100482102D01*
X109058610Y-100416911D01*
X109091576Y-100431890D01*
X109125160Y-100555104D01*
X109091669Y-100731354D01*
X109015304Y-100880150D01*
X108943220Y-100925355D01*
X108826407Y-100982987D01*
X108647088Y-101126425D01*
X108546233Y-101222190D01*
X108170693Y-101500392D01*
X107630814Y-101746257D01*
X106928650Y-101958867D01*
X106855087Y-101976938D01*
X106527895Y-102074325D01*
X106138726Y-102216319D01*
X105803037Y-102358342D01*
X105518544Y-102479746D01*
X105295554Y-102556808D01*
X105175581Y-102575575D01*
X105168170Y-102571726D01*
X105182500Y-102491514D01*
X105295064Y-102387383D01*
X105448608Y-102302473D01*
X105558887Y-102277333D01*
X105637772Y-102217430D01*
X105624848Y-102118026D01*
X105635900Y-101960325D01*
X105703810Y-101909017D01*
X105817669Y-101814748D01*
X105833333Y-101762932D01*
X105773647Y-101698686D01*
X105727500Y-101706323D01*
X105455141Y-101802729D01*
X105309793Y-101831260D01*
X105262666Y-101790364D01*
X105283712Y-101682422D01*
X105304682Y-101550825D01*
X105249737Y-101552061D01*
X105185106Y-101661302D01*
X105158582Y-101837940D01*
X105171341Y-102009779D01*
X105224563Y-102104621D01*
X105240666Y-102108000D01*
X105322873Y-102172429D01*
X105325333Y-102192667D01*
X105272032Y-102274019D01*
X105155185Y-102261679D01*
X105039378Y-102172666D01*
X105003155Y-102107781D01*
X104961171Y-102043670D01*
X104894103Y-102058553D01*
X104781729Y-102169825D01*
X104603827Y-102394879D01*
X104486371Y-102552281D01*
X104271161Y-102856798D01*
X104090012Y-103137710D01*
X103972352Y-103348479D01*
X103950872Y-103399167D01*
X103872349Y-103565840D01*
X103802788Y-103632000D01*
X103714933Y-103568470D01*
X103591426Y-103414042D01*
X103581405Y-103399167D01*
X103321367Y-102975538D01*
X103130871Y-102575420D01*
X103000211Y-102159547D01*
X102919679Y-101688653D01*
X102879569Y-101123473D01*
X102870000Y-100521525D01*
X102863869Y-99996020D01*
X102846288Y-99584296D01*
X102818473Y-99304554D01*
X102781639Y-99174998D01*
X102779903Y-99173103D01*
X102729713Y-99038127D01*
X102712674Y-98808834D01*
X102716403Y-98720544D01*
X102743248Y-98496869D01*
X102812241Y-98371818D01*
X102970215Y-98290185D01*
X103124000Y-98240068D01*
X103358923Y-98188767D01*
X103714223Y-98137109D01*
X104141064Y-98091215D01*
X104576057Y-98058067D01*
X105081504Y-98019237D01*
X105465407Y-97971447D01*
X105709377Y-97917369D01*
X105780801Y-97883131D01*
X105917911Y-97720456D01*
X106054606Y-97488263D01*
X106150565Y-97261869D01*
X106172000Y-97152359D01*
X106223206Y-97029462D01*
X106335265Y-96916285D01*
X106445840Y-96868489D01*
X106476245Y-96880690D01*
G36*
X120103878Y-93702724D02*
G01*
X120130764Y-93899942D01*
X120120732Y-94128167D01*
X120069211Y-94547436D01*
X119976474Y-95058484D01*
X119856205Y-95601235D01*
X119722087Y-96115616D01*
X119587804Y-96541555D01*
X119545725Y-96652619D01*
X119454988Y-96921821D01*
X119406267Y-97201962D01*
X119392116Y-97552641D01*
X119397643Y-97837952D01*
X119422333Y-98594333D01*
X119835985Y-98674169D01*
X120089292Y-98715043D01*
X120243426Y-98701147D01*
X120364211Y-98615786D01*
X120452892Y-98517708D01*
X120596305Y-98283766D01*
X120605034Y-98120373D01*
X120600499Y-97990339D01*
X120644294Y-97959333D01*
X120724436Y-97890848D01*
X120734666Y-97832333D01*
X120780384Y-97719661D01*
X120819333Y-97705333D01*
X120894447Y-97773910D01*
X120904000Y-97832333D01*
X120956871Y-97918349D01*
X121134408Y-97955984D01*
X121263833Y-97959817D01*
X121623666Y-97960300D01*
X121771833Y-98578356D01*
X121822552Y-98862086D01*
X121864031Y-99232402D01*
X121895605Y-99657759D01*
X121916613Y-100106613D01*
X121926390Y-100547420D01*
X121924275Y-100948634D01*
X121909604Y-101278711D01*
X121881714Y-101506106D01*
X121839943Y-101599276D01*
X121835333Y-101600000D01*
X121798012Y-101681288D01*
X121770445Y-101912029D01*
X121754294Y-102272532D01*
X121750666Y-102602878D01*
X121747106Y-103044444D01*
X121733695Y-103348185D01*
X121706335Y-103545507D01*
X121660929Y-103667821D01*
X121602500Y-103738612D01*
X121445010Y-103806398D01*
X121129265Y-103874884D01*
X120666330Y-103942640D01*
X120067270Y-104008236D01*
X119343149Y-104070240D01*
X118681500Y-104116281D01*
X118025333Y-104157930D01*
X118025333Y-105494667D01*
X117019708Y-105494667D01*
X116962574Y-105875667D01*
X116911799Y-106102522D01*
X116848935Y-106238905D01*
X116820773Y-106256667D01*
X116776862Y-106179263D01*
X116778728Y-105964543D01*
X116791546Y-105854500D01*
X116815196Y-105622245D01*
X116799050Y-105543858D01*
X116760122Y-105579333D01*
X116687977Y-105766902D01*
X116671963Y-105896833D01*
X116616133Y-106041002D01*
X116445023Y-106087378D01*
X116149253Y-106036741D01*
X115908666Y-105960333D01*
X115614766Y-105865876D01*
X115440029Y-105854552D01*
X115346310Y-105946822D01*
X115295462Y-106163150D01*
X115277329Y-106299000D01*
X115231934Y-106553704D01*
X115175783Y-106722845D01*
X115136370Y-106764667D01*
X115096432Y-106685874D01*
X115093009Y-106465542D01*
X115111065Y-106256667D01*
X115130712Y-105935409D01*
X115106605Y-105774664D01*
X115050188Y-105776727D01*
X114972905Y-105943894D01*
X114900067Y-106214333D01*
X114828926Y-106467663D01*
X114753754Y-106636791D01*
X114706678Y-106680000D01*
X114656748Y-106606512D01*
X114679379Y-106404833D01*
X114737229Y-106148138D01*
X114784500Y-105939167D01*
X114795267Y-105818355D01*
X114726868Y-105763390D01*
X114538689Y-105748929D01*
X114479203Y-105748667D01*
X114263413Y-105739525D01*
X114141077Y-105716618D01*
X114130666Y-105706371D01*
X114144165Y-105609765D01*
X114158603Y-105520377D01*
X114352499Y-105520377D01*
X114435187Y-105567113D01*
X114625426Y-105572649D01*
X114779606Y-105559091D01*
X115098721Y-105559091D01*
X115181944Y-105572649D01*
X115191523Y-105571291D01*
X115532637Y-105571291D01*
X115575272Y-105641231D01*
X115737506Y-105730622D01*
X115845140Y-105772282D01*
X116206125Y-105879378D01*
X116425757Y-105902742D01*
X116501310Y-105842092D01*
X116501333Y-105840258D01*
X116529261Y-105698368D01*
X116552725Y-105628591D01*
X116556710Y-105553824D01*
X116474458Y-105512939D01*
X116273819Y-105496590D01*
X116092055Y-105494667D01*
X115813225Y-105506409D01*
X115608717Y-105536899D01*
X115532637Y-105571291D01*
X115191523Y-105571291D01*
X115291758Y-105557082D01*
X115293069Y-105528180D01*
X115179752Y-105507969D01*
X115130791Y-105521496D01*
X115098721Y-105559091D01*
X114779606Y-105559091D01*
X114791331Y-105558060D01*
X114828423Y-105529775D01*
X114808000Y-105519268D01*
X114638444Y-105425397D01*
X114543593Y-105353234D01*
X114432269Y-105282664D01*
X114375474Y-105356011D01*
X114361019Y-105406615D01*
X114352499Y-105520377D01*
X114158603Y-105520377D01*
X114180395Y-105385460D01*
X114201160Y-105261833D01*
X114980026Y-105261833D01*
X115052890Y-105300465D01*
X115236992Y-105316800D01*
X115294833Y-105316200D01*
X115482734Y-105292675D01*
X115521815Y-105274286D01*
X116107255Y-105274286D01*
X116128314Y-105311703D01*
X116290733Y-105321966D01*
X116353166Y-105322640D01*
X116562329Y-105311318D01*
X116651865Y-105250754D01*
X116670666Y-105110688D01*
X116662461Y-105060533D01*
X116843314Y-105060533D01*
X116846628Y-105367667D01*
X116901765Y-105240667D01*
X117094000Y-105240667D01*
X117124978Y-105310357D01*
X117150444Y-105297111D01*
X117160577Y-105196631D01*
X117150444Y-105184222D01*
X117100110Y-105195844D01*
X117094000Y-105240667D01*
X116901765Y-105240667D01*
X116970314Y-105082779D01*
X117015266Y-104961213D01*
X117348000Y-104961213D01*
X117356298Y-105188769D01*
X117403026Y-105294032D01*
X117520931Y-105323946D01*
X117602000Y-105325333D01*
X117856000Y-105325333D01*
X117856000Y-104732667D01*
X117850335Y-104418246D01*
X117827522Y-104238073D01*
X117778832Y-104157268D01*
X117707833Y-104140660D01*
X117555288Y-104219578D01*
X117434636Y-104430455D01*
X117361942Y-104736658D01*
X117348000Y-104961213D01*
X117015266Y-104961213D01*
X117053440Y-104857982D01*
X117093379Y-104684460D01*
X117094000Y-104670246D01*
X117070945Y-104588382D01*
X116976267Y-104640377D01*
X116967000Y-104648000D01*
X116880044Y-104803548D01*
X116843329Y-105041578D01*
X116843314Y-105060533D01*
X116662461Y-105060533D01*
X116649418Y-104980807D01*
X116570150Y-104955859D01*
X116409573Y-105039783D01*
X116205000Y-105189437D01*
X116107255Y-105274286D01*
X115521815Y-105274286D01*
X115647304Y-105215239D01*
X115833897Y-105055079D01*
X115870887Y-105015949D01*
X116130383Y-105015949D01*
X116175473Y-105000319D01*
X116297186Y-104919687D01*
X116503329Y-104763284D01*
X116658367Y-104619960D01*
X116669084Y-104607573D01*
X116742385Y-104483817D01*
X116740730Y-104435841D01*
X116667057Y-104470593D01*
X116516299Y-104600483D01*
X116368831Y-104747956D01*
X116193060Y-104936085D01*
X116130383Y-105015949D01*
X115870887Y-105015949D01*
X116026442Y-104851400D01*
X116440552Y-104395732D01*
X115984109Y-104647332D01*
X115714477Y-104782378D01*
X115483857Y-104874312D01*
X115367667Y-104900466D01*
X115196391Y-104966775D01*
X115041939Y-105115581D01*
X114980026Y-105261833D01*
X114201160Y-105261833D01*
X114232952Y-105072563D01*
X114265783Y-104881022D01*
X114558747Y-104881022D01*
X114577950Y-105090467D01*
X114610444Y-105184222D01*
X114717153Y-105235785D01*
X114814398Y-105145450D01*
X114896446Y-104965500D01*
X114964220Y-104751956D01*
X114988379Y-104601093D01*
X114987636Y-104593002D01*
X114990018Y-104588863D01*
X115621253Y-104588863D01*
X115656346Y-104588693D01*
X115801710Y-104521873D01*
X115824000Y-104511123D01*
X116093914Y-104367070D01*
X116226165Y-104287734D01*
X116924666Y-104287734D01*
X116947778Y-104369062D01*
X117042616Y-104316779D01*
X117051666Y-104309333D01*
X117159530Y-104159646D01*
X117178666Y-104076933D01*
X117155555Y-103995604D01*
X117060717Y-104047887D01*
X117051666Y-104055333D01*
X116943802Y-104205021D01*
X116924666Y-104287734D01*
X116226165Y-104287734D01*
X116383777Y-104193185D01*
X116437833Y-104158109D01*
X116678969Y-103949094D01*
X116706939Y-103877730D01*
X117523540Y-103877730D01*
X117582138Y-103957497D01*
X117686666Y-103970667D01*
X117828170Y-103910798D01*
X117843222Y-103851593D01*
X118025333Y-103851593D01*
X118102529Y-103915647D01*
X118307490Y-103955164D01*
X118600275Y-103969021D01*
X118940940Y-103956097D01*
X119289544Y-103915268D01*
X119422333Y-103890857D01*
X119587736Y-103847175D01*
X119613733Y-103817476D01*
X119570500Y-103811070D01*
X119421577Y-103777870D01*
X119380000Y-103733675D01*
X119306791Y-103655207D01*
X119130568Y-103576810D01*
X119021760Y-103547333D01*
X119464666Y-103547333D01*
X119539483Y-103595719D01*
X119727274Y-103622620D01*
X119973048Y-103628037D01*
X120221813Y-103611969D01*
X120418578Y-103574417D01*
X120480666Y-103547333D01*
X120495552Y-103501362D01*
X120360942Y-103474189D01*
X120067637Y-103464087D01*
X120036166Y-103463963D01*
X119739485Y-103474860D01*
X119536115Y-103505278D01*
X119464666Y-103547333D01*
X119021760Y-103547333D01*
X118916436Y-103518800D01*
X118729500Y-103501491D01*
X118671251Y-103512526D01*
X118579571Y-103532185D01*
X118544168Y-103483500D01*
X118567356Y-103342020D01*
X118596939Y-103251000D01*
X118872000Y-103251000D01*
X118914333Y-103293333D01*
X119539735Y-103293333D01*
X120127326Y-103293333D01*
X120467216Y-103282247D01*
X120672229Y-103228836D01*
X120776390Y-103102867D01*
X120813722Y-102874111D01*
X120818177Y-102679500D01*
X120849267Y-102510561D01*
X120915793Y-102446667D01*
X120971632Y-102517540D01*
X120975293Y-102736535D01*
X120962115Y-102870000D01*
X120939215Y-103121195D01*
X120955738Y-103247260D01*
X121023076Y-103290066D01*
X121077322Y-103293333D01*
X121212722Y-103329554D01*
X121242666Y-103378000D01*
X121170210Y-103441646D01*
X121031000Y-103462667D01*
X120813335Y-103521510D01*
X120646637Y-103635362D01*
X120473942Y-103808057D01*
X120921804Y-103751096D01*
X121195628Y-103703689D01*
X121406295Y-103644710D01*
X121475500Y-103610367D01*
X121529708Y-103491713D01*
X121564150Y-103230588D01*
X121579966Y-102816151D01*
X121581333Y-102605633D01*
X121581333Y-101684667D01*
X121327333Y-101684667D01*
X121129048Y-101720999D01*
X121073333Y-101805619D01*
X121017593Y-101965270D01*
X120959529Y-102040375D01*
X120869499Y-102182309D01*
X120762070Y-102422768D01*
X120698725Y-102596756D01*
X120595284Y-102856190D01*
X120499419Y-103010334D01*
X120427593Y-103041880D01*
X120396271Y-102933520D01*
X120396000Y-102914990D01*
X120341836Y-102830271D01*
X120257015Y-102843981D01*
X120171446Y-102855417D01*
X120147055Y-102773769D01*
X120172359Y-102566157D01*
X120185017Y-102489000D01*
X120405133Y-102489000D01*
X120408882Y-102743000D01*
X120523000Y-102446667D01*
X120600594Y-102218300D01*
X120641992Y-102044862D01*
X120643558Y-102028318D01*
X120618456Y-101975169D01*
X120525692Y-102070651D01*
X120434636Y-102276998D01*
X120405133Y-102489000D01*
X120185017Y-102489000D01*
X120226689Y-102235000D01*
X120078511Y-102439443D01*
X119938515Y-102645426D01*
X119775109Y-102902751D01*
X119735034Y-102968610D01*
X119539735Y-103293333D01*
X118914333Y-103293333D01*
X118956666Y-103251000D01*
X118914333Y-103208667D01*
X118872000Y-103251000D01*
X118596939Y-103251000D01*
X118651447Y-103083300D01*
X118685419Y-102989944D01*
X119217350Y-102989944D01*
X119232917Y-103099758D01*
X119261819Y-103101069D01*
X119282030Y-102987752D01*
X119268503Y-102938792D01*
X119230908Y-102906721D01*
X119217350Y-102989944D01*
X118685419Y-102989944D01*
X118733101Y-102858914D01*
X118817196Y-102616000D01*
X119385385Y-102616000D01*
X119408279Y-102680685D01*
X119432137Y-102658333D01*
X119634000Y-102658333D01*
X119676333Y-102700667D01*
X119718666Y-102658333D01*
X119676333Y-102616000D01*
X119634000Y-102658333D01*
X119432137Y-102658333D01*
X119490136Y-102603997D01*
X119509692Y-102578651D01*
X119541412Y-102520740D01*
X119759551Y-102520740D01*
X119761511Y-102531333D01*
X119814956Y-102467572D01*
X119929297Y-102305315D01*
X120004950Y-102192667D01*
X120132303Y-101989480D01*
X120167265Y-101888712D01*
X120117079Y-101855856D01*
X120076026Y-101854000D01*
X119948333Y-101920805D01*
X119849334Y-102133878D01*
X119832587Y-102192667D01*
X119780960Y-102401606D01*
X119759551Y-102520740D01*
X119541412Y-102520740D01*
X119608006Y-102399160D01*
X119634000Y-102287302D01*
X119611105Y-102222617D01*
X119529248Y-102299305D01*
X119509692Y-102324651D01*
X119411379Y-102504142D01*
X119385385Y-102616000D01*
X118817196Y-102616000D01*
X118893125Y-102396675D01*
X118978617Y-102068827D01*
X118989756Y-101896333D01*
X119549333Y-101896333D01*
X119591666Y-101938667D01*
X119634000Y-101896333D01*
X119591666Y-101854000D01*
X119549333Y-101896333D01*
X118989756Y-101896333D01*
X118992167Y-101859007D01*
X118936367Y-101750853D01*
X118910684Y-101737315D01*
X118803911Y-101737414D01*
X118787333Y-101771990D01*
X118716808Y-101839841D01*
X118627058Y-101854000D01*
X118518953Y-101874514D01*
X118444658Y-101953082D01*
X118398161Y-102115242D01*
X118373450Y-102386531D01*
X118364513Y-102792488D01*
X118364000Y-102971466D01*
X118362068Y-103356132D01*
X118352207Y-103600476D01*
X118328320Y-103733501D01*
X118284307Y-103784210D01*
X118214072Y-103781604D01*
X118194666Y-103776801D01*
X118053210Y-103783571D01*
X118025333Y-103851593D01*
X117843222Y-103851593D01*
X117856000Y-103801333D01*
X117818093Y-103653930D01*
X117710476Y-103658989D01*
X117618933Y-103733600D01*
X117523540Y-103877730D01*
X116706939Y-103877730D01*
X116755333Y-103754262D01*
X116755333Y-103560359D01*
X116522153Y-103786679D01*
X116321215Y-103972955D01*
X116062365Y-104201805D01*
X115908319Y-104333596D01*
X115703042Y-104508468D01*
X115621253Y-104588863D01*
X114990018Y-104588863D01*
X115043689Y-104495608D01*
X115203429Y-104339444D01*
X115398907Y-104183624D01*
X115620187Y-104017151D01*
X115773933Y-103893763D01*
X115824000Y-103844125D01*
X115753160Y-103845992D01*
X115571487Y-103894842D01*
X115325248Y-103974473D01*
X115060712Y-104068678D01*
X114824147Y-104161254D01*
X114661821Y-104235997D01*
X114618796Y-104266218D01*
X114579785Y-104401228D01*
X114559564Y-104628719D01*
X114558747Y-104881022D01*
X114265783Y-104881022D01*
X114265809Y-104880871D01*
X114343512Y-104474392D01*
X114418402Y-104208350D01*
X114504746Y-104054709D01*
X114616816Y-103985438D01*
X114728446Y-103971963D01*
X114899605Y-103936365D01*
X115172505Y-103844931D01*
X115497479Y-103717649D01*
X115824861Y-103574507D01*
X116104981Y-103435492D01*
X116206170Y-103377276D01*
X116409659Y-103275499D01*
X116559283Y-103242837D01*
X116584455Y-103250046D01*
X116658221Y-103231745D01*
X116670666Y-103171330D01*
X116696092Y-103043389D01*
X116756093Y-103050677D01*
X116826252Y-103169700D01*
X116881732Y-103374445D01*
X116925917Y-103583103D01*
X116981161Y-103655197D01*
X117077225Y-103622462D01*
X117100841Y-103608078D01*
X117159715Y-103547333D01*
X117432666Y-103547333D01*
X117463644Y-103617023D01*
X117489111Y-103603778D01*
X117499244Y-103503298D01*
X117489111Y-103490889D01*
X117438776Y-103502511D01*
X117432666Y-103547333D01*
X117159715Y-103547333D01*
X117241368Y-103463087D01*
X117236393Y-103323285D01*
X117094000Y-103233199D01*
X116970197Y-103134445D01*
X116925896Y-102916541D01*
X116935898Y-102816438D01*
X117121661Y-102816438D01*
X117127565Y-102970785D01*
X117169360Y-103057503D01*
X117176807Y-103064991D01*
X117276123Y-103122448D01*
X117323305Y-103060500D01*
X117414046Y-102962176D01*
X117448780Y-102954667D01*
X117499493Y-103016488D01*
X117486971Y-103080999D01*
X117520364Y-103214755D01*
X117689580Y-103337173D01*
X117861014Y-103403665D01*
X117939597Y-103388127D01*
X117940666Y-103380174D01*
X117983163Y-103295358D01*
X118066338Y-103319557D01*
X118123717Y-103430665D01*
X118125088Y-103441500D01*
X118135993Y-103428516D01*
X118153269Y-103274631D01*
X118174189Y-103008035D01*
X118188588Y-102785333D01*
X118216541Y-102424515D01*
X118251424Y-102122946D01*
X118287654Y-101924074D01*
X118305496Y-101875167D01*
X118312219Y-101785257D01*
X118241996Y-101769333D01*
X118126060Y-101731740D01*
X118110000Y-101697510D01*
X118042497Y-101636780D01*
X117878949Y-101546297D01*
X117677793Y-101452841D01*
X117497465Y-101383194D01*
X117396404Y-101364138D01*
X117391180Y-101368077D01*
X117370963Y-101454317D01*
X117326042Y-101669370D01*
X117264133Y-101975852D01*
X117224426Y-102175991D01*
X117153373Y-102562245D01*
X117121661Y-102816438D01*
X116935898Y-102816438D01*
X116960665Y-102568595D01*
X117051666Y-102163991D01*
X117125432Y-101794986D01*
X117171246Y-101400630D01*
X117178666Y-101218167D01*
X117203096Y-100880535D01*
X117282969Y-100666353D01*
X117330534Y-100608465D01*
X117434006Y-100458783D01*
X117573036Y-100197698D01*
X117727802Y-99870518D01*
X117878486Y-99522554D01*
X118005264Y-99199116D01*
X118088317Y-98945514D01*
X118110000Y-98826629D01*
X118166323Y-98693818D01*
X118302543Y-98539248D01*
X118469532Y-98404297D01*
X118618161Y-98330348D01*
X118688000Y-98339778D01*
X118666247Y-98420900D01*
X118538793Y-98545784D01*
X118512011Y-98565962D01*
X118349866Y-98735289D01*
X118278241Y-98912059D01*
X118278040Y-98918895D01*
X118243320Y-99065681D01*
X118149896Y-99327386D01*
X118012254Y-99666228D01*
X117854707Y-100023038D01*
X117689940Y-100390862D01*
X117555284Y-100707416D01*
X117464834Y-100938442D01*
X117432666Y-101048702D01*
X117505013Y-101137681D01*
X117688953Y-101245729D01*
X117813666Y-101299166D01*
X118035921Y-101398728D01*
X118173210Y-101488505D01*
X118194666Y-101522336D01*
X118245332Y-101600490D01*
X118355463Y-101582076D01*
X118462264Y-101487683D01*
X118463471Y-101485198D01*
X118905995Y-101485198D01*
X118926887Y-101535646D01*
X118988669Y-101553199D01*
X119016516Y-101499267D01*
X119636381Y-101499267D01*
X119690449Y-101600527D01*
X119867766Y-101650746D01*
X120098014Y-101667720D01*
X120365902Y-101673709D01*
X120518091Y-101645581D01*
X120608022Y-101557324D01*
X120689136Y-101382924D01*
X120690681Y-101379228D01*
X120759392Y-101128368D01*
X120801582Y-100757430D01*
X120819374Y-100245231D01*
X120820265Y-100086827D01*
X120830088Y-99440035D01*
X120858364Y-98959194D01*
X120905375Y-98641902D01*
X120971401Y-98485753D01*
X121010180Y-98467333D01*
X121045348Y-98549418D01*
X121064308Y-98786788D01*
X121066446Y-99166113D01*
X121057765Y-99504500D01*
X121021327Y-100541667D01*
X121148707Y-100054833D01*
X121237875Y-99768340D01*
X121318304Y-99604197D01*
X121379038Y-99574803D01*
X121409120Y-99692559D01*
X121410529Y-99758500D01*
X121390966Y-99943281D01*
X121340293Y-100243765D01*
X121267974Y-100611251D01*
X121183472Y-100997042D01*
X121114385Y-101282500D01*
X121088855Y-101445163D01*
X121156921Y-101506521D01*
X121312194Y-101515333D01*
X121569413Y-101515333D01*
X121596540Y-100181833D01*
X121601561Y-99692166D01*
X121597285Y-99233686D01*
X121584727Y-98846153D01*
X121564902Y-98569327D01*
X121553309Y-98488500D01*
X121500087Y-98263943D01*
X121423304Y-98159970D01*
X121271131Y-98130209D01*
X121151143Y-98128667D01*
X120912959Y-98152810D01*
X120821470Y-98229158D01*
X120819333Y-98249170D01*
X120768071Y-98388500D01*
X120641414Y-98579577D01*
X120607666Y-98621226D01*
X120455511Y-98866237D01*
X120398624Y-99160786D01*
X120396000Y-99267668D01*
X120385316Y-99532377D01*
X120356789Y-99900744D01*
X120315708Y-100308682D01*
X120296841Y-100469429D01*
X120197683Y-101276299D01*
X119961423Y-101241623D01*
X119755083Y-101254038D01*
X119679581Y-101325732D01*
X119636381Y-101499267D01*
X119016516Y-101499267D01*
X119047565Y-101439134D01*
X119091624Y-101230922D01*
X119108894Y-100966036D01*
X119108893Y-100965000D01*
X119108666Y-100711000D01*
X119046177Y-100972390D01*
X118983301Y-101188452D01*
X118922847Y-101332224D01*
X118905995Y-101485198D01*
X118463471Y-101485198D01*
X118492943Y-101424543D01*
X118583998Y-101298818D01*
X118667119Y-101294555D01*
X118776300Y-101261311D01*
X118837702Y-101110178D01*
X118889401Y-100907736D01*
X118967617Y-100626333D01*
X119126000Y-100626333D01*
X119168333Y-100668667D01*
X119210666Y-100626333D01*
X119168333Y-100584000D01*
X119126000Y-100626333D01*
X118967617Y-100626333D01*
X118971308Y-100613054D01*
X119016156Y-100459166D01*
X119847433Y-100459166D01*
X119858934Y-100755652D01*
X119888383Y-100950622D01*
X119910902Y-100996765D01*
X119975762Y-101020762D01*
X120031093Y-100941019D01*
X120080035Y-100742753D01*
X120125728Y-100411184D01*
X120171308Y-99931529D01*
X120191826Y-99673833D01*
X120214143Y-99258673D01*
X120203263Y-99000239D01*
X120156314Y-98888661D01*
X120070420Y-98914069D01*
X119994599Y-98996500D01*
X119944023Y-99139493D01*
X119902174Y-99401328D01*
X119870897Y-99737933D01*
X119852035Y-100105236D01*
X119847433Y-100459166D01*
X119016156Y-100459166D01*
X119050231Y-100342248D01*
X119133228Y-100043194D01*
X119191193Y-99794807D01*
X119195801Y-99763296D01*
X119406523Y-99763296D01*
X119447292Y-99802097D01*
X119524015Y-99902583D01*
X119549333Y-100054833D01*
X119559974Y-100224018D01*
X119587334Y-100247341D01*
X119624570Y-100146626D01*
X119664836Y-99943698D01*
X119701288Y-99660381D01*
X119712976Y-99533029D01*
X119730346Y-99238039D01*
X119729661Y-99027772D01*
X119711378Y-98940411D01*
X119705850Y-98940921D01*
X119644102Y-99034982D01*
X119551727Y-99234584D01*
X119496293Y-99372584D01*
X119412372Y-99627897D01*
X119406523Y-99763296D01*
X119195801Y-99763296D01*
X119210666Y-99661650D01*
X119247644Y-99500074D01*
X119340075Y-99269061D01*
X119378231Y-99190468D01*
X119478687Y-98983627D01*
X119501937Y-98870847D01*
X119447981Y-98795481D01*
X119378231Y-98744432D01*
X119299756Y-98670693D01*
X119250349Y-98558823D01*
X119223676Y-98372962D01*
X119213403Y-98077251D01*
X119212526Y-97806366D01*
X119226005Y-97325279D01*
X119267533Y-96970908D01*
X119342534Y-96702154D01*
X119365593Y-96647000D01*
X119469406Y-96368396D01*
X119572660Y-96018890D01*
X119625280Y-95800333D01*
X119711363Y-95412811D01*
X119810520Y-94988260D01*
X119861279Y-94779789D01*
X119925137Y-94473944D01*
X119959507Y-94208419D01*
X119959566Y-94072248D01*
X119930333Y-93877253D01*
X119705522Y-94086482D01*
X119429725Y-94324094D01*
X119180348Y-94504988D01*
X118989138Y-94608632D01*
X118888291Y-94614981D01*
X118907556Y-94532022D01*
X119035702Y-94416945D01*
X119038245Y-94415245D01*
X119222089Y-94276354D01*
X119458758Y-94076795D01*
X119588578Y-93959889D01*
X119848189Y-93737568D01*
X120014821Y-93650223D01*
X120103878Y-93702724D01*
X120103878Y-93702724D01*
G37*
X120103878Y-93702724D02*
X120130764Y-93899942D01*
X120120732Y-94128167D01*
X120069211Y-94547436D01*
X119976474Y-95058484D01*
X119856205Y-95601235D01*
X119722087Y-96115616D01*
X119587804Y-96541555D01*
X119545725Y-96652619D01*
X119454988Y-96921821D01*
X119406267Y-97201962D01*
X119392116Y-97552641D01*
X119397643Y-97837952D01*
X119422333Y-98594333D01*
X119835985Y-98674169D01*
X120089292Y-98715043D01*
X120243426Y-98701147D01*
X120364211Y-98615786D01*
X120452892Y-98517708D01*
X120596305Y-98283766D01*
X120605034Y-98120373D01*
X120600499Y-97990339D01*
X120644294Y-97959333D01*
X120724436Y-97890848D01*
X120734666Y-97832333D01*
X120780384Y-97719661D01*
X120819333Y-97705333D01*
X120894447Y-97773910D01*
X120904000Y-97832333D01*
X120956871Y-97918349D01*
X121134408Y-97955984D01*
X121263833Y-97959817D01*
X121623666Y-97960300D01*
X121771833Y-98578356D01*
X121822552Y-98862086D01*
X121864031Y-99232402D01*
X121895605Y-99657759D01*
X121916613Y-100106613D01*
X121926390Y-100547420D01*
X121924275Y-100948634D01*
X121909604Y-101278711D01*
X121881714Y-101506106D01*
X121839943Y-101599276D01*
X121835333Y-101600000D01*
X121798012Y-101681288D01*
X121770445Y-101912029D01*
X121754294Y-102272532D01*
X121750666Y-102602878D01*
X121747106Y-103044444D01*
X121733695Y-103348185D01*
X121706335Y-103545507D01*
X121660929Y-103667821D01*
X121602500Y-103738612D01*
X121445010Y-103806398D01*
X121129265Y-103874884D01*
X120666330Y-103942640D01*
X120067270Y-104008236D01*
X119343149Y-104070240D01*
X118681500Y-104116281D01*
X118025333Y-104157930D01*
X118025333Y-105494667D01*
X117019708Y-105494667D01*
X116962574Y-105875667D01*
X116911799Y-106102522D01*
X116848935Y-106238905D01*
X116820773Y-106256667D01*
X116776862Y-106179263D01*
X116778728Y-105964543D01*
X116791546Y-105854500D01*
X116815196Y-105622245D01*
X116799050Y-105543858D01*
X116760122Y-105579333D01*
X116687977Y-105766902D01*
X116671963Y-105896833D01*
X116616133Y-106041002D01*
X116445023Y-106087378D01*
X116149253Y-106036741D01*
X115908666Y-105960333D01*
X115614766Y-105865876D01*
X115440029Y-105854552D01*
X115346310Y-105946822D01*
X115295462Y-106163150D01*
X115277329Y-106299000D01*
X115231934Y-106553704D01*
X115175783Y-106722845D01*
X115136370Y-106764667D01*
X115096432Y-106685874D01*
X115093009Y-106465542D01*
X115111065Y-106256667D01*
X115130712Y-105935409D01*
X115106605Y-105774664D01*
X115050188Y-105776727D01*
X114972905Y-105943894D01*
X114900067Y-106214333D01*
X114828926Y-106467663D01*
X114753754Y-106636791D01*
X114706678Y-106680000D01*
X114656748Y-106606512D01*
X114679379Y-106404833D01*
X114737229Y-106148138D01*
X114784500Y-105939167D01*
X114795267Y-105818355D01*
X114726868Y-105763390D01*
X114538689Y-105748929D01*
X114479203Y-105748667D01*
X114263413Y-105739525D01*
X114141077Y-105716618D01*
X114130666Y-105706371D01*
X114144165Y-105609765D01*
X114158603Y-105520377D01*
X114352499Y-105520377D01*
X114435187Y-105567113D01*
X114625426Y-105572649D01*
X114779606Y-105559091D01*
X115098721Y-105559091D01*
X115181944Y-105572649D01*
X115191523Y-105571291D01*
X115532637Y-105571291D01*
X115575272Y-105641231D01*
X115737506Y-105730622D01*
X115845140Y-105772282D01*
X116206125Y-105879378D01*
X116425757Y-105902742D01*
X116501310Y-105842092D01*
X116501333Y-105840258D01*
X116529261Y-105698368D01*
X116552725Y-105628591D01*
X116556710Y-105553824D01*
X116474458Y-105512939D01*
X116273819Y-105496590D01*
X116092055Y-105494667D01*
X115813225Y-105506409D01*
X115608717Y-105536899D01*
X115532637Y-105571291D01*
X115191523Y-105571291D01*
X115291758Y-105557082D01*
X115293069Y-105528180D01*
X115179752Y-105507969D01*
X115130791Y-105521496D01*
X115098721Y-105559091D01*
X114779606Y-105559091D01*
X114791331Y-105558060D01*
X114828423Y-105529775D01*
X114808000Y-105519268D01*
X114638444Y-105425397D01*
X114543593Y-105353234D01*
X114432269Y-105282664D01*
X114375474Y-105356011D01*
X114361019Y-105406615D01*
X114352499Y-105520377D01*
X114158603Y-105520377D01*
X114180395Y-105385460D01*
X114201160Y-105261833D01*
X114980026Y-105261833D01*
X115052890Y-105300465D01*
X115236992Y-105316800D01*
X115294833Y-105316200D01*
X115482734Y-105292675D01*
X115521815Y-105274286D01*
X116107255Y-105274286D01*
X116128314Y-105311703D01*
X116290733Y-105321966D01*
X116353166Y-105322640D01*
X116562329Y-105311318D01*
X116651865Y-105250754D01*
X116670666Y-105110688D01*
X116662461Y-105060533D01*
X116843314Y-105060533D01*
X116846628Y-105367667D01*
X116901765Y-105240667D01*
X117094000Y-105240667D01*
X117124978Y-105310357D01*
X117150444Y-105297111D01*
X117160577Y-105196631D01*
X117150444Y-105184222D01*
X117100110Y-105195844D01*
X117094000Y-105240667D01*
X116901765Y-105240667D01*
X116970314Y-105082779D01*
X117015266Y-104961213D01*
X117348000Y-104961213D01*
X117356298Y-105188769D01*
X117403026Y-105294032D01*
X117520931Y-105323946D01*
X117602000Y-105325333D01*
X117856000Y-105325333D01*
X117856000Y-104732667D01*
X117850335Y-104418246D01*
X117827522Y-104238073D01*
X117778832Y-104157268D01*
X117707833Y-104140660D01*
X117555288Y-104219578D01*
X117434636Y-104430455D01*
X117361942Y-104736658D01*
X117348000Y-104961213D01*
X117015266Y-104961213D01*
X117053440Y-104857982D01*
X117093379Y-104684460D01*
X117094000Y-104670246D01*
X117070945Y-104588382D01*
X116976267Y-104640377D01*
X116967000Y-104648000D01*
X116880044Y-104803548D01*
X116843329Y-105041578D01*
X116843314Y-105060533D01*
X116662461Y-105060533D01*
X116649418Y-104980807D01*
X116570150Y-104955859D01*
X116409573Y-105039783D01*
X116205000Y-105189437D01*
X116107255Y-105274286D01*
X115521815Y-105274286D01*
X115647304Y-105215239D01*
X115833897Y-105055079D01*
X115870887Y-105015949D01*
X116130383Y-105015949D01*
X116175473Y-105000319D01*
X116297186Y-104919687D01*
X116503329Y-104763284D01*
X116658367Y-104619960D01*
X116669084Y-104607573D01*
X116742385Y-104483817D01*
X116740730Y-104435841D01*
X116667057Y-104470593D01*
X116516299Y-104600483D01*
X116368831Y-104747956D01*
X116193060Y-104936085D01*
X116130383Y-105015949D01*
X115870887Y-105015949D01*
X116026442Y-104851400D01*
X116440552Y-104395732D01*
X115984109Y-104647332D01*
X115714477Y-104782378D01*
X115483857Y-104874312D01*
X115367667Y-104900466D01*
X115196391Y-104966775D01*
X115041939Y-105115581D01*
X114980026Y-105261833D01*
X114201160Y-105261833D01*
X114232952Y-105072563D01*
X114265783Y-104881022D01*
X114558747Y-104881022D01*
X114577950Y-105090467D01*
X114610444Y-105184222D01*
X114717153Y-105235785D01*
X114814398Y-105145450D01*
X114896446Y-104965500D01*
X114964220Y-104751956D01*
X114988379Y-104601093D01*
X114987636Y-104593002D01*
X114990018Y-104588863D01*
X115621253Y-104588863D01*
X115656346Y-104588693D01*
X115801710Y-104521873D01*
X115824000Y-104511123D01*
X116093914Y-104367070D01*
X116226165Y-104287734D01*
X116924666Y-104287734D01*
X116947778Y-104369062D01*
X117042616Y-104316779D01*
X117051666Y-104309333D01*
X117159530Y-104159646D01*
X117178666Y-104076933D01*
X117155555Y-103995604D01*
X117060717Y-104047887D01*
X117051666Y-104055333D01*
X116943802Y-104205021D01*
X116924666Y-104287734D01*
X116226165Y-104287734D01*
X116383777Y-104193185D01*
X116437833Y-104158109D01*
X116678969Y-103949094D01*
X116706939Y-103877730D01*
X117523540Y-103877730D01*
X117582138Y-103957497D01*
X117686666Y-103970667D01*
X117828170Y-103910798D01*
X117843222Y-103851593D01*
X118025333Y-103851593D01*
X118102529Y-103915647D01*
X118307490Y-103955164D01*
X118600275Y-103969021D01*
X118940940Y-103956097D01*
X119289544Y-103915268D01*
X119422333Y-103890857D01*
X119587736Y-103847175D01*
X119613733Y-103817476D01*
X119570500Y-103811070D01*
X119421577Y-103777870D01*
X119380000Y-103733675D01*
X119306791Y-103655207D01*
X119130568Y-103576810D01*
X119021760Y-103547333D01*
X119464666Y-103547333D01*
X119539483Y-103595719D01*
X119727274Y-103622620D01*
X119973048Y-103628037D01*
X120221813Y-103611969D01*
X120418578Y-103574417D01*
X120480666Y-103547333D01*
X120495552Y-103501362D01*
X120360942Y-103474189D01*
X120067637Y-103464087D01*
X120036166Y-103463963D01*
X119739485Y-103474860D01*
X119536115Y-103505278D01*
X119464666Y-103547333D01*
X119021760Y-103547333D01*
X118916436Y-103518800D01*
X118729500Y-103501491D01*
X118671251Y-103512526D01*
X118579571Y-103532185D01*
X118544168Y-103483500D01*
X118567356Y-103342020D01*
X118596939Y-103251000D01*
X118872000Y-103251000D01*
X118914333Y-103293333D01*
X119539735Y-103293333D01*
X120127326Y-103293333D01*
X120467216Y-103282247D01*
X120672229Y-103228836D01*
X120776390Y-103102867D01*
X120813722Y-102874111D01*
X120818177Y-102679500D01*
X120849267Y-102510561D01*
X120915793Y-102446667D01*
X120971632Y-102517540D01*
X120975293Y-102736535D01*
X120962115Y-102870000D01*
X120939215Y-103121195D01*
X120955738Y-103247260D01*
X121023076Y-103290066D01*
X121077322Y-103293333D01*
X121212722Y-103329554D01*
X121242666Y-103378000D01*
X121170210Y-103441646D01*
X121031000Y-103462667D01*
X120813335Y-103521510D01*
X120646637Y-103635362D01*
X120473942Y-103808057D01*
X120921804Y-103751096D01*
X121195628Y-103703689D01*
X121406295Y-103644710D01*
X121475500Y-103610367D01*
X121529708Y-103491713D01*
X121564150Y-103230588D01*
X121579966Y-102816151D01*
X121581333Y-102605633D01*
X121581333Y-101684667D01*
X121327333Y-101684667D01*
X121129048Y-101720999D01*
X121073333Y-101805619D01*
X121017593Y-101965270D01*
X120959529Y-102040375D01*
X120869499Y-102182309D01*
X120762070Y-102422768D01*
X120698725Y-102596756D01*
X120595284Y-102856190D01*
X120499419Y-103010334D01*
X120427593Y-103041880D01*
X120396271Y-102933520D01*
X120396000Y-102914990D01*
X120341836Y-102830271D01*
X120257015Y-102843981D01*
X120171446Y-102855417D01*
X120147055Y-102773769D01*
X120172359Y-102566157D01*
X120185017Y-102489000D01*
X120405133Y-102489000D01*
X120408882Y-102743000D01*
X120523000Y-102446667D01*
X120600594Y-102218300D01*
X120641992Y-102044862D01*
X120643558Y-102028318D01*
X120618456Y-101975169D01*
X120525692Y-102070651D01*
X120434636Y-102276998D01*
X120405133Y-102489000D01*
X120185017Y-102489000D01*
X120226689Y-102235000D01*
X120078511Y-102439443D01*
X119938515Y-102645426D01*
X119775109Y-102902751D01*
X119735034Y-102968610D01*
X119539735Y-103293333D01*
X118914333Y-103293333D01*
X118956666Y-103251000D01*
X118914333Y-103208667D01*
X118872000Y-103251000D01*
X118596939Y-103251000D01*
X118651447Y-103083300D01*
X118685419Y-102989944D01*
X119217350Y-102989944D01*
X119232917Y-103099758D01*
X119261819Y-103101069D01*
X119282030Y-102987752D01*
X119268503Y-102938792D01*
X119230908Y-102906721D01*
X119217350Y-102989944D01*
X118685419Y-102989944D01*
X118733101Y-102858914D01*
X118817196Y-102616000D01*
X119385385Y-102616000D01*
X119408279Y-102680685D01*
X119432137Y-102658333D01*
X119634000Y-102658333D01*
X119676333Y-102700667D01*
X119718666Y-102658333D01*
X119676333Y-102616000D01*
X119634000Y-102658333D01*
X119432137Y-102658333D01*
X119490136Y-102603997D01*
X119509692Y-102578651D01*
X119541412Y-102520740D01*
X119759551Y-102520740D01*
X119761511Y-102531333D01*
X119814956Y-102467572D01*
X119929297Y-102305315D01*
X120004950Y-102192667D01*
X120132303Y-101989480D01*
X120167265Y-101888712D01*
X120117079Y-101855856D01*
X120076026Y-101854000D01*
X119948333Y-101920805D01*
X119849334Y-102133878D01*
X119832587Y-102192667D01*
X119780960Y-102401606D01*
X119759551Y-102520740D01*
X119541412Y-102520740D01*
X119608006Y-102399160D01*
X119634000Y-102287302D01*
X119611105Y-102222617D01*
X119529248Y-102299305D01*
X119509692Y-102324651D01*
X119411379Y-102504142D01*
X119385385Y-102616000D01*
X118817196Y-102616000D01*
X118893125Y-102396675D01*
X118978617Y-102068827D01*
X118989756Y-101896333D01*
X119549333Y-101896333D01*
X119591666Y-101938667D01*
X119634000Y-101896333D01*
X119591666Y-101854000D01*
X119549333Y-101896333D01*
X118989756Y-101896333D01*
X118992167Y-101859007D01*
X118936367Y-101750853D01*
X118910684Y-101737315D01*
X118803911Y-101737414D01*
X118787333Y-101771990D01*
X118716808Y-101839841D01*
X118627058Y-101854000D01*
X118518953Y-101874514D01*
X118444658Y-101953082D01*
X118398161Y-102115242D01*
X118373450Y-102386531D01*
X118364513Y-102792488D01*
X118364000Y-102971466D01*
X118362068Y-103356132D01*
X118352207Y-103600476D01*
X118328320Y-103733501D01*
X118284307Y-103784210D01*
X118214072Y-103781604D01*
X118194666Y-103776801D01*
X118053210Y-103783571D01*
X118025333Y-103851593D01*
X117843222Y-103851593D01*
X117856000Y-103801333D01*
X117818093Y-103653930D01*
X117710476Y-103658989D01*
X117618933Y-103733600D01*
X117523540Y-103877730D01*
X116706939Y-103877730D01*
X116755333Y-103754262D01*
X116755333Y-103560359D01*
X116522153Y-103786679D01*
X116321215Y-103972955D01*
X116062365Y-104201805D01*
X115908319Y-104333596D01*
X115703042Y-104508468D01*
X115621253Y-104588863D01*
X114990018Y-104588863D01*
X115043689Y-104495608D01*
X115203429Y-104339444D01*
X115398907Y-104183624D01*
X115620187Y-104017151D01*
X115773933Y-103893763D01*
X115824000Y-103844125D01*
X115753160Y-103845992D01*
X115571487Y-103894842D01*
X115325248Y-103974473D01*
X115060712Y-104068678D01*
X114824147Y-104161254D01*
X114661821Y-104235997D01*
X114618796Y-104266218D01*
X114579785Y-104401228D01*
X114559564Y-104628719D01*
X114558747Y-104881022D01*
X114265783Y-104881022D01*
X114265809Y-104880871D01*
X114343512Y-104474392D01*
X114418402Y-104208350D01*
X114504746Y-104054709D01*
X114616816Y-103985438D01*
X114728446Y-103971963D01*
X114899605Y-103936365D01*
X115172505Y-103844931D01*
X115497479Y-103717649D01*
X115824861Y-103574507D01*
X116104981Y-103435492D01*
X116206170Y-103377276D01*
X116409659Y-103275499D01*
X116559283Y-103242837D01*
X116584455Y-103250046D01*
X116658221Y-103231745D01*
X116670666Y-103171330D01*
X116696092Y-103043389D01*
X116756093Y-103050677D01*
X116826252Y-103169700D01*
X116881732Y-103374445D01*
X116925917Y-103583103D01*
X116981161Y-103655197D01*
X117077225Y-103622462D01*
X117100841Y-103608078D01*
X117159715Y-103547333D01*
X117432666Y-103547333D01*
X117463644Y-103617023D01*
X117489111Y-103603778D01*
X117499244Y-103503298D01*
X117489111Y-103490889D01*
X117438776Y-103502511D01*
X117432666Y-103547333D01*
X117159715Y-103547333D01*
X117241368Y-103463087D01*
X117236393Y-103323285D01*
X117094000Y-103233199D01*
X116970197Y-103134445D01*
X116925896Y-102916541D01*
X116935898Y-102816438D01*
X117121661Y-102816438D01*
X117127565Y-102970785D01*
X117169360Y-103057503D01*
X117176807Y-103064991D01*
X117276123Y-103122448D01*
X117323305Y-103060500D01*
X117414046Y-102962176D01*
X117448780Y-102954667D01*
X117499493Y-103016488D01*
X117486971Y-103080999D01*
X117520364Y-103214755D01*
X117689580Y-103337173D01*
X117861014Y-103403665D01*
X117939597Y-103388127D01*
X117940666Y-103380174D01*
X117983163Y-103295358D01*
X118066338Y-103319557D01*
X118123717Y-103430665D01*
X118125088Y-103441500D01*
X118135993Y-103428516D01*
X118153269Y-103274631D01*
X118174189Y-103008035D01*
X118188588Y-102785333D01*
X118216541Y-102424515D01*
X118251424Y-102122946D01*
X118287654Y-101924074D01*
X118305496Y-101875167D01*
X118312219Y-101785257D01*
X118241996Y-101769333D01*
X118126060Y-101731740D01*
X118110000Y-101697510D01*
X118042497Y-101636780D01*
X117878949Y-101546297D01*
X117677793Y-101452841D01*
X117497465Y-101383194D01*
X117396404Y-101364138D01*
X117391180Y-101368077D01*
X117370963Y-101454317D01*
X117326042Y-101669370D01*
X117264133Y-101975852D01*
X117224426Y-102175991D01*
X117153373Y-102562245D01*
X117121661Y-102816438D01*
X116935898Y-102816438D01*
X116960665Y-102568595D01*
X117051666Y-102163991D01*
X117125432Y-101794986D01*
X117171246Y-101400630D01*
X117178666Y-101218167D01*
X117203096Y-100880535D01*
X117282969Y-100666353D01*
X117330534Y-100608465D01*
X117434006Y-100458783D01*
X117573036Y-100197698D01*
X117727802Y-99870518D01*
X117878486Y-99522554D01*
X118005264Y-99199116D01*
X118088317Y-98945514D01*
X118110000Y-98826629D01*
X118166323Y-98693818D01*
X118302543Y-98539248D01*
X118469532Y-98404297D01*
X118618161Y-98330348D01*
X118688000Y-98339778D01*
X118666247Y-98420900D01*
X118538793Y-98545784D01*
X118512011Y-98565962D01*
X118349866Y-98735289D01*
X118278241Y-98912059D01*
X118278040Y-98918895D01*
X118243320Y-99065681D01*
X118149896Y-99327386D01*
X118012254Y-99666228D01*
X117854707Y-100023038D01*
X117689940Y-100390862D01*
X117555284Y-100707416D01*
X117464834Y-100938442D01*
X117432666Y-101048702D01*
X117505013Y-101137681D01*
X117688953Y-101245729D01*
X117813666Y-101299166D01*
X118035921Y-101398728D01*
X118173210Y-101488505D01*
X118194666Y-101522336D01*
X118245332Y-101600490D01*
X118355463Y-101582076D01*
X118462264Y-101487683D01*
X118463471Y-101485198D01*
X118905995Y-101485198D01*
X118926887Y-101535646D01*
X118988669Y-101553199D01*
X119016516Y-101499267D01*
X119636381Y-101499267D01*
X119690449Y-101600527D01*
X119867766Y-101650746D01*
X120098014Y-101667720D01*
X120365902Y-101673709D01*
X120518091Y-101645581D01*
X120608022Y-101557324D01*
X120689136Y-101382924D01*
X120690681Y-101379228D01*
X120759392Y-101128368D01*
X120801582Y-100757430D01*
X120819374Y-100245231D01*
X120820265Y-100086827D01*
X120830088Y-99440035D01*
X120858364Y-98959194D01*
X120905375Y-98641902D01*
X120971401Y-98485753D01*
X121010180Y-98467333D01*
X121045348Y-98549418D01*
X121064308Y-98786788D01*
X121066446Y-99166113D01*
X121057765Y-99504500D01*
X121021327Y-100541667D01*
X121148707Y-100054833D01*
X121237875Y-99768340D01*
X121318304Y-99604197D01*
X121379038Y-99574803D01*
X121409120Y-99692559D01*
X121410529Y-99758500D01*
X121390966Y-99943281D01*
X121340293Y-100243765D01*
X121267974Y-100611251D01*
X121183472Y-100997042D01*
X121114385Y-101282500D01*
X121088855Y-101445163D01*
X121156921Y-101506521D01*
X121312194Y-101515333D01*
X121569413Y-101515333D01*
X121596540Y-100181833D01*
X121601561Y-99692166D01*
X121597285Y-99233686D01*
X121584727Y-98846153D01*
X121564902Y-98569327D01*
X121553309Y-98488500D01*
X121500087Y-98263943D01*
X121423304Y-98159970D01*
X121271131Y-98130209D01*
X121151143Y-98128667D01*
X120912959Y-98152810D01*
X120821470Y-98229158D01*
X120819333Y-98249170D01*
X120768071Y-98388500D01*
X120641414Y-98579577D01*
X120607666Y-98621226D01*
X120455511Y-98866237D01*
X120398624Y-99160786D01*
X120396000Y-99267668D01*
X120385316Y-99532377D01*
X120356789Y-99900744D01*
X120315708Y-100308682D01*
X120296841Y-100469429D01*
X120197683Y-101276299D01*
X119961423Y-101241623D01*
X119755083Y-101254038D01*
X119679581Y-101325732D01*
X119636381Y-101499267D01*
X119016516Y-101499267D01*
X119047565Y-101439134D01*
X119091624Y-101230922D01*
X119108894Y-100966036D01*
X119108893Y-100965000D01*
X119108666Y-100711000D01*
X119046177Y-100972390D01*
X118983301Y-101188452D01*
X118922847Y-101332224D01*
X118905995Y-101485198D01*
X118463471Y-101485198D01*
X118492943Y-101424543D01*
X118583998Y-101298818D01*
X118667119Y-101294555D01*
X118776300Y-101261311D01*
X118837702Y-101110178D01*
X118889401Y-100907736D01*
X118967617Y-100626333D01*
X119126000Y-100626333D01*
X119168333Y-100668667D01*
X119210666Y-100626333D01*
X119168333Y-100584000D01*
X119126000Y-100626333D01*
X118967617Y-100626333D01*
X118971308Y-100613054D01*
X119016156Y-100459166D01*
X119847433Y-100459166D01*
X119858934Y-100755652D01*
X119888383Y-100950622D01*
X119910902Y-100996765D01*
X119975762Y-101020762D01*
X120031093Y-100941019D01*
X120080035Y-100742753D01*
X120125728Y-100411184D01*
X120171308Y-99931529D01*
X120191826Y-99673833D01*
X120214143Y-99258673D01*
X120203263Y-99000239D01*
X120156314Y-98888661D01*
X120070420Y-98914069D01*
X119994599Y-98996500D01*
X119944023Y-99139493D01*
X119902174Y-99401328D01*
X119870897Y-99737933D01*
X119852035Y-100105236D01*
X119847433Y-100459166D01*
X119016156Y-100459166D01*
X119050231Y-100342248D01*
X119133228Y-100043194D01*
X119191193Y-99794807D01*
X119195801Y-99763296D01*
X119406523Y-99763296D01*
X119447292Y-99802097D01*
X119524015Y-99902583D01*
X119549333Y-100054833D01*
X119559974Y-100224018D01*
X119587334Y-100247341D01*
X119624570Y-100146626D01*
X119664836Y-99943698D01*
X119701288Y-99660381D01*
X119712976Y-99533029D01*
X119730346Y-99238039D01*
X119729661Y-99027772D01*
X119711378Y-98940411D01*
X119705850Y-98940921D01*
X119644102Y-99034982D01*
X119551727Y-99234584D01*
X119496293Y-99372584D01*
X119412372Y-99627897D01*
X119406523Y-99763296D01*
X119195801Y-99763296D01*
X119210666Y-99661650D01*
X119247644Y-99500074D01*
X119340075Y-99269061D01*
X119378231Y-99190468D01*
X119478687Y-98983627D01*
X119501937Y-98870847D01*
X119447981Y-98795481D01*
X119378231Y-98744432D01*
X119299756Y-98670693D01*
X119250349Y-98558823D01*
X119223676Y-98372962D01*
X119213403Y-98077251D01*
X119212526Y-97806366D01*
X119226005Y-97325279D01*
X119267533Y-96970908D01*
X119342534Y-96702154D01*
X119365593Y-96647000D01*
X119469406Y-96368396D01*
X119572660Y-96018890D01*
X119625280Y-95800333D01*
X119711363Y-95412811D01*
X119810520Y-94988260D01*
X119861279Y-94779789D01*
X119925137Y-94473944D01*
X119959507Y-94208419D01*
X119959566Y-94072248D01*
X119930333Y-93877253D01*
X119705522Y-94086482D01*
X119429725Y-94324094D01*
X119180348Y-94504988D01*
X118989138Y-94608632D01*
X118888291Y-94614981D01*
X118907556Y-94532022D01*
X119035702Y-94416945D01*
X119038245Y-94415245D01*
X119222089Y-94276354D01*
X119458758Y-94076795D01*
X119588578Y-93959889D01*
X119848189Y-93737568D01*
X120014821Y-93650223D01*
X120103878Y-93702724D01*
G36*
X106213616Y-103414032D02*
G01*
X106362833Y-103523333D01*
X106719140Y-103773151D01*
X107197191Y-103995775D01*
X107749483Y-104169439D01*
X107799167Y-104181443D01*
X108063504Y-104228920D01*
X108412379Y-104264088D01*
X108866549Y-104288012D01*
X109446769Y-104301754D01*
X110173792Y-104306380D01*
X110236000Y-104306389D01*
X111038092Y-104301009D01*
X111705473Y-104282619D01*
X112272525Y-104247236D01*
X112773629Y-104190875D01*
X113243166Y-104109551D01*
X113715519Y-103999279D01*
X114225068Y-103856076D01*
X114290168Y-103836543D01*
X114436119Y-103813887D01*
X114456838Y-103880869D01*
X114454911Y-103886933D01*
X114358761Y-103963361D01*
X114144132Y-104056898D01*
X113858834Y-104152686D01*
X113550675Y-104235867D01*
X113267466Y-104291583D01*
X113105293Y-104306359D01*
X112974397Y-104323387D01*
X112899644Y-104398126D01*
X112855123Y-104572828D01*
X112830862Y-104753833D01*
X112801838Y-105087026D01*
X112782144Y-105487709D01*
X112776735Y-105775514D01*
X112776000Y-106352694D01*
X112196469Y-106333898D01*
X111889711Y-106332752D01*
X111645834Y-106347902D01*
X111519136Y-106375548D01*
X111452845Y-106494124D01*
X111421676Y-106702682D01*
X111421333Y-106727330D01*
X111396933Y-106921159D01*
X111337057Y-107016594D01*
X111325655Y-107018667D01*
X111267462Y-106939529D01*
X111266076Y-106705049D01*
X111272374Y-106642524D01*
X111279972Y-106373465D01*
X111206970Y-106229817D01*
X111025841Y-106176194D01*
X110906408Y-106172000D01*
X110812253Y-106194297D01*
X110763211Y-106287605D01*
X110745462Y-106491553D01*
X110744000Y-106637667D01*
X110730081Y-106892681D01*
X110694177Y-107061823D01*
X110659333Y-107103333D01*
X110614007Y-107026394D01*
X110583358Y-106826213D01*
X110574666Y-106606241D01*
X110574666Y-106109148D01*
X109728000Y-105996834D01*
X109728000Y-105825660D01*
X109897333Y-105825660D01*
X110214833Y-105874834D01*
X110492997Y-105919906D01*
X110830591Y-105977228D01*
X110977138Y-106002896D01*
X111250875Y-106039631D01*
X111465911Y-106047537D01*
X111540074Y-106036453D01*
X111676879Y-106046124D01*
X111714099Y-106081561D01*
X111824829Y-106134075D01*
X112044315Y-106166702D01*
X112188330Y-106172000D01*
X112606666Y-106172000D01*
X112602810Y-105283000D01*
X112462838Y-105567098D01*
X112371500Y-105733914D01*
X112275468Y-105810536D01*
X112116947Y-105820387D01*
X111900222Y-105795130D01*
X111580115Y-105735119D01*
X111276048Y-105650676D01*
X111185116Y-105616865D01*
X110954166Y-105535085D01*
X110771920Y-105494999D01*
X110754826Y-105494194D01*
X110584490Y-105471942D01*
X110345036Y-105417885D01*
X110304455Y-105406916D01*
X110094552Y-105329000D01*
X109997139Y-105210543D01*
X109986935Y-105155816D01*
X110268551Y-105155816D01*
X110278848Y-105200202D01*
X110432557Y-105247014D01*
X110490000Y-105261185D01*
X110754503Y-105329399D01*
X111077107Y-105417090D01*
X111209666Y-105454370D01*
X111613297Y-105565622D01*
X111887523Y-105628376D01*
X112064275Y-105645559D01*
X112175484Y-105620098D01*
X112253082Y-105554921D01*
X112256898Y-105550376D01*
X112317661Y-105436595D01*
X112250657Y-105380143D01*
X112041534Y-105375080D01*
X111871426Y-105390833D01*
X111635404Y-105412640D01*
X111527590Y-105393167D01*
X111508036Y-105311058D01*
X111525292Y-105205810D01*
X111537447Y-105046035D01*
X111475772Y-105014776D01*
X111444999Y-105024447D01*
X111088616Y-105123593D01*
X110823875Y-105106309D01*
X110751885Y-105075554D01*
X110552536Y-105025330D01*
X110384166Y-105084666D01*
X110268551Y-105155816D01*
X109986935Y-105155816D01*
X109958854Y-105005222D01*
X109940802Y-104910352D01*
X109925105Y-104976276D01*
X109913360Y-105194456D01*
X109911566Y-105257997D01*
X109897333Y-105825660D01*
X109728000Y-105825660D01*
X109728000Y-104587474D01*
X110091827Y-104587474D01*
X110099941Y-104612591D01*
X110146537Y-104804588D01*
X110151333Y-104868312D01*
X110180175Y-104930370D01*
X110288895Y-104911421D01*
X110484255Y-104820264D01*
X110700191Y-104697598D01*
X110722941Y-104681090D01*
X111063711Y-104681090D01*
X111064683Y-104816258D01*
X111171125Y-104852924D01*
X111245892Y-104849289D01*
X111460832Y-104809120D01*
X111738728Y-104729982D01*
X111836707Y-104696409D01*
X112062513Y-104622952D01*
X112211804Y-104589755D01*
X112240866Y-104592644D01*
X112247082Y-104698362D01*
X112162825Y-104836388D01*
X112032947Y-104937238D01*
X112013824Y-104944389D01*
X111824816Y-105052135D01*
X111757278Y-105116945D01*
X111706552Y-105211274D01*
X111797307Y-105239967D01*
X111838504Y-105240667D01*
X112047290Y-105201866D01*
X112260278Y-105117659D01*
X112404422Y-105001109D01*
X112547159Y-104824240D01*
X112656191Y-104638214D01*
X112699221Y-104494194D01*
X112681562Y-104450316D01*
X112588243Y-104443703D01*
X112365329Y-104445118D01*
X112052341Y-104454030D01*
X111874152Y-104461144D01*
X111507348Y-104480134D01*
X111276199Y-104504349D01*
X111147071Y-104542918D01*
X111086331Y-104604968D01*
X111063711Y-104681090D01*
X110722941Y-104681090D01*
X110845893Y-104591874D01*
X110870252Y-104564543D01*
X110828857Y-104511256D01*
X110636819Y-104482570D01*
X110485938Y-104478667D01*
X110229953Y-104486918D01*
X110109644Y-104519350D01*
X110091827Y-104587474D01*
X109728000Y-104587474D01*
X109728000Y-104478667D01*
X109056201Y-104478667D01*
X108381502Y-104443422D01*
X107739299Y-104343704D01*
X107161388Y-104188534D01*
X106679564Y-103986936D01*
X106325623Y-103747931D01*
X106263388Y-103686168D01*
X106133936Y-103507132D01*
X106122506Y-103407970D01*
X106213616Y-103414032D01*
X106213616Y-103414032D01*
G37*
X106213616Y-103414032D02*
X106362833Y-103523333D01*
X106719140Y-103773151D01*
X107197191Y-103995775D01*
X107749483Y-104169439D01*
X107799167Y-104181443D01*
X108063504Y-104228920D01*
X108412379Y-104264088D01*
X108866549Y-104288012D01*
X109446769Y-104301754D01*
X110173792Y-104306380D01*
X110236000Y-104306389D01*
X111038092Y-104301009D01*
X111705473Y-104282619D01*
X112272525Y-104247236D01*
X112773629Y-104190875D01*
X113243166Y-104109551D01*
X113715519Y-103999279D01*
X114225068Y-103856076D01*
X114290168Y-103836543D01*
X114436119Y-103813887D01*
X114456838Y-103880869D01*
X114454911Y-103886933D01*
X114358761Y-103963361D01*
X114144132Y-104056898D01*
X113858834Y-104152686D01*
X113550675Y-104235867D01*
X113267466Y-104291583D01*
X113105293Y-104306359D01*
X112974397Y-104323387D01*
X112899644Y-104398126D01*
X112855123Y-104572828D01*
X112830862Y-104753833D01*
X112801838Y-105087026D01*
X112782144Y-105487709D01*
X112776735Y-105775514D01*
X112776000Y-106352694D01*
X112196469Y-106333898D01*
X111889711Y-106332752D01*
X111645834Y-106347902D01*
X111519136Y-106375548D01*
X111452845Y-106494124D01*
X111421676Y-106702682D01*
X111421333Y-106727330D01*
X111396933Y-106921159D01*
X111337057Y-107016594D01*
X111325655Y-107018667D01*
X111267462Y-106939529D01*
X111266076Y-106705049D01*
X111272374Y-106642524D01*
X111279972Y-106373465D01*
X111206970Y-106229817D01*
X111025841Y-106176194D01*
X110906408Y-106172000D01*
X110812253Y-106194297D01*
X110763211Y-106287605D01*
X110745462Y-106491553D01*
X110744000Y-106637667D01*
X110730081Y-106892681D01*
X110694177Y-107061823D01*
X110659333Y-107103333D01*
X110614007Y-107026394D01*
X110583358Y-106826213D01*
X110574666Y-106606241D01*
X110574666Y-106109148D01*
X109728000Y-105996834D01*
X109728000Y-105825660D01*
X109897333Y-105825660D01*
X110214833Y-105874834D01*
X110492997Y-105919906D01*
X110830591Y-105977228D01*
X110977138Y-106002896D01*
X111250875Y-106039631D01*
X111465911Y-106047537D01*
X111540074Y-106036453D01*
X111676879Y-106046124D01*
X111714099Y-106081561D01*
X111824829Y-106134075D01*
X112044315Y-106166702D01*
X112188330Y-106172000D01*
X112606666Y-106172000D01*
X112602810Y-105283000D01*
X112462838Y-105567098D01*
X112371500Y-105733914D01*
X112275468Y-105810536D01*
X112116947Y-105820387D01*
X111900222Y-105795130D01*
X111580115Y-105735119D01*
X111276048Y-105650676D01*
X111185116Y-105616865D01*
X110954166Y-105535085D01*
X110771920Y-105494999D01*
X110754826Y-105494194D01*
X110584490Y-105471942D01*
X110345036Y-105417885D01*
X110304455Y-105406916D01*
X110094552Y-105329000D01*
X109997139Y-105210543D01*
X109986935Y-105155816D01*
X110268551Y-105155816D01*
X110278848Y-105200202D01*
X110432557Y-105247014D01*
X110490000Y-105261185D01*
X110754503Y-105329399D01*
X111077107Y-105417090D01*
X111209666Y-105454370D01*
X111613297Y-105565622D01*
X111887523Y-105628376D01*
X112064275Y-105645559D01*
X112175484Y-105620098D01*
X112253082Y-105554921D01*
X112256898Y-105550376D01*
X112317661Y-105436595D01*
X112250657Y-105380143D01*
X112041534Y-105375080D01*
X111871426Y-105390833D01*
X111635404Y-105412640D01*
X111527590Y-105393167D01*
X111508036Y-105311058D01*
X111525292Y-105205810D01*
X111537447Y-105046035D01*
X111475772Y-105014776D01*
X111444999Y-105024447D01*
X111088616Y-105123593D01*
X110823875Y-105106309D01*
X110751885Y-105075554D01*
X110552536Y-105025330D01*
X110384166Y-105084666D01*
X110268551Y-105155816D01*
X109986935Y-105155816D01*
X109958854Y-105005222D01*
X109940802Y-104910352D01*
X109925105Y-104976276D01*
X109913360Y-105194456D01*
X109911566Y-105257997D01*
X109897333Y-105825660D01*
X109728000Y-105825660D01*
X109728000Y-104587474D01*
X110091827Y-104587474D01*
X110099941Y-104612591D01*
X110146537Y-104804588D01*
X110151333Y-104868312D01*
X110180175Y-104930370D01*
X110288895Y-104911421D01*
X110484255Y-104820264D01*
X110700191Y-104697598D01*
X110722941Y-104681090D01*
X111063711Y-104681090D01*
X111064683Y-104816258D01*
X111171125Y-104852924D01*
X111245892Y-104849289D01*
X111460832Y-104809120D01*
X111738728Y-104729982D01*
X111836707Y-104696409D01*
X112062513Y-104622952D01*
X112211804Y-104589755D01*
X112240866Y-104592644D01*
X112247082Y-104698362D01*
X112162825Y-104836388D01*
X112032947Y-104937238D01*
X112013824Y-104944389D01*
X111824816Y-105052135D01*
X111757278Y-105116945D01*
X111706552Y-105211274D01*
X111797307Y-105239967D01*
X111838504Y-105240667D01*
X112047290Y-105201866D01*
X112260278Y-105117659D01*
X112404422Y-105001109D01*
X112547159Y-104824240D01*
X112656191Y-104638214D01*
X112699221Y-104494194D01*
X112681562Y-104450316D01*
X112588243Y-104443703D01*
X112365329Y-104445118D01*
X112052341Y-104454030D01*
X111874152Y-104461144D01*
X111507348Y-104480134D01*
X111276199Y-104504349D01*
X111147071Y-104542918D01*
X111086331Y-104604968D01*
X111063711Y-104681090D01*
X110722941Y-104681090D01*
X110845893Y-104591874D01*
X110870252Y-104564543D01*
X110828857Y-104511256D01*
X110636819Y-104482570D01*
X110485938Y-104478667D01*
X110229953Y-104486918D01*
X110109644Y-104519350D01*
X110091827Y-104587474D01*
X109728000Y-104587474D01*
X109728000Y-104478667D01*
X109056201Y-104478667D01*
X108381502Y-104443422D01*
X107739299Y-104343704D01*
X107161388Y-104188534D01*
X106679564Y-103986936D01*
X106325623Y-103747931D01*
X106263388Y-103686168D01*
X106133936Y-103507132D01*
X106122506Y-103407970D01*
X106213616Y-103414032D01*
M02*
