G04 #@! TF.GenerationSoftware,KiCad,Pcbnew,(5.1.0)-1*
G04 #@! TF.CreationDate,2019-03-31T01:00:59-04:00*
G04 #@! TF.ProjectId,MiniProjectBoardProject,4d696e69-5072-46f6-9a65-6374426f6172,rev?*
G04 #@! TF.SameCoordinates,Original*
G04 #@! TF.FileFunction,Copper,L2,Bot*
G04 #@! TF.FilePolarity,Positive*
%FSLAX46Y46*%
G04 Gerber Fmt 4.6, Leading zero omitted, Abs format (unit mm)*
G04 Created by KiCad (PCBNEW (5.1.0)-1) date 2019-03-31 01:00:59*
%MOMM*%
%LPD*%
G04 APERTURE LIST*
%ADD10O,1.700000X1.700000*%
%ADD11R,1.700000X1.700000*%
%ADD12C,2.000000*%
%ADD13C,0.800000*%
%ADD14C,0.250000*%
%ADD15C,0.500000*%
%ADD16C,0.254000*%
G04 APERTURE END LIST*
D10*
X120530000Y-136460000D03*
X120530000Y-139000000D03*
X117990000Y-136460000D03*
X117990000Y-139000000D03*
X115450000Y-136460000D03*
X115450000Y-139000000D03*
X112910000Y-136460000D03*
X112910000Y-139000000D03*
X110370000Y-136460000D03*
X110370000Y-139000000D03*
X107830000Y-136460000D03*
X107830000Y-139000000D03*
X105290000Y-136460000D03*
X105290000Y-139000000D03*
X102750000Y-136460000D03*
D11*
X102750000Y-139000000D03*
D10*
X136906000Y-139954000D03*
X136906000Y-137414000D03*
X136906000Y-134874000D03*
X136906000Y-132334000D03*
X136906000Y-129794000D03*
X136906000Y-127254000D03*
X136906000Y-124714000D03*
X136906000Y-122174000D03*
X136906000Y-119634000D03*
X136906000Y-117094000D03*
X136906000Y-114554000D03*
X136906000Y-112014000D03*
X136906000Y-109474000D03*
X136906000Y-106934000D03*
X136906000Y-104394000D03*
X136906000Y-101854000D03*
X136906000Y-99314000D03*
X136906000Y-96774000D03*
X136906000Y-94234000D03*
X136906000Y-91694000D03*
X136906000Y-89154000D03*
X136906000Y-86614000D03*
X136906000Y-84074000D03*
X136906000Y-81534000D03*
X136906000Y-78994000D03*
X136906000Y-76454000D03*
X136906000Y-73914000D03*
X136906000Y-71374000D03*
X136906000Y-68834000D03*
X136906000Y-66294000D03*
X136906000Y-63754000D03*
X136906000Y-61214000D03*
D11*
X136906000Y-58674000D03*
D10*
X86614000Y-139954000D03*
X86614000Y-137414000D03*
X86614000Y-134874000D03*
X86614000Y-132334000D03*
X86614000Y-129794000D03*
X86614000Y-127254000D03*
X86614000Y-124714000D03*
X86614000Y-122174000D03*
X86614000Y-119634000D03*
X86614000Y-117094000D03*
X86614000Y-114554000D03*
X86614000Y-112014000D03*
X86614000Y-109474000D03*
X86614000Y-106934000D03*
X86614000Y-104394000D03*
X86614000Y-101854000D03*
X86614000Y-99314000D03*
X86614000Y-96774000D03*
X86614000Y-94234000D03*
X86614000Y-91694000D03*
X86614000Y-89154000D03*
X86614000Y-86614000D03*
X86614000Y-84074000D03*
X86614000Y-81534000D03*
X86614000Y-78994000D03*
X86614000Y-76454000D03*
X86614000Y-73914000D03*
X86614000Y-71374000D03*
X86614000Y-68834000D03*
X86614000Y-66294000D03*
X86614000Y-63754000D03*
X86614000Y-61214000D03*
D11*
X86614000Y-58674000D03*
D10*
X125222000Y-71120000D03*
X125222000Y-68580000D03*
X125222000Y-66040000D03*
D11*
X125222000Y-63500000D03*
D10*
X97028000Y-122555000D03*
X99568000Y-122555000D03*
X102108000Y-122555000D03*
D11*
X104648000Y-122555000D03*
D12*
X111148000Y-112268000D03*
X111148000Y-116768000D03*
X104648000Y-112268000D03*
X104648000Y-116768000D03*
X109878000Y-76708000D03*
X109878000Y-81208000D03*
X103378000Y-76708000D03*
X103378000Y-81208000D03*
D13*
X119761000Y-128397000D03*
X110109000Y-127889000D03*
X100750000Y-88500000D03*
X101750000Y-86000000D03*
X89662000Y-81534000D03*
X96266000Y-81534000D03*
X113157000Y-73787000D03*
X126746000Y-120904000D03*
X107188000Y-74041000D03*
X115951004Y-106045000D03*
X122428000Y-108204000D03*
X113792000Y-120142000D03*
X89500000Y-118000000D03*
X89662000Y-98552000D03*
X99695000Y-112522000D03*
X107250000Y-99500000D03*
X103500000Y-129750000D03*
X109250000Y-133250000D03*
X97500000Y-84750000D03*
X124250000Y-137750000D03*
X127750000Y-134250000D03*
X117348000Y-79375000D03*
X114007010Y-97282000D03*
X124000000Y-93250000D03*
X118618000Y-125476000D03*
X121158000Y-117094000D03*
X112268000Y-67056000D03*
X111252000Y-84836000D03*
X108204000Y-83820000D03*
X112268000Y-122174000D03*
X107950000Y-125476000D03*
X98905660Y-125630340D03*
X123000000Y-134000000D03*
X120500000Y-131250000D03*
X114250000Y-134500000D03*
X117750000Y-134500000D03*
X107500000Y-134500000D03*
X104000000Y-134500000D03*
X100250000Y-118250000D03*
X96500000Y-118250000D03*
D14*
X113284000Y-87376000D02*
X113284000Y-76327000D01*
X113284000Y-76327000D02*
X110109000Y-73152000D01*
X113919000Y-110490000D02*
X116930001Y-107478999D01*
X111252000Y-97155000D02*
X111252000Y-89408000D01*
X135806000Y-58674000D02*
X136906000Y-58674000D01*
X108585000Y-122555000D02*
X113919000Y-117221000D01*
X104648000Y-122555000D02*
X108585000Y-122555000D01*
X116930001Y-107478999D02*
X116930001Y-102833001D01*
X111252000Y-89408000D02*
X113284000Y-87376000D01*
X116930001Y-102833001D02*
X111252000Y-97155000D01*
X113919000Y-117221000D02*
X113919000Y-110490000D01*
X110109000Y-73152000D02*
X110109000Y-66040000D01*
X110109000Y-66040000D02*
X117475000Y-58674000D01*
X117475000Y-58674000D02*
X135806000Y-58674000D01*
X119761000Y-128397000D02*
X119253000Y-127889000D01*
X119253000Y-127889000D02*
X110109000Y-127889000D01*
X126322000Y-63500000D02*
X125222000Y-63500000D01*
X130369919Y-63500000D02*
X126322000Y-63500000D01*
X135703919Y-68834000D02*
X130369919Y-63500000D01*
X136906000Y-68834000D02*
X135703919Y-68834000D01*
D15*
X101750000Y-87500000D02*
X100750000Y-88500000D01*
X101750000Y-86000000D02*
X101750000Y-87500000D01*
D14*
X89662000Y-81534000D02*
X94996000Y-81534000D01*
X94996000Y-81534000D02*
X96266000Y-81534000D01*
X137280003Y-77629001D02*
X138938000Y-79286998D01*
X113157000Y-73787000D02*
X116999001Y-77629001D01*
X116999001Y-77629001D02*
X137280003Y-77629001D01*
X138938000Y-119341002D02*
X137375002Y-120904000D01*
X138938000Y-79286998D02*
X138938000Y-119341002D01*
X137375002Y-120904000D02*
X126746000Y-120904000D01*
X107188000Y-74041000D02*
X107188000Y-97281996D01*
X107188000Y-97281996D02*
X115551005Y-105645001D01*
X115551005Y-105645001D02*
X115951004Y-106045000D01*
X122428000Y-108204000D02*
X122428000Y-111506000D01*
X122428000Y-111506000D02*
X113792000Y-120142000D01*
X100500000Y-140750000D02*
X98500000Y-138750000D01*
X87463999Y-123196236D02*
X87463999Y-123023999D01*
X108620000Y-140750000D02*
X100500000Y-140750000D01*
X93015035Y-128575035D02*
X92842798Y-128575035D01*
X98500000Y-138750000D02*
X98500000Y-134060000D01*
X110370000Y-139000000D02*
X108620000Y-140750000D01*
X98500000Y-134060000D02*
X93015035Y-128575035D01*
X92842798Y-128575035D02*
X87463999Y-123196236D01*
X87463999Y-123023999D02*
X86614000Y-122174000D01*
X89500000Y-118130000D02*
X89500000Y-118000000D01*
X107830000Y-136460000D02*
X89500000Y-118130000D01*
X89662000Y-98552000D02*
X99695000Y-108585000D01*
X99695000Y-108585000D02*
X99695000Y-112522000D01*
X99000000Y-138500000D02*
X99000000Y-134000000D01*
X92124976Y-127220802D02*
X92124976Y-127048566D01*
X87789001Y-122712591D02*
X87789001Y-92869001D01*
X107830000Y-139000000D02*
X106654999Y-140175001D01*
X93201435Y-128125024D02*
X93029198Y-128125024D01*
X100675001Y-140175001D02*
X99000000Y-138500000D01*
X93029198Y-128125024D02*
X92124976Y-127220802D01*
X92124976Y-127048566D02*
X87789001Y-122712591D01*
X106654999Y-140175001D02*
X100675001Y-140175001D01*
X98950011Y-133950011D02*
X98950011Y-133873600D01*
X99000000Y-134000000D02*
X98950011Y-133950011D01*
X87463999Y-92543999D02*
X86614000Y-91694000D01*
X87789001Y-92869001D02*
X87463999Y-92543999D01*
X98950011Y-133873600D02*
X93201435Y-128125024D01*
X92574987Y-127034402D02*
X92574987Y-126862166D01*
X99450011Y-134899013D02*
X99450011Y-133813600D01*
X99400022Y-133687200D02*
X93387835Y-127675013D01*
X102375997Y-137824999D02*
X99450011Y-134899013D01*
X93387835Y-127675013D02*
X93215598Y-127675013D01*
X99450011Y-133813600D02*
X99400022Y-133763611D01*
X88250000Y-90790000D02*
X87463999Y-90003999D01*
X93215598Y-127675013D02*
X92574987Y-127034402D01*
X88250000Y-122537179D02*
X88250000Y-90790000D01*
X87463999Y-90003999D02*
X86614000Y-89154000D01*
X99400022Y-133763611D02*
X99400022Y-133687200D01*
X105290000Y-139000000D02*
X104114999Y-137824999D01*
X104114999Y-137824999D02*
X102375997Y-137824999D01*
X92574987Y-126862166D02*
X88250000Y-122537179D01*
X94717083Y-127225002D02*
X93401998Y-127225002D01*
X93024998Y-126848002D02*
X93024998Y-126675766D01*
X88750000Y-88750000D02*
X87463999Y-87463999D01*
X93024998Y-126675766D02*
X88750000Y-122400768D01*
X102750000Y-135257919D02*
X94717083Y-127225002D01*
X102750000Y-136460000D02*
X102750000Y-135257919D01*
X93401998Y-127225002D02*
X93024998Y-126848002D01*
X88750000Y-122400768D02*
X88750000Y-88750000D01*
X87463999Y-87463999D02*
X86614000Y-86614000D01*
X107250000Y-99500000D02*
X107250000Y-116127002D01*
X107250000Y-116127002D02*
X107250000Y-117750000D01*
X107250000Y-117750000D02*
X106000000Y-119000000D01*
X103472999Y-129722999D02*
X103500000Y-129750000D01*
X103472999Y-121527001D02*
X103472999Y-129722999D01*
X106000000Y-119000000D02*
X103472999Y-121527001D01*
X117990000Y-136460000D02*
X113005002Y-131475002D01*
X100932999Y-120317001D02*
X103322999Y-117927001D01*
X87463999Y-69683999D02*
X86614000Y-68834000D01*
X103322999Y-85542999D02*
X87463999Y-69683999D01*
X103322999Y-117927001D02*
X103322999Y-85542999D01*
X100932999Y-128256003D02*
X100932999Y-120317001D01*
X113005002Y-131475002D02*
X104151998Y-131475002D01*
X104151998Y-131475002D02*
X100932999Y-128256003D01*
X105290585Y-133250000D02*
X109250000Y-133250000D01*
X100023998Y-127983413D02*
X105290585Y-133250000D01*
X100023998Y-124750000D02*
X100023998Y-127983413D01*
X97500000Y-105500000D02*
X101000000Y-109000000D01*
X97500000Y-84750000D02*
X97500000Y-105500000D01*
X101000000Y-109000000D02*
X101000000Y-113750000D01*
X101000000Y-113750000D02*
X98250000Y-116500000D01*
X98250000Y-116500000D02*
X98250000Y-122976002D01*
X98250000Y-122976002D02*
X100023998Y-124750000D01*
X112910000Y-139000000D02*
X114985023Y-141075023D01*
X136056001Y-130643999D02*
X136906000Y-129794000D01*
X114985023Y-141075023D02*
X125624977Y-141075023D01*
X125624977Y-141075023D02*
X136056001Y-130643999D01*
X117425999Y-140175001D02*
X121824999Y-140175001D01*
X116814999Y-139564001D02*
X117425999Y-140175001D01*
X116814999Y-138314999D02*
X116814999Y-139564001D01*
X116135001Y-137635001D02*
X116814999Y-138314999D01*
X114085001Y-137635001D02*
X116135001Y-137635001D01*
X112910000Y-136460000D02*
X114085001Y-137635001D01*
X121824999Y-140175001D02*
X124250000Y-137750000D01*
X134746000Y-127254000D02*
X136906000Y-127254000D01*
X127750000Y-134250000D02*
X134746000Y-127254000D01*
X117348000Y-93941010D02*
X114407009Y-96882001D01*
X114407009Y-96882001D02*
X114007010Y-97282000D01*
X117348000Y-79375000D02*
X117348000Y-93941010D01*
X125750000Y-105390000D02*
X136056001Y-95083999D01*
X136056001Y-95083999D02*
X136906000Y-94234000D01*
X122447992Y-140625012D02*
X125750000Y-137323004D01*
X125750000Y-137323004D02*
X125750000Y-105390000D01*
X117075012Y-140625012D02*
X122447992Y-140625012D01*
X115450000Y-139000000D02*
X117075012Y-140625012D01*
X124000000Y-93815685D02*
X124000000Y-93250000D01*
X124000000Y-130000000D02*
X124000000Y-93815685D01*
X116771411Y-137635001D02*
X118614999Y-137635001D01*
X115596410Y-136460000D02*
X116771411Y-137635001D01*
X115450000Y-136460000D02*
X115596410Y-136460000D01*
X119354999Y-136895001D02*
X119354999Y-134645001D01*
X119354999Y-134645001D02*
X124000000Y-130000000D01*
X118614999Y-137635001D02*
X119354999Y-136895001D01*
X120530000Y-139000000D02*
X124700011Y-134829989D01*
X124700011Y-134829989D02*
X124700011Y-101359989D01*
X136056001Y-90003999D02*
X136906000Y-89154000D01*
X124700011Y-101359989D02*
X136056001Y-90003999D01*
X131572000Y-68580000D02*
X136906000Y-73914000D01*
X125222000Y-68580000D02*
X131572000Y-68580000D01*
X112268000Y-67056000D02*
X112776000Y-67056000D01*
D15*
X105290000Y-135790000D02*
X104000000Y-134500000D01*
X105290000Y-136460000D02*
X105290000Y-135790000D01*
D16*
G36*
X139573000Y-78862771D02*
G01*
X139572974Y-78862722D01*
X139478001Y-78746997D01*
X139449004Y-78723200D01*
X138084552Y-77358749D01*
X138146706Y-77283014D01*
X138284599Y-77025034D01*
X138369513Y-76745111D01*
X138398185Y-76454000D01*
X138369513Y-76162889D01*
X138284599Y-75882966D01*
X138146706Y-75624986D01*
X137961134Y-75398866D01*
X137735014Y-75213294D01*
X137680209Y-75184000D01*
X137735014Y-75154706D01*
X137961134Y-74969134D01*
X138146706Y-74743014D01*
X138284599Y-74485034D01*
X138369513Y-74205111D01*
X138398185Y-73914000D01*
X138369513Y-73622889D01*
X138284599Y-73342966D01*
X138146706Y-73084986D01*
X137961134Y-72858866D01*
X137735014Y-72673294D01*
X137680209Y-72644000D01*
X137735014Y-72614706D01*
X137961134Y-72429134D01*
X138146706Y-72203014D01*
X138284599Y-71945034D01*
X138369513Y-71665111D01*
X138398185Y-71374000D01*
X138369513Y-71082889D01*
X138284599Y-70802966D01*
X138146706Y-70544986D01*
X137961134Y-70318866D01*
X137735014Y-70133294D01*
X137680209Y-70104000D01*
X137735014Y-70074706D01*
X137961134Y-69889134D01*
X138146706Y-69663014D01*
X138284599Y-69405034D01*
X138369513Y-69125111D01*
X138398185Y-68834000D01*
X138369513Y-68542889D01*
X138284599Y-68262966D01*
X138146706Y-68004986D01*
X137961134Y-67778866D01*
X137735014Y-67593294D01*
X137680209Y-67564000D01*
X137735014Y-67534706D01*
X137961134Y-67349134D01*
X138146706Y-67123014D01*
X138284599Y-66865034D01*
X138369513Y-66585111D01*
X138398185Y-66294000D01*
X138369513Y-66002889D01*
X138284599Y-65722966D01*
X138146706Y-65464986D01*
X137961134Y-65238866D01*
X137735014Y-65053294D01*
X137680209Y-65024000D01*
X137735014Y-64994706D01*
X137961134Y-64809134D01*
X138146706Y-64583014D01*
X138284599Y-64325034D01*
X138369513Y-64045111D01*
X138398185Y-63754000D01*
X138369513Y-63462889D01*
X138284599Y-63182966D01*
X138146706Y-62924986D01*
X137961134Y-62698866D01*
X137735014Y-62513294D01*
X137670477Y-62478799D01*
X137787355Y-62409178D01*
X138003588Y-62214269D01*
X138177641Y-61980920D01*
X138302825Y-61718099D01*
X138347476Y-61570890D01*
X138226155Y-61341000D01*
X137033000Y-61341000D01*
X137033000Y-61361000D01*
X136779000Y-61361000D01*
X136779000Y-61341000D01*
X135585845Y-61341000D01*
X135464524Y-61570890D01*
X135509175Y-61718099D01*
X135634359Y-61980920D01*
X135808412Y-62214269D01*
X136024645Y-62409178D01*
X136141523Y-62478799D01*
X136076986Y-62513294D01*
X135850866Y-62698866D01*
X135665294Y-62924986D01*
X135527401Y-63182966D01*
X135442487Y-63462889D01*
X135413815Y-63754000D01*
X135442487Y-64045111D01*
X135527401Y-64325034D01*
X135665294Y-64583014D01*
X135850866Y-64809134D01*
X136076986Y-64994706D01*
X136131791Y-65024000D01*
X136076986Y-65053294D01*
X135850866Y-65238866D01*
X135665294Y-65464986D01*
X135527401Y-65722966D01*
X135442487Y-66002889D01*
X135413815Y-66294000D01*
X135442487Y-66585111D01*
X135527401Y-66865034D01*
X135665294Y-67123014D01*
X135850866Y-67349134D01*
X136076986Y-67534706D01*
X136131791Y-67564000D01*
X136076986Y-67593294D01*
X135850866Y-67778866D01*
X135793494Y-67848773D01*
X130933723Y-62989003D01*
X130909920Y-62959999D01*
X130794195Y-62865026D01*
X130662166Y-62794454D01*
X130518905Y-62750997D01*
X130407252Y-62740000D01*
X130407241Y-62740000D01*
X130369919Y-62736324D01*
X130332597Y-62740000D01*
X126710072Y-62740000D01*
X126710072Y-62650000D01*
X126697812Y-62525518D01*
X126661502Y-62405820D01*
X126602537Y-62295506D01*
X126523185Y-62198815D01*
X126426494Y-62119463D01*
X126316180Y-62060498D01*
X126196482Y-62024188D01*
X126072000Y-62011928D01*
X124372000Y-62011928D01*
X124247518Y-62024188D01*
X124127820Y-62060498D01*
X124017506Y-62119463D01*
X123920815Y-62198815D01*
X123841463Y-62295506D01*
X123782498Y-62405820D01*
X123746188Y-62525518D01*
X123733928Y-62650000D01*
X123733928Y-64350000D01*
X123746188Y-64474482D01*
X123782498Y-64594180D01*
X123841463Y-64704494D01*
X123920815Y-64801185D01*
X124017506Y-64880537D01*
X124127820Y-64939502D01*
X124196687Y-64960393D01*
X124166866Y-64984866D01*
X123981294Y-65210986D01*
X123843401Y-65468966D01*
X123758487Y-65748889D01*
X123729815Y-66040000D01*
X123758487Y-66331111D01*
X123843401Y-66611034D01*
X123981294Y-66869014D01*
X124166866Y-67095134D01*
X124392986Y-67280706D01*
X124447791Y-67310000D01*
X124392986Y-67339294D01*
X124166866Y-67524866D01*
X123981294Y-67750986D01*
X123843401Y-68008966D01*
X123758487Y-68288889D01*
X123729815Y-68580000D01*
X123758487Y-68871111D01*
X123843401Y-69151034D01*
X123981294Y-69409014D01*
X124166866Y-69635134D01*
X124392986Y-69820706D01*
X124457523Y-69855201D01*
X124340645Y-69924822D01*
X124124412Y-70119731D01*
X123950359Y-70353080D01*
X123825175Y-70615901D01*
X123780524Y-70763110D01*
X123901845Y-70993000D01*
X125095000Y-70993000D01*
X125095000Y-70973000D01*
X125349000Y-70973000D01*
X125349000Y-70993000D01*
X126542155Y-70993000D01*
X126663476Y-70763110D01*
X126618825Y-70615901D01*
X126493641Y-70353080D01*
X126319588Y-70119731D01*
X126103355Y-69924822D01*
X125986477Y-69855201D01*
X126051014Y-69820706D01*
X126277134Y-69635134D01*
X126462706Y-69409014D01*
X126499595Y-69340000D01*
X131257199Y-69340000D01*
X135465203Y-73548005D01*
X135442487Y-73622889D01*
X135413815Y-73914000D01*
X135442487Y-74205111D01*
X135527401Y-74485034D01*
X135665294Y-74743014D01*
X135850866Y-74969134D01*
X136076986Y-75154706D01*
X136131791Y-75184000D01*
X136076986Y-75213294D01*
X135850866Y-75398866D01*
X135665294Y-75624986D01*
X135527401Y-75882966D01*
X135442487Y-76162889D01*
X135413815Y-76454000D01*
X135442487Y-76745111D01*
X135480069Y-76869001D01*
X117313803Y-76869001D01*
X114192000Y-73747199D01*
X114192000Y-73685061D01*
X114152226Y-73485102D01*
X114074205Y-73296744D01*
X113960937Y-73127226D01*
X113816774Y-72983063D01*
X113647256Y-72869795D01*
X113458898Y-72791774D01*
X113258939Y-72752000D01*
X113055061Y-72752000D01*
X112855102Y-72791774D01*
X112666744Y-72869795D01*
X112497226Y-72983063D01*
X112353063Y-73127226D01*
X112239795Y-73296744D01*
X112161774Y-73485102D01*
X112122000Y-73685061D01*
X112122000Y-73888939D01*
X112161774Y-74088898D01*
X112190818Y-74159017D01*
X110869000Y-72837199D01*
X110869000Y-71476890D01*
X123780524Y-71476890D01*
X123825175Y-71624099D01*
X123950359Y-71886920D01*
X124124412Y-72120269D01*
X124340645Y-72315178D01*
X124590748Y-72464157D01*
X124865109Y-72561481D01*
X125095000Y-72440814D01*
X125095000Y-71247000D01*
X125349000Y-71247000D01*
X125349000Y-72440814D01*
X125578891Y-72561481D01*
X125853252Y-72464157D01*
X126103355Y-72315178D01*
X126319588Y-72120269D01*
X126493641Y-71886920D01*
X126618825Y-71624099D01*
X126663476Y-71476890D01*
X126542155Y-71247000D01*
X125349000Y-71247000D01*
X125095000Y-71247000D01*
X123901845Y-71247000D01*
X123780524Y-71476890D01*
X110869000Y-71476890D01*
X110869000Y-66354801D01*
X117789802Y-59434000D01*
X135417928Y-59434000D01*
X135417928Y-59524000D01*
X135430188Y-59648482D01*
X135466498Y-59768180D01*
X135525463Y-59878494D01*
X135604815Y-59975185D01*
X135701506Y-60054537D01*
X135811820Y-60113502D01*
X135892466Y-60137966D01*
X135808412Y-60213731D01*
X135634359Y-60447080D01*
X135509175Y-60709901D01*
X135464524Y-60857110D01*
X135585845Y-61087000D01*
X136779000Y-61087000D01*
X136779000Y-61067000D01*
X137033000Y-61067000D01*
X137033000Y-61087000D01*
X138226155Y-61087000D01*
X138347476Y-60857110D01*
X138302825Y-60709901D01*
X138177641Y-60447080D01*
X138003588Y-60213731D01*
X137919534Y-60137966D01*
X138000180Y-60113502D01*
X138110494Y-60054537D01*
X138207185Y-59975185D01*
X138286537Y-59878494D01*
X138345502Y-59768180D01*
X138381812Y-59648482D01*
X138394072Y-59524000D01*
X138394072Y-57824000D01*
X138381812Y-57699518D01*
X138345502Y-57579820D01*
X138286537Y-57469506D01*
X138207185Y-57372815D01*
X138110494Y-57293463D01*
X138000180Y-57234498D01*
X137880482Y-57198188D01*
X137756000Y-57185928D01*
X136056000Y-57185928D01*
X135931518Y-57198188D01*
X135811820Y-57234498D01*
X135701506Y-57293463D01*
X135604815Y-57372815D01*
X135525463Y-57469506D01*
X135466498Y-57579820D01*
X135430188Y-57699518D01*
X135417928Y-57824000D01*
X135417928Y-57914000D01*
X117512322Y-57914000D01*
X117474999Y-57910324D01*
X117437676Y-57914000D01*
X117437667Y-57914000D01*
X117326014Y-57924997D01*
X117182753Y-57968454D01*
X117050723Y-58039026D01*
X116967083Y-58107668D01*
X116934999Y-58133999D01*
X116911201Y-58162997D01*
X109597998Y-65476201D01*
X109569000Y-65499999D01*
X109545202Y-65528997D01*
X109545201Y-65528998D01*
X109474026Y-65615724D01*
X109403454Y-65747754D01*
X109359998Y-65891015D01*
X109345324Y-66040000D01*
X109349001Y-66077332D01*
X109349000Y-73114677D01*
X109345324Y-73152000D01*
X109349000Y-73189322D01*
X109349000Y-73189332D01*
X109359997Y-73300985D01*
X109403454Y-73444246D01*
X109474026Y-73576276D01*
X109507221Y-73616724D01*
X109568999Y-73692001D01*
X109598003Y-73715804D01*
X112524001Y-76641803D01*
X112524000Y-87061198D01*
X110740998Y-88844201D01*
X110712000Y-88867999D01*
X110688202Y-88896997D01*
X110688201Y-88896998D01*
X110617026Y-88983724D01*
X110546454Y-89115754D01*
X110502998Y-89259015D01*
X110488324Y-89408000D01*
X110492001Y-89445332D01*
X110492000Y-97117678D01*
X110488324Y-97155000D01*
X110492000Y-97192322D01*
X110492000Y-97192332D01*
X110502997Y-97303985D01*
X110541521Y-97430985D01*
X110546454Y-97447246D01*
X110617026Y-97579276D01*
X110656871Y-97627826D01*
X110711999Y-97695001D01*
X110741003Y-97718804D01*
X116170002Y-103147804D01*
X116170002Y-105033284D01*
X116052943Y-105010000D01*
X115990806Y-105010000D01*
X107948000Y-96967195D01*
X107948000Y-82343413D01*
X108922192Y-82343413D01*
X109017956Y-82607814D01*
X109307571Y-82748704D01*
X109619108Y-82830384D01*
X109940595Y-82849718D01*
X110259675Y-82805961D01*
X110564088Y-82700795D01*
X110738044Y-82607814D01*
X110833808Y-82343413D01*
X109878000Y-81387605D01*
X108922192Y-82343413D01*
X107948000Y-82343413D01*
X107948000Y-81270595D01*
X108236282Y-81270595D01*
X108280039Y-81589675D01*
X108385205Y-81894088D01*
X108478186Y-82068044D01*
X108742587Y-82163808D01*
X109698395Y-81208000D01*
X110057605Y-81208000D01*
X111013413Y-82163808D01*
X111277814Y-82068044D01*
X111418704Y-81778429D01*
X111500384Y-81466892D01*
X111519718Y-81145405D01*
X111475961Y-80826325D01*
X111370795Y-80521912D01*
X111277814Y-80347956D01*
X111013413Y-80252192D01*
X110057605Y-81208000D01*
X109698395Y-81208000D01*
X108742587Y-80252192D01*
X108478186Y-80347956D01*
X108337296Y-80637571D01*
X108255616Y-80949108D01*
X108236282Y-81270595D01*
X107948000Y-81270595D01*
X107948000Y-80072587D01*
X108922192Y-80072587D01*
X109878000Y-81028395D01*
X110833808Y-80072587D01*
X110738044Y-79808186D01*
X110448429Y-79667296D01*
X110136892Y-79585616D01*
X109815405Y-79566282D01*
X109496325Y-79610039D01*
X109191912Y-79715205D01*
X109017956Y-79808186D01*
X108922192Y-80072587D01*
X107948000Y-80072587D01*
X107948000Y-76546967D01*
X108243000Y-76546967D01*
X108243000Y-76869033D01*
X108305832Y-77184912D01*
X108429082Y-77482463D01*
X108608013Y-77750252D01*
X108835748Y-77977987D01*
X109103537Y-78156918D01*
X109401088Y-78280168D01*
X109716967Y-78343000D01*
X110039033Y-78343000D01*
X110354912Y-78280168D01*
X110652463Y-78156918D01*
X110920252Y-77977987D01*
X111147987Y-77750252D01*
X111326918Y-77482463D01*
X111450168Y-77184912D01*
X111513000Y-76869033D01*
X111513000Y-76546967D01*
X111450168Y-76231088D01*
X111326918Y-75933537D01*
X111147987Y-75665748D01*
X110920252Y-75438013D01*
X110652463Y-75259082D01*
X110354912Y-75135832D01*
X110039033Y-75073000D01*
X109716967Y-75073000D01*
X109401088Y-75135832D01*
X109103537Y-75259082D01*
X108835748Y-75438013D01*
X108608013Y-75665748D01*
X108429082Y-75933537D01*
X108305832Y-76231088D01*
X108243000Y-76546967D01*
X107948000Y-76546967D01*
X107948000Y-74744711D01*
X107991937Y-74700774D01*
X108105205Y-74531256D01*
X108183226Y-74342898D01*
X108223000Y-74142939D01*
X108223000Y-73939061D01*
X108183226Y-73739102D01*
X108105205Y-73550744D01*
X107991937Y-73381226D01*
X107847774Y-73237063D01*
X107678256Y-73123795D01*
X107489898Y-73045774D01*
X107289939Y-73006000D01*
X107086061Y-73006000D01*
X106886102Y-73045774D01*
X106697744Y-73123795D01*
X106528226Y-73237063D01*
X106384063Y-73381226D01*
X106270795Y-73550744D01*
X106192774Y-73739102D01*
X106153000Y-73939061D01*
X106153000Y-74142939D01*
X106192774Y-74342898D01*
X106270795Y-74531256D01*
X106384063Y-74700774D01*
X106428000Y-74744711D01*
X106428001Y-97244663D01*
X106424324Y-97281996D01*
X106438998Y-97430981D01*
X106482454Y-97574242D01*
X106553026Y-97706272D01*
X106620365Y-97788324D01*
X106648000Y-97821997D01*
X106676998Y-97845795D01*
X107296203Y-98465000D01*
X107148061Y-98465000D01*
X106948102Y-98504774D01*
X106759744Y-98582795D01*
X106590226Y-98696063D01*
X106446063Y-98840226D01*
X106332795Y-99009744D01*
X106254774Y-99198102D01*
X106215000Y-99398061D01*
X106215000Y-99601939D01*
X106254774Y-99801898D01*
X106332795Y-99990256D01*
X106446063Y-100159774D01*
X106490000Y-100203711D01*
X106490001Y-116089660D01*
X106490000Y-116089670D01*
X106490001Y-117435197D01*
X105489002Y-118436197D01*
X105488997Y-118436201D01*
X102962002Y-120963197D01*
X102932998Y-120987000D01*
X102903826Y-121022547D01*
X102838025Y-121102725D01*
X102772065Y-121226127D01*
X102679034Y-121176401D01*
X102399111Y-121091487D01*
X102180950Y-121070000D01*
X102035050Y-121070000D01*
X101816889Y-121091487D01*
X101692999Y-121129069D01*
X101692999Y-120631802D01*
X103834008Y-118490795D01*
X103863000Y-118467002D01*
X103886794Y-118438009D01*
X103886798Y-118438005D01*
X103957972Y-118351278D01*
X103957973Y-118351277D01*
X104001466Y-118269908D01*
X104171088Y-118340168D01*
X104486967Y-118403000D01*
X104809033Y-118403000D01*
X105124912Y-118340168D01*
X105422463Y-118216918D01*
X105690252Y-118037987D01*
X105917987Y-117810252D01*
X106096918Y-117542463D01*
X106220168Y-117244912D01*
X106283000Y-116929033D01*
X106283000Y-116606967D01*
X106220168Y-116291088D01*
X106096918Y-115993537D01*
X105917987Y-115725748D01*
X105690252Y-115498013D01*
X105422463Y-115319082D01*
X105124912Y-115195832D01*
X104809033Y-115133000D01*
X104486967Y-115133000D01*
X104171088Y-115195832D01*
X104082999Y-115232320D01*
X104082999Y-113803680D01*
X104171088Y-113840168D01*
X104486967Y-113903000D01*
X104809033Y-113903000D01*
X105124912Y-113840168D01*
X105422463Y-113716918D01*
X105690252Y-113537987D01*
X105917987Y-113310252D01*
X106096918Y-113042463D01*
X106220168Y-112744912D01*
X106283000Y-112429033D01*
X106283000Y-112106967D01*
X106220168Y-111791088D01*
X106096918Y-111493537D01*
X105917987Y-111225748D01*
X105690252Y-110998013D01*
X105422463Y-110819082D01*
X105124912Y-110695832D01*
X104809033Y-110633000D01*
X104486967Y-110633000D01*
X104171088Y-110695832D01*
X104082999Y-110732320D01*
X104082999Y-85580322D01*
X104086675Y-85542999D01*
X104082999Y-85505676D01*
X104082999Y-85505666D01*
X104072002Y-85394013D01*
X104028545Y-85250752D01*
X103999313Y-85196063D01*
X103957973Y-85118722D01*
X103886798Y-85031996D01*
X103863000Y-85002998D01*
X103834002Y-84979200D01*
X101198215Y-82343413D01*
X102422192Y-82343413D01*
X102517956Y-82607814D01*
X102807571Y-82748704D01*
X103119108Y-82830384D01*
X103440595Y-82849718D01*
X103759675Y-82805961D01*
X104064088Y-82700795D01*
X104238044Y-82607814D01*
X104333808Y-82343413D01*
X103378000Y-81387605D01*
X102422192Y-82343413D01*
X101198215Y-82343413D01*
X100125397Y-81270595D01*
X101736282Y-81270595D01*
X101780039Y-81589675D01*
X101885205Y-81894088D01*
X101978186Y-82068044D01*
X102242587Y-82163808D01*
X103198395Y-81208000D01*
X103557605Y-81208000D01*
X104513413Y-82163808D01*
X104777814Y-82068044D01*
X104918704Y-81778429D01*
X105000384Y-81466892D01*
X105019718Y-81145405D01*
X104975961Y-80826325D01*
X104870795Y-80521912D01*
X104777814Y-80347956D01*
X104513413Y-80252192D01*
X103557605Y-81208000D01*
X103198395Y-81208000D01*
X102242587Y-80252192D01*
X101978186Y-80347956D01*
X101837296Y-80637571D01*
X101755616Y-80949108D01*
X101736282Y-81270595D01*
X100125397Y-81270595D01*
X98927389Y-80072587D01*
X102422192Y-80072587D01*
X103378000Y-81028395D01*
X104333808Y-80072587D01*
X104238044Y-79808186D01*
X103948429Y-79667296D01*
X103636892Y-79585616D01*
X103315405Y-79566282D01*
X102996325Y-79610039D01*
X102691912Y-79715205D01*
X102517956Y-79808186D01*
X102422192Y-80072587D01*
X98927389Y-80072587D01*
X95401769Y-76546967D01*
X101743000Y-76546967D01*
X101743000Y-76869033D01*
X101805832Y-77184912D01*
X101929082Y-77482463D01*
X102108013Y-77750252D01*
X102335748Y-77977987D01*
X102603537Y-78156918D01*
X102901088Y-78280168D01*
X103216967Y-78343000D01*
X103539033Y-78343000D01*
X103854912Y-78280168D01*
X104152463Y-78156918D01*
X104420252Y-77977987D01*
X104647987Y-77750252D01*
X104826918Y-77482463D01*
X104950168Y-77184912D01*
X105013000Y-76869033D01*
X105013000Y-76546967D01*
X104950168Y-76231088D01*
X104826918Y-75933537D01*
X104647987Y-75665748D01*
X104420252Y-75438013D01*
X104152463Y-75259082D01*
X103854912Y-75135832D01*
X103539033Y-75073000D01*
X103216967Y-75073000D01*
X102901088Y-75135832D01*
X102603537Y-75259082D01*
X102335748Y-75438013D01*
X102108013Y-75665748D01*
X101929082Y-75933537D01*
X101805832Y-76231088D01*
X101743000Y-76546967D01*
X95401769Y-76546967D01*
X88054797Y-69199996D01*
X88077513Y-69125111D01*
X88106185Y-68834000D01*
X88077513Y-68542889D01*
X87992599Y-68262966D01*
X87854706Y-68004986D01*
X87669134Y-67778866D01*
X87443014Y-67593294D01*
X87388209Y-67564000D01*
X87443014Y-67534706D01*
X87669134Y-67349134D01*
X87854706Y-67123014D01*
X87992599Y-66865034D01*
X88077513Y-66585111D01*
X88106185Y-66294000D01*
X88077513Y-66002889D01*
X87992599Y-65722966D01*
X87854706Y-65464986D01*
X87669134Y-65238866D01*
X87443014Y-65053294D01*
X87388209Y-65024000D01*
X87443014Y-64994706D01*
X87669134Y-64809134D01*
X87854706Y-64583014D01*
X87992599Y-64325034D01*
X88077513Y-64045111D01*
X88106185Y-63754000D01*
X88077513Y-63462889D01*
X87992599Y-63182966D01*
X87854706Y-62924986D01*
X87669134Y-62698866D01*
X87443014Y-62513294D01*
X87378477Y-62478799D01*
X87495355Y-62409178D01*
X87711588Y-62214269D01*
X87885641Y-61980920D01*
X88010825Y-61718099D01*
X88055476Y-61570890D01*
X87934155Y-61341000D01*
X86741000Y-61341000D01*
X86741000Y-61361000D01*
X86487000Y-61361000D01*
X86487000Y-61341000D01*
X85293845Y-61341000D01*
X85172524Y-61570890D01*
X85217175Y-61718099D01*
X85342359Y-61980920D01*
X85516412Y-62214269D01*
X85732645Y-62409178D01*
X85849523Y-62478799D01*
X85784986Y-62513294D01*
X85558866Y-62698866D01*
X85373294Y-62924986D01*
X85235401Y-63182966D01*
X85150487Y-63462889D01*
X85121815Y-63754000D01*
X85150487Y-64045111D01*
X85235401Y-64325034D01*
X85373294Y-64583014D01*
X85558866Y-64809134D01*
X85784986Y-64994706D01*
X85839791Y-65024000D01*
X85784986Y-65053294D01*
X85558866Y-65238866D01*
X85373294Y-65464986D01*
X85235401Y-65722966D01*
X85150487Y-66002889D01*
X85121815Y-66294000D01*
X85150487Y-66585111D01*
X85235401Y-66865034D01*
X85373294Y-67123014D01*
X85558866Y-67349134D01*
X85784986Y-67534706D01*
X85839791Y-67564000D01*
X85784986Y-67593294D01*
X85558866Y-67778866D01*
X85373294Y-68004986D01*
X85235401Y-68262966D01*
X85150487Y-68542889D01*
X85121815Y-68834000D01*
X85150487Y-69125111D01*
X85235401Y-69405034D01*
X85373294Y-69663014D01*
X85558866Y-69889134D01*
X85784986Y-70074706D01*
X85839791Y-70104000D01*
X85784986Y-70133294D01*
X85558866Y-70318866D01*
X85373294Y-70544986D01*
X85235401Y-70802966D01*
X85150487Y-71082889D01*
X85121815Y-71374000D01*
X85150487Y-71665111D01*
X85235401Y-71945034D01*
X85373294Y-72203014D01*
X85558866Y-72429134D01*
X85784986Y-72614706D01*
X85839791Y-72644000D01*
X85784986Y-72673294D01*
X85558866Y-72858866D01*
X85373294Y-73084986D01*
X85235401Y-73342966D01*
X85150487Y-73622889D01*
X85121815Y-73914000D01*
X85150487Y-74205111D01*
X85235401Y-74485034D01*
X85373294Y-74743014D01*
X85558866Y-74969134D01*
X85784986Y-75154706D01*
X85839791Y-75184000D01*
X85784986Y-75213294D01*
X85558866Y-75398866D01*
X85373294Y-75624986D01*
X85235401Y-75882966D01*
X85150487Y-76162889D01*
X85121815Y-76454000D01*
X85150487Y-76745111D01*
X85235401Y-77025034D01*
X85373294Y-77283014D01*
X85558866Y-77509134D01*
X85784986Y-77694706D01*
X85849523Y-77729201D01*
X85732645Y-77798822D01*
X85516412Y-77993731D01*
X85342359Y-78227080D01*
X85217175Y-78489901D01*
X85172524Y-78637110D01*
X85293845Y-78867000D01*
X86487000Y-78867000D01*
X86487000Y-78847000D01*
X86741000Y-78847000D01*
X86741000Y-78867000D01*
X87934155Y-78867000D01*
X88055476Y-78637110D01*
X88010825Y-78489901D01*
X87885641Y-78227080D01*
X87711588Y-77993731D01*
X87495355Y-77798822D01*
X87378477Y-77729201D01*
X87443014Y-77694706D01*
X87669134Y-77509134D01*
X87854706Y-77283014D01*
X87992599Y-77025034D01*
X88077513Y-76745111D01*
X88106185Y-76454000D01*
X88077513Y-76162889D01*
X87992599Y-75882966D01*
X87854706Y-75624986D01*
X87669134Y-75398866D01*
X87443014Y-75213294D01*
X87388209Y-75184000D01*
X87443014Y-75154706D01*
X87669134Y-74969134D01*
X87854706Y-74743014D01*
X87992599Y-74485034D01*
X88077513Y-74205111D01*
X88106185Y-73914000D01*
X88077513Y-73622889D01*
X87992599Y-73342966D01*
X87854706Y-73084986D01*
X87669134Y-72858866D01*
X87443014Y-72673294D01*
X87388209Y-72644000D01*
X87443014Y-72614706D01*
X87669134Y-72429134D01*
X87854706Y-72203014D01*
X87992599Y-71945034D01*
X88077513Y-71665111D01*
X88103765Y-71398566D01*
X101670198Y-84965000D01*
X101648061Y-84965000D01*
X101448102Y-85004774D01*
X101259744Y-85082795D01*
X101090226Y-85196063D01*
X100946063Y-85340226D01*
X100832795Y-85509744D01*
X100754774Y-85698102D01*
X100715000Y-85898061D01*
X100715000Y-86101939D01*
X100754774Y-86301898D01*
X100832795Y-86490256D01*
X100865000Y-86538455D01*
X100865001Y-87133421D01*
X100504957Y-87493465D01*
X100448102Y-87504774D01*
X100259744Y-87582795D01*
X100090226Y-87696063D01*
X99946063Y-87840226D01*
X99832795Y-88009744D01*
X99754774Y-88198102D01*
X99715000Y-88398061D01*
X99715000Y-88601939D01*
X99754774Y-88801898D01*
X99832795Y-88990256D01*
X99946063Y-89159774D01*
X100090226Y-89303937D01*
X100259744Y-89417205D01*
X100448102Y-89495226D01*
X100648061Y-89535000D01*
X100851939Y-89535000D01*
X101051898Y-89495226D01*
X101240256Y-89417205D01*
X101409774Y-89303937D01*
X101553937Y-89159774D01*
X101667205Y-88990256D01*
X101745226Y-88801898D01*
X101756535Y-88745043D01*
X102345049Y-88156530D01*
X102378817Y-88128817D01*
X102420922Y-88077513D01*
X102489411Y-87994059D01*
X102563000Y-87856383D01*
X102562999Y-117612198D01*
X100421997Y-119753202D01*
X100392999Y-119777000D01*
X100369201Y-119805998D01*
X100369200Y-119805999D01*
X100298025Y-119892725D01*
X100227453Y-120024755D01*
X100203209Y-120104679D01*
X100191889Y-120142000D01*
X100183997Y-120168016D01*
X100169323Y-120317001D01*
X100173000Y-120354333D01*
X100173000Y-121206235D01*
X100072099Y-121158175D01*
X99924890Y-121113524D01*
X99695000Y-121234845D01*
X99695000Y-122428000D01*
X99715000Y-122428000D01*
X99715000Y-122682000D01*
X99695000Y-122682000D01*
X99695000Y-122702000D01*
X99441000Y-122702000D01*
X99441000Y-122682000D01*
X99421000Y-122682000D01*
X99421000Y-122428000D01*
X99441000Y-122428000D01*
X99441000Y-121234845D01*
X99211110Y-121113524D01*
X99063901Y-121158175D01*
X99010000Y-121183849D01*
X99010000Y-116814801D01*
X101511003Y-114313799D01*
X101540001Y-114290001D01*
X101634974Y-114174276D01*
X101705546Y-114042247D01*
X101749003Y-113898986D01*
X101760000Y-113787333D01*
X101760000Y-113787324D01*
X101763676Y-113750001D01*
X101760000Y-113712678D01*
X101760000Y-109037322D01*
X101763676Y-108999999D01*
X101760000Y-108962676D01*
X101760000Y-108962667D01*
X101749003Y-108851014D01*
X101705546Y-108707753D01*
X101634974Y-108575724D01*
X101611948Y-108547667D01*
X101563799Y-108488996D01*
X101563795Y-108488992D01*
X101540001Y-108459999D01*
X101511009Y-108436206D01*
X98260000Y-105185199D01*
X98260000Y-85453711D01*
X98303937Y-85409774D01*
X98417205Y-85240256D01*
X98495226Y-85051898D01*
X98535000Y-84851939D01*
X98535000Y-84648061D01*
X98495226Y-84448102D01*
X98417205Y-84259744D01*
X98303937Y-84090226D01*
X98159774Y-83946063D01*
X97990256Y-83832795D01*
X97801898Y-83754774D01*
X97601939Y-83715000D01*
X97398061Y-83715000D01*
X97198102Y-83754774D01*
X97009744Y-83832795D01*
X96840226Y-83946063D01*
X96696063Y-84090226D01*
X96582795Y-84259744D01*
X96504774Y-84448102D01*
X96465000Y-84648061D01*
X96465000Y-84851939D01*
X96504774Y-85051898D01*
X96582795Y-85240256D01*
X96696063Y-85409774D01*
X96740000Y-85453711D01*
X96740001Y-104555199D01*
X90697000Y-98512199D01*
X90697000Y-98450061D01*
X90657226Y-98250102D01*
X90579205Y-98061744D01*
X90465937Y-97892226D01*
X90321774Y-97748063D01*
X90152256Y-97634795D01*
X89963898Y-97556774D01*
X89763939Y-97517000D01*
X89560061Y-97517000D01*
X89510000Y-97526958D01*
X89510000Y-88787322D01*
X89513676Y-88749999D01*
X89510000Y-88712676D01*
X89510000Y-88712667D01*
X89499003Y-88601014D01*
X89455546Y-88457753D01*
X89450576Y-88448454D01*
X89384974Y-88325723D01*
X89313799Y-88238997D01*
X89290001Y-88209999D01*
X89261003Y-88186201D01*
X88054797Y-86979996D01*
X88077513Y-86905111D01*
X88106185Y-86614000D01*
X88077513Y-86322889D01*
X87992599Y-86042966D01*
X87854706Y-85784986D01*
X87669134Y-85558866D01*
X87443014Y-85373294D01*
X87388209Y-85344000D01*
X87443014Y-85314706D01*
X87669134Y-85129134D01*
X87854706Y-84903014D01*
X87992599Y-84645034D01*
X88077513Y-84365111D01*
X88106185Y-84074000D01*
X88077513Y-83782889D01*
X87992599Y-83502966D01*
X87854706Y-83244986D01*
X87669134Y-83018866D01*
X87443014Y-82833294D01*
X87388209Y-82804000D01*
X87443014Y-82774706D01*
X87669134Y-82589134D01*
X87854706Y-82363014D01*
X87992599Y-82105034D01*
X88077513Y-81825111D01*
X88106185Y-81534000D01*
X88096145Y-81432061D01*
X88627000Y-81432061D01*
X88627000Y-81635939D01*
X88666774Y-81835898D01*
X88744795Y-82024256D01*
X88858063Y-82193774D01*
X89002226Y-82337937D01*
X89171744Y-82451205D01*
X89360102Y-82529226D01*
X89560061Y-82569000D01*
X89763939Y-82569000D01*
X89963898Y-82529226D01*
X90152256Y-82451205D01*
X90321774Y-82337937D01*
X90365711Y-82294000D01*
X95562289Y-82294000D01*
X95606226Y-82337937D01*
X95775744Y-82451205D01*
X95964102Y-82529226D01*
X96164061Y-82569000D01*
X96367939Y-82569000D01*
X96567898Y-82529226D01*
X96756256Y-82451205D01*
X96925774Y-82337937D01*
X97069937Y-82193774D01*
X97183205Y-82024256D01*
X97261226Y-81835898D01*
X97301000Y-81635939D01*
X97301000Y-81432061D01*
X97261226Y-81232102D01*
X97183205Y-81043744D01*
X97069937Y-80874226D01*
X96925774Y-80730063D01*
X96756256Y-80616795D01*
X96567898Y-80538774D01*
X96367939Y-80499000D01*
X96164061Y-80499000D01*
X95964102Y-80538774D01*
X95775744Y-80616795D01*
X95606226Y-80730063D01*
X95562289Y-80774000D01*
X90365711Y-80774000D01*
X90321774Y-80730063D01*
X90152256Y-80616795D01*
X89963898Y-80538774D01*
X89763939Y-80499000D01*
X89560061Y-80499000D01*
X89360102Y-80538774D01*
X89171744Y-80616795D01*
X89002226Y-80730063D01*
X88858063Y-80874226D01*
X88744795Y-81043744D01*
X88666774Y-81232102D01*
X88627000Y-81432061D01*
X88096145Y-81432061D01*
X88077513Y-81242889D01*
X87992599Y-80962966D01*
X87854706Y-80704986D01*
X87669134Y-80478866D01*
X87443014Y-80293294D01*
X87378477Y-80258799D01*
X87495355Y-80189178D01*
X87711588Y-79994269D01*
X87885641Y-79760920D01*
X88010825Y-79498099D01*
X88055476Y-79350890D01*
X87934155Y-79121000D01*
X86741000Y-79121000D01*
X86741000Y-79141000D01*
X86487000Y-79141000D01*
X86487000Y-79121000D01*
X85293845Y-79121000D01*
X85172524Y-79350890D01*
X85217175Y-79498099D01*
X85342359Y-79760920D01*
X85516412Y-79994269D01*
X85732645Y-80189178D01*
X85849523Y-80258799D01*
X85784986Y-80293294D01*
X85558866Y-80478866D01*
X85373294Y-80704986D01*
X85235401Y-80962966D01*
X85150487Y-81242889D01*
X85121815Y-81534000D01*
X85150487Y-81825111D01*
X85235401Y-82105034D01*
X85373294Y-82363014D01*
X85558866Y-82589134D01*
X85784986Y-82774706D01*
X85839791Y-82804000D01*
X85784986Y-82833294D01*
X85558866Y-83018866D01*
X85373294Y-83244986D01*
X85235401Y-83502966D01*
X85150487Y-83782889D01*
X85121815Y-84074000D01*
X85150487Y-84365111D01*
X85235401Y-84645034D01*
X85373294Y-84903014D01*
X85558866Y-85129134D01*
X85784986Y-85314706D01*
X85839791Y-85344000D01*
X85784986Y-85373294D01*
X85558866Y-85558866D01*
X85373294Y-85784986D01*
X85235401Y-86042966D01*
X85150487Y-86322889D01*
X85121815Y-86614000D01*
X85150487Y-86905111D01*
X85235401Y-87185034D01*
X85373294Y-87443014D01*
X85558866Y-87669134D01*
X85784986Y-87854706D01*
X85839791Y-87884000D01*
X85784986Y-87913294D01*
X85558866Y-88098866D01*
X85373294Y-88324986D01*
X85235401Y-88582966D01*
X85150487Y-88862889D01*
X85121815Y-89154000D01*
X85150487Y-89445111D01*
X85235401Y-89725034D01*
X85373294Y-89983014D01*
X85558866Y-90209134D01*
X85784986Y-90394706D01*
X85839791Y-90424000D01*
X85784986Y-90453294D01*
X85558866Y-90638866D01*
X85373294Y-90864986D01*
X85235401Y-91122966D01*
X85150487Y-91402889D01*
X85121815Y-91694000D01*
X85150487Y-91985111D01*
X85235401Y-92265034D01*
X85373294Y-92523014D01*
X85558866Y-92749134D01*
X85784986Y-92934706D01*
X85839791Y-92964000D01*
X85784986Y-92993294D01*
X85558866Y-93178866D01*
X85373294Y-93404986D01*
X85235401Y-93662966D01*
X85150487Y-93942889D01*
X85121815Y-94234000D01*
X85150487Y-94525111D01*
X85235401Y-94805034D01*
X85373294Y-95063014D01*
X85558866Y-95289134D01*
X85784986Y-95474706D01*
X85839791Y-95504000D01*
X85784986Y-95533294D01*
X85558866Y-95718866D01*
X85373294Y-95944986D01*
X85235401Y-96202966D01*
X85150487Y-96482889D01*
X85121815Y-96774000D01*
X85150487Y-97065111D01*
X85235401Y-97345034D01*
X85373294Y-97603014D01*
X85558866Y-97829134D01*
X85784986Y-98014706D01*
X85839791Y-98044000D01*
X85784986Y-98073294D01*
X85558866Y-98258866D01*
X85373294Y-98484986D01*
X85235401Y-98742966D01*
X85150487Y-99022889D01*
X85121815Y-99314000D01*
X85150487Y-99605111D01*
X85235401Y-99885034D01*
X85373294Y-100143014D01*
X85558866Y-100369134D01*
X85784986Y-100554706D01*
X85839791Y-100584000D01*
X85784986Y-100613294D01*
X85558866Y-100798866D01*
X85373294Y-101024986D01*
X85235401Y-101282966D01*
X85150487Y-101562889D01*
X85121815Y-101854000D01*
X85150487Y-102145111D01*
X85235401Y-102425034D01*
X85373294Y-102683014D01*
X85558866Y-102909134D01*
X85784986Y-103094706D01*
X85839791Y-103124000D01*
X85784986Y-103153294D01*
X85558866Y-103338866D01*
X85373294Y-103564986D01*
X85235401Y-103822966D01*
X85150487Y-104102889D01*
X85121815Y-104394000D01*
X85150487Y-104685111D01*
X85235401Y-104965034D01*
X85373294Y-105223014D01*
X85558866Y-105449134D01*
X85784986Y-105634706D01*
X85839791Y-105664000D01*
X85784986Y-105693294D01*
X85558866Y-105878866D01*
X85373294Y-106104986D01*
X85235401Y-106362966D01*
X85150487Y-106642889D01*
X85121815Y-106934000D01*
X85150487Y-107225111D01*
X85235401Y-107505034D01*
X85373294Y-107763014D01*
X85558866Y-107989134D01*
X85784986Y-108174706D01*
X85839791Y-108204000D01*
X85784986Y-108233294D01*
X85558866Y-108418866D01*
X85373294Y-108644986D01*
X85235401Y-108902966D01*
X85150487Y-109182889D01*
X85121815Y-109474000D01*
X85150487Y-109765111D01*
X85235401Y-110045034D01*
X85373294Y-110303014D01*
X85558866Y-110529134D01*
X85784986Y-110714706D01*
X85839791Y-110744000D01*
X85784986Y-110773294D01*
X85558866Y-110958866D01*
X85373294Y-111184986D01*
X85235401Y-111442966D01*
X85150487Y-111722889D01*
X85121815Y-112014000D01*
X85150487Y-112305111D01*
X85235401Y-112585034D01*
X85373294Y-112843014D01*
X85558866Y-113069134D01*
X85784986Y-113254706D01*
X85839791Y-113284000D01*
X85784986Y-113313294D01*
X85558866Y-113498866D01*
X85373294Y-113724986D01*
X85235401Y-113982966D01*
X85150487Y-114262889D01*
X85121815Y-114554000D01*
X85150487Y-114845111D01*
X85235401Y-115125034D01*
X85373294Y-115383014D01*
X85558866Y-115609134D01*
X85784986Y-115794706D01*
X85839791Y-115824000D01*
X85784986Y-115853294D01*
X85558866Y-116038866D01*
X85373294Y-116264986D01*
X85235401Y-116522966D01*
X85150487Y-116802889D01*
X85121815Y-117094000D01*
X85150487Y-117385111D01*
X85235401Y-117665034D01*
X85373294Y-117923014D01*
X85558866Y-118149134D01*
X85784986Y-118334706D01*
X85839791Y-118364000D01*
X85784986Y-118393294D01*
X85558866Y-118578866D01*
X85373294Y-118804986D01*
X85235401Y-119062966D01*
X85150487Y-119342889D01*
X85121815Y-119634000D01*
X85150487Y-119925111D01*
X85235401Y-120205034D01*
X85373294Y-120463014D01*
X85558866Y-120689134D01*
X85784986Y-120874706D01*
X85839791Y-120904000D01*
X85784986Y-120933294D01*
X85558866Y-121118866D01*
X85373294Y-121344986D01*
X85235401Y-121602966D01*
X85150487Y-121882889D01*
X85121815Y-122174000D01*
X85150487Y-122465111D01*
X85235401Y-122745034D01*
X85373294Y-123003014D01*
X85558866Y-123229134D01*
X85784986Y-123414706D01*
X85839791Y-123444000D01*
X85784986Y-123473294D01*
X85558866Y-123658866D01*
X85373294Y-123884986D01*
X85235401Y-124142966D01*
X85150487Y-124422889D01*
X85121815Y-124714000D01*
X85150487Y-125005111D01*
X85235401Y-125285034D01*
X85373294Y-125543014D01*
X85558866Y-125769134D01*
X85784986Y-125954706D01*
X85839791Y-125984000D01*
X85784986Y-126013294D01*
X85558866Y-126198866D01*
X85373294Y-126424986D01*
X85235401Y-126682966D01*
X85150487Y-126962889D01*
X85121815Y-127254000D01*
X85150487Y-127545111D01*
X85235401Y-127825034D01*
X85373294Y-128083014D01*
X85558866Y-128309134D01*
X85784986Y-128494706D01*
X85839791Y-128524000D01*
X85784986Y-128553294D01*
X85558866Y-128738866D01*
X85373294Y-128964986D01*
X85235401Y-129222966D01*
X85150487Y-129502889D01*
X85121815Y-129794000D01*
X85150487Y-130085111D01*
X85235401Y-130365034D01*
X85373294Y-130623014D01*
X85558866Y-130849134D01*
X85784986Y-131034706D01*
X85839791Y-131064000D01*
X85784986Y-131093294D01*
X85558866Y-131278866D01*
X85373294Y-131504986D01*
X85235401Y-131762966D01*
X85150487Y-132042889D01*
X85121815Y-132334000D01*
X85150487Y-132625111D01*
X85235401Y-132905034D01*
X85373294Y-133163014D01*
X85558866Y-133389134D01*
X85784986Y-133574706D01*
X85839791Y-133604000D01*
X85784986Y-133633294D01*
X85558866Y-133818866D01*
X85373294Y-134044986D01*
X85235401Y-134302966D01*
X85150487Y-134582889D01*
X85121815Y-134874000D01*
X85150487Y-135165111D01*
X85235401Y-135445034D01*
X85373294Y-135703014D01*
X85558866Y-135929134D01*
X85784986Y-136114706D01*
X85839791Y-136144000D01*
X85784986Y-136173294D01*
X85558866Y-136358866D01*
X85373294Y-136584986D01*
X85235401Y-136842966D01*
X85150487Y-137122889D01*
X85121815Y-137414000D01*
X85150487Y-137705111D01*
X85235401Y-137985034D01*
X85373294Y-138243014D01*
X85558866Y-138469134D01*
X85784986Y-138654706D01*
X85849523Y-138689201D01*
X85732645Y-138758822D01*
X85516412Y-138953731D01*
X85342359Y-139187080D01*
X85217175Y-139449901D01*
X85172524Y-139597110D01*
X85293845Y-139827000D01*
X86487000Y-139827000D01*
X86487000Y-139807000D01*
X86741000Y-139807000D01*
X86741000Y-139827000D01*
X87934155Y-139827000D01*
X88055476Y-139597110D01*
X88010825Y-139449901D01*
X87885641Y-139187080D01*
X87711588Y-138953731D01*
X87495355Y-138758822D01*
X87378477Y-138689201D01*
X87443014Y-138654706D01*
X87669134Y-138469134D01*
X87854706Y-138243014D01*
X87992599Y-137985034D01*
X88077513Y-137705111D01*
X88106185Y-137414000D01*
X88077513Y-137122889D01*
X87992599Y-136842966D01*
X87854706Y-136584986D01*
X87669134Y-136358866D01*
X87443014Y-136173294D01*
X87388209Y-136144000D01*
X87443014Y-136114706D01*
X87669134Y-135929134D01*
X87854706Y-135703014D01*
X87992599Y-135445034D01*
X88077513Y-135165111D01*
X88106185Y-134874000D01*
X88077513Y-134582889D01*
X87992599Y-134302966D01*
X87854706Y-134044986D01*
X87669134Y-133818866D01*
X87443014Y-133633294D01*
X87388209Y-133604000D01*
X87443014Y-133574706D01*
X87669134Y-133389134D01*
X87854706Y-133163014D01*
X87992599Y-132905034D01*
X88077513Y-132625111D01*
X88106185Y-132334000D01*
X88077513Y-132042889D01*
X87992599Y-131762966D01*
X87854706Y-131504986D01*
X87669134Y-131278866D01*
X87443014Y-131093294D01*
X87388209Y-131064000D01*
X87443014Y-131034706D01*
X87669134Y-130849134D01*
X87854706Y-130623014D01*
X87992599Y-130365034D01*
X88077513Y-130085111D01*
X88106185Y-129794000D01*
X88077513Y-129502889D01*
X87992599Y-129222966D01*
X87854706Y-128964986D01*
X87669134Y-128738866D01*
X87443014Y-128553294D01*
X87388209Y-128524000D01*
X87443014Y-128494706D01*
X87669134Y-128309134D01*
X87854706Y-128083014D01*
X87992599Y-127825034D01*
X88077513Y-127545111D01*
X88106185Y-127254000D01*
X88077513Y-126962889D01*
X87992599Y-126682966D01*
X87854706Y-126424986D01*
X87669134Y-126198866D01*
X87443014Y-126013294D01*
X87388209Y-125984000D01*
X87443014Y-125954706D01*
X87669134Y-125769134D01*
X87854706Y-125543014D01*
X87992599Y-125285034D01*
X88077513Y-125005111D01*
X88088322Y-124895361D01*
X92279003Y-129086043D01*
X92302797Y-129115036D01*
X92331790Y-129138830D01*
X92331794Y-129138834D01*
X92385609Y-129182998D01*
X92418522Y-129210009D01*
X92550551Y-129280581D01*
X92687245Y-129322046D01*
X97740001Y-134374803D01*
X97740000Y-138712677D01*
X97736324Y-138750000D01*
X97740000Y-138787322D01*
X97740000Y-138787332D01*
X97750997Y-138898985D01*
X97787871Y-139020544D01*
X97794454Y-139042246D01*
X97865026Y-139174276D01*
X97890689Y-139205546D01*
X97959999Y-139290001D01*
X97989003Y-139313804D01*
X99936201Y-141261003D01*
X99959999Y-141290001D01*
X99988997Y-141313799D01*
X100075723Y-141384974D01*
X100207753Y-141455546D01*
X100351014Y-141499003D01*
X100462667Y-141510000D01*
X100462676Y-141510000D01*
X100499999Y-141513676D01*
X100537322Y-141510000D01*
X108582678Y-141510000D01*
X108620000Y-141513676D01*
X108657322Y-141510000D01*
X108657333Y-141510000D01*
X108768986Y-141499003D01*
X108912247Y-141455546D01*
X109044276Y-141384974D01*
X109160001Y-141290001D01*
X109183804Y-141260997D01*
X110004005Y-140440797D01*
X110078889Y-140463513D01*
X110297050Y-140485000D01*
X110442950Y-140485000D01*
X110661111Y-140463513D01*
X110941034Y-140378599D01*
X111199014Y-140240706D01*
X111425134Y-140055134D01*
X111610706Y-139829014D01*
X111640000Y-139774209D01*
X111669294Y-139829014D01*
X111854866Y-140055134D01*
X112080986Y-140240706D01*
X112338966Y-140378599D01*
X112618889Y-140463513D01*
X112837050Y-140485000D01*
X112982950Y-140485000D01*
X113201111Y-140463513D01*
X113275996Y-140440797D01*
X114421224Y-141586026D01*
X114445022Y-141615024D01*
X114560747Y-141709997D01*
X114692776Y-141780569D01*
X114836037Y-141824026D01*
X114947690Y-141835023D01*
X114947698Y-141835023D01*
X114985023Y-141838699D01*
X115022348Y-141835023D01*
X125587655Y-141835023D01*
X125624977Y-141838699D01*
X125662299Y-141835023D01*
X125662310Y-141835023D01*
X125773963Y-141824026D01*
X125917224Y-141780569D01*
X126049253Y-141709997D01*
X126164978Y-141615024D01*
X126188781Y-141586020D01*
X127463911Y-140310890D01*
X135464524Y-140310890D01*
X135509175Y-140458099D01*
X135634359Y-140720920D01*
X135808412Y-140954269D01*
X136024645Y-141149178D01*
X136274748Y-141298157D01*
X136549109Y-141395481D01*
X136779000Y-141274814D01*
X136779000Y-140081000D01*
X137033000Y-140081000D01*
X137033000Y-141274814D01*
X137262891Y-141395481D01*
X137537252Y-141298157D01*
X137787355Y-141149178D01*
X138003588Y-140954269D01*
X138177641Y-140720920D01*
X138302825Y-140458099D01*
X138347476Y-140310890D01*
X138226155Y-140081000D01*
X137033000Y-140081000D01*
X136779000Y-140081000D01*
X135585845Y-140081000D01*
X135464524Y-140310890D01*
X127463911Y-140310890D01*
X135416235Y-132358567D01*
X135442487Y-132625111D01*
X135527401Y-132905034D01*
X135665294Y-133163014D01*
X135850866Y-133389134D01*
X136076986Y-133574706D01*
X136131791Y-133604000D01*
X136076986Y-133633294D01*
X135850866Y-133818866D01*
X135665294Y-134044986D01*
X135527401Y-134302966D01*
X135442487Y-134582889D01*
X135413815Y-134874000D01*
X135442487Y-135165111D01*
X135527401Y-135445034D01*
X135665294Y-135703014D01*
X135850866Y-135929134D01*
X136076986Y-136114706D01*
X136131791Y-136144000D01*
X136076986Y-136173294D01*
X135850866Y-136358866D01*
X135665294Y-136584986D01*
X135527401Y-136842966D01*
X135442487Y-137122889D01*
X135413815Y-137414000D01*
X135442487Y-137705111D01*
X135527401Y-137985034D01*
X135665294Y-138243014D01*
X135850866Y-138469134D01*
X136076986Y-138654706D01*
X136141523Y-138689201D01*
X136024645Y-138758822D01*
X135808412Y-138953731D01*
X135634359Y-139187080D01*
X135509175Y-139449901D01*
X135464524Y-139597110D01*
X135585845Y-139827000D01*
X136779000Y-139827000D01*
X136779000Y-139807000D01*
X137033000Y-139807000D01*
X137033000Y-139827000D01*
X138226155Y-139827000D01*
X138347476Y-139597110D01*
X138302825Y-139449901D01*
X138177641Y-139187080D01*
X138003588Y-138953731D01*
X137787355Y-138758822D01*
X137670477Y-138689201D01*
X137735014Y-138654706D01*
X137961134Y-138469134D01*
X138146706Y-138243014D01*
X138284599Y-137985034D01*
X138369513Y-137705111D01*
X138398185Y-137414000D01*
X138369513Y-137122889D01*
X138284599Y-136842966D01*
X138146706Y-136584986D01*
X137961134Y-136358866D01*
X137735014Y-136173294D01*
X137680209Y-136144000D01*
X137735014Y-136114706D01*
X137961134Y-135929134D01*
X138146706Y-135703014D01*
X138284599Y-135445034D01*
X138369513Y-135165111D01*
X138398185Y-134874000D01*
X138369513Y-134582889D01*
X138284599Y-134302966D01*
X138146706Y-134044986D01*
X137961134Y-133818866D01*
X137735014Y-133633294D01*
X137680209Y-133604000D01*
X137735014Y-133574706D01*
X137961134Y-133389134D01*
X138146706Y-133163014D01*
X138284599Y-132905034D01*
X138369513Y-132625111D01*
X138398185Y-132334000D01*
X138369513Y-132042889D01*
X138284599Y-131762966D01*
X138146706Y-131504986D01*
X137961134Y-131278866D01*
X137735014Y-131093294D01*
X137680209Y-131064000D01*
X137735014Y-131034706D01*
X137961134Y-130849134D01*
X138146706Y-130623014D01*
X138284599Y-130365034D01*
X138369513Y-130085111D01*
X138398185Y-129794000D01*
X138369513Y-129502889D01*
X138284599Y-129222966D01*
X138146706Y-128964986D01*
X137961134Y-128738866D01*
X137735014Y-128553294D01*
X137680209Y-128524000D01*
X137735014Y-128494706D01*
X137961134Y-128309134D01*
X138146706Y-128083014D01*
X138284599Y-127825034D01*
X138369513Y-127545111D01*
X138398185Y-127254000D01*
X138369513Y-126962889D01*
X138284599Y-126682966D01*
X138146706Y-126424986D01*
X137961134Y-126198866D01*
X137735014Y-126013294D01*
X137680209Y-125984000D01*
X137735014Y-125954706D01*
X137961134Y-125769134D01*
X138146706Y-125543014D01*
X138284599Y-125285034D01*
X138369513Y-125005111D01*
X138398185Y-124714000D01*
X138369513Y-124422889D01*
X138284599Y-124142966D01*
X138146706Y-123884986D01*
X137961134Y-123658866D01*
X137735014Y-123473294D01*
X137680209Y-123444000D01*
X137735014Y-123414706D01*
X137961134Y-123229134D01*
X138146706Y-123003014D01*
X138284599Y-122745034D01*
X138369513Y-122465111D01*
X138398185Y-122174000D01*
X138369513Y-121882889D01*
X138284599Y-121602966D01*
X138146706Y-121344986D01*
X138084552Y-121269251D01*
X139449003Y-119904801D01*
X139478001Y-119881003D01*
X139511568Y-119840102D01*
X139572974Y-119765279D01*
X139573000Y-119765230D01*
X139573000Y-142113000D01*
X83947000Y-142113000D01*
X83947000Y-140310890D01*
X85172524Y-140310890D01*
X85217175Y-140458099D01*
X85342359Y-140720920D01*
X85516412Y-140954269D01*
X85732645Y-141149178D01*
X85982748Y-141298157D01*
X86257109Y-141395481D01*
X86487000Y-141274814D01*
X86487000Y-140081000D01*
X86741000Y-140081000D01*
X86741000Y-141274814D01*
X86970891Y-141395481D01*
X87245252Y-141298157D01*
X87495355Y-141149178D01*
X87711588Y-140954269D01*
X87885641Y-140720920D01*
X88010825Y-140458099D01*
X88055476Y-140310890D01*
X87934155Y-140081000D01*
X86741000Y-140081000D01*
X86487000Y-140081000D01*
X85293845Y-140081000D01*
X85172524Y-140310890D01*
X83947000Y-140310890D01*
X83947000Y-57824000D01*
X85125928Y-57824000D01*
X85125928Y-59524000D01*
X85138188Y-59648482D01*
X85174498Y-59768180D01*
X85233463Y-59878494D01*
X85312815Y-59975185D01*
X85409506Y-60054537D01*
X85519820Y-60113502D01*
X85600466Y-60137966D01*
X85516412Y-60213731D01*
X85342359Y-60447080D01*
X85217175Y-60709901D01*
X85172524Y-60857110D01*
X85293845Y-61087000D01*
X86487000Y-61087000D01*
X86487000Y-61067000D01*
X86741000Y-61067000D01*
X86741000Y-61087000D01*
X87934155Y-61087000D01*
X88055476Y-60857110D01*
X88010825Y-60709901D01*
X87885641Y-60447080D01*
X87711588Y-60213731D01*
X87627534Y-60137966D01*
X87708180Y-60113502D01*
X87818494Y-60054537D01*
X87915185Y-59975185D01*
X87994537Y-59878494D01*
X88053502Y-59768180D01*
X88089812Y-59648482D01*
X88102072Y-59524000D01*
X88102072Y-57824000D01*
X88089812Y-57699518D01*
X88053502Y-57579820D01*
X87994537Y-57469506D01*
X87915185Y-57372815D01*
X87818494Y-57293463D01*
X87708180Y-57234498D01*
X87588482Y-57198188D01*
X87464000Y-57185928D01*
X85764000Y-57185928D01*
X85639518Y-57198188D01*
X85519820Y-57234498D01*
X85409506Y-57293463D01*
X85312815Y-57372815D01*
X85233463Y-57469506D01*
X85174498Y-57579820D01*
X85138188Y-57699518D01*
X85125928Y-57824000D01*
X83947000Y-57824000D01*
X83947000Y-56007000D01*
X139573000Y-56007000D01*
X139573000Y-78862771D01*
X139573000Y-78862771D01*
G37*
X139573000Y-78862771D02*
X139572974Y-78862722D01*
X139478001Y-78746997D01*
X139449004Y-78723200D01*
X138084552Y-77358749D01*
X138146706Y-77283014D01*
X138284599Y-77025034D01*
X138369513Y-76745111D01*
X138398185Y-76454000D01*
X138369513Y-76162889D01*
X138284599Y-75882966D01*
X138146706Y-75624986D01*
X137961134Y-75398866D01*
X137735014Y-75213294D01*
X137680209Y-75184000D01*
X137735014Y-75154706D01*
X137961134Y-74969134D01*
X138146706Y-74743014D01*
X138284599Y-74485034D01*
X138369513Y-74205111D01*
X138398185Y-73914000D01*
X138369513Y-73622889D01*
X138284599Y-73342966D01*
X138146706Y-73084986D01*
X137961134Y-72858866D01*
X137735014Y-72673294D01*
X137680209Y-72644000D01*
X137735014Y-72614706D01*
X137961134Y-72429134D01*
X138146706Y-72203014D01*
X138284599Y-71945034D01*
X138369513Y-71665111D01*
X138398185Y-71374000D01*
X138369513Y-71082889D01*
X138284599Y-70802966D01*
X138146706Y-70544986D01*
X137961134Y-70318866D01*
X137735014Y-70133294D01*
X137680209Y-70104000D01*
X137735014Y-70074706D01*
X137961134Y-69889134D01*
X138146706Y-69663014D01*
X138284599Y-69405034D01*
X138369513Y-69125111D01*
X138398185Y-68834000D01*
X138369513Y-68542889D01*
X138284599Y-68262966D01*
X138146706Y-68004986D01*
X137961134Y-67778866D01*
X137735014Y-67593294D01*
X137680209Y-67564000D01*
X137735014Y-67534706D01*
X137961134Y-67349134D01*
X138146706Y-67123014D01*
X138284599Y-66865034D01*
X138369513Y-66585111D01*
X138398185Y-66294000D01*
X138369513Y-66002889D01*
X138284599Y-65722966D01*
X138146706Y-65464986D01*
X137961134Y-65238866D01*
X137735014Y-65053294D01*
X137680209Y-65024000D01*
X137735014Y-64994706D01*
X137961134Y-64809134D01*
X138146706Y-64583014D01*
X138284599Y-64325034D01*
X138369513Y-64045111D01*
X138398185Y-63754000D01*
X138369513Y-63462889D01*
X138284599Y-63182966D01*
X138146706Y-62924986D01*
X137961134Y-62698866D01*
X137735014Y-62513294D01*
X137670477Y-62478799D01*
X137787355Y-62409178D01*
X138003588Y-62214269D01*
X138177641Y-61980920D01*
X138302825Y-61718099D01*
X138347476Y-61570890D01*
X138226155Y-61341000D01*
X137033000Y-61341000D01*
X137033000Y-61361000D01*
X136779000Y-61361000D01*
X136779000Y-61341000D01*
X135585845Y-61341000D01*
X135464524Y-61570890D01*
X135509175Y-61718099D01*
X135634359Y-61980920D01*
X135808412Y-62214269D01*
X136024645Y-62409178D01*
X136141523Y-62478799D01*
X136076986Y-62513294D01*
X135850866Y-62698866D01*
X135665294Y-62924986D01*
X135527401Y-63182966D01*
X135442487Y-63462889D01*
X135413815Y-63754000D01*
X135442487Y-64045111D01*
X135527401Y-64325034D01*
X135665294Y-64583014D01*
X135850866Y-64809134D01*
X136076986Y-64994706D01*
X136131791Y-65024000D01*
X136076986Y-65053294D01*
X135850866Y-65238866D01*
X135665294Y-65464986D01*
X135527401Y-65722966D01*
X135442487Y-66002889D01*
X135413815Y-66294000D01*
X135442487Y-66585111D01*
X135527401Y-66865034D01*
X135665294Y-67123014D01*
X135850866Y-67349134D01*
X136076986Y-67534706D01*
X136131791Y-67564000D01*
X136076986Y-67593294D01*
X135850866Y-67778866D01*
X135793494Y-67848773D01*
X130933723Y-62989003D01*
X130909920Y-62959999D01*
X130794195Y-62865026D01*
X130662166Y-62794454D01*
X130518905Y-62750997D01*
X130407252Y-62740000D01*
X130407241Y-62740000D01*
X130369919Y-62736324D01*
X130332597Y-62740000D01*
X126710072Y-62740000D01*
X126710072Y-62650000D01*
X126697812Y-62525518D01*
X126661502Y-62405820D01*
X126602537Y-62295506D01*
X126523185Y-62198815D01*
X126426494Y-62119463D01*
X126316180Y-62060498D01*
X126196482Y-62024188D01*
X126072000Y-62011928D01*
X124372000Y-62011928D01*
X124247518Y-62024188D01*
X124127820Y-62060498D01*
X124017506Y-62119463D01*
X123920815Y-62198815D01*
X123841463Y-62295506D01*
X123782498Y-62405820D01*
X123746188Y-62525518D01*
X123733928Y-62650000D01*
X123733928Y-64350000D01*
X123746188Y-64474482D01*
X123782498Y-64594180D01*
X123841463Y-64704494D01*
X123920815Y-64801185D01*
X124017506Y-64880537D01*
X124127820Y-64939502D01*
X124196687Y-64960393D01*
X124166866Y-64984866D01*
X123981294Y-65210986D01*
X123843401Y-65468966D01*
X123758487Y-65748889D01*
X123729815Y-66040000D01*
X123758487Y-66331111D01*
X123843401Y-66611034D01*
X123981294Y-66869014D01*
X124166866Y-67095134D01*
X124392986Y-67280706D01*
X124447791Y-67310000D01*
X124392986Y-67339294D01*
X124166866Y-67524866D01*
X123981294Y-67750986D01*
X123843401Y-68008966D01*
X123758487Y-68288889D01*
X123729815Y-68580000D01*
X123758487Y-68871111D01*
X123843401Y-69151034D01*
X123981294Y-69409014D01*
X124166866Y-69635134D01*
X124392986Y-69820706D01*
X124457523Y-69855201D01*
X124340645Y-69924822D01*
X124124412Y-70119731D01*
X123950359Y-70353080D01*
X123825175Y-70615901D01*
X123780524Y-70763110D01*
X123901845Y-70993000D01*
X125095000Y-70993000D01*
X125095000Y-70973000D01*
X125349000Y-70973000D01*
X125349000Y-70993000D01*
X126542155Y-70993000D01*
X126663476Y-70763110D01*
X126618825Y-70615901D01*
X126493641Y-70353080D01*
X126319588Y-70119731D01*
X126103355Y-69924822D01*
X125986477Y-69855201D01*
X126051014Y-69820706D01*
X126277134Y-69635134D01*
X126462706Y-69409014D01*
X126499595Y-69340000D01*
X131257199Y-69340000D01*
X135465203Y-73548005D01*
X135442487Y-73622889D01*
X135413815Y-73914000D01*
X135442487Y-74205111D01*
X135527401Y-74485034D01*
X135665294Y-74743014D01*
X135850866Y-74969134D01*
X136076986Y-75154706D01*
X136131791Y-75184000D01*
X136076986Y-75213294D01*
X135850866Y-75398866D01*
X135665294Y-75624986D01*
X135527401Y-75882966D01*
X135442487Y-76162889D01*
X135413815Y-76454000D01*
X135442487Y-76745111D01*
X135480069Y-76869001D01*
X117313803Y-76869001D01*
X114192000Y-73747199D01*
X114192000Y-73685061D01*
X114152226Y-73485102D01*
X114074205Y-73296744D01*
X113960937Y-73127226D01*
X113816774Y-72983063D01*
X113647256Y-72869795D01*
X113458898Y-72791774D01*
X113258939Y-72752000D01*
X113055061Y-72752000D01*
X112855102Y-72791774D01*
X112666744Y-72869795D01*
X112497226Y-72983063D01*
X112353063Y-73127226D01*
X112239795Y-73296744D01*
X112161774Y-73485102D01*
X112122000Y-73685061D01*
X112122000Y-73888939D01*
X112161774Y-74088898D01*
X112190818Y-74159017D01*
X110869000Y-72837199D01*
X110869000Y-71476890D01*
X123780524Y-71476890D01*
X123825175Y-71624099D01*
X123950359Y-71886920D01*
X124124412Y-72120269D01*
X124340645Y-72315178D01*
X124590748Y-72464157D01*
X124865109Y-72561481D01*
X125095000Y-72440814D01*
X125095000Y-71247000D01*
X125349000Y-71247000D01*
X125349000Y-72440814D01*
X125578891Y-72561481D01*
X125853252Y-72464157D01*
X126103355Y-72315178D01*
X126319588Y-72120269D01*
X126493641Y-71886920D01*
X126618825Y-71624099D01*
X126663476Y-71476890D01*
X126542155Y-71247000D01*
X125349000Y-71247000D01*
X125095000Y-71247000D01*
X123901845Y-71247000D01*
X123780524Y-71476890D01*
X110869000Y-71476890D01*
X110869000Y-66354801D01*
X117789802Y-59434000D01*
X135417928Y-59434000D01*
X135417928Y-59524000D01*
X135430188Y-59648482D01*
X135466498Y-59768180D01*
X135525463Y-59878494D01*
X135604815Y-59975185D01*
X135701506Y-60054537D01*
X135811820Y-60113502D01*
X135892466Y-60137966D01*
X135808412Y-60213731D01*
X135634359Y-60447080D01*
X135509175Y-60709901D01*
X135464524Y-60857110D01*
X135585845Y-61087000D01*
X136779000Y-61087000D01*
X136779000Y-61067000D01*
X137033000Y-61067000D01*
X137033000Y-61087000D01*
X138226155Y-61087000D01*
X138347476Y-60857110D01*
X138302825Y-60709901D01*
X138177641Y-60447080D01*
X138003588Y-60213731D01*
X137919534Y-60137966D01*
X138000180Y-60113502D01*
X138110494Y-60054537D01*
X138207185Y-59975185D01*
X138286537Y-59878494D01*
X138345502Y-59768180D01*
X138381812Y-59648482D01*
X138394072Y-59524000D01*
X138394072Y-57824000D01*
X138381812Y-57699518D01*
X138345502Y-57579820D01*
X138286537Y-57469506D01*
X138207185Y-57372815D01*
X138110494Y-57293463D01*
X138000180Y-57234498D01*
X137880482Y-57198188D01*
X137756000Y-57185928D01*
X136056000Y-57185928D01*
X135931518Y-57198188D01*
X135811820Y-57234498D01*
X135701506Y-57293463D01*
X135604815Y-57372815D01*
X135525463Y-57469506D01*
X135466498Y-57579820D01*
X135430188Y-57699518D01*
X135417928Y-57824000D01*
X135417928Y-57914000D01*
X117512322Y-57914000D01*
X117474999Y-57910324D01*
X117437676Y-57914000D01*
X117437667Y-57914000D01*
X117326014Y-57924997D01*
X117182753Y-57968454D01*
X117050723Y-58039026D01*
X116967083Y-58107668D01*
X116934999Y-58133999D01*
X116911201Y-58162997D01*
X109597998Y-65476201D01*
X109569000Y-65499999D01*
X109545202Y-65528997D01*
X109545201Y-65528998D01*
X109474026Y-65615724D01*
X109403454Y-65747754D01*
X109359998Y-65891015D01*
X109345324Y-66040000D01*
X109349001Y-66077332D01*
X109349000Y-73114677D01*
X109345324Y-73152000D01*
X109349000Y-73189322D01*
X109349000Y-73189332D01*
X109359997Y-73300985D01*
X109403454Y-73444246D01*
X109474026Y-73576276D01*
X109507221Y-73616724D01*
X109568999Y-73692001D01*
X109598003Y-73715804D01*
X112524001Y-76641803D01*
X112524000Y-87061198D01*
X110740998Y-88844201D01*
X110712000Y-88867999D01*
X110688202Y-88896997D01*
X110688201Y-88896998D01*
X110617026Y-88983724D01*
X110546454Y-89115754D01*
X110502998Y-89259015D01*
X110488324Y-89408000D01*
X110492001Y-89445332D01*
X110492000Y-97117678D01*
X110488324Y-97155000D01*
X110492000Y-97192322D01*
X110492000Y-97192332D01*
X110502997Y-97303985D01*
X110541521Y-97430985D01*
X110546454Y-97447246D01*
X110617026Y-97579276D01*
X110656871Y-97627826D01*
X110711999Y-97695001D01*
X110741003Y-97718804D01*
X116170002Y-103147804D01*
X116170002Y-105033284D01*
X116052943Y-105010000D01*
X115990806Y-105010000D01*
X107948000Y-96967195D01*
X107948000Y-82343413D01*
X108922192Y-82343413D01*
X109017956Y-82607814D01*
X109307571Y-82748704D01*
X109619108Y-82830384D01*
X109940595Y-82849718D01*
X110259675Y-82805961D01*
X110564088Y-82700795D01*
X110738044Y-82607814D01*
X110833808Y-82343413D01*
X109878000Y-81387605D01*
X108922192Y-82343413D01*
X107948000Y-82343413D01*
X107948000Y-81270595D01*
X108236282Y-81270595D01*
X108280039Y-81589675D01*
X108385205Y-81894088D01*
X108478186Y-82068044D01*
X108742587Y-82163808D01*
X109698395Y-81208000D01*
X110057605Y-81208000D01*
X111013413Y-82163808D01*
X111277814Y-82068044D01*
X111418704Y-81778429D01*
X111500384Y-81466892D01*
X111519718Y-81145405D01*
X111475961Y-80826325D01*
X111370795Y-80521912D01*
X111277814Y-80347956D01*
X111013413Y-80252192D01*
X110057605Y-81208000D01*
X109698395Y-81208000D01*
X108742587Y-80252192D01*
X108478186Y-80347956D01*
X108337296Y-80637571D01*
X108255616Y-80949108D01*
X108236282Y-81270595D01*
X107948000Y-81270595D01*
X107948000Y-80072587D01*
X108922192Y-80072587D01*
X109878000Y-81028395D01*
X110833808Y-80072587D01*
X110738044Y-79808186D01*
X110448429Y-79667296D01*
X110136892Y-79585616D01*
X109815405Y-79566282D01*
X109496325Y-79610039D01*
X109191912Y-79715205D01*
X109017956Y-79808186D01*
X108922192Y-80072587D01*
X107948000Y-80072587D01*
X107948000Y-76546967D01*
X108243000Y-76546967D01*
X108243000Y-76869033D01*
X108305832Y-77184912D01*
X108429082Y-77482463D01*
X108608013Y-77750252D01*
X108835748Y-77977987D01*
X109103537Y-78156918D01*
X109401088Y-78280168D01*
X109716967Y-78343000D01*
X110039033Y-78343000D01*
X110354912Y-78280168D01*
X110652463Y-78156918D01*
X110920252Y-77977987D01*
X111147987Y-77750252D01*
X111326918Y-77482463D01*
X111450168Y-77184912D01*
X111513000Y-76869033D01*
X111513000Y-76546967D01*
X111450168Y-76231088D01*
X111326918Y-75933537D01*
X111147987Y-75665748D01*
X110920252Y-75438013D01*
X110652463Y-75259082D01*
X110354912Y-75135832D01*
X110039033Y-75073000D01*
X109716967Y-75073000D01*
X109401088Y-75135832D01*
X109103537Y-75259082D01*
X108835748Y-75438013D01*
X108608013Y-75665748D01*
X108429082Y-75933537D01*
X108305832Y-76231088D01*
X108243000Y-76546967D01*
X107948000Y-76546967D01*
X107948000Y-74744711D01*
X107991937Y-74700774D01*
X108105205Y-74531256D01*
X108183226Y-74342898D01*
X108223000Y-74142939D01*
X108223000Y-73939061D01*
X108183226Y-73739102D01*
X108105205Y-73550744D01*
X107991937Y-73381226D01*
X107847774Y-73237063D01*
X107678256Y-73123795D01*
X107489898Y-73045774D01*
X107289939Y-73006000D01*
X107086061Y-73006000D01*
X106886102Y-73045774D01*
X106697744Y-73123795D01*
X106528226Y-73237063D01*
X106384063Y-73381226D01*
X106270795Y-73550744D01*
X106192774Y-73739102D01*
X106153000Y-73939061D01*
X106153000Y-74142939D01*
X106192774Y-74342898D01*
X106270795Y-74531256D01*
X106384063Y-74700774D01*
X106428000Y-74744711D01*
X106428001Y-97244663D01*
X106424324Y-97281996D01*
X106438998Y-97430981D01*
X106482454Y-97574242D01*
X106553026Y-97706272D01*
X106620365Y-97788324D01*
X106648000Y-97821997D01*
X106676998Y-97845795D01*
X107296203Y-98465000D01*
X107148061Y-98465000D01*
X106948102Y-98504774D01*
X106759744Y-98582795D01*
X106590226Y-98696063D01*
X106446063Y-98840226D01*
X106332795Y-99009744D01*
X106254774Y-99198102D01*
X106215000Y-99398061D01*
X106215000Y-99601939D01*
X106254774Y-99801898D01*
X106332795Y-99990256D01*
X106446063Y-100159774D01*
X106490000Y-100203711D01*
X106490001Y-116089660D01*
X106490000Y-116089670D01*
X106490001Y-117435197D01*
X105489002Y-118436197D01*
X105488997Y-118436201D01*
X102962002Y-120963197D01*
X102932998Y-120987000D01*
X102903826Y-121022547D01*
X102838025Y-121102725D01*
X102772065Y-121226127D01*
X102679034Y-121176401D01*
X102399111Y-121091487D01*
X102180950Y-121070000D01*
X102035050Y-121070000D01*
X101816889Y-121091487D01*
X101692999Y-121129069D01*
X101692999Y-120631802D01*
X103834008Y-118490795D01*
X103863000Y-118467002D01*
X103886794Y-118438009D01*
X103886798Y-118438005D01*
X103957972Y-118351278D01*
X103957973Y-118351277D01*
X104001466Y-118269908D01*
X104171088Y-118340168D01*
X104486967Y-118403000D01*
X104809033Y-118403000D01*
X105124912Y-118340168D01*
X105422463Y-118216918D01*
X105690252Y-118037987D01*
X105917987Y-117810252D01*
X106096918Y-117542463D01*
X106220168Y-117244912D01*
X106283000Y-116929033D01*
X106283000Y-116606967D01*
X106220168Y-116291088D01*
X106096918Y-115993537D01*
X105917987Y-115725748D01*
X105690252Y-115498013D01*
X105422463Y-115319082D01*
X105124912Y-115195832D01*
X104809033Y-115133000D01*
X104486967Y-115133000D01*
X104171088Y-115195832D01*
X104082999Y-115232320D01*
X104082999Y-113803680D01*
X104171088Y-113840168D01*
X104486967Y-113903000D01*
X104809033Y-113903000D01*
X105124912Y-113840168D01*
X105422463Y-113716918D01*
X105690252Y-113537987D01*
X105917987Y-113310252D01*
X106096918Y-113042463D01*
X106220168Y-112744912D01*
X106283000Y-112429033D01*
X106283000Y-112106967D01*
X106220168Y-111791088D01*
X106096918Y-111493537D01*
X105917987Y-111225748D01*
X105690252Y-110998013D01*
X105422463Y-110819082D01*
X105124912Y-110695832D01*
X104809033Y-110633000D01*
X104486967Y-110633000D01*
X104171088Y-110695832D01*
X104082999Y-110732320D01*
X104082999Y-85580322D01*
X104086675Y-85542999D01*
X104082999Y-85505676D01*
X104082999Y-85505666D01*
X104072002Y-85394013D01*
X104028545Y-85250752D01*
X103999313Y-85196063D01*
X103957973Y-85118722D01*
X103886798Y-85031996D01*
X103863000Y-85002998D01*
X103834002Y-84979200D01*
X101198215Y-82343413D01*
X102422192Y-82343413D01*
X102517956Y-82607814D01*
X102807571Y-82748704D01*
X103119108Y-82830384D01*
X103440595Y-82849718D01*
X103759675Y-82805961D01*
X104064088Y-82700795D01*
X104238044Y-82607814D01*
X104333808Y-82343413D01*
X103378000Y-81387605D01*
X102422192Y-82343413D01*
X101198215Y-82343413D01*
X100125397Y-81270595D01*
X101736282Y-81270595D01*
X101780039Y-81589675D01*
X101885205Y-81894088D01*
X101978186Y-82068044D01*
X102242587Y-82163808D01*
X103198395Y-81208000D01*
X103557605Y-81208000D01*
X104513413Y-82163808D01*
X104777814Y-82068044D01*
X104918704Y-81778429D01*
X105000384Y-81466892D01*
X105019718Y-81145405D01*
X104975961Y-80826325D01*
X104870795Y-80521912D01*
X104777814Y-80347956D01*
X104513413Y-80252192D01*
X103557605Y-81208000D01*
X103198395Y-81208000D01*
X102242587Y-80252192D01*
X101978186Y-80347956D01*
X101837296Y-80637571D01*
X101755616Y-80949108D01*
X101736282Y-81270595D01*
X100125397Y-81270595D01*
X98927389Y-80072587D01*
X102422192Y-80072587D01*
X103378000Y-81028395D01*
X104333808Y-80072587D01*
X104238044Y-79808186D01*
X103948429Y-79667296D01*
X103636892Y-79585616D01*
X103315405Y-79566282D01*
X102996325Y-79610039D01*
X102691912Y-79715205D01*
X102517956Y-79808186D01*
X102422192Y-80072587D01*
X98927389Y-80072587D01*
X95401769Y-76546967D01*
X101743000Y-76546967D01*
X101743000Y-76869033D01*
X101805832Y-77184912D01*
X101929082Y-77482463D01*
X102108013Y-77750252D01*
X102335748Y-77977987D01*
X102603537Y-78156918D01*
X102901088Y-78280168D01*
X103216967Y-78343000D01*
X103539033Y-78343000D01*
X103854912Y-78280168D01*
X104152463Y-78156918D01*
X104420252Y-77977987D01*
X104647987Y-77750252D01*
X104826918Y-77482463D01*
X104950168Y-77184912D01*
X105013000Y-76869033D01*
X105013000Y-76546967D01*
X104950168Y-76231088D01*
X104826918Y-75933537D01*
X104647987Y-75665748D01*
X104420252Y-75438013D01*
X104152463Y-75259082D01*
X103854912Y-75135832D01*
X103539033Y-75073000D01*
X103216967Y-75073000D01*
X102901088Y-75135832D01*
X102603537Y-75259082D01*
X102335748Y-75438013D01*
X102108013Y-75665748D01*
X101929082Y-75933537D01*
X101805832Y-76231088D01*
X101743000Y-76546967D01*
X95401769Y-76546967D01*
X88054797Y-69199996D01*
X88077513Y-69125111D01*
X88106185Y-68834000D01*
X88077513Y-68542889D01*
X87992599Y-68262966D01*
X87854706Y-68004986D01*
X87669134Y-67778866D01*
X87443014Y-67593294D01*
X87388209Y-67564000D01*
X87443014Y-67534706D01*
X87669134Y-67349134D01*
X87854706Y-67123014D01*
X87992599Y-66865034D01*
X88077513Y-66585111D01*
X88106185Y-66294000D01*
X88077513Y-66002889D01*
X87992599Y-65722966D01*
X87854706Y-65464986D01*
X87669134Y-65238866D01*
X87443014Y-65053294D01*
X87388209Y-65024000D01*
X87443014Y-64994706D01*
X87669134Y-64809134D01*
X87854706Y-64583014D01*
X87992599Y-64325034D01*
X88077513Y-64045111D01*
X88106185Y-63754000D01*
X88077513Y-63462889D01*
X87992599Y-63182966D01*
X87854706Y-62924986D01*
X87669134Y-62698866D01*
X87443014Y-62513294D01*
X87378477Y-62478799D01*
X87495355Y-62409178D01*
X87711588Y-62214269D01*
X87885641Y-61980920D01*
X88010825Y-61718099D01*
X88055476Y-61570890D01*
X87934155Y-61341000D01*
X86741000Y-61341000D01*
X86741000Y-61361000D01*
X86487000Y-61361000D01*
X86487000Y-61341000D01*
X85293845Y-61341000D01*
X85172524Y-61570890D01*
X85217175Y-61718099D01*
X85342359Y-61980920D01*
X85516412Y-62214269D01*
X85732645Y-62409178D01*
X85849523Y-62478799D01*
X85784986Y-62513294D01*
X85558866Y-62698866D01*
X85373294Y-62924986D01*
X85235401Y-63182966D01*
X85150487Y-63462889D01*
X85121815Y-63754000D01*
X85150487Y-64045111D01*
X85235401Y-64325034D01*
X85373294Y-64583014D01*
X85558866Y-64809134D01*
X85784986Y-64994706D01*
X85839791Y-65024000D01*
X85784986Y-65053294D01*
X85558866Y-65238866D01*
X85373294Y-65464986D01*
X85235401Y-65722966D01*
X85150487Y-66002889D01*
X85121815Y-66294000D01*
X85150487Y-66585111D01*
X85235401Y-66865034D01*
X85373294Y-67123014D01*
X85558866Y-67349134D01*
X85784986Y-67534706D01*
X85839791Y-67564000D01*
X85784986Y-67593294D01*
X85558866Y-67778866D01*
X85373294Y-68004986D01*
X85235401Y-68262966D01*
X85150487Y-68542889D01*
X85121815Y-68834000D01*
X85150487Y-69125111D01*
X85235401Y-69405034D01*
X85373294Y-69663014D01*
X85558866Y-69889134D01*
X85784986Y-70074706D01*
X85839791Y-70104000D01*
X85784986Y-70133294D01*
X85558866Y-70318866D01*
X85373294Y-70544986D01*
X85235401Y-70802966D01*
X85150487Y-71082889D01*
X85121815Y-71374000D01*
X85150487Y-71665111D01*
X85235401Y-71945034D01*
X85373294Y-72203014D01*
X85558866Y-72429134D01*
X85784986Y-72614706D01*
X85839791Y-72644000D01*
X85784986Y-72673294D01*
X85558866Y-72858866D01*
X85373294Y-73084986D01*
X85235401Y-73342966D01*
X85150487Y-73622889D01*
X85121815Y-73914000D01*
X85150487Y-74205111D01*
X85235401Y-74485034D01*
X85373294Y-74743014D01*
X85558866Y-74969134D01*
X85784986Y-75154706D01*
X85839791Y-75184000D01*
X85784986Y-75213294D01*
X85558866Y-75398866D01*
X85373294Y-75624986D01*
X85235401Y-75882966D01*
X85150487Y-76162889D01*
X85121815Y-76454000D01*
X85150487Y-76745111D01*
X85235401Y-77025034D01*
X85373294Y-77283014D01*
X85558866Y-77509134D01*
X85784986Y-77694706D01*
X85849523Y-77729201D01*
X85732645Y-77798822D01*
X85516412Y-77993731D01*
X85342359Y-78227080D01*
X85217175Y-78489901D01*
X85172524Y-78637110D01*
X85293845Y-78867000D01*
X86487000Y-78867000D01*
X86487000Y-78847000D01*
X86741000Y-78847000D01*
X86741000Y-78867000D01*
X87934155Y-78867000D01*
X88055476Y-78637110D01*
X88010825Y-78489901D01*
X87885641Y-78227080D01*
X87711588Y-77993731D01*
X87495355Y-77798822D01*
X87378477Y-77729201D01*
X87443014Y-77694706D01*
X87669134Y-77509134D01*
X87854706Y-77283014D01*
X87992599Y-77025034D01*
X88077513Y-76745111D01*
X88106185Y-76454000D01*
X88077513Y-76162889D01*
X87992599Y-75882966D01*
X87854706Y-75624986D01*
X87669134Y-75398866D01*
X87443014Y-75213294D01*
X87388209Y-75184000D01*
X87443014Y-75154706D01*
X87669134Y-74969134D01*
X87854706Y-74743014D01*
X87992599Y-74485034D01*
X88077513Y-74205111D01*
X88106185Y-73914000D01*
X88077513Y-73622889D01*
X87992599Y-73342966D01*
X87854706Y-73084986D01*
X87669134Y-72858866D01*
X87443014Y-72673294D01*
X87388209Y-72644000D01*
X87443014Y-72614706D01*
X87669134Y-72429134D01*
X87854706Y-72203014D01*
X87992599Y-71945034D01*
X88077513Y-71665111D01*
X88103765Y-71398566D01*
X101670198Y-84965000D01*
X101648061Y-84965000D01*
X101448102Y-85004774D01*
X101259744Y-85082795D01*
X101090226Y-85196063D01*
X100946063Y-85340226D01*
X100832795Y-85509744D01*
X100754774Y-85698102D01*
X100715000Y-85898061D01*
X100715000Y-86101939D01*
X100754774Y-86301898D01*
X100832795Y-86490256D01*
X100865000Y-86538455D01*
X100865001Y-87133421D01*
X100504957Y-87493465D01*
X100448102Y-87504774D01*
X100259744Y-87582795D01*
X100090226Y-87696063D01*
X99946063Y-87840226D01*
X99832795Y-88009744D01*
X99754774Y-88198102D01*
X99715000Y-88398061D01*
X99715000Y-88601939D01*
X99754774Y-88801898D01*
X99832795Y-88990256D01*
X99946063Y-89159774D01*
X100090226Y-89303937D01*
X100259744Y-89417205D01*
X100448102Y-89495226D01*
X100648061Y-89535000D01*
X100851939Y-89535000D01*
X101051898Y-89495226D01*
X101240256Y-89417205D01*
X101409774Y-89303937D01*
X101553937Y-89159774D01*
X101667205Y-88990256D01*
X101745226Y-88801898D01*
X101756535Y-88745043D01*
X102345049Y-88156530D01*
X102378817Y-88128817D01*
X102420922Y-88077513D01*
X102489411Y-87994059D01*
X102563000Y-87856383D01*
X102562999Y-117612198D01*
X100421997Y-119753202D01*
X100392999Y-119777000D01*
X100369201Y-119805998D01*
X100369200Y-119805999D01*
X100298025Y-119892725D01*
X100227453Y-120024755D01*
X100203209Y-120104679D01*
X100191889Y-120142000D01*
X100183997Y-120168016D01*
X100169323Y-120317001D01*
X100173000Y-120354333D01*
X100173000Y-121206235D01*
X100072099Y-121158175D01*
X99924890Y-121113524D01*
X99695000Y-121234845D01*
X99695000Y-122428000D01*
X99715000Y-122428000D01*
X99715000Y-122682000D01*
X99695000Y-122682000D01*
X99695000Y-122702000D01*
X99441000Y-122702000D01*
X99441000Y-122682000D01*
X99421000Y-122682000D01*
X99421000Y-122428000D01*
X99441000Y-122428000D01*
X99441000Y-121234845D01*
X99211110Y-121113524D01*
X99063901Y-121158175D01*
X99010000Y-121183849D01*
X99010000Y-116814801D01*
X101511003Y-114313799D01*
X101540001Y-114290001D01*
X101634974Y-114174276D01*
X101705546Y-114042247D01*
X101749003Y-113898986D01*
X101760000Y-113787333D01*
X101760000Y-113787324D01*
X101763676Y-113750001D01*
X101760000Y-113712678D01*
X101760000Y-109037322D01*
X101763676Y-108999999D01*
X101760000Y-108962676D01*
X101760000Y-108962667D01*
X101749003Y-108851014D01*
X101705546Y-108707753D01*
X101634974Y-108575724D01*
X101611948Y-108547667D01*
X101563799Y-108488996D01*
X101563795Y-108488992D01*
X101540001Y-108459999D01*
X101511009Y-108436206D01*
X98260000Y-105185199D01*
X98260000Y-85453711D01*
X98303937Y-85409774D01*
X98417205Y-85240256D01*
X98495226Y-85051898D01*
X98535000Y-84851939D01*
X98535000Y-84648061D01*
X98495226Y-84448102D01*
X98417205Y-84259744D01*
X98303937Y-84090226D01*
X98159774Y-83946063D01*
X97990256Y-83832795D01*
X97801898Y-83754774D01*
X97601939Y-83715000D01*
X97398061Y-83715000D01*
X97198102Y-83754774D01*
X97009744Y-83832795D01*
X96840226Y-83946063D01*
X96696063Y-84090226D01*
X96582795Y-84259744D01*
X96504774Y-84448102D01*
X96465000Y-84648061D01*
X96465000Y-84851939D01*
X96504774Y-85051898D01*
X96582795Y-85240256D01*
X96696063Y-85409774D01*
X96740000Y-85453711D01*
X96740001Y-104555199D01*
X90697000Y-98512199D01*
X90697000Y-98450061D01*
X90657226Y-98250102D01*
X90579205Y-98061744D01*
X90465937Y-97892226D01*
X90321774Y-97748063D01*
X90152256Y-97634795D01*
X89963898Y-97556774D01*
X89763939Y-97517000D01*
X89560061Y-97517000D01*
X89510000Y-97526958D01*
X89510000Y-88787322D01*
X89513676Y-88749999D01*
X89510000Y-88712676D01*
X89510000Y-88712667D01*
X89499003Y-88601014D01*
X89455546Y-88457753D01*
X89450576Y-88448454D01*
X89384974Y-88325723D01*
X89313799Y-88238997D01*
X89290001Y-88209999D01*
X89261003Y-88186201D01*
X88054797Y-86979996D01*
X88077513Y-86905111D01*
X88106185Y-86614000D01*
X88077513Y-86322889D01*
X87992599Y-86042966D01*
X87854706Y-85784986D01*
X87669134Y-85558866D01*
X87443014Y-85373294D01*
X87388209Y-85344000D01*
X87443014Y-85314706D01*
X87669134Y-85129134D01*
X87854706Y-84903014D01*
X87992599Y-84645034D01*
X88077513Y-84365111D01*
X88106185Y-84074000D01*
X88077513Y-83782889D01*
X87992599Y-83502966D01*
X87854706Y-83244986D01*
X87669134Y-83018866D01*
X87443014Y-82833294D01*
X87388209Y-82804000D01*
X87443014Y-82774706D01*
X87669134Y-82589134D01*
X87854706Y-82363014D01*
X87992599Y-82105034D01*
X88077513Y-81825111D01*
X88106185Y-81534000D01*
X88096145Y-81432061D01*
X88627000Y-81432061D01*
X88627000Y-81635939D01*
X88666774Y-81835898D01*
X88744795Y-82024256D01*
X88858063Y-82193774D01*
X89002226Y-82337937D01*
X89171744Y-82451205D01*
X89360102Y-82529226D01*
X89560061Y-82569000D01*
X89763939Y-82569000D01*
X89963898Y-82529226D01*
X90152256Y-82451205D01*
X90321774Y-82337937D01*
X90365711Y-82294000D01*
X95562289Y-82294000D01*
X95606226Y-82337937D01*
X95775744Y-82451205D01*
X95964102Y-82529226D01*
X96164061Y-82569000D01*
X96367939Y-82569000D01*
X96567898Y-82529226D01*
X96756256Y-82451205D01*
X96925774Y-82337937D01*
X97069937Y-82193774D01*
X97183205Y-82024256D01*
X97261226Y-81835898D01*
X97301000Y-81635939D01*
X97301000Y-81432061D01*
X97261226Y-81232102D01*
X97183205Y-81043744D01*
X97069937Y-80874226D01*
X96925774Y-80730063D01*
X96756256Y-80616795D01*
X96567898Y-80538774D01*
X96367939Y-80499000D01*
X96164061Y-80499000D01*
X95964102Y-80538774D01*
X95775744Y-80616795D01*
X95606226Y-80730063D01*
X95562289Y-80774000D01*
X90365711Y-80774000D01*
X90321774Y-80730063D01*
X90152256Y-80616795D01*
X89963898Y-80538774D01*
X89763939Y-80499000D01*
X89560061Y-80499000D01*
X89360102Y-80538774D01*
X89171744Y-80616795D01*
X89002226Y-80730063D01*
X88858063Y-80874226D01*
X88744795Y-81043744D01*
X88666774Y-81232102D01*
X88627000Y-81432061D01*
X88096145Y-81432061D01*
X88077513Y-81242889D01*
X87992599Y-80962966D01*
X87854706Y-80704986D01*
X87669134Y-80478866D01*
X87443014Y-80293294D01*
X87378477Y-80258799D01*
X87495355Y-80189178D01*
X87711588Y-79994269D01*
X87885641Y-79760920D01*
X88010825Y-79498099D01*
X88055476Y-79350890D01*
X87934155Y-79121000D01*
X86741000Y-79121000D01*
X86741000Y-79141000D01*
X86487000Y-79141000D01*
X86487000Y-79121000D01*
X85293845Y-79121000D01*
X85172524Y-79350890D01*
X85217175Y-79498099D01*
X85342359Y-79760920D01*
X85516412Y-79994269D01*
X85732645Y-80189178D01*
X85849523Y-80258799D01*
X85784986Y-80293294D01*
X85558866Y-80478866D01*
X85373294Y-80704986D01*
X85235401Y-80962966D01*
X85150487Y-81242889D01*
X85121815Y-81534000D01*
X85150487Y-81825111D01*
X85235401Y-82105034D01*
X85373294Y-82363014D01*
X85558866Y-82589134D01*
X85784986Y-82774706D01*
X85839791Y-82804000D01*
X85784986Y-82833294D01*
X85558866Y-83018866D01*
X85373294Y-83244986D01*
X85235401Y-83502966D01*
X85150487Y-83782889D01*
X85121815Y-84074000D01*
X85150487Y-84365111D01*
X85235401Y-84645034D01*
X85373294Y-84903014D01*
X85558866Y-85129134D01*
X85784986Y-85314706D01*
X85839791Y-85344000D01*
X85784986Y-85373294D01*
X85558866Y-85558866D01*
X85373294Y-85784986D01*
X85235401Y-86042966D01*
X85150487Y-86322889D01*
X85121815Y-86614000D01*
X85150487Y-86905111D01*
X85235401Y-87185034D01*
X85373294Y-87443014D01*
X85558866Y-87669134D01*
X85784986Y-87854706D01*
X85839791Y-87884000D01*
X85784986Y-87913294D01*
X85558866Y-88098866D01*
X85373294Y-88324986D01*
X85235401Y-88582966D01*
X85150487Y-88862889D01*
X85121815Y-89154000D01*
X85150487Y-89445111D01*
X85235401Y-89725034D01*
X85373294Y-89983014D01*
X85558866Y-90209134D01*
X85784986Y-90394706D01*
X85839791Y-90424000D01*
X85784986Y-90453294D01*
X85558866Y-90638866D01*
X85373294Y-90864986D01*
X85235401Y-91122966D01*
X85150487Y-91402889D01*
X85121815Y-91694000D01*
X85150487Y-91985111D01*
X85235401Y-92265034D01*
X85373294Y-92523014D01*
X85558866Y-92749134D01*
X85784986Y-92934706D01*
X85839791Y-92964000D01*
X85784986Y-92993294D01*
X85558866Y-93178866D01*
X85373294Y-93404986D01*
X85235401Y-93662966D01*
X85150487Y-93942889D01*
X85121815Y-94234000D01*
X85150487Y-94525111D01*
X85235401Y-94805034D01*
X85373294Y-95063014D01*
X85558866Y-95289134D01*
X85784986Y-95474706D01*
X85839791Y-95504000D01*
X85784986Y-95533294D01*
X85558866Y-95718866D01*
X85373294Y-95944986D01*
X85235401Y-96202966D01*
X85150487Y-96482889D01*
X85121815Y-96774000D01*
X85150487Y-97065111D01*
X85235401Y-97345034D01*
X85373294Y-97603014D01*
X85558866Y-97829134D01*
X85784986Y-98014706D01*
X85839791Y-98044000D01*
X85784986Y-98073294D01*
X85558866Y-98258866D01*
X85373294Y-98484986D01*
X85235401Y-98742966D01*
X85150487Y-99022889D01*
X85121815Y-99314000D01*
X85150487Y-99605111D01*
X85235401Y-99885034D01*
X85373294Y-100143014D01*
X85558866Y-100369134D01*
X85784986Y-100554706D01*
X85839791Y-100584000D01*
X85784986Y-100613294D01*
X85558866Y-100798866D01*
X85373294Y-101024986D01*
X85235401Y-101282966D01*
X85150487Y-101562889D01*
X85121815Y-101854000D01*
X85150487Y-102145111D01*
X85235401Y-102425034D01*
X85373294Y-102683014D01*
X85558866Y-102909134D01*
X85784986Y-103094706D01*
X85839791Y-103124000D01*
X85784986Y-103153294D01*
X85558866Y-103338866D01*
X85373294Y-103564986D01*
X85235401Y-103822966D01*
X85150487Y-104102889D01*
X85121815Y-104394000D01*
X85150487Y-104685111D01*
X85235401Y-104965034D01*
X85373294Y-105223014D01*
X85558866Y-105449134D01*
X85784986Y-105634706D01*
X85839791Y-105664000D01*
X85784986Y-105693294D01*
X85558866Y-105878866D01*
X85373294Y-106104986D01*
X85235401Y-106362966D01*
X85150487Y-106642889D01*
X85121815Y-106934000D01*
X85150487Y-107225111D01*
X85235401Y-107505034D01*
X85373294Y-107763014D01*
X85558866Y-107989134D01*
X85784986Y-108174706D01*
X85839791Y-108204000D01*
X85784986Y-108233294D01*
X85558866Y-108418866D01*
X85373294Y-108644986D01*
X85235401Y-108902966D01*
X85150487Y-109182889D01*
X85121815Y-109474000D01*
X85150487Y-109765111D01*
X85235401Y-110045034D01*
X85373294Y-110303014D01*
X85558866Y-110529134D01*
X85784986Y-110714706D01*
X85839791Y-110744000D01*
X85784986Y-110773294D01*
X85558866Y-110958866D01*
X85373294Y-111184986D01*
X85235401Y-111442966D01*
X85150487Y-111722889D01*
X85121815Y-112014000D01*
X85150487Y-112305111D01*
X85235401Y-112585034D01*
X85373294Y-112843014D01*
X85558866Y-113069134D01*
X85784986Y-113254706D01*
X85839791Y-113284000D01*
X85784986Y-113313294D01*
X85558866Y-113498866D01*
X85373294Y-113724986D01*
X85235401Y-113982966D01*
X85150487Y-114262889D01*
X85121815Y-114554000D01*
X85150487Y-114845111D01*
X85235401Y-115125034D01*
X85373294Y-115383014D01*
X85558866Y-115609134D01*
X85784986Y-115794706D01*
X85839791Y-115824000D01*
X85784986Y-115853294D01*
X85558866Y-116038866D01*
X85373294Y-116264986D01*
X85235401Y-116522966D01*
X85150487Y-116802889D01*
X85121815Y-117094000D01*
X85150487Y-117385111D01*
X85235401Y-117665034D01*
X85373294Y-117923014D01*
X85558866Y-118149134D01*
X85784986Y-118334706D01*
X85839791Y-118364000D01*
X85784986Y-118393294D01*
X85558866Y-118578866D01*
X85373294Y-118804986D01*
X85235401Y-119062966D01*
X85150487Y-119342889D01*
X85121815Y-119634000D01*
X85150487Y-119925111D01*
X85235401Y-120205034D01*
X85373294Y-120463014D01*
X85558866Y-120689134D01*
X85784986Y-120874706D01*
X85839791Y-120904000D01*
X85784986Y-120933294D01*
X85558866Y-121118866D01*
X85373294Y-121344986D01*
X85235401Y-121602966D01*
X85150487Y-121882889D01*
X85121815Y-122174000D01*
X85150487Y-122465111D01*
X85235401Y-122745034D01*
X85373294Y-123003014D01*
X85558866Y-123229134D01*
X85784986Y-123414706D01*
X85839791Y-123444000D01*
X85784986Y-123473294D01*
X85558866Y-123658866D01*
X85373294Y-123884986D01*
X85235401Y-124142966D01*
X85150487Y-124422889D01*
X85121815Y-124714000D01*
X85150487Y-125005111D01*
X85235401Y-125285034D01*
X85373294Y-125543014D01*
X85558866Y-125769134D01*
X85784986Y-125954706D01*
X85839791Y-125984000D01*
X85784986Y-126013294D01*
X85558866Y-126198866D01*
X85373294Y-126424986D01*
X85235401Y-126682966D01*
X85150487Y-126962889D01*
X85121815Y-127254000D01*
X85150487Y-127545111D01*
X85235401Y-127825034D01*
X85373294Y-128083014D01*
X85558866Y-128309134D01*
X85784986Y-128494706D01*
X85839791Y-128524000D01*
X85784986Y-128553294D01*
X85558866Y-128738866D01*
X85373294Y-128964986D01*
X85235401Y-129222966D01*
X85150487Y-129502889D01*
X85121815Y-129794000D01*
X85150487Y-130085111D01*
X85235401Y-130365034D01*
X85373294Y-130623014D01*
X85558866Y-130849134D01*
X85784986Y-131034706D01*
X85839791Y-131064000D01*
X85784986Y-131093294D01*
X85558866Y-131278866D01*
X85373294Y-131504986D01*
X85235401Y-131762966D01*
X85150487Y-132042889D01*
X85121815Y-132334000D01*
X85150487Y-132625111D01*
X85235401Y-132905034D01*
X85373294Y-133163014D01*
X85558866Y-133389134D01*
X85784986Y-133574706D01*
X85839791Y-133604000D01*
X85784986Y-133633294D01*
X85558866Y-133818866D01*
X85373294Y-134044986D01*
X85235401Y-134302966D01*
X85150487Y-134582889D01*
X85121815Y-134874000D01*
X85150487Y-135165111D01*
X85235401Y-135445034D01*
X85373294Y-135703014D01*
X85558866Y-135929134D01*
X85784986Y-136114706D01*
X85839791Y-136144000D01*
X85784986Y-136173294D01*
X85558866Y-136358866D01*
X85373294Y-136584986D01*
X85235401Y-136842966D01*
X85150487Y-137122889D01*
X85121815Y-137414000D01*
X85150487Y-137705111D01*
X85235401Y-137985034D01*
X85373294Y-138243014D01*
X85558866Y-138469134D01*
X85784986Y-138654706D01*
X85849523Y-138689201D01*
X85732645Y-138758822D01*
X85516412Y-138953731D01*
X85342359Y-139187080D01*
X85217175Y-139449901D01*
X85172524Y-139597110D01*
X85293845Y-139827000D01*
X86487000Y-139827000D01*
X86487000Y-139807000D01*
X86741000Y-139807000D01*
X86741000Y-139827000D01*
X87934155Y-139827000D01*
X88055476Y-139597110D01*
X88010825Y-139449901D01*
X87885641Y-139187080D01*
X87711588Y-138953731D01*
X87495355Y-138758822D01*
X87378477Y-138689201D01*
X87443014Y-138654706D01*
X87669134Y-138469134D01*
X87854706Y-138243014D01*
X87992599Y-137985034D01*
X88077513Y-137705111D01*
X88106185Y-137414000D01*
X88077513Y-137122889D01*
X87992599Y-136842966D01*
X87854706Y-136584986D01*
X87669134Y-136358866D01*
X87443014Y-136173294D01*
X87388209Y-136144000D01*
X87443014Y-136114706D01*
X87669134Y-135929134D01*
X87854706Y-135703014D01*
X87992599Y-135445034D01*
X88077513Y-135165111D01*
X88106185Y-134874000D01*
X88077513Y-134582889D01*
X87992599Y-134302966D01*
X87854706Y-134044986D01*
X87669134Y-133818866D01*
X87443014Y-133633294D01*
X87388209Y-133604000D01*
X87443014Y-133574706D01*
X87669134Y-133389134D01*
X87854706Y-133163014D01*
X87992599Y-132905034D01*
X88077513Y-132625111D01*
X88106185Y-132334000D01*
X88077513Y-132042889D01*
X87992599Y-131762966D01*
X87854706Y-131504986D01*
X87669134Y-131278866D01*
X87443014Y-131093294D01*
X87388209Y-131064000D01*
X87443014Y-131034706D01*
X87669134Y-130849134D01*
X87854706Y-130623014D01*
X87992599Y-130365034D01*
X88077513Y-130085111D01*
X88106185Y-129794000D01*
X88077513Y-129502889D01*
X87992599Y-129222966D01*
X87854706Y-128964986D01*
X87669134Y-128738866D01*
X87443014Y-128553294D01*
X87388209Y-128524000D01*
X87443014Y-128494706D01*
X87669134Y-128309134D01*
X87854706Y-128083014D01*
X87992599Y-127825034D01*
X88077513Y-127545111D01*
X88106185Y-127254000D01*
X88077513Y-126962889D01*
X87992599Y-126682966D01*
X87854706Y-126424986D01*
X87669134Y-126198866D01*
X87443014Y-126013294D01*
X87388209Y-125984000D01*
X87443014Y-125954706D01*
X87669134Y-125769134D01*
X87854706Y-125543014D01*
X87992599Y-125285034D01*
X88077513Y-125005111D01*
X88088322Y-124895361D01*
X92279003Y-129086043D01*
X92302797Y-129115036D01*
X92331790Y-129138830D01*
X92331794Y-129138834D01*
X92385609Y-129182998D01*
X92418522Y-129210009D01*
X92550551Y-129280581D01*
X92687245Y-129322046D01*
X97740001Y-134374803D01*
X97740000Y-138712677D01*
X97736324Y-138750000D01*
X97740000Y-138787322D01*
X97740000Y-138787332D01*
X97750997Y-138898985D01*
X97787871Y-139020544D01*
X97794454Y-139042246D01*
X97865026Y-139174276D01*
X97890689Y-139205546D01*
X97959999Y-139290001D01*
X97989003Y-139313804D01*
X99936201Y-141261003D01*
X99959999Y-141290001D01*
X99988997Y-141313799D01*
X100075723Y-141384974D01*
X100207753Y-141455546D01*
X100351014Y-141499003D01*
X100462667Y-141510000D01*
X100462676Y-141510000D01*
X100499999Y-141513676D01*
X100537322Y-141510000D01*
X108582678Y-141510000D01*
X108620000Y-141513676D01*
X108657322Y-141510000D01*
X108657333Y-141510000D01*
X108768986Y-141499003D01*
X108912247Y-141455546D01*
X109044276Y-141384974D01*
X109160001Y-141290001D01*
X109183804Y-141260997D01*
X110004005Y-140440797D01*
X110078889Y-140463513D01*
X110297050Y-140485000D01*
X110442950Y-140485000D01*
X110661111Y-140463513D01*
X110941034Y-140378599D01*
X111199014Y-140240706D01*
X111425134Y-140055134D01*
X111610706Y-139829014D01*
X111640000Y-139774209D01*
X111669294Y-139829014D01*
X111854866Y-140055134D01*
X112080986Y-140240706D01*
X112338966Y-140378599D01*
X112618889Y-140463513D01*
X112837050Y-140485000D01*
X112982950Y-140485000D01*
X113201111Y-140463513D01*
X113275996Y-140440797D01*
X114421224Y-141586026D01*
X114445022Y-141615024D01*
X114560747Y-141709997D01*
X114692776Y-141780569D01*
X114836037Y-141824026D01*
X114947690Y-141835023D01*
X114947698Y-141835023D01*
X114985023Y-141838699D01*
X115022348Y-141835023D01*
X125587655Y-141835023D01*
X125624977Y-141838699D01*
X125662299Y-141835023D01*
X125662310Y-141835023D01*
X125773963Y-141824026D01*
X125917224Y-141780569D01*
X126049253Y-141709997D01*
X126164978Y-141615024D01*
X126188781Y-141586020D01*
X127463911Y-140310890D01*
X135464524Y-140310890D01*
X135509175Y-140458099D01*
X135634359Y-140720920D01*
X135808412Y-140954269D01*
X136024645Y-141149178D01*
X136274748Y-141298157D01*
X136549109Y-141395481D01*
X136779000Y-141274814D01*
X136779000Y-140081000D01*
X137033000Y-140081000D01*
X137033000Y-141274814D01*
X137262891Y-141395481D01*
X137537252Y-141298157D01*
X137787355Y-141149178D01*
X138003588Y-140954269D01*
X138177641Y-140720920D01*
X138302825Y-140458099D01*
X138347476Y-140310890D01*
X138226155Y-140081000D01*
X137033000Y-140081000D01*
X136779000Y-140081000D01*
X135585845Y-140081000D01*
X135464524Y-140310890D01*
X127463911Y-140310890D01*
X135416235Y-132358567D01*
X135442487Y-132625111D01*
X135527401Y-132905034D01*
X135665294Y-133163014D01*
X135850866Y-133389134D01*
X136076986Y-133574706D01*
X136131791Y-133604000D01*
X136076986Y-133633294D01*
X135850866Y-133818866D01*
X135665294Y-134044986D01*
X135527401Y-134302966D01*
X135442487Y-134582889D01*
X135413815Y-134874000D01*
X135442487Y-135165111D01*
X135527401Y-135445034D01*
X135665294Y-135703014D01*
X135850866Y-135929134D01*
X136076986Y-136114706D01*
X136131791Y-136144000D01*
X136076986Y-136173294D01*
X135850866Y-136358866D01*
X135665294Y-136584986D01*
X135527401Y-136842966D01*
X135442487Y-137122889D01*
X135413815Y-137414000D01*
X135442487Y-137705111D01*
X135527401Y-137985034D01*
X135665294Y-138243014D01*
X135850866Y-138469134D01*
X136076986Y-138654706D01*
X136141523Y-138689201D01*
X136024645Y-138758822D01*
X135808412Y-138953731D01*
X135634359Y-139187080D01*
X135509175Y-139449901D01*
X135464524Y-139597110D01*
X135585845Y-139827000D01*
X136779000Y-139827000D01*
X136779000Y-139807000D01*
X137033000Y-139807000D01*
X137033000Y-139827000D01*
X138226155Y-139827000D01*
X138347476Y-139597110D01*
X138302825Y-139449901D01*
X138177641Y-139187080D01*
X138003588Y-138953731D01*
X137787355Y-138758822D01*
X137670477Y-138689201D01*
X137735014Y-138654706D01*
X137961134Y-138469134D01*
X138146706Y-138243014D01*
X138284599Y-137985034D01*
X138369513Y-137705111D01*
X138398185Y-137414000D01*
X138369513Y-137122889D01*
X138284599Y-136842966D01*
X138146706Y-136584986D01*
X137961134Y-136358866D01*
X137735014Y-136173294D01*
X137680209Y-136144000D01*
X137735014Y-136114706D01*
X137961134Y-135929134D01*
X138146706Y-135703014D01*
X138284599Y-135445034D01*
X138369513Y-135165111D01*
X138398185Y-134874000D01*
X138369513Y-134582889D01*
X138284599Y-134302966D01*
X138146706Y-134044986D01*
X137961134Y-133818866D01*
X137735014Y-133633294D01*
X137680209Y-133604000D01*
X137735014Y-133574706D01*
X137961134Y-133389134D01*
X138146706Y-133163014D01*
X138284599Y-132905034D01*
X138369513Y-132625111D01*
X138398185Y-132334000D01*
X138369513Y-132042889D01*
X138284599Y-131762966D01*
X138146706Y-131504986D01*
X137961134Y-131278866D01*
X137735014Y-131093294D01*
X137680209Y-131064000D01*
X137735014Y-131034706D01*
X137961134Y-130849134D01*
X138146706Y-130623014D01*
X138284599Y-130365034D01*
X138369513Y-130085111D01*
X138398185Y-129794000D01*
X138369513Y-129502889D01*
X138284599Y-129222966D01*
X138146706Y-128964986D01*
X137961134Y-128738866D01*
X137735014Y-128553294D01*
X137680209Y-128524000D01*
X137735014Y-128494706D01*
X137961134Y-128309134D01*
X138146706Y-128083014D01*
X138284599Y-127825034D01*
X138369513Y-127545111D01*
X138398185Y-127254000D01*
X138369513Y-126962889D01*
X138284599Y-126682966D01*
X138146706Y-126424986D01*
X137961134Y-126198866D01*
X137735014Y-126013294D01*
X137680209Y-125984000D01*
X137735014Y-125954706D01*
X137961134Y-125769134D01*
X138146706Y-125543014D01*
X138284599Y-125285034D01*
X138369513Y-125005111D01*
X138398185Y-124714000D01*
X138369513Y-124422889D01*
X138284599Y-124142966D01*
X138146706Y-123884986D01*
X137961134Y-123658866D01*
X137735014Y-123473294D01*
X137680209Y-123444000D01*
X137735014Y-123414706D01*
X137961134Y-123229134D01*
X138146706Y-123003014D01*
X138284599Y-122745034D01*
X138369513Y-122465111D01*
X138398185Y-122174000D01*
X138369513Y-121882889D01*
X138284599Y-121602966D01*
X138146706Y-121344986D01*
X138084552Y-121269251D01*
X139449003Y-119904801D01*
X139478001Y-119881003D01*
X139511568Y-119840102D01*
X139572974Y-119765279D01*
X139573000Y-119765230D01*
X139573000Y-142113000D01*
X83947000Y-142113000D01*
X83947000Y-140310890D01*
X85172524Y-140310890D01*
X85217175Y-140458099D01*
X85342359Y-140720920D01*
X85516412Y-140954269D01*
X85732645Y-141149178D01*
X85982748Y-141298157D01*
X86257109Y-141395481D01*
X86487000Y-141274814D01*
X86487000Y-140081000D01*
X86741000Y-140081000D01*
X86741000Y-141274814D01*
X86970891Y-141395481D01*
X87245252Y-141298157D01*
X87495355Y-141149178D01*
X87711588Y-140954269D01*
X87885641Y-140720920D01*
X88010825Y-140458099D01*
X88055476Y-140310890D01*
X87934155Y-140081000D01*
X86741000Y-140081000D01*
X86487000Y-140081000D01*
X85293845Y-140081000D01*
X85172524Y-140310890D01*
X83947000Y-140310890D01*
X83947000Y-57824000D01*
X85125928Y-57824000D01*
X85125928Y-59524000D01*
X85138188Y-59648482D01*
X85174498Y-59768180D01*
X85233463Y-59878494D01*
X85312815Y-59975185D01*
X85409506Y-60054537D01*
X85519820Y-60113502D01*
X85600466Y-60137966D01*
X85516412Y-60213731D01*
X85342359Y-60447080D01*
X85217175Y-60709901D01*
X85172524Y-60857110D01*
X85293845Y-61087000D01*
X86487000Y-61087000D01*
X86487000Y-61067000D01*
X86741000Y-61067000D01*
X86741000Y-61087000D01*
X87934155Y-61087000D01*
X88055476Y-60857110D01*
X88010825Y-60709901D01*
X87885641Y-60447080D01*
X87711588Y-60213731D01*
X87627534Y-60137966D01*
X87708180Y-60113502D01*
X87818494Y-60054537D01*
X87915185Y-59975185D01*
X87994537Y-59878494D01*
X88053502Y-59768180D01*
X88089812Y-59648482D01*
X88102072Y-59524000D01*
X88102072Y-57824000D01*
X88089812Y-57699518D01*
X88053502Y-57579820D01*
X87994537Y-57469506D01*
X87915185Y-57372815D01*
X87818494Y-57293463D01*
X87708180Y-57234498D01*
X87588482Y-57198188D01*
X87464000Y-57185928D01*
X85764000Y-57185928D01*
X85639518Y-57198188D01*
X85519820Y-57234498D01*
X85409506Y-57293463D01*
X85312815Y-57372815D01*
X85233463Y-57469506D01*
X85174498Y-57579820D01*
X85138188Y-57699518D01*
X85125928Y-57824000D01*
X83947000Y-57824000D01*
X83947000Y-56007000D01*
X139573000Y-56007000D01*
X139573000Y-78862771D01*
G36*
X123940011Y-134515187D02*
G01*
X122015000Y-136440199D01*
X122015000Y-136332998D01*
X121850815Y-136332998D01*
X121971481Y-136103109D01*
X121874157Y-135828748D01*
X121725178Y-135578645D01*
X121530269Y-135362412D01*
X121296920Y-135188359D01*
X121034099Y-135063175D01*
X120886890Y-135018524D01*
X120657000Y-135139845D01*
X120657000Y-136333000D01*
X120677000Y-136333000D01*
X120677000Y-136587000D01*
X120657000Y-136587000D01*
X120657000Y-136607000D01*
X120403000Y-136607000D01*
X120403000Y-136587000D01*
X120383000Y-136587000D01*
X120383000Y-136333000D01*
X120403000Y-136333000D01*
X120403000Y-135139845D01*
X120173110Y-135018524D01*
X120114999Y-135036150D01*
X120114999Y-134959802D01*
X123940011Y-131134792D01*
X123940011Y-134515187D01*
X123940011Y-134515187D01*
G37*
X123940011Y-134515187D02*
X122015000Y-136440199D01*
X122015000Y-136332998D01*
X121850815Y-136332998D01*
X121971481Y-136103109D01*
X121874157Y-135828748D01*
X121725178Y-135578645D01*
X121530269Y-135362412D01*
X121296920Y-135188359D01*
X121034099Y-135063175D01*
X120886890Y-135018524D01*
X120657000Y-135139845D01*
X120657000Y-136333000D01*
X120677000Y-136333000D01*
X120677000Y-136587000D01*
X120657000Y-136587000D01*
X120657000Y-136607000D01*
X120403000Y-136607000D01*
X120403000Y-136587000D01*
X120383000Y-136587000D01*
X120383000Y-136333000D01*
X120403000Y-136333000D01*
X120403000Y-135139845D01*
X120173110Y-135018524D01*
X120114999Y-135036150D01*
X120114999Y-134959802D01*
X123940011Y-131134792D01*
X123940011Y-134515187D01*
G36*
X115430198Y-134975000D02*
G01*
X115377050Y-134975000D01*
X115158889Y-134996487D01*
X114878966Y-135081401D01*
X114620986Y-135219294D01*
X114394866Y-135404866D01*
X114209294Y-135630986D01*
X114180000Y-135685791D01*
X114150706Y-135630986D01*
X113965134Y-135404866D01*
X113739014Y-135219294D01*
X113481034Y-135081401D01*
X113201111Y-134996487D01*
X112982950Y-134975000D01*
X112837050Y-134975000D01*
X112618889Y-134996487D01*
X112338966Y-135081401D01*
X112080986Y-135219294D01*
X111854866Y-135404866D01*
X111669294Y-135630986D01*
X111634799Y-135695523D01*
X111565178Y-135578645D01*
X111370269Y-135362412D01*
X111136920Y-135188359D01*
X110874099Y-135063175D01*
X110726890Y-135018524D01*
X110497000Y-135139845D01*
X110497000Y-136333000D01*
X110517000Y-136333000D01*
X110517000Y-136587000D01*
X110497000Y-136587000D01*
X110497000Y-136607000D01*
X110243000Y-136607000D01*
X110243000Y-136587000D01*
X110223000Y-136587000D01*
X110223000Y-136333000D01*
X110243000Y-136333000D01*
X110243000Y-135139845D01*
X110013110Y-135018524D01*
X109865901Y-135063175D01*
X109603080Y-135188359D01*
X109369731Y-135362412D01*
X109174822Y-135578645D01*
X109105201Y-135695523D01*
X109070706Y-135630986D01*
X108885134Y-135404866D01*
X108659014Y-135219294D01*
X108401034Y-135081401D01*
X108121111Y-134996487D01*
X107902950Y-134975000D01*
X107757050Y-134975000D01*
X107538889Y-134996487D01*
X107464005Y-135019203D01*
X106454802Y-134010000D01*
X108546289Y-134010000D01*
X108590226Y-134053937D01*
X108759744Y-134167205D01*
X108948102Y-134245226D01*
X109148061Y-134285000D01*
X109351939Y-134285000D01*
X109551898Y-134245226D01*
X109740256Y-134167205D01*
X109909774Y-134053937D01*
X110053937Y-133909774D01*
X110167205Y-133740256D01*
X110245226Y-133551898D01*
X110285000Y-133351939D01*
X110285000Y-133148061D01*
X110245226Y-132948102D01*
X110167205Y-132759744D01*
X110053937Y-132590226D01*
X109909774Y-132446063D01*
X109740256Y-132332795D01*
X109551898Y-132254774D01*
X109452497Y-132235002D01*
X112690201Y-132235002D01*
X115430198Y-134975000D01*
X115430198Y-134975000D01*
G37*
X115430198Y-134975000D02*
X115377050Y-134975000D01*
X115158889Y-134996487D01*
X114878966Y-135081401D01*
X114620986Y-135219294D01*
X114394866Y-135404866D01*
X114209294Y-135630986D01*
X114180000Y-135685791D01*
X114150706Y-135630986D01*
X113965134Y-135404866D01*
X113739014Y-135219294D01*
X113481034Y-135081401D01*
X113201111Y-134996487D01*
X112982950Y-134975000D01*
X112837050Y-134975000D01*
X112618889Y-134996487D01*
X112338966Y-135081401D01*
X112080986Y-135219294D01*
X111854866Y-135404866D01*
X111669294Y-135630986D01*
X111634799Y-135695523D01*
X111565178Y-135578645D01*
X111370269Y-135362412D01*
X111136920Y-135188359D01*
X110874099Y-135063175D01*
X110726890Y-135018524D01*
X110497000Y-135139845D01*
X110497000Y-136333000D01*
X110517000Y-136333000D01*
X110517000Y-136587000D01*
X110497000Y-136587000D01*
X110497000Y-136607000D01*
X110243000Y-136607000D01*
X110243000Y-136587000D01*
X110223000Y-136587000D01*
X110223000Y-136333000D01*
X110243000Y-136333000D01*
X110243000Y-135139845D01*
X110013110Y-135018524D01*
X109865901Y-135063175D01*
X109603080Y-135188359D01*
X109369731Y-135362412D01*
X109174822Y-135578645D01*
X109105201Y-135695523D01*
X109070706Y-135630986D01*
X108885134Y-135404866D01*
X108659014Y-135219294D01*
X108401034Y-135081401D01*
X108121111Y-134996487D01*
X107902950Y-134975000D01*
X107757050Y-134975000D01*
X107538889Y-134996487D01*
X107464005Y-135019203D01*
X106454802Y-134010000D01*
X108546289Y-134010000D01*
X108590226Y-134053937D01*
X108759744Y-134167205D01*
X108948102Y-134245226D01*
X109148061Y-134285000D01*
X109351939Y-134285000D01*
X109551898Y-134245226D01*
X109740256Y-134167205D01*
X109909774Y-134053937D01*
X110053937Y-133909774D01*
X110167205Y-133740256D01*
X110245226Y-133551898D01*
X110285000Y-133351939D01*
X110285000Y-133148061D01*
X110245226Y-132948102D01*
X110167205Y-132759744D01*
X110053937Y-132590226D01*
X109909774Y-132446063D01*
X109740256Y-132332795D01*
X109551898Y-132254774D01*
X109452497Y-132235002D01*
X112690201Y-132235002D01*
X115430198Y-134975000D01*
G36*
X105417000Y-136333000D02*
G01*
X105437000Y-136333000D01*
X105437000Y-136587000D01*
X105417000Y-136587000D01*
X105417000Y-136607000D01*
X105163000Y-136607000D01*
X105163000Y-136587000D01*
X105143000Y-136587000D01*
X105143000Y-136333000D01*
X105163000Y-136333000D01*
X105163000Y-136313000D01*
X105417000Y-136313000D01*
X105417000Y-136333000D01*
X105417000Y-136333000D01*
G37*
X105417000Y-136333000D02*
X105437000Y-136333000D01*
X105437000Y-136587000D01*
X105417000Y-136587000D01*
X105417000Y-136607000D01*
X105163000Y-136607000D01*
X105163000Y-136587000D01*
X105143000Y-136587000D01*
X105143000Y-136333000D01*
X105163000Y-136333000D01*
X105163000Y-136313000D01*
X105417000Y-136313000D01*
X105417000Y-136333000D01*
G36*
X105270198Y-134975000D02*
G01*
X105162998Y-134975000D01*
X105162998Y-135139844D01*
X104933110Y-135018524D01*
X104785901Y-135063175D01*
X104523080Y-135188359D01*
X104289731Y-135362412D01*
X104094822Y-135578645D01*
X104025201Y-135695523D01*
X103990706Y-135630986D01*
X103805134Y-135404866D01*
X103579014Y-135219294D01*
X103506031Y-135180284D01*
X103499003Y-135108933D01*
X103455546Y-134965672D01*
X103384974Y-134833643D01*
X103290001Y-134717918D01*
X103261003Y-134694120D01*
X95280887Y-126714005D01*
X95257084Y-126685001D01*
X95141359Y-126590028D01*
X95009330Y-126519456D01*
X94866069Y-126475999D01*
X94754416Y-126465002D01*
X94754405Y-126465002D01*
X94717083Y-126461326D01*
X94679761Y-126465002D01*
X93755261Y-126465002D01*
X93730544Y-126383520D01*
X93730544Y-126383519D01*
X93659972Y-126251489D01*
X93588797Y-126164763D01*
X93564999Y-126135765D01*
X93536001Y-126111967D01*
X89510000Y-122085967D01*
X89510000Y-119214801D01*
X105270198Y-134975000D01*
X105270198Y-134975000D01*
G37*
X105270198Y-134975000D02*
X105162998Y-134975000D01*
X105162998Y-135139844D01*
X104933110Y-135018524D01*
X104785901Y-135063175D01*
X104523080Y-135188359D01*
X104289731Y-135362412D01*
X104094822Y-135578645D01*
X104025201Y-135695523D01*
X103990706Y-135630986D01*
X103805134Y-135404866D01*
X103579014Y-135219294D01*
X103506031Y-135180284D01*
X103499003Y-135108933D01*
X103455546Y-134965672D01*
X103384974Y-134833643D01*
X103290001Y-134717918D01*
X103261003Y-134694120D01*
X95280887Y-126714005D01*
X95257084Y-126685001D01*
X95141359Y-126590028D01*
X95009330Y-126519456D01*
X94866069Y-126475999D01*
X94754416Y-126465002D01*
X94754405Y-126465002D01*
X94717083Y-126461326D01*
X94679761Y-126465002D01*
X93755261Y-126465002D01*
X93730544Y-126383520D01*
X93730544Y-126383519D01*
X93659972Y-126251489D01*
X93588797Y-126164763D01*
X93564999Y-126135765D01*
X93536001Y-126111967D01*
X89510000Y-122085967D01*
X89510000Y-119214801D01*
X105270198Y-134975000D01*
G36*
X112855102Y-74782226D02*
G01*
X113055061Y-74822000D01*
X113117199Y-74822000D01*
X116435201Y-78140003D01*
X116459000Y-78169002D01*
X116487998Y-78192800D01*
X116574724Y-78263975D01*
X116706754Y-78334547D01*
X116850015Y-78378004D01*
X116961668Y-78389001D01*
X116961678Y-78389001D01*
X116999001Y-78392677D01*
X117019928Y-78390616D01*
X116857744Y-78457795D01*
X116688226Y-78571063D01*
X116544063Y-78715226D01*
X116430795Y-78884744D01*
X116352774Y-79073102D01*
X116313000Y-79273061D01*
X116313000Y-79476939D01*
X116352774Y-79676898D01*
X116430795Y-79865256D01*
X116544063Y-80034774D01*
X116588000Y-80078711D01*
X116588001Y-93626207D01*
X113967209Y-96247000D01*
X113905071Y-96247000D01*
X113705112Y-96286774D01*
X113516754Y-96364795D01*
X113347236Y-96478063D01*
X113203073Y-96622226D01*
X113089805Y-96791744D01*
X113011784Y-96980102D01*
X112972010Y-97180061D01*
X112972010Y-97383939D01*
X113011784Y-97583898D01*
X113089805Y-97772256D01*
X113203073Y-97941774D01*
X113347236Y-98085937D01*
X113516754Y-98199205D01*
X113705112Y-98277226D01*
X113905071Y-98317000D01*
X114108949Y-98317000D01*
X114308908Y-98277226D01*
X114497266Y-98199205D01*
X114666784Y-98085937D01*
X114810947Y-97941774D01*
X114924215Y-97772256D01*
X115002236Y-97583898D01*
X115042010Y-97383939D01*
X115042010Y-97321801D01*
X117859003Y-94504809D01*
X117888001Y-94481011D01*
X117982974Y-94365286D01*
X118053546Y-94233257D01*
X118097003Y-94089996D01*
X118108000Y-93978343D01*
X118108000Y-93978334D01*
X118111676Y-93941011D01*
X118108000Y-93903688D01*
X118108000Y-80078711D01*
X118151937Y-80034774D01*
X118265205Y-79865256D01*
X118343226Y-79676898D01*
X118383000Y-79476939D01*
X118383000Y-79273061D01*
X118343226Y-79073102D01*
X118265205Y-78884744D01*
X118151937Y-78715226D01*
X118007774Y-78571063D01*
X117838256Y-78457795D01*
X117672174Y-78389001D01*
X135545556Y-78389001D01*
X135527401Y-78422966D01*
X135442487Y-78702889D01*
X135413815Y-78994000D01*
X135442487Y-79285111D01*
X135527401Y-79565034D01*
X135665294Y-79823014D01*
X135850866Y-80049134D01*
X136076986Y-80234706D01*
X136131791Y-80264000D01*
X136076986Y-80293294D01*
X135850866Y-80478866D01*
X135665294Y-80704986D01*
X135527401Y-80962966D01*
X135442487Y-81242889D01*
X135413815Y-81534000D01*
X135442487Y-81825111D01*
X135527401Y-82105034D01*
X135665294Y-82363014D01*
X135850866Y-82589134D01*
X136076986Y-82774706D01*
X136131791Y-82804000D01*
X136076986Y-82833294D01*
X135850866Y-83018866D01*
X135665294Y-83244986D01*
X135527401Y-83502966D01*
X135442487Y-83782889D01*
X135413815Y-84074000D01*
X135442487Y-84365111D01*
X135527401Y-84645034D01*
X135665294Y-84903014D01*
X135850866Y-85129134D01*
X136076986Y-85314706D01*
X136131791Y-85344000D01*
X136076986Y-85373294D01*
X135850866Y-85558866D01*
X135665294Y-85784986D01*
X135527401Y-86042966D01*
X135442487Y-86322889D01*
X135413815Y-86614000D01*
X135442487Y-86905111D01*
X135527401Y-87185034D01*
X135665294Y-87443014D01*
X135850866Y-87669134D01*
X136076986Y-87854706D01*
X136131791Y-87884000D01*
X136076986Y-87913294D01*
X135850866Y-88098866D01*
X135665294Y-88324986D01*
X135527401Y-88582966D01*
X135442487Y-88862889D01*
X135413815Y-89154000D01*
X135442487Y-89445111D01*
X135465203Y-89519995D01*
X124760000Y-100225199D01*
X124760000Y-93953711D01*
X124803937Y-93909774D01*
X124917205Y-93740256D01*
X124995226Y-93551898D01*
X125035000Y-93351939D01*
X125035000Y-93148061D01*
X124995226Y-92948102D01*
X124917205Y-92759744D01*
X124803937Y-92590226D01*
X124659774Y-92446063D01*
X124490256Y-92332795D01*
X124301898Y-92254774D01*
X124101939Y-92215000D01*
X123898061Y-92215000D01*
X123698102Y-92254774D01*
X123509744Y-92332795D01*
X123340226Y-92446063D01*
X123196063Y-92590226D01*
X123082795Y-92759744D01*
X123004774Y-92948102D01*
X122965000Y-93148061D01*
X122965000Y-93351939D01*
X123004774Y-93551898D01*
X123082795Y-93740256D01*
X123196063Y-93909774D01*
X123240001Y-93953712D01*
X123240001Y-107556294D01*
X123231937Y-107544226D01*
X123087774Y-107400063D01*
X122918256Y-107286795D01*
X122729898Y-107208774D01*
X122529939Y-107169000D01*
X122326061Y-107169000D01*
X122126102Y-107208774D01*
X121937744Y-107286795D01*
X121768226Y-107400063D01*
X121624063Y-107544226D01*
X121510795Y-107713744D01*
X121432774Y-107902102D01*
X121393000Y-108102061D01*
X121393000Y-108305939D01*
X121432774Y-108505898D01*
X121510795Y-108694256D01*
X121624063Y-108863774D01*
X121668000Y-108907711D01*
X121668001Y-111191197D01*
X113752199Y-119107000D01*
X113690061Y-119107000D01*
X113490102Y-119146774D01*
X113301744Y-119224795D01*
X113132226Y-119338063D01*
X112988063Y-119482226D01*
X112874795Y-119651744D01*
X112796774Y-119840102D01*
X112757000Y-120040061D01*
X112757000Y-120243939D01*
X112796774Y-120443898D01*
X112874795Y-120632256D01*
X112988063Y-120801774D01*
X113132226Y-120945937D01*
X113301744Y-121059205D01*
X113490102Y-121137226D01*
X113690061Y-121177000D01*
X113893939Y-121177000D01*
X114093898Y-121137226D01*
X114282256Y-121059205D01*
X114451774Y-120945937D01*
X114595937Y-120801774D01*
X114709205Y-120632256D01*
X114787226Y-120443898D01*
X114827000Y-120243939D01*
X114827000Y-120181801D01*
X122939003Y-112069799D01*
X122968001Y-112046001D01*
X123062974Y-111930276D01*
X123133546Y-111798247D01*
X123177003Y-111654986D01*
X123188000Y-111543333D01*
X123188000Y-111543324D01*
X123191676Y-111506001D01*
X123188000Y-111468678D01*
X123188000Y-108907711D01*
X123231937Y-108863774D01*
X123240001Y-108851706D01*
X123240000Y-129685197D01*
X118843997Y-134081202D01*
X118814999Y-134105000D01*
X118791201Y-134133998D01*
X118791200Y-134133999D01*
X118720025Y-134220725D01*
X118649453Y-134352755D01*
X118627758Y-134424276D01*
X118612452Y-134474737D01*
X118605997Y-134496016D01*
X118591323Y-134645001D01*
X118595000Y-134682333D01*
X118595000Y-135099556D01*
X118561034Y-135081401D01*
X118281111Y-134996487D01*
X118062950Y-134975000D01*
X117917050Y-134975000D01*
X117698889Y-134996487D01*
X117624005Y-135019203D01*
X113568806Y-130964005D01*
X113545003Y-130935001D01*
X113429278Y-130840028D01*
X113297249Y-130769456D01*
X113153988Y-130725999D01*
X113042335Y-130715002D01*
X113042324Y-130715002D01*
X113005002Y-130711326D01*
X112967680Y-130715002D01*
X104466800Y-130715002D01*
X104232754Y-130480957D01*
X104303937Y-130409774D01*
X104417205Y-130240256D01*
X104495226Y-130051898D01*
X104535000Y-129851939D01*
X104535000Y-129648061D01*
X104495226Y-129448102D01*
X104417205Y-129259744D01*
X104303937Y-129090226D01*
X104232999Y-129019288D01*
X104232999Y-127787061D01*
X109074000Y-127787061D01*
X109074000Y-127990939D01*
X109113774Y-128190898D01*
X109191795Y-128379256D01*
X109305063Y-128548774D01*
X109449226Y-128692937D01*
X109618744Y-128806205D01*
X109807102Y-128884226D01*
X110007061Y-128924000D01*
X110210939Y-128924000D01*
X110410898Y-128884226D01*
X110599256Y-128806205D01*
X110768774Y-128692937D01*
X110812711Y-128649000D01*
X118755849Y-128649000D01*
X118765774Y-128698898D01*
X118843795Y-128887256D01*
X118957063Y-129056774D01*
X119101226Y-129200937D01*
X119270744Y-129314205D01*
X119459102Y-129392226D01*
X119659061Y-129432000D01*
X119862939Y-129432000D01*
X120062898Y-129392226D01*
X120251256Y-129314205D01*
X120420774Y-129200937D01*
X120564937Y-129056774D01*
X120678205Y-128887256D01*
X120756226Y-128698898D01*
X120796000Y-128498939D01*
X120796000Y-128295061D01*
X120756226Y-128095102D01*
X120678205Y-127906744D01*
X120564937Y-127737226D01*
X120420774Y-127593063D01*
X120251256Y-127479795D01*
X120062898Y-127401774D01*
X119862939Y-127362000D01*
X119803671Y-127362000D01*
X119793001Y-127348999D01*
X119677276Y-127254026D01*
X119545247Y-127183454D01*
X119401986Y-127139997D01*
X119290333Y-127129000D01*
X119290322Y-127129000D01*
X119253000Y-127125324D01*
X119215678Y-127129000D01*
X110812711Y-127129000D01*
X110768774Y-127085063D01*
X110599256Y-126971795D01*
X110410898Y-126893774D01*
X110210939Y-126854000D01*
X110007061Y-126854000D01*
X109807102Y-126893774D01*
X109618744Y-126971795D01*
X109449226Y-127085063D01*
X109305063Y-127229226D01*
X109191795Y-127398744D01*
X109113774Y-127587102D01*
X109074000Y-127787061D01*
X104232999Y-127787061D01*
X104232999Y-124043072D01*
X105498000Y-124043072D01*
X105622482Y-124030812D01*
X105742180Y-123994502D01*
X105852494Y-123935537D01*
X105949185Y-123856185D01*
X106028537Y-123759494D01*
X106087502Y-123649180D01*
X106123812Y-123529482D01*
X106136072Y-123405000D01*
X106136072Y-123315000D01*
X108547678Y-123315000D01*
X108585000Y-123318676D01*
X108622322Y-123315000D01*
X108622333Y-123315000D01*
X108733986Y-123304003D01*
X108877247Y-123260546D01*
X109009276Y-123189974D01*
X109125001Y-123095001D01*
X109148804Y-123065997D01*
X114430004Y-117784798D01*
X114459001Y-117761001D01*
X114502700Y-117707754D01*
X114553974Y-117645277D01*
X114624546Y-117513247D01*
X114641379Y-117457754D01*
X114668003Y-117369986D01*
X114679000Y-117258333D01*
X114679000Y-117258324D01*
X114682676Y-117221001D01*
X114679000Y-117183678D01*
X114679000Y-110804801D01*
X117441010Y-108042793D01*
X117470002Y-108019000D01*
X117493796Y-107990007D01*
X117493800Y-107990003D01*
X117564974Y-107903276D01*
X117564975Y-107903275D01*
X117635547Y-107771246D01*
X117679004Y-107627985D01*
X117690001Y-107516332D01*
X117690001Y-107516323D01*
X117693677Y-107479000D01*
X117690001Y-107441677D01*
X117690001Y-102870323D01*
X117693677Y-102833000D01*
X117690001Y-102795678D01*
X117690001Y-102795668D01*
X117679004Y-102684015D01*
X117635547Y-102540754D01*
X117564975Y-102408724D01*
X117493800Y-102321998D01*
X117470002Y-102293000D01*
X117441004Y-102269202D01*
X112012000Y-96840199D01*
X112012000Y-89722801D01*
X113795004Y-87939798D01*
X113824001Y-87916001D01*
X113850332Y-87883917D01*
X113918974Y-87800277D01*
X113989546Y-87668247D01*
X113989546Y-87668246D01*
X114033003Y-87524986D01*
X114044000Y-87413333D01*
X114044000Y-87413323D01*
X114047676Y-87376000D01*
X114044000Y-87338677D01*
X114044000Y-76364322D01*
X114047676Y-76326999D01*
X114044000Y-76289676D01*
X114044000Y-76289667D01*
X114033003Y-76178014D01*
X113989546Y-76034753D01*
X113918974Y-75902723D01*
X113847799Y-75815997D01*
X113824001Y-75786999D01*
X113795003Y-75763201D01*
X112784983Y-74753182D01*
X112855102Y-74782226D01*
X112855102Y-74782226D01*
G37*
X112855102Y-74782226D02*
X113055061Y-74822000D01*
X113117199Y-74822000D01*
X116435201Y-78140003D01*
X116459000Y-78169002D01*
X116487998Y-78192800D01*
X116574724Y-78263975D01*
X116706754Y-78334547D01*
X116850015Y-78378004D01*
X116961668Y-78389001D01*
X116961678Y-78389001D01*
X116999001Y-78392677D01*
X117019928Y-78390616D01*
X116857744Y-78457795D01*
X116688226Y-78571063D01*
X116544063Y-78715226D01*
X116430795Y-78884744D01*
X116352774Y-79073102D01*
X116313000Y-79273061D01*
X116313000Y-79476939D01*
X116352774Y-79676898D01*
X116430795Y-79865256D01*
X116544063Y-80034774D01*
X116588000Y-80078711D01*
X116588001Y-93626207D01*
X113967209Y-96247000D01*
X113905071Y-96247000D01*
X113705112Y-96286774D01*
X113516754Y-96364795D01*
X113347236Y-96478063D01*
X113203073Y-96622226D01*
X113089805Y-96791744D01*
X113011784Y-96980102D01*
X112972010Y-97180061D01*
X112972010Y-97383939D01*
X113011784Y-97583898D01*
X113089805Y-97772256D01*
X113203073Y-97941774D01*
X113347236Y-98085937D01*
X113516754Y-98199205D01*
X113705112Y-98277226D01*
X113905071Y-98317000D01*
X114108949Y-98317000D01*
X114308908Y-98277226D01*
X114497266Y-98199205D01*
X114666784Y-98085937D01*
X114810947Y-97941774D01*
X114924215Y-97772256D01*
X115002236Y-97583898D01*
X115042010Y-97383939D01*
X115042010Y-97321801D01*
X117859003Y-94504809D01*
X117888001Y-94481011D01*
X117982974Y-94365286D01*
X118053546Y-94233257D01*
X118097003Y-94089996D01*
X118108000Y-93978343D01*
X118108000Y-93978334D01*
X118111676Y-93941011D01*
X118108000Y-93903688D01*
X118108000Y-80078711D01*
X118151937Y-80034774D01*
X118265205Y-79865256D01*
X118343226Y-79676898D01*
X118383000Y-79476939D01*
X118383000Y-79273061D01*
X118343226Y-79073102D01*
X118265205Y-78884744D01*
X118151937Y-78715226D01*
X118007774Y-78571063D01*
X117838256Y-78457795D01*
X117672174Y-78389001D01*
X135545556Y-78389001D01*
X135527401Y-78422966D01*
X135442487Y-78702889D01*
X135413815Y-78994000D01*
X135442487Y-79285111D01*
X135527401Y-79565034D01*
X135665294Y-79823014D01*
X135850866Y-80049134D01*
X136076986Y-80234706D01*
X136131791Y-80264000D01*
X136076986Y-80293294D01*
X135850866Y-80478866D01*
X135665294Y-80704986D01*
X135527401Y-80962966D01*
X135442487Y-81242889D01*
X135413815Y-81534000D01*
X135442487Y-81825111D01*
X135527401Y-82105034D01*
X135665294Y-82363014D01*
X135850866Y-82589134D01*
X136076986Y-82774706D01*
X136131791Y-82804000D01*
X136076986Y-82833294D01*
X135850866Y-83018866D01*
X135665294Y-83244986D01*
X135527401Y-83502966D01*
X135442487Y-83782889D01*
X135413815Y-84074000D01*
X135442487Y-84365111D01*
X135527401Y-84645034D01*
X135665294Y-84903014D01*
X135850866Y-85129134D01*
X136076986Y-85314706D01*
X136131791Y-85344000D01*
X136076986Y-85373294D01*
X135850866Y-85558866D01*
X135665294Y-85784986D01*
X135527401Y-86042966D01*
X135442487Y-86322889D01*
X135413815Y-86614000D01*
X135442487Y-86905111D01*
X135527401Y-87185034D01*
X135665294Y-87443014D01*
X135850866Y-87669134D01*
X136076986Y-87854706D01*
X136131791Y-87884000D01*
X136076986Y-87913294D01*
X135850866Y-88098866D01*
X135665294Y-88324986D01*
X135527401Y-88582966D01*
X135442487Y-88862889D01*
X135413815Y-89154000D01*
X135442487Y-89445111D01*
X135465203Y-89519995D01*
X124760000Y-100225199D01*
X124760000Y-93953711D01*
X124803937Y-93909774D01*
X124917205Y-93740256D01*
X124995226Y-93551898D01*
X125035000Y-93351939D01*
X125035000Y-93148061D01*
X124995226Y-92948102D01*
X124917205Y-92759744D01*
X124803937Y-92590226D01*
X124659774Y-92446063D01*
X124490256Y-92332795D01*
X124301898Y-92254774D01*
X124101939Y-92215000D01*
X123898061Y-92215000D01*
X123698102Y-92254774D01*
X123509744Y-92332795D01*
X123340226Y-92446063D01*
X123196063Y-92590226D01*
X123082795Y-92759744D01*
X123004774Y-92948102D01*
X122965000Y-93148061D01*
X122965000Y-93351939D01*
X123004774Y-93551898D01*
X123082795Y-93740256D01*
X123196063Y-93909774D01*
X123240001Y-93953712D01*
X123240001Y-107556294D01*
X123231937Y-107544226D01*
X123087774Y-107400063D01*
X122918256Y-107286795D01*
X122729898Y-107208774D01*
X122529939Y-107169000D01*
X122326061Y-107169000D01*
X122126102Y-107208774D01*
X121937744Y-107286795D01*
X121768226Y-107400063D01*
X121624063Y-107544226D01*
X121510795Y-107713744D01*
X121432774Y-107902102D01*
X121393000Y-108102061D01*
X121393000Y-108305939D01*
X121432774Y-108505898D01*
X121510795Y-108694256D01*
X121624063Y-108863774D01*
X121668000Y-108907711D01*
X121668001Y-111191197D01*
X113752199Y-119107000D01*
X113690061Y-119107000D01*
X113490102Y-119146774D01*
X113301744Y-119224795D01*
X113132226Y-119338063D01*
X112988063Y-119482226D01*
X112874795Y-119651744D01*
X112796774Y-119840102D01*
X112757000Y-120040061D01*
X112757000Y-120243939D01*
X112796774Y-120443898D01*
X112874795Y-120632256D01*
X112988063Y-120801774D01*
X113132226Y-120945937D01*
X113301744Y-121059205D01*
X113490102Y-121137226D01*
X113690061Y-121177000D01*
X113893939Y-121177000D01*
X114093898Y-121137226D01*
X114282256Y-121059205D01*
X114451774Y-120945937D01*
X114595937Y-120801774D01*
X114709205Y-120632256D01*
X114787226Y-120443898D01*
X114827000Y-120243939D01*
X114827000Y-120181801D01*
X122939003Y-112069799D01*
X122968001Y-112046001D01*
X123062974Y-111930276D01*
X123133546Y-111798247D01*
X123177003Y-111654986D01*
X123188000Y-111543333D01*
X123188000Y-111543324D01*
X123191676Y-111506001D01*
X123188000Y-111468678D01*
X123188000Y-108907711D01*
X123231937Y-108863774D01*
X123240001Y-108851706D01*
X123240000Y-129685197D01*
X118843997Y-134081202D01*
X118814999Y-134105000D01*
X118791201Y-134133998D01*
X118791200Y-134133999D01*
X118720025Y-134220725D01*
X118649453Y-134352755D01*
X118627758Y-134424276D01*
X118612452Y-134474737D01*
X118605997Y-134496016D01*
X118591323Y-134645001D01*
X118595000Y-134682333D01*
X118595000Y-135099556D01*
X118561034Y-135081401D01*
X118281111Y-134996487D01*
X118062950Y-134975000D01*
X117917050Y-134975000D01*
X117698889Y-134996487D01*
X117624005Y-135019203D01*
X113568806Y-130964005D01*
X113545003Y-130935001D01*
X113429278Y-130840028D01*
X113297249Y-130769456D01*
X113153988Y-130725999D01*
X113042335Y-130715002D01*
X113042324Y-130715002D01*
X113005002Y-130711326D01*
X112967680Y-130715002D01*
X104466800Y-130715002D01*
X104232754Y-130480957D01*
X104303937Y-130409774D01*
X104417205Y-130240256D01*
X104495226Y-130051898D01*
X104535000Y-129851939D01*
X104535000Y-129648061D01*
X104495226Y-129448102D01*
X104417205Y-129259744D01*
X104303937Y-129090226D01*
X104232999Y-129019288D01*
X104232999Y-127787061D01*
X109074000Y-127787061D01*
X109074000Y-127990939D01*
X109113774Y-128190898D01*
X109191795Y-128379256D01*
X109305063Y-128548774D01*
X109449226Y-128692937D01*
X109618744Y-128806205D01*
X109807102Y-128884226D01*
X110007061Y-128924000D01*
X110210939Y-128924000D01*
X110410898Y-128884226D01*
X110599256Y-128806205D01*
X110768774Y-128692937D01*
X110812711Y-128649000D01*
X118755849Y-128649000D01*
X118765774Y-128698898D01*
X118843795Y-128887256D01*
X118957063Y-129056774D01*
X119101226Y-129200937D01*
X119270744Y-129314205D01*
X119459102Y-129392226D01*
X119659061Y-129432000D01*
X119862939Y-129432000D01*
X120062898Y-129392226D01*
X120251256Y-129314205D01*
X120420774Y-129200937D01*
X120564937Y-129056774D01*
X120678205Y-128887256D01*
X120756226Y-128698898D01*
X120796000Y-128498939D01*
X120796000Y-128295061D01*
X120756226Y-128095102D01*
X120678205Y-127906744D01*
X120564937Y-127737226D01*
X120420774Y-127593063D01*
X120251256Y-127479795D01*
X120062898Y-127401774D01*
X119862939Y-127362000D01*
X119803671Y-127362000D01*
X119793001Y-127348999D01*
X119677276Y-127254026D01*
X119545247Y-127183454D01*
X119401986Y-127139997D01*
X119290333Y-127129000D01*
X119290322Y-127129000D01*
X119253000Y-127125324D01*
X119215678Y-127129000D01*
X110812711Y-127129000D01*
X110768774Y-127085063D01*
X110599256Y-126971795D01*
X110410898Y-126893774D01*
X110210939Y-126854000D01*
X110007061Y-126854000D01*
X109807102Y-126893774D01*
X109618744Y-126971795D01*
X109449226Y-127085063D01*
X109305063Y-127229226D01*
X109191795Y-127398744D01*
X109113774Y-127587102D01*
X109074000Y-127787061D01*
X104232999Y-127787061D01*
X104232999Y-124043072D01*
X105498000Y-124043072D01*
X105622482Y-124030812D01*
X105742180Y-123994502D01*
X105852494Y-123935537D01*
X105949185Y-123856185D01*
X106028537Y-123759494D01*
X106087502Y-123649180D01*
X106123812Y-123529482D01*
X106136072Y-123405000D01*
X106136072Y-123315000D01*
X108547678Y-123315000D01*
X108585000Y-123318676D01*
X108622322Y-123315000D01*
X108622333Y-123315000D01*
X108733986Y-123304003D01*
X108877247Y-123260546D01*
X109009276Y-123189974D01*
X109125001Y-123095001D01*
X109148804Y-123065997D01*
X114430004Y-117784798D01*
X114459001Y-117761001D01*
X114502700Y-117707754D01*
X114553974Y-117645277D01*
X114624546Y-117513247D01*
X114641379Y-117457754D01*
X114668003Y-117369986D01*
X114679000Y-117258333D01*
X114679000Y-117258324D01*
X114682676Y-117221001D01*
X114679000Y-117183678D01*
X114679000Y-110804801D01*
X117441010Y-108042793D01*
X117470002Y-108019000D01*
X117493796Y-107990007D01*
X117493800Y-107990003D01*
X117564974Y-107903276D01*
X117564975Y-107903275D01*
X117635547Y-107771246D01*
X117679004Y-107627985D01*
X117690001Y-107516332D01*
X117690001Y-107516323D01*
X117693677Y-107479000D01*
X117690001Y-107441677D01*
X117690001Y-102870323D01*
X117693677Y-102833000D01*
X117690001Y-102795678D01*
X117690001Y-102795668D01*
X117679004Y-102684015D01*
X117635547Y-102540754D01*
X117564975Y-102408724D01*
X117493800Y-102321998D01*
X117470002Y-102293000D01*
X117441004Y-102269202D01*
X112012000Y-96840199D01*
X112012000Y-89722801D01*
X113795004Y-87939798D01*
X113824001Y-87916001D01*
X113850332Y-87883917D01*
X113918974Y-87800277D01*
X113989546Y-87668247D01*
X113989546Y-87668246D01*
X114033003Y-87524986D01*
X114044000Y-87413333D01*
X114044000Y-87413323D01*
X114047676Y-87376000D01*
X114044000Y-87338677D01*
X114044000Y-76364322D01*
X114047676Y-76326999D01*
X114044000Y-76289676D01*
X114044000Y-76289667D01*
X114033003Y-76178014D01*
X113989546Y-76034753D01*
X113918974Y-75902723D01*
X113847799Y-75815997D01*
X113824001Y-75786999D01*
X113795003Y-75763201D01*
X112784983Y-74753182D01*
X112855102Y-74782226D01*
G36*
X89560061Y-99587000D02*
G01*
X89622199Y-99587000D01*
X98935000Y-108899802D01*
X98935001Y-111818288D01*
X98891063Y-111862226D01*
X98777795Y-112031744D01*
X98699774Y-112220102D01*
X98660000Y-112420061D01*
X98660000Y-112623939D01*
X98699774Y-112823898D01*
X98777795Y-113012256D01*
X98891063Y-113181774D01*
X99035226Y-113325937D01*
X99204744Y-113439205D01*
X99393102Y-113517226D01*
X99593061Y-113557000D01*
X99796939Y-113557000D01*
X99996898Y-113517226D01*
X100185256Y-113439205D01*
X100240001Y-113402626D01*
X100240001Y-113435197D01*
X97739003Y-115936196D01*
X97709999Y-115959999D01*
X97662799Y-116017513D01*
X97615026Y-116075724D01*
X97607572Y-116089670D01*
X97544454Y-116207754D01*
X97500997Y-116351015D01*
X97490000Y-116462668D01*
X97490000Y-116462678D01*
X97486324Y-116500000D01*
X97490000Y-116537323D01*
X97490001Y-121145406D01*
X97384890Y-121113524D01*
X97155000Y-121234845D01*
X97155000Y-122428000D01*
X97175000Y-122428000D01*
X97175000Y-122682000D01*
X97155000Y-122682000D01*
X97155000Y-123875155D01*
X97384890Y-123996476D01*
X97532099Y-123951825D01*
X97794920Y-123826641D01*
X97927184Y-123727987D01*
X99263998Y-125064802D01*
X99263999Y-126819197D01*
X96280867Y-123836066D01*
X96523901Y-123951825D01*
X96671110Y-123996476D01*
X96901000Y-123875155D01*
X96901000Y-122682000D01*
X95707186Y-122682000D01*
X95586519Y-122911891D01*
X95683843Y-123186252D01*
X95761614Y-123316813D01*
X94642910Y-122198109D01*
X95586519Y-122198109D01*
X95707186Y-122428000D01*
X96901000Y-122428000D01*
X96901000Y-121234845D01*
X96671110Y-121113524D01*
X96523901Y-121158175D01*
X96261080Y-121283359D01*
X96027731Y-121457412D01*
X95832822Y-121673645D01*
X95683843Y-121923748D01*
X95586519Y-122198109D01*
X94642910Y-122198109D01*
X90535000Y-118090199D01*
X90535000Y-117898061D01*
X90495226Y-117698102D01*
X90417205Y-117509744D01*
X90303937Y-117340226D01*
X90159774Y-117196063D01*
X89990256Y-117082795D01*
X89801898Y-117004774D01*
X89601939Y-116965000D01*
X89510000Y-116965000D01*
X89510000Y-99577042D01*
X89560061Y-99587000D01*
X89560061Y-99587000D01*
G37*
X89560061Y-99587000D02*
X89622199Y-99587000D01*
X98935000Y-108899802D01*
X98935001Y-111818288D01*
X98891063Y-111862226D01*
X98777795Y-112031744D01*
X98699774Y-112220102D01*
X98660000Y-112420061D01*
X98660000Y-112623939D01*
X98699774Y-112823898D01*
X98777795Y-113012256D01*
X98891063Y-113181774D01*
X99035226Y-113325937D01*
X99204744Y-113439205D01*
X99393102Y-113517226D01*
X99593061Y-113557000D01*
X99796939Y-113557000D01*
X99996898Y-113517226D01*
X100185256Y-113439205D01*
X100240001Y-113402626D01*
X100240001Y-113435197D01*
X97739003Y-115936196D01*
X97709999Y-115959999D01*
X97662799Y-116017513D01*
X97615026Y-116075724D01*
X97607572Y-116089670D01*
X97544454Y-116207754D01*
X97500997Y-116351015D01*
X97490000Y-116462668D01*
X97490000Y-116462678D01*
X97486324Y-116500000D01*
X97490000Y-116537323D01*
X97490001Y-121145406D01*
X97384890Y-121113524D01*
X97155000Y-121234845D01*
X97155000Y-122428000D01*
X97175000Y-122428000D01*
X97175000Y-122682000D01*
X97155000Y-122682000D01*
X97155000Y-123875155D01*
X97384890Y-123996476D01*
X97532099Y-123951825D01*
X97794920Y-123826641D01*
X97927184Y-123727987D01*
X99263998Y-125064802D01*
X99263999Y-126819197D01*
X96280867Y-123836066D01*
X96523901Y-123951825D01*
X96671110Y-123996476D01*
X96901000Y-123875155D01*
X96901000Y-122682000D01*
X95707186Y-122682000D01*
X95586519Y-122911891D01*
X95683843Y-123186252D01*
X95761614Y-123316813D01*
X94642910Y-122198109D01*
X95586519Y-122198109D01*
X95707186Y-122428000D01*
X96901000Y-122428000D01*
X96901000Y-121234845D01*
X96671110Y-121113524D01*
X96523901Y-121158175D01*
X96261080Y-121283359D01*
X96027731Y-121457412D01*
X95832822Y-121673645D01*
X95683843Y-121923748D01*
X95586519Y-122198109D01*
X94642910Y-122198109D01*
X90535000Y-118090199D01*
X90535000Y-117898061D01*
X90495226Y-117698102D01*
X90417205Y-117509744D01*
X90303937Y-117340226D01*
X90159774Y-117196063D01*
X89990256Y-117082795D01*
X89801898Y-117004774D01*
X89601939Y-116965000D01*
X89510000Y-116965000D01*
X89510000Y-99577042D01*
X89560061Y-99587000D01*
M02*
